<svg xmlns="http://www.w3.org/2000/svg" width="593.093" height="549.349" viewBox="0 0 593.093 549.349"><defs><style>.a{fill:#e6edff;}.b{fill:#b0bcd8;}.c{fill:#ff9d33;}.d{fill:#e7a588;}.e{fill:#fab93e;}.f,.n,.t{fill:#fff;}.g{fill:#2a2b7c;}.h{fill:#5b55ff;}.i{fill:#7ab6f6;}.j,.n{opacity:0.3;}.k{fill:#fad583;}.l{fill:#2e3054;}.m{fill:#e4edf1;}.o{fill:#ffc682;}.p{fill:#ecb49f;}.q{fill:#f4d7b6;}.r{fill:#f3a09f;}.s{fill:#ed8f8b;}.t{opacity:0.2;}.u{fill:#ff6c6c;}</style></defs><g transform="translate(-1027 -2798)"><g transform="translate(1027 2798)"><g transform="translate(0 0)"><path class="a" d="M456.688,537.708A231.289,231.289,0,0,0,531,498.5c34.494-27.871,46.872-77.247,54.895-118.147,3.942-20.164,7.786-37.451,7.116-58.935s-.237-47.483-9.678-66.82c-12.516-25.624-45.039-42.733-70.407-52.155-11.413-4.218-24.264-4.908-32.089-15.1-6.84-8.89-8.732-22-12.083-32.543-10.545-33.114-36.209-45.69-68.85-54.993-12.556-3.587-18.173-5.913-25.427-16.951C364.835,68.2,359.415,53.3,344.908,42.218,291.827,1.24,228.89-6.369,163.016,4.433,102.9,14.288,61.289,48.112,38.346,88.7c-21.189,37.451-8.988,78.843,5.026,115.466,6.662,17.4,10.565,30.473,1.045,47.582-13.8,24.678-28.955,51.248-37.924,78.134-19.218,57.5,7.431,109.2,37.451,156.169,14.586,22.746,31.1,33.075,51.248,42.142,29.31,13.187,61.616,8.377,92.187,7.884,39.638-.611,79.257,2.424,118.915,2.227,32.148-.177,60.433,13.3,93.488,10.723A251.673,251.673,0,0,0,456.688,537.708Z" transform="translate(0.008 -0.002)"/><path class="b" d="M375.744,265.28c0,4.514-65.4,8.16-146.077,8.16S83.59,269.794,83.59,265.28s65.4-8.18,146.077-8.18S375.744,260.845,375.744,265.28Z" transform="translate(81.189 249.66)"/><path class="c" d="M249.877,58.015A45.433,45.433,0,1,1,204.443,12.68a45.433,45.433,0,0,1,45.433,45.335Z" transform="translate(154.428 12.309)"/><path class="d" d="M226.206,225.052l43.147-50.893a12.674,12.674,0,0,0,2.779-5.007l.177-.315a13.3,13.3,0,0,0-.572-7.667L259.3,130.322h.1l-2.306-5.558-4.474-11.413a12.437,12.437,0,0,0-1.242-2.385l-5.913-14.33-70.506-37-.315-.65L101.22,5.06l-6.091.512A155.972,155.972,0,0,0,41.91,33.03l89.526,52.884L131,87.037l4.139,26.945a39.934,39.934,0,0,0,8.121,18.706l24.974,31.537,35.972,59.132c.572-.414,1.124-.848,1.675-1.3,9.343-8.042,9.54-20.953,2.089-32.68A175.108,175.108,0,0,1,196.9,165.624c-3.587-10.269-4.277-27.93,8.83-34.218l18.154-1.7c6.6,2.07,10.6,7.411,13.265,12.812l8.2,20.874a9.855,9.855,0,0,0,.769,1.577l-28.127,35.953a17.168,17.168,0,0,0,6.761,23.318A7.137,7.137,0,0,0,226.206,225.052Z" transform="translate(40.714 4.909)"/><path class="e" d="M146.986,98.51c12.556,0,22.727,13.187,22.727,29.428s-10.171,29.448-22.727,29.448H135.16V98.49Z" transform="translate(131.268 95.637)"/><path class="f" d="M390.62,171.25C358.018,187.019,262.5,183.924,277.6,226.8c-44.132-2.346-57.161,10.861-52.707,40.939-.453-3.233-16.163-.276-18.39.808-3.666,1.813-8.022,7.313-10.033,10.23-6.406,9.284-6.781,19.533-7.884,29.566a193.166,193.166,0,0,1-7.884,35.736c26.787-26.137,128.12-30.3,108.626-59.9,15.769.729,44.822,3.252,56.905-6.623,15.473-12.615-4.1-24.165-18.784-29.566,60.729-8.436,53.219-27.418,43.857-48.843l10.25-9.855a44.073,44.073,0,0,0,9.067-18.035Z" transform="translate(175.491 166.293)"/><path class="g" d="M227.219,243.036c3.568-18.035,14.842-38.791,26.353-54.3,7.766-10.486,29.862-36.8,45.709-32.6,17.74,4.691,4.455,38.87-2.622,49.139-10.388,15.059-24.52,24.914-39.855,34.77-14.547,9.343-27.6,21.15-41.905,29.96Z" transform="translate(208.702 151.175)"/><path class="h" d="M232.682,235.352c6.445-12.635,19.2-25.624,31.005-34.691,7.884-6.15,29.882-20.972,40.762-14.527,12.181,7.234-4.908,29.763-12.319,35.874-10.88,8.968-23.436,13.285-36.879,17.346-12.753,3.942-24.993,9.855-37.451,13.364Z" transform="translate(211.518 179.202)"/><path class="i" d="M231.74,227.478c8.476-9.855,22.648-18.666,35.125-24.185,8.436-3.745,31.183-12.2,39.422-4.1,9.284,9.087-10.821,25.447-18.745,29.271-11.629,5.637-23.752,6.761-36.6,7.47-12.2.67-24.4,3.351-36.209,3.8Z" transform="translate(208.537 190.13)"/><path class="i" d="M187.608,339.394c-5.6-20.3-21.13-32.976-5.913-54.7,6.051-8.673,16.912-12.635,23.791-19.967,8.594-9.166,4.967-12.024,6.9-23.16,4.159-24.008,24.4-24.934,41.136-40.407,11.688-10.782,14.33-25.742,28.778-36.7s37.372-19.119,46.577-34.021c-6.643,28.522,1.459,76.182-33.686,94.08,13.482,12.043,10.821,29.566-1.281,41.393-5.775,5.6-19.277,8.081-23.653,14.349-5.913,8.555,1.143,10.388-.631,18.607-5.6,26.058-112.017,42.753-95.775,73.4Z" transform="translate(167.203 126.663)"/><g class="j" transform="translate(345.35 257.103)"><path class="f" d="M292.78,183.127a99.4,99.4,0,0,0,24.54-4.928l.355-2.4a91.733,91.733,0,0,1-23.653,5.145c1.971-3.351,3.725-6.662,5.539-9.954q2.4-4.376,4.829-8.732c1.518-2.72,3.252-5.44,4.908-8.062,1.419-2.227,2.858-4.533,4.179-6.78.808-1.419,1.833-3.055,2.917-4.77a112.334,112.334,0,0,0,6.229-10.841c.118-.453.2-.907.3-1.36a37.766,37.766,0,0,1-7.057,8.3l-1.853,2.976c-1.084,1.754-2.109,3.371-2.957,4.829-1.281,2.227-2.72,4.514-4.12,6.721-1.675,2.641-3.41,5.381-4.967,8.16s-3.233,5.795-4.829,8.732c-3.942,7.273-8.16,14.763-12.694,22.076-7.194-6.071-7.017-18.922-5.421-29.822-.966.67-1.971,1.36-2.819,1.971h-.118c-1.34,11.117-.867,23.653,7.135,29.566-.512.808-1.005,1.616-1.537,2.424-4.573,7.017-9.54,13.916-14.685,20.677a59.664,59.664,0,0,1-9.028-29.783c-.808,1.281-1.616,2.562-2.464,3.824a63.075,63.075,0,0,0,9.855,28.088c-4.455,5.795-8.988,11.511-13.482,17.168h-.236v.138c-.138.177-.3.355-.414.532l-3.784,4.75a59.681,59.681,0,0,0-4.474-7.884,57.258,57.258,0,0,1-4.4-7.746,41.176,41.176,0,0,1-2.819-16.577c-.867.572-1.735,1.084-2.6,1.616a40.448,40.448,0,0,0,2.917,15.631,59.745,59.745,0,0,0,4.533,8.022,48.287,48.287,0,0,1,4.809,8.752l.769-.177c-5.716,7.194-11.452,14.566-16.872,22.017-.276.394-.552.788-.848,1.163a41.038,41.038,0,0,0-6.051-10.506,48.6,48.6,0,0,1-3.785-5.913c-3.311-7.076-6.485-14.823-7.254-22.194a29.936,29.936,0,0,0-2.129,3.647,84.262,84.262,0,0,0,6.9,19.257,47.759,47.759,0,0,0,3.942,6.17c2.957,4.179,6.6,9.323,6.091,12.674-8.614,11.827-17.74,24.323-26.984,36.406a195.131,195.131,0,0,0-17.188,28.5l-1.183,2.247c.237.729.453,1.478.67,2.247l-3.193,7.687c2.129-3.784,4.159-7.628,6.15-11.393a193.4,193.4,0,0,1,17.01-28.226c9.284-12.142,18.449-24.658,27.1-36.583h0a.884.884,0,0,0,0-.217c.966-1.34,1.971-2.661,2.9-3.942q2.957-3.962,5.913-7.884a104.839,104.839,0,0,1,17.208,1.1c4.533.473,9.225.966,13.5,1.005a91.478,91.478,0,0,0,26.945-4.356c.414-.828.788-1.675,1.143-2.543-8.771,2.523-17.089,4.869-28.068,4.809a129.924,129.924,0,0,1-13.167-.966,124.606,124.606,0,0,0-15.769-.966c4.731-6.189,9.56-12.28,14.33-18.232a.2.2,0,0,1,0-.1,36.367,36.367,0,0,1,9.56-.118,57.154,57.154,0,0,0,7.884.158c6.367-.512,16.833-1.34,24.8-5.007-.315-.65-.65-1.3-1.025-1.971-6.386,3.035-15.177,4.179-24.047,4.869a53.643,53.643,0,0,1-7.47-.158,56.359,56.359,0,0,0-7.884-.177c7.135-8.968,14.389-18.134,21.15-27.6.907.217,1.971.394,2.878.532a80.676,80.676,0,0,0,28.3-1.754c.512-.848,1.005-1.7,1.478-2.582a75.157,75.157,0,0,1-31.36,1.971c2.089-2.957,4.139-5.913,6.091-8.929C287.143,192.825,290.06,187.976,292.78,183.127Z" transform="translate(-172.19 -130.44)"/><path class="f" d="M176.777,246.29c.848-1.34,1.675-2.72,2.484-4.1a42.932,42.932,0,0,0-4.06,3.489Z" transform="translate(-175.2 -21.922)"/></g><path class="k" d="M108.693,308.583c-6.386-3.942-13.226-7.648-15.769-15.453-3.646-10.8,3.311-11.964,7.884-21.209-16.34-6.209-30.69-6.859-42.043-23.278s-1.971-28.5,16.143-26.688c2.484.256-14.527-11.826-17.424-13.9a48,48,0,0,1-14.842-18.982c-5.913-12.871-4.691-30.335,12.477-32.267C70,155.135,77.648,171.022,84.054,182.139a86.549,86.549,0,0,1,7.884,17.05c7.392-6.7,9.7-18.449,21.091-10.742,7.884,5.361,10.88,20.006,7.687,28.541,11.649-1.34,17.9-4.612,27.871,2.424,6.445,4.553,13.108,12.733,17.621,20.026,10.309,16.6,29.29,79.119,33.075,99.678C199.284,339.116,122.037,316.961,108.693,308.583Z" transform="translate(38.307 152.152)"/><path class="f" d="M196.28,326.718h-.138A163.814,163.814,0,0,1,181,316.075a19.472,19.472,0,0,0,.887-3.509c.769-3.706,1.971-7.332,2.957-11,.729-2.759,1.321-5.539,1.853-8.318-.512-1.636-1.025-3.292-1.557-4.928-.394,2.5-.867,5.026-1.4,7.53-.848,3.8-1.971,7.549-2.937,11.294a71.19,71.19,0,0,1-1.715,7.431c-4.1-3.213-8.141-6.485-12.181-9.619s-8.1-6.485-12.043-9.855a28.581,28.581,0,0,0,2.819-7.727,41.274,41.274,0,0,0,2.306-8.791c.217-4.612,1.675-9.3,2.326-13.8a78.57,78.57,0,0,0,.65-11.393c0-6.445-.138-12.871-.552-19.3-.67-.907-1.34-1.794-1.971-2.681.434,6.051.493,12.122.512,18.193a121.776,121.776,0,0,1-2.641,25.348c-1.242,6.012-1.971,13.246-5.145,18.725q-7.194-6.209-14.054-12.812c1.813-5.657,3.942-11.176,5.657-16.932,2.168-7.47,2.326-15.966,2.622-23.653a146.922,146.922,0,0,0-.729-22.037,21.463,21.463,0,0,0-1.971-1.084,141.919,141.919,0,0,1,.67,21.248,131.826,131.826,0,0,1-2.681,25.033,144.373,144.373,0,0,1-5.342,15.769q-7.076-6.859-13.8-13.955c2.326-3.942,2.661-9.363,3.193-13.64a251.334,251.334,0,0,0,1.715-26.688c0-3.055,0-6.091-.158-9.146l-1.971.315c.118,2.937.2,5.913.158,8.83-.118,7.352-.65,14.7-1.478,22.017-.572,5.007-.414,11.925-2.957,16.754-.828-.887-1.656-1.735-2.464-2.622-3.784-3.942-7.549-8.1-11.215-12.26a46.281,46.281,0,0,0,2.385-16.163c0-7.569,1.34-15.1,1.4-22.667a135.75,135.75,0,0,0-1.557-22.9,11.926,11.926,0,0,0-2.523-.966,137.818,137.818,0,0,1,2.227,23.87c0,6.426-.769,12.832-1.3,19.218a95.956,95.956,0,0,1-2.188,17.74c-2.562-2.917-5.085-5.913-7.49-8.929-3.627-4.612-6.84-9.56-10.328-14.271a68.523,68.523,0,0,0-4.593-5.5c.158,0,.769-16.833.848-24.914,0-2.622.177-5.44.315-8.279-.572-1.045-1.143-1.971-1.7-3.035-.3-.493-.572-1.005-.867-1.518.118,3.745.394,7.53.375,11.077,0,8.456-.769,17.208.118,25.624a47.012,47.012,0,0,1-5.736-7.49q-2.957-5.145-5.913-10.328c2.424-8.259,1.7-17.957,1.735-26.491v-6.918c-.631-.788-1.3-1.557-1.971-2.286v10.979a164.568,164.568,0,0,1-.887,22.687,127.555,127.555,0,0,0-8.377-13.226,1.834,1.834,0,0,1-.2-.414c.217-6.13.237-12.28.355-18.41,0-2.464.3-5.105.394-7.727a20.086,20.086,0,0,0-2.424-.69c0,2.858.158,5.736.1,8.417-.1,5.342-.276,10.683-.2,16.045-2.346-3.43-4.553-6.958-6.879-10.407a94.609,94.609,0,0,1-7.037-11.531c-.375.237-.71.512-1.045.769,1.1,2.385,2.484,4.671,3.745,6.84,3,5.145,6.406,10.151,9.855,15.059.769,1.124,1.518,2.267,2.267,3.41-1.971-.769-18.016-5.4-21.583-5.519a3.45,3.45,0,0,0,0,.631c4.632,1.6,22.727,7.234,22.963,7.056,3.449,5.322,6.7,10.683,9.855,16.2A71.663,71.663,0,0,0,62.424,202.3c-4.415-.315-8.673-1.557-13.068-1.971l.552.67c3.548.67,7.037,1.675,10.6,2.208,2.346.355,4.731.453,7.076.808a21.679,21.679,0,0,0,5.46.808c.808,1.459,1.636,2.917,2.444,4.415a65.618,65.618,0,0,0,8.614,11.2c4.218,4.947,7.727,10.545,11.511,15.769,1.163,1.6,2.385,3.154,3.607,4.691a22.826,22.826,0,0,1-8.2-.729c-4.514-.986-9.087-1.735-13.561-2.878a83.064,83.064,0,0,1-22.273-8.456c-.158.3-.315.591-.453.907,7.608,5.085,17.483,8,25.821,9.993,1.971.512,16.794,5.026,19.711,2.5,1.971,2.326,3.942,4.593,5.913,6.84a.749.749,0,0,0,.394.453l5.795,6.426c-10.368.138-20.913.276-31.123-1.813a118.264,118.264,0,0,1-24.2-7.884q.611,1.045,1.36,2.129l.65.848c16.774,8.3,36.642,9.146,54.954,9.008a.847.847,0,0,0,.335,0c.848.946,1.7,1.971,2.5,2.858,1.281,1.5,2.641,2.9,3.942,4.3a1.143,1.143,0,0,0,1.163,1.163c1.971,1.971,3.942,3.785,5.775,5.736,3.272,3.41,6.386,6.879,9.737,10.171a81.529,81.529,0,0,0-8.752,1.971A172.315,172.315,0,0,1,110.774,287a114.31,114.31,0,0,1-17.424-.158,11.558,11.558,0,0,1-1.971-.177,12.231,12.231,0,0,0,0,1.478l1.715.3a99.7,99.7,0,0,0,16.2.729,101.748,101.748,0,0,0,15.256-1.676,62.072,62.072,0,0,0,7.589-1.459,17.09,17.09,0,0,1,6.682-1.636.906.906,0,0,0,.591-.217c.118,0,.217.217.315.315,3.942,3.568,7.884,7.1,11.826,10.545-4.317.71-8.3,3.449-12.319,5.066a60.889,60.889,0,0,1-19.435,4.139c-5.756.355-11.61.414-17.385.374,1.1.729,2.208,1.459,3.331,2.148,4.08,0,8.18-.158,12.181-.217a65.043,65.043,0,0,0,16.734-2.385,66.192,66.192,0,0,0,7.175-2.582c3.233-1.34,6.781-3.844,10.269-4.238a1.261,1.261,0,0,0,1.064-.907c4.317,3.666,8.712,7.254,13.127,10.7-1.813,1.459-3.509,3.114-5.381,4.534a72.066,72.066,0,0,1-11.373,6.485c-2.07,1.045-4.553,2.306-7.175,3.41l2.779.907,1.794-.69a63.724,63.724,0,0,0,15.079-8.16c1.833-1.36,4.77-2.9,6.091-5.066,3.331,2.6,6.643,5.243,9.993,7.884a1.183,1.183,0,0,0,1.774,1.38c4.474,3.449,8.988,6.82,13.7,9.855l3.509,2.208C196.812,328.827,196.556,327.8,196.28,326.718Z" transform="translate(38.551 152.348)"/><path class="l" d="M160.1,301.363C99.958,276.212,78.907,140.286,78.71,138.926l1.794-.276c.217,1.36,21.091,136.281,80.282,161.037Z" transform="translate(76.45 134.636)"/><path class="l" d="M108.74,228.369c0,.611,1.971-32.838,17.089-32.759s-17.05,33.37-17.05,33.37Z" transform="translate(105.612 189.948)"/><path class="l" d="M101.7,221.252s8.377-39.146,20.7-33.508S101.7,221.252,101.7,221.252Z" transform="translate(98.775 181.77)"/><path class="l" d="M96.16,211.951s11.826-42.457,27.142-34.514C134.911,183.45,96.16,211.951,96.16,211.951Z" transform="translate(93.396 171.34)"/><path class="l" d="M88.72,192.978s7.707-40.939,20.125-32.858S88.72,192.978,88.72,192.978Z" transform="translate(86.171 154.459)"/><path class="l" d="M90.85,197.874s17.483-38.318,27.28-27.221C124.654,178.124,90.85,197.874,90.85,197.874Z" transform="translate(88.239 163.755)"/><path class="l" d="M84.91,181.827s9.382-44.645,21.859-35.361S84.91,181.827,84.91,181.827Z" transform="translate(82.471 140.992)"/><path class="l" d="M82,164.485s3.528-38.377,11.156-28.3S82,164.485,82,164.485Z" transform="translate(79.645 130.601)"/><path class="l" d="M85.911,161.18S66,129.642,77.475,128.085,85.911,161.18,85.911,161.18Z" transform="translate(71.792 124.327)"/><path class="l" d="M96.319,158.948S60.327,154.119,68.448,142.9,96.319,158.948,96.319,158.948Z" transform="translate(65.326 136.138)"/><path class="l" d="M103.394,171.747s-42.043-4.632-39.52-19.3S103.394,171.747,103.394,171.747Z" transform="translate(61.937 144.469)"/><path class="l" d="M112.119,182.329s-55.387-4.179-49.277-19.553S112.119,182.329,112.119,182.329Z" transform="translate(60.584 154.267)"/><path class="l" d="M120.258,190.15s-61.1,3.311-59.349-13.8S120.258,190.15,120.258,190.15Z" transform="translate(59.127 166.236)"/><path class="l" d="M127.019,199.335s-56.866-12-58.738,3.942S127.019,199.335,127.019,199.335Z" transform="translate(66.281 189.357)"/><path class="l" d="M117.909,191.687s-48.094-17.878-51.485-2.326S117.909,191.687,117.909,191.687Z" transform="translate(64.373 177.708)"/><path class="l" d="M123.138,203.275s-49.927-4.356-44.527,11.255,45.847-8.259,45.847-8.259Z" transform="translate(75.958 196.849)"/><path class="i" d="M104.7,115.742A21.012,21.012,0,1,1,83.692,94.73,21.012,21.012,0,0,1,104.7,115.742Z" transform="translate(60.884 91.986)"/><path class="h" d="M287.751,127.269c0,28.995-24.4,52.51-54.5,52.51s-54.481-23.515-54.481-52.51S203.152,74.74,233.251,74.74,287.751,98.255,287.751,127.269Z" transform="translate(173.617 72.574)"/><path class="f" d="M198.691,116.5c-4.612,0-7.884-1.735-9.225-4.711a8.456,8.456,0,0,1,1.971-8.515,22.726,22.726,0,0,1,8.949-6.426,23.791,23.791,0,0,1,9.067-1.971c4.612,0,7.884,1.715,9.225,4.711a8.436,8.436,0,0,1-1.971,8.515,22.451,22.451,0,0,1-8.949,6.426,23.988,23.988,0,0,1-9.067,1.971Zm10.723-17.74a19.829,19.829,0,0,0-7.549,1.656,18.805,18.805,0,0,0-7.372,5.223,4.849,4.849,0,0,0-1.38,4.553c.591,1.4,2.72,2.286,5.578,2.286a19.711,19.711,0,0,0,7.53-1.656,18.725,18.725,0,0,0,7.392-5.223,4.868,4.868,0,0,0,1.38-4.553c-.591-1.321-2.72-2.208-5.578-2.208Z" transform="translate(183.597 92.132)"/><path class="f" d="M201.181,120.055a17.569,17.569,0,0,1-1.794,0,8.456,8.456,0,0,1-7.431-4.612L189,108.584l5.105,1.813,1.459,3.469a4.849,4.849,0,0,0,4.2,2.208,18.962,18.962,0,0,0,8.949-1.577c6.445-2.681,9.855-7.313,8.771-9.855l-1.439-3.449,2.641-3.942,2.444,5.913c1.971,4.967-2.72,11.531-10.9,14.941a23.652,23.652,0,0,1-9.047,1.951Z" transform="translate(183.551 94.433)"/><path class="f" d="M222.844,126.757a24.4,24.4,0,0,1-8.633-1.735c-8.239-3.213-13.187-9.639-11.255-14.665,1.2-3.095,4.79-4.928,9.579-4.928a24.284,24.284,0,0,1,8.633,1.715c8.259,3.213,13.206,9.639,11.255,14.665C231.221,124.9,227.633,126.757,222.844,126.757Zm-10.309-17.385c-3.055,0-5.322.926-5.913,2.424-.966,2.484,2.484,7.017,9.008,9.56a20.362,20.362,0,0,0,7.194,1.459c3.055,0,5.322-.946,5.913-2.444.966-2.484-2.484-7.017-9.008-9.56A20.243,20.243,0,0,0,212.535,109.372Z" transform="translate(196.697 102.376)"/><path class="f" d="M221.6,131.019a23.87,23.87,0,0,1-8.574-1.715,22.668,22.668,0,0,1-9.106-6.189,8.417,8.417,0,0,1-2.148-8.476l3.055-7.53,1.971,5.46-1.36,3.509a4.908,4.908,0,0,0,1.5,4.514,19.218,19.218,0,0,0,7.51,5.046c6.524,2.523,12.142,1.518,13.108-.986l1.36-3.489,4.987-2.484-2.681,7.411C229.979,129.285,226.234,131.019,221.6,131.019Z" transform="translate(195.594 104.008)"/><path class="f" d="M223.854,106.147a25.269,25.269,0,0,1-5.5-.611,22.609,22.609,0,0,1-9.954-4.691,8.417,8.417,0,0,1-3.449-8.042c.887-3.942,5.578-6.6,11.984-6.6a25.27,25.27,0,0,1,5.5.611,22.609,22.609,0,0,1,9.954,4.691c2.819,2.464,3.942,5.3,3.449,8.022C234.951,103.545,230.26,106.147,223.854,106.147Zm-6.9-16.005c-4.336,0-7.667,1.439-8.121,3.509A4.79,4.79,0,0,0,211,97.869a18.844,18.844,0,0,0,8.219,3.824,22.412,22.412,0,0,0,4.652.512c4.336,0,7.687-1.439,8.121-3.509a4.79,4.79,0,0,0-2.168-4.218,18.884,18.884,0,0,0-8.2-3.824,22.59,22.59,0,0,0-4.671-.512Z" transform="translate(198.959 83.703)"/><path class="f" d="M223.145,109.773a25.407,25.407,0,0,1-5.5-.611,22.49,22.49,0,0,1-9.915-4.711,8.417,8.417,0,0,1-3.43-8.022l1.971-7.569,2.6,4.75-.788,3.627a4.849,4.849,0,0,0,2.168,4.258A20.677,20.677,0,0,0,227.5,105.24c2.109-.611,3.469-1.7,3.745-2.917l.788-3.666,4.415-1.715-1.36,6.209a8.4,8.4,0,0,1-6.465,5.913,19.415,19.415,0,0,1-5.48.71Z" transform="translate(198.328 86.286)"/><path class="f" d="M198.213,101.323a1.6,1.6,0,0,1-1.6,1.6h0a1.6,1.6,0,0,1-1.6-1.6V83.346a1.616,1.616,0,0,1,1.6-1.616h0a1.616,1.616,0,0,1,1.6,1.616Z" transform="translate(189.397 79.362)"/><path class="f" d="M202.713,96.953a1.6,1.6,0,0,1-1.6,1.6h0a1.6,1.6,0,0,1-1.6-1.6v-18a1.6,1.6,0,0,1,1.6-1.6h0a1.6,1.6,0,0,1,1.6,1.6Z" transform="translate(193.766 75.118)"/><path class="f" d="M226.713,109.7a1.6,1.6,0,0,1-1.6,1.6h0a1.6,1.6,0,0,1-1.6-1.6v-18a1.6,1.6,0,0,1,1.6-1.6h0a1.6,1.6,0,0,1,1.6,1.6Z" transform="translate(217.072 87.499)"/><path class="f" d="M221.027,114.151a1.813,1.813,0,0,1-1.6,1.971h0a1.813,1.813,0,0,1-1.6-1.971v-9.56a1.813,1.813,0,0,1,1.6-1.971h0a1.813,1.813,0,0,1,1.6,1.971Z" transform="translate(211.543 99.648)"/><path class="f" d="M212.47,88.466a1.34,1.34,0,0,1-1.36,1.34h0a1.321,1.321,0,0,1-1.34-1.34V79.34a1.34,1.34,0,0,1,1.34-1.36h0a1.36,1.36,0,0,1,1.36,1.36Z" transform="translate(203.72 75.72)"/><path class="f" d="M192.34,97.8c0,.512-.611.926-1.36.926h0c-.749,0-1.36-.414-1.36-.926V91.536c0-.512.611-.926,1.36-.926h0c.749,0,1.36.414,1.36.926Z" transform="translate(184.153 87.985)"/><path class="f" d="M216.86,108.194c0,.512-.611.926-1.36.926h0c-.749,0-1.36-.414-1.36-.926v-6.268c0-.532.611-.946,1.36-.946h0c.749,0,1.36.414,1.36.946Z" transform="translate(207.964 98.055)"/><path class="m" d="M77.223,126.675l-.3-3.449a10.86,10.86,0,0,1-5.618-1.064l.65-2.365a9.855,9.855,0,0,0,5.3,1.064c2.543-.217,4.139-1.754,3.942-3.706s-1.675-2.917-4.415-3.745c-3.765-1.064-6.169-2.464-6.426-5.44a5.677,5.677,0,0,1,4.928-5.913l-.315-3.469L77.2,98.41l.3,3.331a9.855,9.855,0,0,1,4.75.808l-.69,2.346a8.83,8.83,0,0,0-4.612-.808c-2.76.217-3.666,1.971-3.548,3.252.158,1.774,1.557,2.562,4.79,3.548,3.824,1.124,5.913,2.76,6.11,5.913a6.032,6.032,0,0,1-5.145,6.268l.315,3.548Z" transform="translate(68.338 95.559)"/><path class="g" d="M95.134,133.5a3.469,3.469,0,0,1-2.72-1.321l-5.578-6.9-1.675,1.34a2.937,2.937,0,0,1-1.853.631,2.523,2.523,0,0,1-2.444-2.346l-2.188-15.394a2.74,2.74,0,0,1,.552-2.247,2.622,2.622,0,0,1,3-.572l14.349,5.677a2.453,2.453,0,0,1,.67,4.435l-1.7,1.34,5.5,7.135a3.489,3.489,0,0,1-.572,4.888l-3.252,2.6A3.568,3.568,0,0,1,95.134,133.5Zm-8.042-11.826a1.459,1.459,0,0,1,1.143.552l6.465,8.141a.552.552,0,0,0,.434.2.493.493,0,0,0,.335-.118l3.272-2.582a.591.591,0,0,0,.1-.788l-6.465-8.121a1.482,1.482,0,0,1,.237-2.05l2.424-1.971-13.384-5.3,2.109,14.251,2.424-1.971a1.459,1.459,0,0,1,.887-.236Z" transform="translate(76.366 103.365)"/><circle class="f" cx="11.826" cy="11.826" r="11.826" transform="translate(256.651 34.647)"/><path class="f" d="M121.882,150.756a11.156,11.156,0,1,1-3.268-7.908A11.176,11.176,0,0,1,121.882,150.756Z" transform="translate(96.668 135.539)"/><path class="n" d="M76.749,75.175a26.922,26.922,0,1,1,0-.007Z" transform="translate(22.215 46.85)"/><ellipse class="o" cx="24.639" cy="30.315" rx="24.639" ry="30.315" transform="translate(243.721 193.358)"/><path class="d" d="M106,85.86l35.972,59.132c.572-.414,1.124-.848,1.675-1.3,9.343-8.042,9.54-20.953,2.089-32.681a175.109,175.109,0,0,1-11.077-23.752Z" transform="translate(102.951 83.372)"/><g class="j" transform="translate(244.43 194.699)"><path class="f" d="M124,135.166a35.085,35.085,0,0,0,1.813,6.031l32.878-40.624a21.387,21.387,0,0,0-3.627-1.794Z" transform="translate(-124 -98.78)"/><path class="f" d="M126.14,143.121a25.387,25.387,0,0,0,12.713,10.92l30.591-37.786a31.537,31.537,0,0,0-7.884-14.625Z" transform="translate(-121.922 -96.012)"/></g><path class="p" d="M249.656,161.17l-12.438-30.847h.1l-2.306-5.558-4.474-11.413a12.437,12.437,0,0,0-1.242-2.385l-5.913-14.33-70.506-37-.315-.65L79.137,5.06l-6.091.512c-2.779.769-5.6,1.675-8.4,2.661,22.51,12.477,40.86,32.188,62.582,45.985,22.746,14.31,47.168,25.624,71.609,37.845,16.537,8.219,26.294,16.7,33.942,33.331C238.46,137.753,241,158.587,249.2,171.38a14.094,14.094,0,0,0,.848-2.129l.177-.315A13.3,13.3,0,0,0,249.656,161.17Z" transform="translate(62.797 4.909)"/><path class="p" d="M136.152,127.141a175.108,175.108,0,0,1-11.077-23.752c-3.587-10.23-4.277-27.792,8.692-34.139-16.025,0-21.307,29.29-15.769,42.26,6.307,14.783,18.311,25.466,21.327,41.55C143.031,145.491,141.75,135.971,136.152,127.141Z" transform="translate(112.536 67.243)"/><path class="q" d="M157.252,152.972a154.589,154.589,0,0,0-11.491-24.2c-6.84-11.905-14.507-22.943-19.179-36.012a60.118,60.118,0,0,1-3.311-18.883c-.394-9.481,1.5-12.457-7.451-17.089-10.269-5.322-21.879-8.752-32.089-14.31-6.426-3.509-12.2-7.352-18.922-10.289-.887-.394-1.853-.749-2.858-1.1l50.026,29.566-.434,1.124,4.139,26.945A39.934,39.934,0,0,0,123.8,107.42l24.974,31.537Z" transform="translate(60.175 30.177)"/><path class="r" d="M217.8,163.9c33.508,3.942,40.683,11.137,49.06,16.261,4.671-14.31,13.62-32.641,60.926-35.913l-23.653,65.144s23.3,13.581,31.439,28.522,30.276,9.5,30.276,9.5L364.686,299a324.106,324.106,0,0,1-89.645,41.038v23.889c0,7.254-3.942,13.147-8.752,13.147H239.582c-4.829,0-8.732-5.913-8.732-13.147V347.882a176.24,176.24,0,0,1-33.311-.631,125.718,125.718,0,0,1-28.482-4.415v21.091c0,7.254-3.942,13.147-8.712,13.147H133.577c-4.829,0-8.732-5.913-8.732-13.147V319.479c-19.179-16.636-31.005-39.422-31.005-64.435,0-37.451,26.275-69.6,64.06-84.126a131.274,131.274,0,0,1,59.9-7.017Z" transform="translate(91.143 140.074)"/><path class="r" d="M109.4,210.922c-7.746,0-17.464-3.41-20.105-12.891a11.314,11.314,0,0,1-7.608-8.535v-.512c-.512-2.779-1.36-7.431,1.478-9.855a3.193,3.193,0,0,1,1.971-.788,3.114,3.114,0,0,1,2.8,1.774,3.193,3.193,0,0,1-.434,3.39c-.315.375-.512,1.419,0,3.154a11.709,11.709,0,0,0,1.38,3.252A10.565,10.565,0,0,1,93.34,182.7a9.678,9.678,0,0,1,5.3-1.833,6.84,6.84,0,0,1,5.066,2.306c2.957,3.173,2.208,9.225-.473,11.945a12.694,12.694,0,0,1-6.761,3.331,10.486,10.486,0,0,0,2.7,3.193c3.193,2.444,6.623,2.661,10.6,2.937a50.948,50.948,0,0,1,5.519.572,2.543,2.543,0,0,1,2.109,2.5,2.6,2.6,0,0,1-1.971,2.641,28.144,28.144,0,0,1-5.913.631ZM97.578,187.466a1.971,1.971,0,0,0-1.124.729,6.721,6.721,0,0,0-1.636,4.06,5.657,5.657,0,0,0,2.8-.71,2.464,2.464,0,0,0,1.084-2.858,1.3,1.3,0,0,0-1.045-1.163Z" transform="translate(78.831 173.178)"/><path class="l" d="M222.21,203.858c.907.512-1.163-1.656-1.735-2.4-14.8-19.533-20.775.591-20.775.591S206.461,194.85,222.21,203.858Z" transform="translate(193.941 187.338)"/><path class="s" d="M234.911,315.488h26.767c4.829,0,8.752-5.913,8.752-13.147V278.451a324.1,324.1,0,0,0,89.645-41.038l.67-29.744c-102.871,105.118-249.578,30.039-262.095,23.3a93.627,93.627,0,0,0,21.583,26.925v44.448c0,7.254,3.942,13.147,8.732,13.147h26.787c4.809,0,8.712-5.913,8.712-13.147V281.25a125.718,125.718,0,0,0,28.4,4.455,176.234,176.234,0,0,0,33.311.631V302.38C226.179,309.595,230.082,315.488,234.911,315.488Z" transform="translate(95.813 201.66)"/><path class="l" d="M236.925,230.656c-25.19-.3-29.665-5.756-29.665-5.756s1.183,10.072,14.034,14.96c6.524-3.252,12.26-6.386,17.07-9.126C237.891,230.695,237.418,230.656,236.925,230.656Z" transform="translate(201.283 218.391)"/><ellipse class="t" cx="56.511" cy="18.39" rx="56.511" ry="18.39" transform="translate(237.591 307.977)"/><path class="l" d="M134.2,161.584s30.552-8.377,48.784,0A173.453,173.453,0,0,1,134.2,161.584Z" transform="translate(130.335 153.291)"/><path class="f" d="M30.641,14.954,10.492,31.549V49.459a1.749,1.749,0,0,0,1.749,1.749l12.247-.032a1.749,1.749,0,0,0,1.74-1.749V38.968a1.749,1.749,0,0,1,1.749-1.749H34.97a1.749,1.749,0,0,1,1.749,1.749V49.42a1.749,1.749,0,0,0,1.749,1.754l12.242.034a1.749,1.749,0,0,0,1.749-1.749V31.537L32.313,14.954A1.332,1.332,0,0,0,30.641,14.954ZM62.468,26.233,53.332,18.7V3.565A1.311,1.311,0,0,0,52.02,2.254H45.9a1.311,1.311,0,0,0-1.311,1.311V11.5L34.8,3.45a5.246,5.246,0,0,0-6.666,0L.475,26.233A1.311,1.311,0,0,0,.3,28.08l2.787,3.388a1.311,1.311,0,0,0,1.848.178L30.641,10.473a1.332,1.332,0,0,1,1.672,0L58.02,31.646a1.311,1.311,0,0,0,1.847-.175l2.787-3.388a1.311,1.311,0,0,0-.186-1.85Z" transform="translate(327.411 43.765)"/></g></g><g transform="translate(1098.298 2891.764)"><path class="g" d="M135.84,10.225,147.44,42.2l24.478-23.613a34.06,34.06,0,0,0-36.079-8.366Z" transform="translate(-108.83 -8.194)"/><path class="c" d="M142.24,40.4l19.636,27.837a34.06,34.06,0,0,0,4.451-51.388Z" transform="translate(-102.043 0.985)"/><path class="u" d="M144.941,13.87a33.19,33.19,0,0,0-3.049,1.319,34.018,34.018,0,1,0,29.733,61.2,33.48,33.48,0,0,0,5.007-2.988L156.994,45.539Z" transform="translate(-122.731 -2.175)"/></g></g></svg>