<svg xmlns="http://www.w3.org/2000/svg" xmlns:xlink="http://www.w3.org/1999/xlink" width="177.668" height="140.486" viewBox="0 0 177.668 140.486"><defs><style>.a{fill:url(#a);}.b{fill:#590bb2;opacity:0.1;}.c{fill:#b7b7ff;}.d{fill:#9b98eb;}.e{fill:#5b55ff;}.f{fill:#f5f4f9;}.g{fill:#e8e6ed;}.h{fill:#ffd5b8;}.i{fill:#ffbe92;}.j{fill:#5cc6ff;}.k{fill:#ffa052;}.l{fill:#fff4c5;}.m{fill:#ddd9e4;}</style><linearGradient id="a" x1="0.5" x2="0.5" y2="1" gradientUnits="objectBoundingBox"><stop offset="0.007" stop-color="#9494ff"/><stop offset="0.992" stop-color="#ffe8dc" stop-opacity="0"/></linearGradient></defs><path class="a" d="M175.457,143.023a40.871,40.871,0,0,0-24.239-25.055,14.84,14.84,0,0,1-9.573-13.682q0-.2-.007-.4A40.962,40.962,0,0,0,67.731,80.531,33.424,33.424,0,0,1,40.983,94.394q-.467,0-.937.01C18.561,94.874.291,113.308,0,134.8a40.967,40.967,0,0,0,79.437,14.629A8.383,8.383,0,0,1,89.6,144.3l.158.044a8.361,8.361,0,0,1,6.09,8.717,40.966,40.966,0,1,0,79.607-10.038Z" transform="translate(0 -60.315)"/><path class="b" d="M193.274,90.088a27.626,27.626,0,0,0-53.281-10.247H56.879A5.879,5.879,0,0,0,51,85.72v76.635a5.879,5.879,0,0,0,5.879,5.879H163.913a5.879,5.879,0,0,0,5.879-5.879V117.4a27.631,27.631,0,0,0,23.482-27.315Z" transform="translate(-33.303 -59.378)"/><path class="c" d="M206.615,400.819H171.344l4.6-18.223,2.456-9.734h21.164l2.456,9.734Z" transform="translate(-111.886 -262.066)"/><path class="d" d="M210.668,382.6H184.591l2.456-9.734h21.164Z" transform="translate(-120.536 -262.066)"/><path class="e" d="M203.349,410.159H168.076A1.735,1.735,0,0,1,166.394,408l5.551-22a1.735,1.735,0,1,1,3.364.849l-5.006,19.84h30.819l-5.051-20.019a1.735,1.735,0,1,1,3.364-.849l5.6,22.179a1.734,1.734,0,0,1-1.682,2.159Z" transform="translate(-108.62 -269.673)"/><path class="f" d="M163.913,221.937H56.879A5.879,5.879,0,0,1,51,216.059V139.423a5.879,5.879,0,0,1,5.879-5.879H163.913a5.879,5.879,0,0,1,5.879,5.879v76.635A5.879,5.879,0,0,1,163.913,221.937Z" transform="translate(-33.303 -105.794)"/><path class="g" d="M333.542,139.422v36.42a27.958,27.958,0,0,1-4.142.309,27.629,27.629,0,0,1-23.216-42.606h21.481a5.878,5.878,0,0,1,5.878,5.878Z" transform="translate(-197.055 -105.794)"/><path class="h" d="M269.133,147.679h28.452V215.5H269.133Z" transform="translate(-175.742 -115.024)"/><path class="i" d="M318.9,147.679v35.632a27.653,27.653,0,0,1-15.23-35.632Z" transform="translate(-197.055 -115.024)"/><path class="c" d="M293.386,288.276H255.408V260.2a1.065,1.065,0,0,1,1.065-1.065h35.849a1.065,1.065,0,0,1,1.065,1.065v28.078Z" transform="translate(-166.779 -187.804)"/><path class="j" d="M293.386,267.648H255.408V260.2a1.065,1.065,0,0,1,1.065-1.065h35.849a1.065,1.065,0,0,1,1.065,1.065v7.448Z" transform="translate(-166.779 -187.804)"/><path class="c" d="M169.791,148.524v-9.1a5.879,5.879,0,0,0-5.879-5.879H56.879A5.879,5.879,0,0,0,51,139.423v9.1Z" transform="translate(-33.303 -105.794)"/><path class="e" d="M134.755,175.183H47.735a1.735,1.735,0,1,1,0-3.47h87.02a1.735,1.735,0,1,1,0,3.47Z" transform="translate(-30.038 -130.718)"/><path class="c" d="M51,343.116v9.791a5.879,5.879,0,0,0,5.879,5.879H163.913a5.879,5.879,0,0,0,5.879-5.879v-9.791Z" transform="translate(-33.303 -242.643)"/><g transform="translate(15.962 26.015)"><path class="e" d="M198.079,451.894H150.852a1.735,1.735,0,0,1,0-3.47h47.227a1.735,1.735,0,0,1,0,3.47Z" transform="translate(-113.334 -337.423)"/><path class="e" d="M81.862,153.579a1.735,1.735,0,0,1-1.735-1.735V151.8a1.735,1.735,0,0,1,3.47,0v.045A1.735,1.735,0,0,1,81.862,153.579Z" transform="translate(-68.285 -142.597)"/><path class="e" d="M99.18,153.579a1.735,1.735,0,0,1-1.735-1.735V151.8a1.735,1.735,0,0,1,3.47,0v.045A1.735,1.735,0,0,1,99.18,153.579Z" transform="translate(-79.593 -142.597)"/><path class="e" d="M116.5,153.579a1.735,1.735,0,0,1-1.735-1.735V151.8a1.735,1.735,0,0,1,3.47,0v.045A1.735,1.735,0,0,1,116.5,153.579Z" transform="translate(-90.902 -142.597)"/><path class="e" d="M160.648,292.494H53.614A7.623,7.623,0,0,1,46,284.88v-9.791a1.735,1.735,0,0,1,1.735-1.735H164.791V240.673a1.735,1.735,0,1,1,3.47,0V284.88A7.623,7.623,0,0,1,160.648,292.494ZM49.47,276.824v8.056a4.148,4.148,0,0,0,4.144,4.144H160.648a4.148,4.148,0,0,0,4.144-4.144v-8.056Z" transform="translate(-46 -200.631)"/><path class="e" d="M47.735,194.963A1.735,1.735,0,0,1,46,193.228V136.159a7.622,7.622,0,0,1,7.614-7.614H127a1.735,1.735,0,0,1,0,3.47H53.614a4.148,4.148,0,0,0-4.144,4.144v57.069a1.735,1.735,0,0,1-1.735,1.735Z" transform="translate(-46 -128.545)"/></g><ellipse class="k" cx="27.626" cy="27.626" rx="27.626" ry="27.626" transform="translate(104.719 10.371)"/><path class="e" d="M326.138,137.184A29.361,29.361,0,1,1,355.5,107.823,29.394,29.394,0,0,1,326.138,137.184Zm0-55.252a25.891,25.891,0,1,0,25.891,25.891A25.92,25.92,0,0,0,326.138,81.932Z" transform="translate(-193.793 -69.826)"/><ellipse class="l" cx="20.484" cy="20.484" rx="20.484" ry="20.484" transform="translate(111.861 17.513)"/><path class="k" d="M354.716,154.491a2.662,2.662,0,0,1-1.883-.78l-5.442-5.442a2.662,2.662,0,0,1,3.765-3.765l3.56,3.56L366.2,136.577a2.662,2.662,0,1,1,3.765,3.765L356.6,153.711a2.662,2.662,0,0,1-1.882.78Z" transform="translate(-226.335 -107.266)"/><path class="m" d="M117.111,237.247H85.887a1.778,1.778,0,1,1,0-3.555h31.224a1.778,1.778,0,1,1,0,3.555Z" transform="translate(-54.923 -171.19)"/><path class="i" d="M209.7,237.247h-8.528a1.778,1.778,0,0,1,0-3.555H209.7a1.778,1.778,0,0,1,0,3.555Z" transform="translate(-130.205 -171.19)"/><path class="m" d="M134.421,257.567H85.887a1.778,1.778,0,0,1,0-3.555h48.535a1.778,1.778,0,1,1,0,3.555Z" transform="translate(-54.923 -184.459)"/><path class="j" d="M87.1,205.842a1.735,1.735,0,0,1-1.227-.508l-2.421-2.421a1.735,1.735,0,0,1,2.453-2.454l1.194,1.194,4.261-4.261a1.735,1.735,0,0,1,2.453,2.454l-5.488,5.488A1.734,1.734,0,0,1,87.1,205.842Z" transform="translate(-54.159 -147.155)"/><path class="m" d="M95.814,319.032H85.886a1.778,1.778,0,0,1,0-3.555h9.928a1.778,1.778,0,0,1,0,3.555Z" transform="translate(-54.922 -224.595)"/><path class="i" d="M169.629,319.032H139.8a1.778,1.778,0,0,1,0-3.555h29.825a1.778,1.778,0,0,1,0,3.555Z" transform="translate(-90.131 -224.595)"/><path class="j" d="M87.1,287.627a1.737,1.737,0,0,1-1.227-.508L83.448,284.7a1.735,1.735,0,0,1,2.454-2.454l1.194,1.194,4.261-4.261a1.735,1.735,0,0,1,2.453,2.454l-5.488,5.488a1.735,1.735,0,0,1-1.227.508Z" transform="translate(-54.159 -200.56)"/><path class="e" d="M198.973,64.693a1.735,1.735,0,0,1-1.227-.508l-3.824-3.823a1.735,1.735,0,0,1,0-2.454l3.824-3.823a1.735,1.735,0,0,1,2.453,0l3.823,3.823a1.735,1.735,0,0,1,0,2.454L200.2,64.184A1.735,1.735,0,0,1,198.973,64.693Zm-1.37-5.558,1.37,1.37,1.369-1.37-1.369-1.37Z" transform="translate(-126.298 -53.576)"/><path class="j" d="M425.839,283.088a1.735,1.735,0,0,1-1.735-1.735,2.091,2.091,0,0,0-2.089-2.088,1.735,1.735,0,0,1,0-3.47,2.091,2.091,0,0,0,2.089-2.088,1.735,1.735,0,0,1,3.47,0,2.091,2.091,0,0,0,2.088,2.088,1.735,1.735,0,0,1,0,3.47,2.091,2.091,0,0,0-2.088,2.088A1.735,1.735,0,0,1,425.839,283.088Z" transform="translate(-274.439 -196.186)"/><path class="k" d="M160.705,82.8a1.735,1.735,0,0,1-1.735-1.735,2.091,2.091,0,0,0-2.088-2.088,1.735,1.735,0,0,1,0-3.47,2.091,2.091,0,0,0,2.088-2.088,1.735,1.735,0,1,1,3.47,0,2.091,2.091,0,0,0,2.088,2.088,1.735,1.735,0,1,1,0,3.47,2.091,2.091,0,0,0-2.088,2.088A1.735,1.735,0,0,1,160.705,82.8Z" transform="translate(-101.31 -65.398)"/><path class="k" d="M362.979,413.149a1.735,1.735,0,0,1-1.735-1.735,2.091,2.091,0,0,0-2.089-2.088,1.735,1.735,0,1,1,0-3.47,2.091,2.091,0,0,0,2.089-2.088,1.735,1.735,0,0,1,3.47,0,2.091,2.091,0,0,0,2.088,2.088,1.735,1.735,0,0,1,0,3.47,2.091,2.091,0,0,0-2.088,2.088A1.735,1.735,0,0,1,362.979,413.149Z" transform="translate(-233.392 -281.115)"/><ellipse class="f" cx="1.94" cy="1.94" rx="1.94" ry="1.94" transform="translate(111.546 83.626)"/><ellipse class="f" cx="1.94" cy="1.94" rx="1.94" ry="1.94" transform="translate(105.678 83.626)"/><ellipse class="f" cx="1.94" cy="1.94" rx="1.94" ry="1.94" transform="translate(99.81 83.626)"/></svg>