<svg xmlns="http://www.w3.org/2000/svg" width="183" height="183" viewBox="0 0 183 183"><defs><style>.a{fill:#fff;stroke:#707070;}.b{fill:#ff9d33;}.c{stroke:none;}.d{fill:none;}</style></defs><g transform="translate(-1613 -6757)"><g class="a" transform="translate(1613 6757)"><circle class="c" cx="91.5" cy="91.5" r="91.5"/><circle class="d" cx="91.5" cy="91.5" r="91"/></g><g transform="translate(1640.262 6794)"><path class="b" d="M101.791,40.195l2.93,1.279c-2.033,1.244-2.95,2.461-2.718,3.62.239,1.2,1.333,2.23,3.256,3.069a17.3,17.3,0,0,0,6.381,1.28c2.488.086,6.325-.613,11.41-2.081a15.953,15.953,0,0,1,2.941-.631,3.451,3.451,0,0,1,1.709.238c.339.148,1.374.6-1.226,1.734a10.766,10.766,0,0,1-5.2.9,6.339,6.339,0,0,0-3.6.657l-1.562.994c-.683.434-.821.989-.371,1.477a4.251,4.251,0,0,0,2.611.95,27.806,27.806,0,0,0,11.325-1.314l3.955,1.727a7.271,7.271,0,0,0,5.088,0c1.4-.614,1.4-1.608,0-2.221l-4.093-1.787c1.8-1.142,2.743-2.3,2.81-3.438.079-1.336-1-2.5-3.206-3.465A16.475,16.475,0,0,0,128.9,41.92a21.208,21.208,0,0,0-5.533.252c-1.682.316-4.243.954-7.594,1.892a14.4,14.4,0,0,1-2.944.613,3.071,3.071,0,0,1-1.227-.217c-1.168-.509-.187-1.152.842-1.6a9.428,9.428,0,0,1,4.049-.784,5.52,5.52,0,0,0,3.4-.84l.906-.756a.868.868,0,0,0-.08-1.518,5.438,5.438,0,0,0-2.986-.779,26.055,26.055,0,0,0-7.872,1.091l-2.982-1.3a7.263,7.263,0,0,0-5.088,0C100.387,38.587,100.387,39.581,101.791,40.195Z" transform="translate(-62.74 -27.053)"/><path class="b" d="M100.935,29a12.887,12.887,0,0,0,.36-3.021V22.751c0-6.456-4.82-12.36-13.573-16.622C79.607,2.176,68.88,0,57.517,0S35.426,2.176,27.311,6.128c-8.753,4.263-13.573,10.166-13.573,16.622v3.231c0,6.367,4.69,12.195,13.214,16.443a14.6,14.6,0,0,0-.389,3.007v.589C18.284,50.252,13.738,56,13.738,62.269V65.5c0,4.354,2.195,8.455,6.306,11.972a13.023,13.023,0,0,0-.846,4.588v3.231c0,6.456,4.82,12.36,13.573,16.622,8.115,3.952,18.842,6.128,30.205,6.128s22.091-2.176,30.205-6.128c8.753-4.263,13.573-10.166,13.573-16.622V82.062c0-4.353-2.193-8.453-6.3-11.971a13.042,13.042,0,0,0,.842-4.59v-.589c8.278-4.231,12.825-9.979,12.825-16.249V45.431C114.12,39.072,109.44,33.25,100.935,29ZM19.856,20.017c1.268-3.224,4.721-6.354,9.9-8.874,7.369-3.589,17.229-5.565,27.763-5.565S77.911,7.553,85.28,11.142c5.176,2.52,8.629,5.651,9.9,8.874C90.7,27.808,75.135,33.489,57.516,33.489S24.335,27.808,19.856,20.017Zm0,39.519c1.031-2.621,3.514-5.178,7.186-7.4,1.415,5.083,5.94,9.664,13.095,13.148,8.115,3.952,18.842,6.128,30.205,6.128,1.111,0,2.213-.027,3.31-.068a77.314,77.314,0,0,1-16.135,1.662C39.9,73.008,24.335,67.327,19.856,59.535Zm80.781,19.792C96.158,87.119,80.6,92.8,62.977,92.8c-15.305,0-29.051-4.289-35.335-10.523,8.075,3.852,18.663,5.975,29.875,5.975,11.363,0,22.091-2.176,30.205-6.128a30,30,0,0,0,9.79-7.159A12.437,12.437,0,0,1,100.637,79.327ZM70.341,56.17c-15.383,0-29.2-4.331-35.438-10.616a78.03,78.03,0,0,0,22.613,3.179c11.363,0,22.091-2.176,30.205-6.128,4.914-2.393,8.588-5.3,10.866-8.538,4.905,2.478,8.187,5.509,9.414,8.631C103.523,50.489,87.96,56.17,70.341,56.17Z"/></g></g></svg>