<svg xmlns="http://www.w3.org/2000/svg" xmlns:xlink="http://www.w3.org/1999/xlink" width="175.765" height="144.721" viewBox="0 0 175.765 144.721"><defs><style>.a{fill:url(#a);}.b{fill:#00c;opacity:0.1;}.c{fill:#ff9d33;}.d{fill:#ff4d4d;}.e{fill:#fff;}.f{fill:#ff6c6c;}.g{fill:#b7b7ff;}.h{fill:#5b55ff;}.i{fill:#6c6cff;}.j,.k{fill:none;stroke:#5b55ff;stroke-linecap:round;stroke-width:2.5px;}.j{stroke-linejoin:round;}</style><linearGradient id="a" x1="1.094" y1="0.877" x2="-0.333" y2="0.12" gradientUnits="objectBoundingBox"><stop offset="0.007" stop-color="#9494ff"/><stop offset="0.992" stop-color="#ffe8dc" stop-opacity="0"/></linearGradient></defs><g transform="translate(0 144.721) rotate(-90)"><path class="a" d="M128.717,116.757a33.238,33.238,0,0,1-9.858,6.785,42.715,42.715,0,0,0-21.433,21.821A50.861,50.861,0,1,1,9.261,95.645,43.868,43.868,0,0,0,15.1,57.3c-5.755-18.489-3.748-36.01,7.2-46.959C41.49-8.842,80.865-.574,110.25,28.811S147.9,97.571,128.717,116.757Z" transform="translate(2.83 0)"/><path class="b" d="M133.62,68.9a27.711,27.711,0,0,1-18.312,26.067,60.585,60.585,0,0,1-61.37,34.168A27.7,27.7,0,0,1,8.261,99.411a60.485,60.485,0,0,1,0-61.029A27.7,27.7,0,0,1,53.938,8.662a60.585,60.585,0,0,1,61.37,34.168A27.711,27.711,0,0,1,133.62,68.9ZM60.6,126.068a57.219,57.219,0,0,0,50.245-29.915,27.555,27.555,0,0,1-10.2-.061A48.406,48.406,0,0,1,60.6,117.316h-.032a27.571,27.571,0,0,1-4.017,8.607c1.338.094,2.688.145,4.049.145ZM33.827,55.4a27.767,27.767,0,0,1-6.346-.739,36.023,36.023,0,0,0,0,28.463,27.69,27.69,0,0,1,33.563,21.816,36.012,36.012,0,0,0,28.08-14.02,27.693,27.693,0,0,1,0-44.054,36.011,36.011,0,0,0-28.08-14.02A27.7,27.7,0,0,1,33.827,55.4ZM91.982,92.835a39.447,39.447,0,0,1-30.512,15.536c.035.57.058,1.142.058,1.72a27.9,27.9,0,0,1-.264,3.783A44.959,44.959,0,0,0,97.105,95.16,27.586,27.586,0,0,1,91.982,92.835Zm-67.81-8.714a39.468,39.468,0,0,1,0-30.449,27.591,27.591,0,0,1-4.944-2.429,44.96,44.96,0,0,0,0,35.307A27.58,27.58,0,0,1,24.172,84.122Zm37.3-54.7A39.447,39.447,0,0,1,91.982,44.959a27.553,27.553,0,0,1,5.123-2.324,44.959,44.959,0,0,0-35.84-18.716,27.893,27.893,0,0,1,.264,3.783C61.529,28.28,61.506,28.853,61.471,29.422ZM3.433,68.9a56.817,56.817,0,0,0,6.7,26.832,27.841,27.841,0,0,1,6.238-7.145,48.377,48.377,0,0,1,0-39.376,27.842,27.842,0,0,1-6.238-7.145A56.821,56.821,0,0,0,3.433,68.9ZM60.6,11.726c-1.361,0-2.711.051-4.049.145a27.568,27.568,0,0,1,4.017,8.607H60.6A48.406,48.406,0,0,1,100.644,41.7a27.554,27.554,0,0,1,10.2-.061A57.219,57.219,0,0,0,60.6,11.726Z" transform="translate(9.384 15.381)"/><path class="c" d="M48.419,0A48.419,48.419,0,1,0,96.838,48.419,48.474,48.474,0,0,0,48.419,0Zm0,93.406A44.986,44.986,0,1,1,93.405,48.419,45.037,45.037,0,0,1,48.419,93.406Z" transform="translate(21.569 43.068)"/><path class="d" d="M39.486,0A39.486,39.486,0,1,0,78.971,39.486,39.531,39.531,0,0,0,39.486,0Zm0,75.538A36.053,36.053,0,1,1,75.538,39.486,36.093,36.093,0,0,1,39.486,75.538Z" transform="translate(30.502 52.001)"/><ellipse class="c" cx="27.702" cy="27.702" rx="27.702" ry="27.702" transform="translate(87.6 63.785)"/><ellipse class="e" cx="20.439" cy="20.439" rx="20.439" ry="20.439" transform="translate(94.863 71.048)"/><path class="f" d="M27.7,0A27.7,27.7,0,1,1,0,27.7,27.7,27.7,0,0,1,27.7,0Z" transform="translate(15.509 22.59)"/><ellipse class="e" cx="20.439" cy="20.439" rx="20.439" ry="20.439" transform="translate(22.772 29.853)"/><ellipse class="g" cx="27.702" cy="27.702" rx="27.702" ry="27.702" transform="translate(15.509 104.98)"/><path class="h" d="M135.336,70.613a29.323,29.323,0,0,1-4.6,15.786,1.717,1.717,0,1,1-2.895-1.845,25.988,25.988,0,1,0-7.691,7.8,1.717,1.717,0,0,1,1.883,2.871,29.323,29.323,0,0,1-7.814,3.617A60.66,60.66,0,0,1,60.6,131.217c-1.529,0-3.043-.064-4.543-.177A29.4,29.4,0,0,1,7.221,99.27a60.462,60.462,0,0,1,0-57.31A29.4,29.4,0,0,1,56.06,10.186c1.5-.113,3.015-.176,4.544-.176A60.657,60.657,0,0,1,114.221,42.4a29.465,29.465,0,0,1,21.115,28.217ZM33.826,3.432A25.986,25.986,0,1,0,59.812,29.418,26.015,26.015,0,0,0,33.826,3.432ZM60.6,13.442c-.692,0-1.38.016-2.066.042a29.4,29.4,0,0,1-49.3,32.054,57.049,57.049,0,0,0,0,50.144A29.4,29.4,0,0,1,50.106,87.3a1.717,1.717,0,1,1-1.9,2.858,26.007,26.007,0,1,0,7.64,7.849,1.717,1.717,0,0,1,2.907-1.826,29.357,29.357,0,0,1-.216,31.56q1.03.037,2.069.038a57.2,57.2,0,0,0,49.153-28.006,29.421,29.421,0,1,1,0-58.324A57.192,57.192,0,0,0,60.6,13.442Z" transform="translate(9.384 20.874)"/><ellipse class="e" cx="20.439" cy="20.439" rx="20.439" ry="20.439" transform="translate(22.772 112.243)"/><path class="i" d="M1.717,0A1.716,1.716,0,0,0,.5,2.93L3.936,6.363A1.716,1.716,0,0,0,6.363,3.936L2.93.5A1.71,1.71,0,0,0,1.717,0Z" transform="translate(0 60.352)"/><path class="i" d="M1.717,0A1.716,1.716,0,0,0,.5,2.93L3.936,6.363A1.716,1.716,0,1,0,6.363,3.936L2.93.5A1.711,1.711,0,0,0,1.717,0Z" transform="translate(72.761 158.823)"/><path class="i" d="M1.717,0A1.716,1.716,0,0,0,.5,2.93L3.936,6.363A1.716,1.716,0,0,0,6.363,3.936L2.93.5A1.711,1.711,0,0,0,1.717,0Z" transform="translate(124.545 42.491)"/><path class="c" d="M8.582,0A1.711,1.711,0,0,0,7.368.5L5.149,2.722,2.93.5A1.716,1.716,0,0,0,.5,2.93L3.936,6.363a1.716,1.716,0,0,0,2.427,0L9.8,2.93A1.716,1.716,0,0,0,8.582,0Z" transform="translate(66.209 10.076)"/><path class="f" d="M8.582,0A1.711,1.711,0,0,0,7.368.5L5.149,2.722,2.93.5A1.716,1.716,0,0,0,.5,2.93L3.936,6.363a1.716,1.716,0,0,0,2.427,0L9.8,2.93A1.716,1.716,0,0,0,8.582,0Z" transform="translate(70.955 96.769)"/><g transform="translate(49.928 39.904) rotate(90)"><path class="j" d="M0,13.278V0L13.279,13.278V0" transform="translate(4.148)"/><path class="k" d="M0,0H21.033" transform="translate(0 6.913)"/></g><g transform="translate(122.569 81.844) rotate(90)"><path class="j" d="M0,13.278V0L13.279,13.278V0" transform="translate(4.148)"/><path class="k" d="M0,0H21.033" transform="translate(0 6.913)"/></g><g transform="translate(49.861 121.501) rotate(90)"><path class="j" d="M0,13.278V0L13.279,13.278V0" transform="translate(4.148)"/><path class="k" d="M0,0H21.033" transform="translate(0 6.913)"/></g></g></svg>