<svg xmlns="http://www.w3.org/2000/svg" xmlns:xlink="http://www.w3.org/1999/xlink" width="164.615" height="153.685" viewBox="0 0 164.615 153.685"><defs><style>.a{fill:url(#a);}.b,.h{fill:#00c;}.b{opacity:0.1;}.c{fill:#b7b7ff;}.d{fill:#4d4dff;}.e{fill:#fff;}.f{fill:#ebebff;}.g{fill:#ffab66;}.i{fill:#ff2c2c;}.j{fill:#d9d9ff;}.k,.n{fill:#ff9d33;}.l{fill:#6c6cff;}.m{fill:#ff6c6c;}.n{font-size:16px;font-family:Helvetica;}</style><linearGradient id="a" x1="0.5" y1="0.5" x2="0.5" y2="1.162" gradientUnits="objectBoundingBox"><stop offset="0" stop-color="#9494ff"/><stop offset="0.19" stop-color="#9494ff"/><stop offset="0.912" stop-color="#ffe8dc" stop-opacity="0"/><stop offset="1" stop-color="#ffe8dc" stop-opacity="0"/></linearGradient></defs><g transform="translate(0 -16.998)"><path class="a" d="M134.986,77.381A53.167,53.167,0,1,0,29.143,70.162a53.613,53.613,0,0,0,.486,7.218,24.807,24.807,0,0,1-11.321,24.2C6.859,108.867,0,118.149,0,128.258c0,23.431,36.85,42.425,82.308,42.425s82.308-18.994,82.308-42.425c0-10.108-6.859-19.391-18.309-26.679a24.807,24.807,0,0,1-11.321-24.2Z" transform="translate(0 0)"/><path class="b" d="M164.045,86.709a22.179,22.179,0,1,0-33.586-28.975,68.1,68.1,0,1,0,33.586,28.975Z" transform="translate(-25.172 -22.373)"/><circle class="c" cx="68.096" cy="68.096" r="68.096" transform="translate(11.929 23.888)"/><path class="d" d="M351.362,88.5a22.186,22.186,0,1,1-31.634-30.277A68.377,68.377,0,0,1,351.362,88.5Z" transform="translate(-210.928 -27.967)"/><circle class="e" cx="57.293" cy="57.293" r="57.293" transform="translate(22.732 34.691)"/><path class="f" d="M342.932,114.267a22.2,22.2,0,0,1-30.158-28.859A57.5,57.5,0,0,1,342.932,114.267Z" transform="translate(-210.928 -46.415)"/><circle class="g" cx="22.184" cy="22.184" r="22.184" transform="translate(99.952 20.969)"/><circle class="e" cx="16.739" cy="16.739" r="16.739" transform="translate(105.398 26.414)"/><g transform="translate(10.321 19.362)"><path class="h" d="M99.819,49.156a1.6,1.6,0,0,0,1.106-.441A66.576,66.576,0,0,1,169.331,34.45a23.863,23.863,0,1,0,2.15-2.627,69.771,69.771,0,0,0-72.77,14.558,1.608,1.608,0,0,0,1.107,2.774Zm88.952-21.591a20.577,20.577,0,1,1-20.577,20.577A20.6,20.6,0,0,1,188.771,27.565Z" transform="translate(-76.955 -24.35)"/><path class="h" d="M166.855,134.627a1.607,1.607,0,1,0-3,1.158A66.5,66.5,0,1,1,48.927,119.417a1.608,1.608,0,0,0-2.556-1.951A69.7,69.7,0,0,0,151.093,209.01a69.788,69.788,0,0,0,15.761-74.383Z" transform="translate(-32.101 -87.099)"/><path class="h" d="M157.689,203.62V189.047a4.858,4.858,0,0,0-4.852-4.852h-7.085a4.858,4.858,0,0,0-4.852,4.852V203.62a4.858,4.858,0,0,0,4.852,4.852h7.085A4.857,4.857,0,0,0,157.689,203.62Zm-12.746,0V189.047a.81.81,0,0,1,.809-.809h7.085a.81.81,0,0,1,.809.809V203.62a.81.81,0,0,1-.809.809h-7.085A.81.81,0,0,1,144.943,203.62Z" transform="translate(-98.265 -123.708)"/><path class="h" d="M157.689,203.62V189.047a4.858,4.858,0,0,0-4.852-4.852h-7.085a4.858,4.858,0,0,0-4.852,4.852V203.62a4.858,4.858,0,0,0,4.852,4.852h7.085A4.857,4.857,0,0,0,157.689,203.62Zm-12.746,0V189.047a.81.81,0,0,1,.809-.809h7.085a.81.81,0,0,1,.809.809V203.62a.81.81,0,0,1-.809.809h-7.085A.81.81,0,0,1,144.943,203.62Z" transform="translate(-119.645 -123.708)"/><path class="h" d="M208.282,203.62V189.047a4.858,4.858,0,0,0-4.852-4.852h-7.085a4.858,4.858,0,0,0-4.852,4.852V203.62a4.858,4.858,0,0,0,4.852,4.852h7.085A4.857,4.857,0,0,0,208.282,203.62Zm-12.746,0V189.047a.81.81,0,0,1,.809-.809h7.085a.809.809,0,0,1,.809.809V203.62a.809.809,0,0,1-.809.809h-7.085A.81.81,0,0,1,195.536,203.62Z" transform="translate(-128.401 -123.708)"/><path class="h" d="M281.575,203.62V189.047a4.858,4.858,0,0,0-4.852-4.852h-7.085a4.858,4.858,0,0,0-4.852,4.852V203.62a4.858,4.858,0,0,0,4.852,4.852h7.085A4.857,4.857,0,0,0,281.575,203.62Zm-4.044,0a.809.809,0,0,1-.809.809h-7.085a.81.81,0,0,1-.809-.809V189.047a.81.81,0,0,1,.809-.809h7.085a.809.809,0,0,1,.809.809Z" transform="translate(-180.861 -123.708)"/><path class="h" d="M332.167,203.62V189.047a4.858,4.858,0,0,0-4.852-4.852H320.23a4.858,4.858,0,0,0-4.852,4.852V203.62a4.858,4.858,0,0,0,4.852,4.852h7.085A4.857,4.857,0,0,0,332.167,203.62Zm-12.745,0V189.047a.81.81,0,0,1,.809-.809h7.085a.809.809,0,0,1,.809.809V203.62a.809.809,0,0,1-.809.809h-7.085A.809.809,0,0,1,319.422,203.62Z" transform="translate(-210.997 -123.708)"/></g><path class="i" d="M243.818,386.736l-2.657-3.847a1.607,1.607,0,0,0-2.645,0l-2.657,3.847a1.756,1.756,0,0,0,1.445,2.754h5.071A1.756,1.756,0,0,0,243.818,386.736Z" transform="translate(-159.813 -247.781)"/><path class="i" d="M235.857,98.327l2.657,3.847a1.607,1.607,0,0,0,2.645,0l2.657-3.847a1.756,1.756,0,0,0-1.445-2.754H237.3A1.756,1.756,0,0,0,235.857,98.327Z" transform="translate(-159.813 -53.312)"/><path class="j" d="M229.356,356.725a1.608,1.608,0,0,1-1.608,1.608H195.758a1.608,1.608,0,1,1,0-3.215h31.991a1.608,1.608,0,0,1,1.608,1.608" transform="translate(-131.728 -229.409)"/><path class="j" d="M217.917,338.106H213.9a1.608,1.608,0,1,1,0-3.215h4.019a1.608,1.608,0,0,1,0,3.215Z" transform="translate(-144.036 -215.686)"/><path class="g" d="M241.135,144.518h-7.877a1.608,1.608,0,1,1,0-3.215h7.877a1.608,1.608,0,0,1,0,3.215Z" transform="translate(-157.171 -84.339)"/><path class="j" d="M254.388,338.106H243.618a1.608,1.608,0,1,1,0-3.215h10.771a1.608,1.608,0,0,1,0,3.215Z" transform="translate(-164.2 -215.686)"/><path class="k" d="M77.9,54.649a1.6,1.6,0,0,1-1.137-.471L74.68,52.1,72.6,54.178a1.607,1.607,0,0,1-2.273-2.273l3.215-3.215a1.607,1.607,0,0,1,2.273,0l3.215,3.215A1.608,1.608,0,0,1,77.9,54.649Z" transform="translate(-47.397 -21.183)"/><path class="l" d="M441.918,401.314a1.6,1.6,0,0,1-1.137-.471l-2.079-2.078-2.079,2.078a1.607,1.607,0,0,1-2.273-2.273l3.215-3.215a1.607,1.607,0,0,1,2.273,0l3.215,3.215a1.608,1.608,0,0,1-1.137,2.744Z" transform="translate(-294.382 -256.391)"/><path class="l" d="M45.511,106.477a1.608,1.608,0,0,1-1.137-2.744l3.215-3.215a1.607,1.607,0,1,1,2.273,2.273l-3.215,3.215A1.6,1.6,0,0,1,45.511,106.477Z" transform="translate(-29.788 -56.348)"/><path class="m" d="M86.465,469.08a1.608,1.608,0,0,1-1.137-2.744l3.215-3.215a1.607,1.607,0,0,1,2.273,2.273L87.6,468.609A1.6,1.6,0,0,1,86.465,469.08Z" transform="translate(-57.574 -302.369)"/><path class="m" d="M461.507,135.858a1.608,1.608,0,0,1-1.137-2.744l3.215-3.215a1.607,1.607,0,0,1,2.273,2.273l-3.215,3.215A1.6,1.6,0,0,1,461.507,135.858Z" transform="translate(-312.035 -76.283)"/><text class="n" transform="translate(108 47.998)"><tspan x="0" y="0">Pay</tspan></text></g></svg>