<svg xmlns="http://www.w3.org/2000/svg" xmlns:xlink="http://www.w3.org/1999/xlink" width="243.635" height="45" viewBox="0 0 243.635 45"><defs><style>.a{fill:#193655;}.b{fill:url(#a);}</style><linearGradient id="a" x2="1" gradientUnits="objectBoundingBox"><stop offset="0" stop-color="#51a4fb"/><stop offset="1" stop-color="#51a4fb"/></linearGradient></defs><g transform="translate(-0.412 0)"><g transform="translate(56.994 7.5)"><path class="a" d="M21.481,38.421h0a4.1,4.1,0,0,1-2.27-.806h0a8.511,8.511,0,0,1-2.2-2.075h0l-5.1-6.835-.928-.464H9.593v6.029l.22,2.9,2.368.537v.708H3.124v-.708l2.441-.537.244-2.9V20.8l-.244-2.954-2.441-.537v-.781h9.959a9.58,9.58,0,0,1,3.637.683h0a6.246,6.246,0,0,1,2.661,2h0a5.019,5.019,0,0,1,1,3.124h0a4.029,4.029,0,0,1-.757,2.27h0a7.024,7.024,0,0,1-1.855,1.88h0a7.358,7.358,0,0,1-2.148,1.074h0l-.244.073,6.884,8.91,3.857,1.172-.024.708ZM9.593,27.388h1.9a5.381,5.381,0,0,0,2.441-.561h0a4.567,4.567,0,0,0,1.831-1.587h0a4.2,4.2,0,0,0,.683-2.343h0a6.247,6.247,0,0,0-1.147-3.881h0a4.2,4.2,0,0,0-3.637-1.538h0l-1.928.415-.146,2.392ZM33.124,38.666h0a7.726,7.726,0,0,1-3.588-.854h0a6.79,6.79,0,0,1-2.612-2.465h0a6.628,6.628,0,0,1-.976-3.588h0a8.3,8.3,0,0,1,1.074-4.321h0a7.1,7.1,0,0,1,2.758-2.71h0a7.2,7.2,0,0,1,3.442-.9h0q3.076,0,4.369,1.489h0a5.705,5.705,0,0,1,1.294,3.881h0l-.415.781h-9.2v.146h0a7.438,7.438,0,0,0,.806,3.662h0a5.472,5.472,0,0,0,2.075,2.1h0a5.324,5.324,0,0,0,2.514.659h0l3.808-1.806.342,1.05-3.2,2.392h0a6.906,6.906,0,0,1-2.49.488ZM29.39,29.072h5.639l.415-.9h0A4.184,4.184,0,0,0,35.15,26.7h0a3.536,3.536,0,0,0-.879-1.367h0a2.1,2.1,0,0,0-1.513-.586h0a2.489,2.489,0,0,0-1.953.854h0a5.721,5.721,0,0,0-1.1,1.831h0A4.609,4.609,0,0,0,29.39,28.9h0ZM41.4,38.421v-.683l2.319-.561.269-2.929V29l-.269-2.368L41.375,26v-.659L47.282,23.8l.366.391-.293,1.88.2.464h0A12.812,12.812,0,0,1,49.8,24.7h0a5.285,5.285,0,0,1,2.856-.879h0a4.6,4.6,0,0,1,2.856.757h0a3.919,3.919,0,0,1,1.343,2.27h0a18.324,18.324,0,0,1,.366,4.125h0v3.271l.244,2.929,2.343.561v.683H51.578v-.683l2.05-.561.22-2.929V30.9h0a8.55,8.55,0,0,0-.659-3.808h0A2.452,2.452,0,0,0,50.8,25.826h0l-3.442,2v6.42l.22,2.929,2.148.561v.683Zm25.875.22h0a4.359,4.359,0,0,1-2.88-.952h0a3.91,3.91,0,0,1-1.147-3.173h0V25.289h-2.49l-.049-.806,2.685-1.758,2.172-3.466h1.1v4.906h4.491l.122.22-.561.9H66.664V34.15h0a2.97,2.97,0,0,0,.561,2h0a2.217,2.217,0,0,0,1.782.659h0l2.026-.781.171.342-.2.464Zm18.332-.024h0a12.951,12.951,0,0,1-6.127-1.465h0A11.1,11.1,0,0,1,75.134,33.2h0a10.255,10.255,0,0,1-1.587-5.541h0A10.841,10.841,0,0,1,75.159,21.9h0a12.035,12.035,0,0,1,4.418-4.2h0A12.455,12.455,0,0,1,85.7,16.159h0a40.283,40.283,0,0,1,7.4.635h0l1,4.687-1.025.317h0a6.912,6.912,0,0,0-2.05-3.173h0q-1.587-1.465-5.1-1.465h0A6.888,6.888,0,0,0,81.6,18.527h0a8.538,8.538,0,0,0-2.734,3.564h0a11.986,11.986,0,0,0-.928,4.711h0a14.569,14.569,0,0,0,.952,5.248h0a9.177,9.177,0,0,0,2.9,4.028h0a7.532,7.532,0,0,0,4.809,1.538h0a7.6,7.6,0,0,0,2.636-.415h0a6.993,6.993,0,0,0,2.05-1.123h0l2.368-3.906.952.22L93.271,37.1h0a20.354,20.354,0,0,1-3.588,1.123h0a19.367,19.367,0,0,1-4.076.391Zm11.546-.2v-.683l2.295-.561.269-2.929V29l-.269-2.368L97.1,26v-.659l5.858-1.538.317.415-.269,2.9.269.146h0a8.765,8.765,0,0,1,1.855-2.392h0a3.624,3.624,0,0,1,2.49-1.05h0a3.911,3.911,0,0,1,1.245.2h0a1.866,1.866,0,0,1,.854.513h0l.269,1.172-1.538,2-1.367-.83h0a2.454,2.454,0,0,0-.635-.342h0a2.641,2.641,0,0,0-.806-.1h0a1.9,1.9,0,0,0-1.318.537h0a4.023,4.023,0,0,0-.952,1.318h0a2.837,2.837,0,0,0-.366,1.172h0v4.784l.244,2.929,2.71.561v.683Zm21.993.22h0a8.4,8.4,0,0,1-4.1-.976h0a6.838,6.838,0,0,1-2.758-2.636h0a7.265,7.265,0,0,1-1-3.784h0a7.3,7.3,0,0,1,1.05-3.857h0a7.425,7.425,0,0,1,2.807-2.734h0a7.74,7.74,0,0,1,3.93-1.025h0a8.661,8.661,0,0,1,4.1.952h0a6.967,6.967,0,0,1,2.807,2.636h0a7.219,7.219,0,0,1,1,3.759h0a7.383,7.383,0,0,1-1.05,3.857h0a7.939,7.939,0,0,1-2.856,2.783h0a7.827,7.827,0,0,1-3.93,1.025Zm.317-.928h0a2.891,2.891,0,0,0,2.832-1.782h0a9.519,9.519,0,0,0,.854-4.2h0a11.438,11.438,0,0,0-.513-3.344h0a6.923,6.923,0,0,0-1.489-2.758h0a3.153,3.153,0,0,0-2.417-1.1h0a2.847,2.847,0,0,0-2.807,1.758h0a10.051,10.051,0,0,0-.83,4.272h0a11.547,11.547,0,0,0,.488,3.32h0a6.714,6.714,0,0,0,1.489,2.734h0a3.128,3.128,0,0,0,2.392,1.1Zm26.363,1.025-.22-.122-4.15-9.788-3.906,8.788-1.2,1.123-.2-.122-6.151-12.644L127.884,25v-.83h8.006l-.024.83-2,.854.146.635,3.784,7.714,2.856-6.664-.659-1.562L138.136,25l-.049-.83H145.9V25l-1.977,1,.122.561L147.363,34l2.978-6.81.342-1.2-2.368-1-.049-.83h6.542l-.073.83-2.417,1.1L147,37.64Zm15.671-.073h0a5.581,5.581,0,0,1-3.076-.928h0A6.859,6.859,0,0,1,156.1,35.2h0a7.181,7.181,0,0,1-.879-3.539h0a6.207,6.207,0,0,1,1.465-4.052h0a10.525,10.525,0,0,1,3.588-2.783h0a8.708,8.708,0,0,1,3.71-1h0a7.42,7.42,0,0,1,1.172.1h0q.61.1.732.1h0l.2.073.171-1.1V19.626l-.2-1.806-2.1-.61v-.683l5.761-1.245.317.366-.366,3.1V33.979l.293,2.441,1.953.464.049.293-.2.439L166.5,38.641l-.244-.561V37.2l-.171-.317Zm2-1.928,2.758-1.074v-8.69h0q0-.635-1.05-1.221h0a4.838,4.838,0,0,0-2.319-.561h0a3.27,3.27,0,0,0-2.88,1.611h0a6.883,6.883,0,0,0-1.025,3.735h0a7.8,7.8,0,0,0,1.2,4.443h0a3.8,3.8,0,0,0,3.32,1.758Zm13.133,8.544-4-1,1.9-3.1,2.539,2h0a5.963,5.963,0,0,0,1.782-1.831h0a14.769,14.769,0,0,0,1.684-3.369h0L174.727,25.9l-2.124-.976v-.757h7.933l-.1.757-1.9.732,3.954,8.739,3.1-7.1.366-1.367-2.343-1v-.757h6.566l-.024.757-2.612,1.1L181.9,37.982h0q-.83,1.831-1.44,2.954h0a16.238,16.238,0,0,1-1.489,2.246h0Z" transform="translate(-3.124 -15.281)"/></g><g transform="translate(0.412 0)"><path class="b" d="M40.377,61.767l-2.342,6.719v-.123H19.356l10.356,8.014h14.24L49.993,57.7l-6.658-4.808Z" transform="translate(-13.5 -31.377)"/><path class="b" d="M61.4,40.623l8.63,6.288L64.171,64.973l10.356-7.521L78.9,43.89,63.062,32.425,56.589,37.11Z" transform="translate(-32.117 -21.144)"/><path class="b" d="M69.164,31.192,65.219,19.048,53.692,10.726,37.973,22.13l2.466,7.644,13.315-9.74Z" transform="translate(-22.808 -10.295)"/><path class="b" d="M29.466,31.315,26.137,21.082,41.3,9.863H28.541L17.014,18.37l5.979,18.616H31.13Z" transform="translate(-12.329 -9.863)"/><path class="b" d="M28.11,48.637H17.445L11.589,30.7,7.644,42.658l4.438,13.377H31.5l2.527-7.4Z" transform="translate(-7.644 -20.281)"/></g></g></svg>