<svg xmlns="http://www.w3.org/2000/svg" xmlns:xlink="http://www.w3.org/1999/xlink" width="617.836" height="552.288" viewBox="0 0 617.836 552.288"><defs><style>.a{fill:#e6edff;}.b{fill:#cae1fc;}.c,.i{fill:#fff;}.c,.h,.k{opacity:0.3;}.d{fill:#5b55ff;}.e{fill:#f3a09f;}.f{fill:#fad583;}.g{fill:#5cc6ff;}.h{fill:#a8bcff;}.j{fill:#2a2b7c;}.k{fill:#da97b8;}.l{fill:#2e3054;}.m{fill:#f5b29c;}.n{fill:#fa7071;}.o{fill:#7ab6f6;}.p{fill:#e4edf1;}.q,.r{fill:#bfd4f8;}.r{opacity:0.55;}.s{clip-path:url(#a);}.t{fill:#ecc19c;}.u{fill:#5ab7b2;}.v{fill:#141720;}.w{fill:#1c5a7d;}.x{fill:#7ca6ba;}.y{fill:#d4dce6;}.z{fill:#1a1a1a;}.aa{fill:#eb6d4a;}.ab{fill:#543e36;}.ac{fill:#c34628;}.ad{clip-path:url(#k);}.ae{fill:#c7d4e2;}.af{fill:#435363;}.ag{fill:#e7ecf2;}.ah{fill:none;stroke:#3fa858;stroke-width:5px;}.ai{fill:#3d4166;}</style><clipPath id="a"><ellipse cx="28.459" cy="28.459" rx="28.459" ry="28.459"/></clipPath><clipPath id="k"><circle cx="28.459" cy="28.459" r="28.459"/></clipPath></defs><g transform="translate(-1027 -4385.277)"><g transform="translate(1027 4385.277)"><path class="a" d="M465.232,551.9c45.133-2.7,96.057-21.238,127.529-55.866,43.472-47.748,19.182-102.783,9.882-159.023-7.93-48.122-8.906-97.386-16.006-145.985-8.3-56.447-7.017-121.239-66.038-145.113C451.717,18.055,391.451,5.246,316.8,2.07,258.669-.442,196.845-10.386,171.954,54.095c-16.712,43.2-14.179,95.829-49.119,130.664-30.061,29.915-71,40.275-96.348,76.667C-11.67,316.212,39.545,372.867,19.7,430.7,7.533,466.184-23.212,513,31.241,534.505c35.126,13.826,73.906,8.678,110.589,8.117,45.672-.706,91.345,2.844,137.017,2.076,28.607-.457,56.966.415,85.117,1.619C395.1,547.563,431.435,553.916,465.232,551.9Z" transform="translate(-0.002 -0.006)"/><path class="b" d="M351.8,214.559A122.859,122.859,0,1,1,228.939,91.7,122.858,122.858,0,0,1,351.8,214.559Z" transform="translate(114.139 98.659)"/><circle class="c" cx="93.358" cy="93.358" r="93.358" transform="matrix(0.995, -0.098, 0.098, 0.995, 149.488, 140.866)"/><path class="c" d="M268.012,175.735a31.829,31.829,0,1,0,0,.007Z" transform="translate(219.846 154.838)"/><rect class="d" width="59.623" height="108.617" transform="translate(65.348 376.307)"/><rect class="e" width="59.623" height="232.14" transform="translate(156.921 252.785)"/><rect class="f" width="59.623" height="302.413" transform="translate(248.494 182.512)"/><rect class="g" width="59.623" height="393.986" transform="translate(340.067 90.939)"/><path class="h" d="M382.78,254.752c0,6.789-53.374,12.332-119.2,12.332S144.35,261.541,144.35,254.752,197.724,242.4,263.575,242.4,382.78,247.922,382.78,254.752Z" transform="translate(155.318 260.814)"/><path class="h" d="M246.484,244.8c0,3.7-29.064,6.706-64.917,6.706s-64.917-3.01-64.917-6.706,29.064-6.726,64.917-6.726S246.484,241.08,246.484,244.8Z" transform="translate(125.512 256.155)"/><path class="h" d="M324.47,238.705c0,3.259-16.421,5.875-36.7,5.875S251,241.964,251,238.705s16.421-5.875,36.683-5.875S324.47,235.467,324.47,238.705Z" transform="translate(270.075 250.517)"/><path class="i" d="M279.3,280.511c2.076-20.449,6.02-41.832,3.9-62.571-.561-5.667-5.4-30.995-14.532-25.161-7.328,4.692-2.512,21.8-2.45,28.919a216.321,216.321,0,0,0,9.134,57.506Z" transform="translate(284.724 206.489)"/><path class="j" d="M272.01,259.108l-.913-.436c-3.9-1.827-8.3-3.882-10.525-7.93a7.2,7.2,0,0,1-.6-7,3.986,3.986,0,0,1,3.529-1.889,7.245,7.245,0,0,1,3.342.913c-3.9-9.986-8.2-25.286-.145-29.251a5.48,5.48,0,0,1,2.325-.519c5.73,0,7.681,10.878,8.968,18.082.291,1.536.519,2.865.747,3.716.644,2.491,1.391,5.107,2.076,7.64a124.252,124.252,0,0,1,4.152,17.958l.1.851Zm-4.733-44.364c-7.951,3.9-1.557,21.943,1.557,29.521l.934,2.284-1.951-1.536a7.121,7.121,0,0,0-4.318-1.806,2.636,2.636,0,0,0-2.408,1.266,6,6,0,0,0,.644,5.688c1.972,3.654,6,5.543,9.923,7.37l.644.311,11.46,1.806a132.258,132.258,0,0,0-4.152-16.9c-.727-2.533-1.474-5.148-2.076-7.66-.228-.913-.478-2.242-.747-3.82-1.08-5.937-3.073-17-7.7-17a4.152,4.152,0,0,0-1.806.477Z" transform="translate(279.042 229.18)"/><path class="d" d="M270.883,268.835c-2.865-13.183,3.654-34.545,8.865-47.229,1.7-4.152,10.941-17.854,16.795-15.051s-2.076,17.314-4.277,20.76a10.38,10.38,0,0,1,7.847-3.612c5.73,0,4.5,1.183,3.924,5.875-.872,7.225-6.353,11.252-11.377,15.529,3.737-1.412,9.674-1.163,9.467,4.277S270.883,268.835,270.883,268.835Z" transform="translate(290.716 221.841)"/><path class="k" d="M215.729,246.761c0,4.152-43.762,7.37-97.759,7.37s-97.76-3.3-97.76-7.37,43.762-7.391,97.76-7.391S215.729,242.754,215.729,246.761Z" transform="translate(21.741 257.554)"/><rect class="l" width="438.703" height="2.076" transform="translate(48.304 483.886)"/><path class="m" d="M259.82,171.374c1.516,5.439,3.8,14.532,8.512,15.57s-2.47-1.951-.166-5.564,12.767,13.245,15.695,13.328-9.259-19.162-14.823-26.179Z" transform="translate(279.565 181.329)"/><path class="n" d="M245.94,127.289c14.781-1.038,25.1,42.89,26.988,49.305,3.82,13.183,8.3,23.625,13.307,37.908-5.211,1.474-6.56,2.927-11.48,4.879-6.747-15.508-11.833-21.4-15.57-33.112-2.7-8.429-7.432-17.189-11.543-25.348Z" transform="translate(264.63 136.934)"/><path class="m" d="M248.2,116.9c-6.228,7.308,0,24.476,3.093,32.843a60.578,60.578,0,0,0-20.2,2.47c-.685-10.38,4.4-26.988,2.2-34.254Z" transform="translate(248.586 125.774)"/><path class="l" d="M226,256.918c-8.823-.249-26.8-5-18.5-9.82,5.46-3.176,16.836-1.2,21.715,2.284Z" transform="translate(220.977 264.15)"/><path class="m" d="M201.657,131.833c-2.574-8.678-25.307-27.964-6.228-32.51,8.512-2.076,5.792,8.948,7.827,14.74,2.263,6.373,7.2,11.439.54,17.044Z" transform="translate(202.144 106.585)"/><path class="m" d="M227.478,236.07c-.789,1.329,5.4-3.4,7.474-1.682,7.557,6.228-1,22.462-4.671,28.794-3.861,6.664-20.386,9.155-20.2-1.765,0-2.076,9.155-.415,10.172-.27C217.637,260.691,231.588,229.136,227.478,236.07Z" transform="translate(226.043 251.782)"/><path class="m" d="M255.917,278c-6.934-1.723-19.909-2.865-23.4-9.882a19.95,19.95,0,0,1,13.972.249c-.6-.228,2.076-14.345,2.076-15.715.519-5.979.851-11.958.955-17.937C249.792,222.034,271.009,239.888,255.917,278Z" transform="translate(250.19 248.192)"/><path class="n" d="M229.855,132.617a9.054,9.054,0,0,0-1.661.187c-5.045,1.017-6.5,3.4-6.228,8.553.83,17.065,5.481,34.669,7.972,51.506,1.412,9.633-5,16.255-.208,24.912,3.4,6.228,13.494,10.8,19.971,11.418a30.912,30.912,0,0,0,23.21-7.1c7.619-6.872,6.539-17.584,6.539-26.988,0-15.923,3.093-30.164.893-46.171-.872-6.228,0-13.411-5-18.041-7.66-7.058-21.923-5.232-30.912-2.221-2.886.955-5.46,2.989-8.429,3.7a32.181,32.181,0,0,1-6.145.249Z" transform="translate(238.8 135.572)"/><path class="d" d="M239.468,160.3,212.48,336.758l19.162,1.059,35.894-113.5-2.844,115.717,19.162,3.55s13.245-81.276,12.788-107.205,2.533-61.429-7.91-76.813C288.649,159.57,254,168.933,239.468,160.3Z" transform="translate(228.627 171.688)"/><path class="m" d="M251.659,138.73c-2.616,11.086-22.172,7.245-25.473.249a26.594,26.594,0,0,1,1.183-24.912c3.7-10.671,6.955-11.48,15.8-11.937C243.168,102.192,259.465,106.012,251.659,138.73Z" transform="translate(240.642 109.882)"/><path class="l" d="M258.976,255.319a81.768,81.768,0,0,1-9.695-1c-8.657-1.121-7.432-4.36-3.737-4.754-4.671-1.308-14.1-4.3-14.428,0-.623,8.013,26.1,10.5,26.1,10.5A49.132,49.132,0,0,0,258.976,255.319Z" transform="translate(248.667 266.122)"/><path class="l" d="M231.321,120.284c1.619,9.965,7.37,27.507,21.279,23.106,10.567-3.363,10.92-26.158,5.709-33.486-7.017-9.861-27.653-10.858-31.908-4.152C221.066,114.45,230.7,116.506,231.321,120.284Z" transform="translate(241.88 109.166)"/><path class="n" d="M192.113,116.108c-.457,7.058,26.884,39.61,26.884,39.61s29.853,12.788,42.538,19.12c-.125-7.827,18.352-25.556,8.532-23.251S231.2,139.9,231.2,139.9s-25.161-25.161-29.438-30.85C199.9,110.213,192.113,116.108,192.113,116.108Z" transform="translate(206.705 117.328)"/><path class="l" d="M208.19,247.14c5.709,5.045,16.255,3.446,24.539,2.429,2.823,9.259-15.695,5.543-21.258,2.948Z" transform="translate(224.01 265.914)"/><path class="m" d="M197.4,104.527c2.076,6.622,2.346,12.456.789,12.83s-4.422-4.526-6.394-11.148-2.346-12.456-.789-12.809S195.411,97.9,197.4,104.527Z" transform="translate(204.487 100.468)"/><path class="o" d="M88.144,151.8A32.282,32.282,0,1,1,55.876,119.54,32.282,32.282,0,0,1,88.144,151.8Z" transform="translate(25.367 128.615)"/><path class="p" d="M45.345,168.352l-.477-5.294a16.608,16.608,0,0,1-8.615-1.64l1.017-3.612a15.466,15.466,0,0,0,8.117,1.619c3.9-.311,6.353-2.678,6.083-5.667s-2.553-4.5-6.768-5.771c-5.792-1.64-9.467-3.778-9.882-8.3s2.574-7.93,7.577-9.134l-.477-5.4,3.4-.291.457,5.107a15.114,15.114,0,0,1,7.308,1.266L52.03,134.8a13.785,13.785,0,0,0-7.1-1.225c-4.152.332-5.605,2.886-5.439,4.982.249,2.74,2.408,3.944,7.37,5.439,5.854,1.744,8.948,4.152,9.363,8.927.374,4.152-2.3,8.3-7.889,9.633l.477,5.46Z" transform="translate(37.42 134.34)"/><path class="j" d="M72.287,178.442a5.335,5.335,0,0,1-4.152-2.076L59.5,165.737l-2.6,2.076a4.38,4.38,0,0,1-2.74,1.038,3.882,3.882,0,0,1-3.758-3.591l-3.363-23.48a4.152,4.152,0,0,1,.851-3.446,4.028,4.028,0,0,1,4.609-.893l22.027,8.719a3.841,3.841,0,0,1,1.017,6.892l-2.6,2.076,8.512,10.733a5.356,5.356,0,0,1-.851,7.515l-5.024,3.965a5.294,5.294,0,0,1-3.3,1.1ZM59.935,160.3a2.221,2.221,0,0,1,1.765.851L71.6,173.6a.893.893,0,0,0,.685.332.872.872,0,0,0,.519-.187l5-3.986a.83.83,0,0,0,.145-1.183l-9.9-12.456a2.242,2.242,0,0,1,.353-3.156l3.737-2.948-20.553-8.138,3.239,21.86,3.716-2.948a2.221,2.221,0,0,1,1.391-.457Z" transform="translate(50.525 147.48)"/><path class="l" d="M140.615,261.579a8.429,8.429,0,0,0,7.972,9.487l72.162,3.571,2.076-57.962-68.28-2.761a8.408,8.408,0,0,0-8.7,7.349Z" transform="translate(151.226 230.155)"/><path class="l" d="M186.041,224.816c-2.076-6-5.252-9.55-9.259-10.525-8.553-2.076-18.913,7.391-19.016,7.474l-2.886-3.114c.477-.457,12.165-11.148,22.836-8.491,5.481,1.349,9.612,5.792,12.248,13.224Z" transform="translate(166.648 225.667)"/><rect class="i" width="2.076" height="76.314" transform="translate(295.66 470.38) rotate(-87.49)"/><rect class="i" width="7.785" height="10.006" transform="translate(326.183 475.837) rotate(-87.81)"/><path class="i" d="M184.395,215.26l9.093,52.523s.664,4.692-11.21,5.4S184.395,215.26,184.395,215.26Z" transform="translate(190.985 231.611)"/><path class="q" d="M134.826,91.368,112.218,68.76,89.61,91.368H98.6v34.586h27.237V91.368Z" transform="translate(96.417 73.975)"/><path class="r" d="M230.57,69.381a34.748,34.748,0,1,0,0,.008Z" transform="translate(289.365 65.779)"/><g transform="translate(341.035 30.757)"><path class="g" d="M28.459,0A28.459,28.459,0,1,1,0,28.459,28.459,28.459,0,0,1,28.459,0Z" transform="translate(0 0)"/><g class="s" transform="translate(0 0)"><g transform="translate(11.772 3.308)"><path class="t" d="M72.538,146.171v0h-33v0a16.416,16.416,0,0,1,.88-5.328q.154-.452.336-.9v0c.118-.3.249-.585.386-.871a16.3,16.3,0,0,1,2.009-3.2c.2-.246.4-.485.61-.715.1-.119.211-.233.32-.348s.218-.224.33-.336a16.414,16.414,0,0,1,1.782-1.536c.314-.233.631-.451.961-.662.14-.09.283-.177.426-.261l.249-.149c.038-.019.072-.037.109-.059.075-.044.149-.084.224-.124a.02.02,0,0,1,.012-.006c.134-.071.264-.149.4-.23a9.813,9.813,0,0,0,1.117-.777,10.386,10.386,0,0,0,1.434-1.384,10.229,10.229,0,0,0,2.187-4.23c.062-.233.112-.47.155-.709a10.575,10.575,0,0,0,.162-1.841l2.4.012h.012l.42,0,2.04.009a10.511,10.511,0,0,0,.155,1.807c.041.243.093.482.155.718a9.686,9.686,0,0,0,.283.958,10.5,10.5,0,0,0,3.316,4.659c.118.1.236.19.358.277s.221.159.333.233c.025.019.047.034.071.05.112.075.224.149.342.218s.258.156.389.227a.155.155,0,0,1,.056.028c.274.152.544.311.809.476.128.078.255.159.38.249.258.165.51.345.756.532a0,0,0,0,0,0,0h0c.314.233.619.482.918.737s.585.523.862.8A16.412,16.412,0,0,1,72.538,146.171Z" transform="translate(-39.351 -88.749)"/><path class="u" d="M72.538,164.98h-33a16.416,16.416,0,0,1,.88-5.328q.154-.452.336-.9v0c.118-.3.249-.585.386-.871a16.3,16.3,0,0,1,2.009-3.2c.2-.246.4-.485.61-.715.1-.119.211-.233.32-.349s.218-.224.33-.336a16.414,16.414,0,0,1,1.782-1.536c.314-.233.631-.451.961-.662.14-.09.283-.177.426-.261l.249-.149c.038-.019.072-.037.109-.059.075-.044.149-.087.224-.127a.011.011,0,0,1,.012,0v0c.134-.075.264-.149.4-.227a9.646,9.646,0,0,0,1.11-.784l.006.006a8.866,8.866,0,0,0,6.342,2.678h.025c.137,0,.274,0,.407-.012a8.866,8.866,0,0,0,5.95-2.663l0,0a8.421,8.421,0,0,0,.687.513c.025.019.047.034.071.05.112.075.227.146.342.218s.258.152.389.224a.335.335,0,0,1,.056.028c.274.152.544.311.809.479.128.078.255.159.38.249.258.165.51.345.756.532h.006c.314.236.622.482.918.74s.585.523.862.8A16.411,16.411,0,0,1,72.538,164.98Z" transform="translate(-39.351 -107.558)"/><path class="u" d="M87.023,132.336v1.894a1.379,1.379,0,0,1-.255.8,1.4,1.4,0,0,1-1.154.607H78.065a1.416,1.416,0,0,1-1.409-1.409v-1.894a1.411,1.411,0,0,1,1.409-1.409h7.549a1.365,1.365,0,0,1,.756.224A1.4,1.4,0,0,1,87.023,132.336Z" transform="translate(-65.238 -94.627)"/><path class="u" d="M81.307,143.2v4.131H66.119v-3.064l.249-.149c.038-.019.072-.037.109-.059.075-.044.149-.084.224-.124a.02.02,0,0,1,.012-.006c.134-.071.264-.149.4-.23a9.806,9.806,0,0,0,1.117-.777,10.384,10.384,0,0,0,1.434-1.384,10.159,10.159,0,0,0,1.045-1.462h7.776a10.038,10.038,0,0,0,.939,1.337,10.185,10.185,0,0,0,1.53,1.511C81.067,143.024,81.185,143.117,81.307,143.2Z" transform="translate(-57.889 -101.01)"/><path class="v" d="M72.291,28.837a18.1,18.1,0,0,1-8.8,15.775,15.764,15.764,0,0,1-5.269,1.9,15.113,15.113,0,0,1-2.2.214c-.14,0-.28.006-.42.006h0a15.665,15.665,0,0,1-7.882-2.121,18.1,18.1,0,0,1-8.805-15.778c0-9.639,7.1-17.5,15.993-17.884a.131.131,0,0,1,.034,0l.261-.009c.131,0,.258-.006.389-.006H55.6c.134,0,.267,0,.4.006h.028c.093,0,.187.006.28.012h.009l.131.009.159.009C65.358,11.534,72.291,19.313,72.291,28.837Z" transform="translate(-38.914 -10.934)"/><path class="t" d="M77.545,23.6v9.459c0,.137,0,.274-.006.411,0,.112-.006.221-.013.333s-.009.2-.019.3c0,.071-.009.143-.015.215,0,.044-.006.084-.012.127-.006.078-.013.159-.025.236-.012.149-.031.3-.053.445,0,.037-.009.075-.015.112-.009.075-.022.149-.034.224v.009l-.056.323c-.028.149-.056.3-.087.445,0,.006,0,.012-.006.019a.454.454,0,0,1-.012.065c0,.006,0,.012-.006.019-.015.081-.034.159-.053.236a.631.631,0,0,1-.025.1c-.009.056-.025.112-.038.168-.009.031-.015.065-.028.1s-.016.056-.022.081c-.065.255-.14.5-.218.753-.037.118-.075.233-.115.352,0,.012-.009.025-.012.038l-.112.317c-.012.031-.025.062-.038.1-.037.1-.075.2-.115.3-.047.121-.1.24-.146.358s-.09.211-.137.317c-.006.019-.015.034-.022.053-.053.112-.1.224-.155.333s-.109.23-.168.345c-.112.227-.233.454-.355.675l-.168.3a18.283,18.283,0,0,1-1.589,2.314c-.078.1-.159.2-.243.3-.115.14-.233.277-.352.41-.1.112-.2.227-.308.336a.056.056,0,0,1-.012.015q-.448.481-.914.911c-.062.062-.127.118-.193.177-.106.1-.211.19-.32.28-.084.074-.171.146-.258.218-.224.184-.448.361-.675.526-.093.071-.19.14-.286.205-.155.112-.314.218-.473.32-.087.059-.177.115-.267.168a.319.319,0,0,1-.044.025c-.3.186-.61.358-.911.507-.078.041-.156.078-.233.115s-.159.075-.243.112c-.1.047-.205.09-.308.131a.892.892,0,0,1-.121.047c-.121.05-.246.1-.367.137-.152.056-.308.1-.46.146-.106.031-.215.059-.32.084a.046.046,0,0,1-.022.006c-.106.025-.211.05-.317.068a.759.759,0,0,1-.084.016c-.087.016-.174.031-.261.041-.124.019-.249.034-.373.041a.863.863,0,0,1-.128.009c-.1.006-.2.009-.292.009h-.012c-.1,0-.193,0-.289-.009a.7.7,0,0,1-.112-.009c-.087,0-.177-.012-.271-.025a.391.391,0,0,1-.059-.006c-.115-.016-.23-.034-.349-.056-.1-.016-.2-.037-.3-.062a8.944,8.944,0,0,1-1.633-.551,11.9,11.9,0,0,1-1.428-.753c-.028-.015-.053-.034-.081-.05-.211-.131-.426-.271-.635-.417-.118-.084-.236-.168-.355-.255q-.555-.406-1.1-.883c-.1-.09-.2-.181-.3-.274s-.2-.183-.3-.273c-.23-.221-.454-.448-.669-.687a.505.505,0,0,1-.04-.041q-.135-.144-.271-.3c-.249-.28-.492-.569-.722-.871-.09-.109-.174-.221-.258-.333q-.471-.625-.893-1.3c-.075-.121-.149-.246-.221-.367-.087-.146-.171-.3-.255-.445a16.985,16.985,0,0,1-.846-1.742c-.037-.087-.075-.174-.106-.261-.05-.112-.093-.227-.134-.339q-.093-.247-.178-.495c-.056-.165-.109-.333-.162-.5s-.1-.323-.14-.488-.1-.352-.137-.532c0-.019-.009-.037-.013-.056q-.088-.373-.159-.756c-.062-.336-.112-.678-.149-1.023-.016-.109-.025-.218-.034-.327s-.022-.227-.028-.342c-.016-.208-.025-.42-.031-.631,0-.137-.006-.274-.006-.411V23.6A12.664,12.664,0,0,1,64.187,10.952a.131.131,0,0,1,.034,0l.261-.009c.131,0,.258-.006.389-.006h.012c.134,0,.267,0,.4.006h.028c.093,0,.187.006.28.012H65.6l.131.009c.093.006.187.012.277.022.047,0,.09.006.137.012l.09.009a12.964,12.964,0,0,1,1.453.24,12.668,12.668,0,0,1,9.853,12.239C77.545,23.521,77.545,23.559,77.545,23.6Z" transform="translate(-48.193 -10.934)"/><path class="v" d="M73.865,28.283H42.893c0-9.321,6.56-16.923,14.79-17.331a.131.131,0,0,1,.034,0l.261-.009c.131,0,.258-.006.389-.006h.012c.134,0,.267,0,.4.006h.028c.093,0,.187.006.28.012H59.1l.131.009.159.009c.038,0,.078.006.118.013s.09.006.137.012l.09.009C67.651,11.771,73.865,19.214,73.865,28.283Z" transform="translate(-41.689 -10.934)"/></g></g></g><g transform="translate(65.541 308.505)"><g transform="translate(0 0)"><ellipse class="d" cx="28.459" cy="28.459" rx="28.459" ry="28.459"/><g class="s"><path class="t" d="M72.567,146.164v0h-33v0a16.414,16.414,0,0,1,.88-5.328q.154-.452.336-.9v0c.118-.3.249-.585.386-.871a16.316,16.316,0,0,1,2.009-3.2c.2-.246.4-.485.61-.715.1-.118.211-.233.32-.348s.218-.224.33-.336a16.347,16.347,0,0,1,1.782-1.536c.314-.233.631-.451.961-.663.118-.075.236-.149.358-.221l.162-.093c.162-.1.323-.19.488-.28a.019.019,0,0,1,.012-.006c.134-.072.264-.149.4-.23a9.846,9.846,0,0,0,1.117-.777,10.4,10.4,0,0,0,3.938-8.165l2.4.012h.006l2.466.013A10.418,10.418,0,0,0,59.124,126a9.879,9.879,0,0,0,.557,1.288,10.436,10.436,0,0,0,2.759,3.372,8.39,8.39,0,0,0,.691.51c.025.019.047.034.071.05.112.075.224.149.342.218s.258.156.389.227a.159.159,0,0,1,.056.028c.146.081.293.165.435.252q.187.107.373.224c.127.078.255.159.379.249.258.165.51.345.756.532a0,0,0,0,0,0,0h0c.314.233.619.482.918.737s.585.523.862.8A16.416,16.416,0,0,1,72.567,146.164Z" transform="translate(-27.599 -85.435)"/><path class="w" d="M72.567,164.975h-33a16.414,16.414,0,0,1,.88-5.328q.154-.452.336-.9v0c.118-.3.249-.585.386-.871a16.316,16.316,0,0,1,2.009-3.2c.2-.246.4-.485.61-.715.1-.118.211-.233.32-.349s.218-.224.33-.336a16.345,16.345,0,0,1,1.782-1.536c.314-.233.631-.451.961-.663.118-.075.236-.149.358-.221.053-.034.106-.065.159-.1.162-.1.327-.19.492-.28a.011.011,0,0,1,.012,0v0c.134-.075.264-.149.4-.227a9.648,9.648,0,0,0,1.11-.784l.006.006a8.865,8.865,0,0,0,6.342,2.678h.025a8.884,8.884,0,0,0,6.357-2.675l0,0a8.366,8.366,0,0,0,.687.513c.025.019.047.034.071.05.112.075.227.146.342.218s.258.152.389.224a.344.344,0,0,1,.056.028c.146.081.3.165.439.252.124.075.249.149.37.227s.255.159.379.249c.258.165.51.345.756.532h.006c.314.236.622.482.918.74s.585.523.862.8A16.414,16.414,0,0,1,72.567,164.975Z" transform="translate(-27.599 -104.246)"/><g transform="translate(20.101 45.215)"><path class="x" d="M83.172,150.752l0,0-.339.345a11.158,11.158,0,0,1-8.022,3.372H74.8a11.172,11.172,0,0,1-8.031-3.378l-.323-.333,0,0c.162-.1.327-.19.492-.28a.011.011,0,0,1,.012,0v0c.134-.075.264-.149.4-.227a9.646,9.646,0,0,0,1.11-.784l.006.006a8.865,8.865,0,0,0,6.342,2.678h.025a8.884,8.884,0,0,0,6.357-2.675l0,0a8.371,8.371,0,0,0,.687.513c.025.019.047.034.071.05.112.075.227.146.342.218s.258.152.389.224a.344.344,0,0,1,.056.028C82.88,150.581,83.029,150.665,83.172,150.752Z" transform="translate(-66.445 -149.462)"/></g><g transform="translate(15.805 3.303)"><path class="t" d="M77.573,34.9v7.592c0,.137,0,.274-.006.411,0,.106-.006.211-.012.317s-.009.208-.019.314c0,.071-.009.143-.015.215,0,.044-.006.084-.012.127-.006.078-.012.159-.025.236s-.012.149-.025.224-.015.146-.028.221c-.028.224-.065.448-.106.669-.028.149-.056.3-.087.445,0,.006,0,.012-.006.019a.5.5,0,0,1-.012.065c0,.006,0,.012-.006.019a.041.041,0,0,1,0,.019c-.006.031-.012.062-.022.093s-.015.075-.025.112a.681.681,0,0,1-.028.115c-.009.056-.025.112-.038.168-.009.031-.015.065-.028.1s-.015.056-.022.081c-.065.255-.14.5-.218.753-.037.118-.075.233-.115.352,0,.012-.009.025-.013.037l-.112.317c-.012.031-.025.062-.037.1-.038.1-.075.2-.115.3-.047.121-.1.24-.146.358s-.09.211-.137.317c-.006.019-.015.034-.022.053-.053.112-.1.224-.155.333s-.109.23-.168.345c-.112.227-.233.454-.355.675l-.168.3A18.317,18.317,0,0,1,73.7,53.006q-.117.154-.243.3c-.115.14-.233.277-.352.411-.106.118-.211.236-.32.352-.3.32-.6.625-.915.911-.062.062-.127.118-.193.177-.106.1-.211.19-.32.28-.084.075-.171.146-.258.218-.224.183-.448.361-.675.525-.093.072-.19.14-.286.205-.155.112-.314.218-.473.32-.087.059-.177.115-.267.168-.289.18-.585.345-.874.491-.028.015-.053.028-.081.04-.078.041-.156.078-.233.115s-.159.075-.243.112q-.154.07-.308.131a1.019,1.019,0,0,1-.121.047c-.121.05-.246.1-.367.137-.152.056-.308.1-.46.146-.106.031-.214.059-.32.084a.043.043,0,0,1-.022.006c-.106.025-.211.05-.317.068a.745.745,0,0,1-.084.015c-.087.015-.174.031-.261.041-.124.018-.249.034-.373.041a.861.861,0,0,1-.127.009c-.1.006-.2.009-.3.009H64.9c-.1,0-.193,0-.289-.009a.662.662,0,0,1-.112-.009c-.087,0-.177-.012-.271-.025a.352.352,0,0,1-.059-.006c-.115-.015-.23-.034-.349-.056-.1-.015-.2-.037-.3-.062a8.953,8.953,0,0,1-1.633-.551c-.187-.084-.376-.171-.563-.271-.289-.143-.578-.3-.865-.482-.24-.146-.479-.3-.715-.466-.118-.084-.236-.168-.355-.255-.37-.271-.737-.566-1.1-.883-.1-.09-.2-.18-.3-.274s-.2-.183-.3-.274q-.364-.35-.709-.728-.135-.145-.271-.3c-.249-.28-.492-.569-.722-.871-.09-.109-.174-.221-.258-.333q-.471-.625-.893-1.3c-.075-.121-.149-.246-.221-.367-.087-.146-.171-.3-.255-.445a17.022,17.022,0,0,1-.846-1.742c-.037-.087-.075-.174-.106-.261-.05-.112-.093-.227-.134-.339q-.093-.247-.177-.495c-.056-.165-.109-.333-.162-.5s-.1-.323-.14-.488-.1-.352-.137-.532c0-.019-.009-.038-.012-.056q-.088-.373-.159-.756c-.062-.336-.112-.678-.149-1.023-.015-.109-.025-.218-.034-.327s-.022-.227-.028-.342c-.015-.208-.025-.42-.031-.631,0-.137-.006-.274-.006-.411V34.9A12.627,12.627,0,0,1,53.231,30c.015-.044.034-.084.053-.124a12.267,12.267,0,0,1,.859-1.639c.05-.084.1-.165.155-.246a12.649,12.649,0,0,1,10.6-5.748h.012a12.824,12.824,0,0,1,2.806.311,12.7,12.7,0,0,1,7.16,4.541q.336.429.635.886c.056.084.112.168.162.255a12.361,12.361,0,0,1,.858,1.633l.056.131a12.557,12.557,0,0,1,.983,4.793C77.573,34.826,77.573,34.863,77.573,34.9Z" transform="translate(-52.245 -18.814)"/><path class="y" d="M77.573,89.189c0,.137,0,.274-.006.411,0,.106-.006.211-.012.317s-.009.208-.019.314c0,.071-.009.143-.015.215,0,.044-.006.084-.012.127-.006.078-.012.159-.025.236s-.015.149-.025.224-.015.146-.028.221c-.028.224-.065.448-.106.669-.025.131-.05.258-.078.386a.581.581,0,0,1-.015.078.5.5,0,0,1-.012.065c0,.006,0,.012-.006.019a.041.041,0,0,1,0,.019v.006c-.006.034-.015.068-.022.1a.886.886,0,0,1-.025.1.682.682,0,0,1-.028.115,1.745,1.745,0,0,1-.047.18.416.416,0,0,1-.018.084c-.006.028-.015.056-.022.081-.065.255-.14.5-.218.753-.037.118-.075.233-.115.352,0,.012-.009.025-.013.037l-.112.317c-.012.031-.025.062-.037.1-.038.1-.075.2-.115.3-.047.121-.1.24-.146.358s-.09.211-.137.317c-.006.019-.015.034-.022.053-.053.112-.1.224-.155.333s-.109.23-.168.345c-.112.227-.233.454-.355.675l-.168.3A18.317,18.317,0,0,1,73.7,99.7q-.117.154-.243.3c-.115.14-.233.277-.352.411-.106.118-.211.236-.32.352-.3.32-.6.625-.915.911-.062.062-.127.118-.193.177-.106.1-.211.19-.32.28-.084.075-.171.146-.258.218-.224.183-.448.361-.675.525-.093.072-.19.14-.286.205-.156.112-.314.218-.473.32-.087.059-.177.115-.267.168-.289.18-.585.345-.874.491-.028.015-.053.028-.081.04-.078.041-.155.078-.233.115s-.159.075-.243.112q-.154.07-.308.131a1.013,1.013,0,0,1-.121.047c-.121.05-.246.1-.367.137-.152.056-.308.1-.46.146-.106.031-.214.059-.32.084a.043.043,0,0,1-.022.006c-.106.025-.211.05-.317.068a.745.745,0,0,1-.084.015c-.087.015-.174.031-.261.041-.124.018-.249.034-.373.041a.863.863,0,0,1-.127.009c-.1.006-.2.009-.3.009H64.9c-.1,0-.193,0-.289-.009a.663.663,0,0,1-.112-.009c-.087,0-.177-.012-.271-.025a.352.352,0,0,1-.059-.006c-.115-.015-.23-.034-.349-.056-.1-.015-.2-.037-.3-.062a8.951,8.951,0,0,1-1.633-.551c-.187-.084-.376-.171-.563-.271-.289-.143-.578-.3-.865-.482-.24-.143-.476-.3-.715-.466-.118-.084-.236-.168-.355-.255-.37-.271-.737-.566-1.1-.883-.1-.09-.2-.18-.3-.274s-.2-.183-.3-.274q-.364-.35-.709-.728-.135-.145-.271-.3c-.249-.28-.492-.569-.722-.871-.09-.109-.174-.221-.258-.333q-.471-.625-.893-1.3c-.075-.121-.149-.246-.221-.367-.087-.146-.171-.3-.255-.445a17.023,17.023,0,0,1-.846-1.742c-.037-.087-.075-.174-.106-.261-.05-.112-.093-.227-.134-.339q-.093-.247-.177-.495c-.056-.165-.109-.333-.162-.5s-.1-.323-.14-.488-.1-.352-.137-.532c0-.019-.009-.038-.012-.056q-.088-.373-.159-.756c-.062-.336-.112-.678-.149-1.023-.015-.109-.025-.218-.034-.327s-.022-.227-.028-.342c-.015-.208-.025-.42-.031-.631,0-.137-.006-.274-.006-.411l2.022,3.975,3.474,1.515,4.109.37h0l3.045.277h.019l2.849.258h0l6.354.572Z" transform="translate(-52.246 -65.51)"/><g transform="translate(0.001 19.96)"><path class="y" d="M64.924,82.618l0,3.064v0l0,1.073V87.6l0,2.8v0l0,0h0l0,0-.006,0L52.667,84.167c0-.019-.009-.038-.012-.056q-.088-.373-.159-.756c-.062-.336-.112-.678-.149-1.023-.015-.109-.025-.218-.034-.327s-.022-.227-.028-.342c-.015-.208-.025-.42-.031-.631,0-.137-.006-.274-.006-.411V76.9c0,.053,0,.106,0,.159,0,.037,0,.075.006.112a12.4,12.4,0,0,0,.438,2.787,12.569,12.569,0,0,0,.793,2.137v0c.815,1.7,1.906,2.846,2.911,3.032.062.009.127.015.19.022a10.936,10.936,0,0,0,1.216.068c1.586,0,3-1.275,3.882-1.792l.019-.009c.047-.028.093-.056.134-.084a.239.239,0,0,1,.037-.022,6.291,6.291,0,0,1,3.023-.7h.025Z" transform="translate(-52.247 -76.902)"/><path class="y" d="M106.752,76.9l0,3.717a15.244,15.244,0,0,1-.249,2.734c-.065.355-.14.706-.227,1.054L103.4,88.55,94.09,90.394h0l0,0v0l-.009-7.783H94.1a6.306,6.306,0,0,1,3.026.7.215.215,0,0,1,.034.022c.044.028.09.056.137.084a.057.057,0,0,0,.016.009c.889.516,2.3,1.792,3.882,1.792a10.935,10.935,0,0,0,1.216-.068c.065-.006.127-.012.193-.022,1-.187,2.1-1.337,2.908-3.032v0a12.582,12.582,0,0,0,.793-2.137,12.24,12.24,0,0,0,.445-2.939C106.752,76.977,106.752,76.94,106.752,76.9Z" transform="translate(-81.421 -76.899)"/></g><ellipse class="t" cx="3.102" cy="0.959" rx="3.102" ry="0.959" transform="translate(9.562 28.74)"/><path class="z" d="M79.64,62.444a.1.1,0,0,0-.09-.106A33.668,33.668,0,0,0,74.95,62a51.879,51.879,0,0,0-6.143.765h-.488c-.255,0-1.076-.165-2.127-.342A25.424,25.424,0,0,0,62.176,62a34.337,34.337,0,0,0-3.932.252c-.317.037-.548.071-.669.09a.1.1,0,0,0-.09.106l-.025,1.312a.117.117,0,0,0,.068.106l.149.05c.221.084.2,4.04,1.381,5.029.7.582,1.325.915,3.953.915A3.7,3.7,0,0,0,66.4,68.22a12.25,12.25,0,0,0,1.235-2.961,1.034,1.034,0,0,1,.9-.933h.025a1.019,1.019,0,0,1,.93.933,12.249,12.249,0,0,0,1.235,2.961,3.7,3.7,0,0,0,3.387,1.636c2.628,0,3.253-.333,3.953-.915,1.179-.989,1.16-4.945,1.381-5.029l.149-.05a.117.117,0,0,0,.068-.106ZM66.4,67.125a3.455,3.455,0,0,1-2.79,2.165c-4.214.211-4.407-.964-4.681-1.9a6.41,6.41,0,0,1-.236-2.681c.109-.933.345-1.481.768-1.754a1.9,1.9,0,0,1,.886-.308,17.455,17.455,0,0,1,2.32-.106,11.984,11.984,0,0,1,1.876.143c1.5.243,2.513.753,2.513,1.253A9.393,9.393,0,0,1,66.4,67.125Zm11.8.268c-.274.933-.466,2.109-4.681,1.9a3.45,3.45,0,0,1-2.79-2.165,9.382,9.382,0,0,1-.656-3.185c0-.69,1.919-1.4,4.389-1.4s2.862.184,3.207.414a2.247,2.247,0,0,1,.768,1.754A6.416,6.416,0,0,1,78.2,67.393Z" transform="translate(-55.883 -46.544)"/><g transform="translate(0)"><path class="y" d="M77.6,22.1s0,0-.006,0H52.247c0-8.955,6.034-8.594,12.653-7.857h.006l1.415.159a14.179,14.179,0,0,0,11-3.483C80.068,12.875,80.557,20.1,77.6,22.1Z" transform="translate(-52.247 -10.918)"/><path class="y" d="M56.663,46.132l-.068.214c-.034.106-.068.211-.106.314-.031.084-.059.168-.093.249a14.442,14.442,0,0,1-2.541,4.255,7.234,7.234,0,0,0-1.6,4.547c-.006.127-.009.255-.009.389V46.66l1.039-.124,1.014-.121,1.194-.143Z" transform="translate(-52.246 -35.479)"/><path class="y" d="M126,46.668l-4.415-.527.069.213a14.285,14.285,0,0,0,2.739,4.817A7.4,7.4,0,0,1,126,56.11C126,52.786,126,46.668,126,46.668Z" transform="translate(-100.606 -35.485)"/><ellipse class="y" cx="9.436" cy="1.788" rx="9.436" ry="1.788" transform="translate(3.217 8.867)"/></g></g></g></g></g><g transform="translate(248.738 110.917)"><ellipse class="f" cx="28.459" cy="28.459" rx="28.459" ry="28.459" transform="translate(0 0)"/><g class="s" transform="translate(0 0)"><path class="t" d="M77.58,23.591v9.459c0,.137,0,.273-.006.41,0,.112-.006.221-.012.333s-.009.2-.019.3c0,.071-.009.143-.015.214,0,.044-.006.084-.013.128-.006.078-.012.159-.025.236-.012.149-.031.3-.053.445,0,.038-.009.075-.015.112-.009.075-.022.149-.034.224v.009c-.018.109-.037.214-.056.323-.028.149-.056.3-.087.445,0,.006,0,.013-.006.019a.506.506,0,0,1-.012.065c0,.006,0,.012-.006.019-.015.081-.034.159-.053.236a.607.607,0,0,1-.025.1c-.009.056-.025.112-.037.168-.009.031-.015.065-.028.1s-.015.056-.022.081c-.065.255-.14.5-.218.753-.038.118-.075.233-.115.352,0,.012-.009.025-.012.037l-.112.317c-.012.031-.025.062-.037.1-.038.1-.075.2-.115.3-.047.121-.1.239-.146.358s-.09.211-.137.317c-.006.019-.015.034-.022.053-.053.112-.1.224-.155.333s-.109.23-.168.345c-.112.227-.233.454-.355.675l-.168.3A18.306,18.306,0,0,1,73.7,43.562q-.117.154-.243.3c-.115.14-.233.277-.352.411-.106.118-.211.236-.32.352q-.448.481-.915.911c-.062.062-.127.118-.193.177-.106.1-.211.19-.32.28-.084.075-.171.146-.258.218-.224.183-.448.361-.675.525-.093.072-.19.14-.286.205-.155.112-.314.218-.473.321-.087.059-.177.115-.267.168-.317.2-.638.376-.955.532-.078.041-.156.078-.233.115s-.159.075-.243.112q-.154.07-.308.131a1,1,0,0,1-.121.047c-.121.05-.246.1-.367.137-.152.056-.308.1-.46.146-.106.031-.214.059-.32.084a.043.043,0,0,1-.022.006c-.106.025-.211.05-.317.069a.817.817,0,0,1-.084.016c-.087.015-.174.031-.261.041a3.718,3.718,0,0,1-.373.04.858.858,0,0,1-.127.009c-.1.006-.2.009-.3.009h-.009c-.1,0-.193,0-.289-.009A.665.665,0,0,1,64.5,48.9c-.087,0-.177-.012-.271-.025a.358.358,0,0,1-.059-.006c-.115-.015-.23-.034-.348-.056-.1-.016-.2-.038-.3-.062a8.964,8.964,0,0,1-1.633-.55,11.948,11.948,0,0,1-1.428-.753c-.239-.146-.479-.3-.715-.466-.118-.084-.236-.168-.355-.255q-.555-.406-1.1-.883c-.1-.09-.2-.18-.3-.273s-.2-.184-.3-.274q-.364-.35-.709-.728-.135-.145-.271-.3c-.249-.28-.491-.569-.722-.871-.09-.109-.174-.221-.258-.333q-.471-.625-.893-1.3c-.075-.121-.149-.245-.221-.367-.087-.146-.171-.3-.255-.445a16.957,16.957,0,0,1-.846-1.742c-.038-.087-.075-.174-.106-.261-.05-.112-.093-.227-.134-.339q-.093-.247-.177-.495c-.056-.165-.109-.333-.162-.5s-.1-.323-.14-.488-.1-.352-.137-.532c0-.019-.009-.038-.012-.056q-.088-.373-.159-.756c-.062-.336-.112-.678-.149-1.023-.016-.109-.025-.218-.034-.326s-.022-.227-.028-.342c-.015-.208-.025-.42-.031-.632,0-.137-.006-.273-.006-.41V23.591A12.663,12.663,0,0,1,64.906,10.929h.013a12.8,12.8,0,0,1,2.805.311,12.667,12.667,0,0,1,9.853,12.239C77.58,23.516,77.58,23.553,77.58,23.591Z" transform="translate(-36.446 -7.623)"/></g><g class="s" transform="translate(0 0)"><path class="t" d="M72.572,146.165v0h-33v0a16.414,16.414,0,0,1,.88-5.328q.154-.452.336-.9v0c.118-.3.249-.585.385-.871a16.308,16.308,0,0,1,2.009-3.2c.2-.246.4-.486.61-.715.1-.118.211-.233.32-.348s.218-.224.329-.336a16.383,16.383,0,0,1,1.782-1.536c.314-.233.631-.451.961-.662s.666-.408,1.008-.594a.02.02,0,0,1,.012-.006c.134-.072.264-.149.4-.23a9.85,9.85,0,0,0,1.117-.777,10.4,10.4,0,0,0,3.938-8.165l2.4.012,2.473.013a10.393,10.393,0,0,0,3.91,8.143,8.441,8.441,0,0,0,.69.51c.025.018.047.034.072.05.112.075.224.149.342.218s.258.156.389.227a.154.154,0,0,1,.056.028c.274.152.544.311.809.476.128.078.255.159.379.249.258.165.51.345.756.532a0,0,0,0,0,0,0h0c.314.233.619.482.918.737s.585.522.862.8A16.412,16.412,0,0,1,72.572,146.165Z" transform="translate(-27.603 -85.437)"/></g><g class="s" transform="translate(0 0)"><path class="aa" d="M72.569,164.969h-33a16.413,16.413,0,0,1,.88-5.328q.154-.452.336-.9v0c.118-.3.249-.585.386-.871a16.312,16.312,0,0,1,2.009-3.2c.2-.246.4-.485.61-.715.1-.118.211-.233.32-.348s.218-.224.33-.336a16.382,16.382,0,0,1,1.782-1.536c.314-.233.631-.451.961-.663.171-.109.342-.214.516-.317s.327-.19.492-.28a.011.011,0,0,1,.012,0v0c.134-.075.264-.149.4-.227a9.609,9.609,0,0,0,1.11-.784l.006.006a8.866,8.866,0,0,0,6.342,2.678h.025a8.885,8.885,0,0,0,6.357-2.675l0,0a8.367,8.367,0,0,0,.687.513c.025.018.047.034.071.05.112.075.227.146.342.218s.258.152.389.224a.312.312,0,0,1,.056.028c.146.081.3.165.439.252.125.075.249.149.37.227s.255.159.379.249c.258.165.51.345.756.532h.006c.314.236.622.482.918.74s.585.523.862.8A16.415,16.415,0,0,1,72.569,164.969Z" transform="translate(-27.601 -104.242)"/></g><g class="s" transform="translate(0 0)"><path class="ab" d="M77.58,84.05c0,.137,0,.273-.006.41,0,.112-.006.221-.012.333s-.009.2-.019.3c0,.071-.009.143-.015.214,0,.044-.006.084-.013.128-.006.078-.012.159-.025.236-.016.149-.031.3-.053.445,0,.038-.009.075-.015.112-.009.075-.022.149-.034.224-.015.112-.037.224-.056.333-.025.131-.05.258-.078.385a.593.593,0,0,1-.016.078c0,.021-.009.044-.012.065,0,.006,0,.012-.006.019a.163.163,0,0,1-.006.041c-.015.065-.028.131-.047.2a.605.605,0,0,1-.025.1,1.851,1.851,0,0,1-.047.18.39.39,0,0,1-.019.084c-.006.028-.015.056-.022.081-.065.255-.14.5-.218.753-.038.118-.075.233-.115.352,0,.012-.009.025-.012.037l-.112.317c-.012.031-.025.062-.037.1-.038.1-.075.2-.115.3-.047.121-.1.239-.146.358s-.09.211-.137.317c-.006.019-.015.034-.022.053-.053.112-.1.224-.156.333s-.109.23-.168.345c-.112.227-.233.454-.355.675l-.168.3A18.305,18.305,0,0,1,73.7,94.563q-.117.154-.243.3c-.115.14-.233.277-.352.411-.106.118-.211.236-.32.352q-.448.481-.915.911c-.062.062-.127.118-.193.177-.106.1-.211.19-.32.28-.084.075-.171.146-.258.218-.224.183-.448.361-.675.525-.093.072-.19.14-.286.205-.155.112-.314.218-.473.321-.087.059-.177.115-.267.168-.317.2-.638.376-.955.532-.078.041-.155.078-.233.115s-.159.075-.243.112q-.154.07-.308.131a1,1,0,0,1-.121.047c-.121.05-.246.1-.367.137-.152.056-.308.1-.46.146-.106.031-.214.059-.32.084a.043.043,0,0,1-.022.006c-.106.025-.211.05-.317.069a.814.814,0,0,1-.084.016c-.087.015-.174.031-.261.041a3.719,3.719,0,0,1-.373.04.859.859,0,0,1-.127.009c-.1.006-.2.009-.3.009h-.009c-.1,0-.193,0-.289-.009A.665.665,0,0,1,64.5,99.9c-.087,0-.177-.012-.271-.025a.36.36,0,0,1-.059-.006c-.115-.015-.23-.034-.348-.056-.1-.016-.2-.038-.3-.062a8.963,8.963,0,0,1-1.633-.55,11.95,11.95,0,0,1-1.428-.753c-.239-.143-.476-.3-.715-.466-.118-.084-.236-.168-.355-.255q-.555-.406-1.1-.883c-.1-.09-.2-.18-.3-.273s-.2-.184-.3-.274q-.364-.35-.709-.728-.135-.145-.271-.3c-.249-.28-.491-.569-.722-.871-.09-.109-.174-.221-.258-.333q-.471-.625-.893-1.3c-.075-.121-.149-.245-.221-.367-.087-.146-.171-.3-.255-.445a16.956,16.956,0,0,1-.846-1.742c-.038-.087-.075-.174-.106-.261-.05-.112-.093-.227-.134-.339q-.093-.247-.177-.495c-.056-.165-.109-.333-.162-.5s-.1-.323-.14-.488-.1-.352-.137-.532c0-.019-.009-.038-.012-.056q-.088-.373-.159-.756c-.062-.336-.112-.678-.149-1.023-.016-.109-.025-.218-.034-.326s-.022-.227-.028-.342c-.015-.208-.025-.42-.031-.632,0-.137-.006-.273-.006-.41l2.022,3.975,3.474,1.515,4.108.37h0l3.045.277h.019l2.849.258s0,0,0,0l6.354.573Z" transform="translate(-36.445 -58.623)"/></g><g class="s" transform="translate(0 0)"><path class="ab" d="M64.93,77.478l0,3.064v0l0,1.073v.843l0,2.8v0l0,0h0l-.009-.006L52.672,79.027c0-.019-.009-.038-.012-.056q-.088-.373-.159-.756c-.062-.336-.112-.678-.149-1.023-.016-.109-.025-.218-.034-.326s-.022-.227-.028-.342c-.015-.208-.025-.42-.031-.632,0-.137-.006-.273-.006-.41V71.764c0,.053,0,.106,0,.159a12.379,12.379,0,0,0,.445,2.9,12.556,12.556,0,0,0,.793,2.137v0c.815,1.7,1.907,2.846,2.911,3.032.062.009.127.016.19.022a10.934,10.934,0,0,0,1.216.068c1.586,0,3-1.275,3.882-1.792l.019-.009c.047-.028.093-.056.134-.084a.224.224,0,0,1,.038-.021,6.286,6.286,0,0,1,3.023-.7Z" transform="translate(-36.445 -50.054)"/><path class="ab" d="M106.752,71.759l0,3.717a15.244,15.244,0,0,1-.249,2.734c-.065.355-.14.706-.227,1.054L103.4,83.41l-9.312,1.844h0l0,0v0l-.009-7.783H94.1a6.309,6.309,0,0,1,3.026.7.2.2,0,0,1,.034.022c.044.028.09.056.137.084a.068.068,0,0,0,.015.009c.889.516,2.3,1.792,3.882,1.792a10.936,10.936,0,0,0,1.216-.068c.065-.006.127-.012.193-.022,1-.187,2.1-1.337,2.908-3.032v0a12.58,12.58,0,0,0,.793-2.137,12.243,12.243,0,0,0,.445-2.939C106.752,71.837,106.752,71.8,106.752,71.759Z" transform="translate(-65.615 -50.051)"/></g><g class="s"><ellipse class="t" cx="3.102" cy="0.959" rx="3.102" ry="0.959" transform="translate(25.367 30.487)"/></g><g class="s" transform="translate(0 0)"><path class="ab" d="M64.917,10.929H64.9A12.663,12.663,0,0,0,52.252,23.591v5.583s.525-3.331,1.941-4.949c1.536-1.757,1.148-4.429,4.594-4.429,2.224,0,2.348.821,6.115.821h.018c3.767,0,3.891-.821,6.115-.821,3.446,0,3.057,2.672,4.594,4.429,1.415,1.617,1.941,4.949,1.941,4.949V23.591A12.664,12.664,0,0,0,64.917,10.929Z" transform="translate(-36.445 -7.623)"/></g><g class="s" transform="translate(0 0)"><path class="ac" d="M83.173,150.745l-.342.348a11.239,11.239,0,0,1-16.059-.006l-.327-.336c.162-.1.327-.19.492-.28a.011.011,0,0,1,.012,0v0c.134-.075.264-.149.4-.227a9.608,9.608,0,0,0,1.11-.784l.006.006a8.866,8.866,0,0,0,6.342,2.678h.025a8.885,8.885,0,0,0,6.357-2.675l0,0a8.36,8.36,0,0,0,.687.513c.025.018.047.034.071.05.112.075.227.146.342.218s.258.152.389.224a.313.313,0,0,1,.056.028C82.881,150.574,83.03,150.658,83.173,150.745Z" transform="translate(-46.345 -104.241)"/></g></g><g transform="translate(156.862 186.721)"><circle class="e" cx="28.459" cy="28.459" r="28.459" transform="translate(0 0)"/><g class="ad" transform="translate(0 0)"><path class="t" d="M77.542,23.591v9.459c0,.137,0,.274-.006.411-.006.283-.022.566-.047.846-.006.1-.016.193-.028.289-.041.4-.1.8-.168,1.188-.025.131-.05.258-.078.386a.543.543,0,0,1-.015.078c-.025.131-.056.258-.087.386-.012.068-.031.137-.047.205s-.031.118-.05.177c-.066.255-.14.5-.218.753-.037.118-.074.233-.115.352,0,.012-.009.025-.012.037l-.112.317c-.012.031-.025.062-.038.1-.037.1-.074.2-.115.3-.047.121-.1.24-.146.358s-.09.211-.137.317c-.006.019-.016.034-.022.053-.053.112-.1.224-.155.333s-.109.23-.168.345c-.112.227-.233.454-.355.675l-.168.3a18.284,18.284,0,0,1-1.589,2.314c-.078.1-.159.2-.243.3-.115.14-.234.277-.352.411-.106.118-.211.236-.32.352-.3.32-.6.625-.915.911-.062.062-.128.118-.193.177-.106.1-.211.19-.32.28-.084.075-.171.146-.258.218-.224.183-.448.361-.675.525-.093.072-.19.14-.286.205-.155.112-.314.218-.473.32-.087.059-.177.115-.268.168-.317.2-.637.376-.955.532-.078.04-.156.078-.233.115s-.159.075-.243.112q-.154.07-.308.131a.968.968,0,0,1-.121.047c-.121.05-.246.1-.367.137-.152.056-.308.1-.46.146-.106.031-.214.059-.32.084a.043.043,0,0,1-.022.006c-.106.025-.211.05-.317.068a.739.739,0,0,1-.084.015c-.087.015-.174.031-.261.041-.124.019-.249.034-.373.041a.9.9,0,0,1-.128.009c-.1.006-.2.009-.3.009h-.009q-.145,0-.289-.009a.669.669,0,0,1-.112-.009c-.087,0-.177-.013-.27-.025a.387.387,0,0,1-.059-.006c-.115-.015-.23-.034-.348-.056-.1-.015-.2-.038-.3-.062a8.918,8.918,0,0,1-1.633-.551,11.9,11.9,0,0,1-1.428-.753c-.24-.146-.479-.3-.715-.466-.118-.084-.236-.168-.355-.255q-.555-.406-1.1-.883c-.1-.09-.2-.18-.3-.274s-.2-.183-.3-.273q-.364-.35-.709-.728-.135-.144-.271-.3c-.249-.28-.491-.569-.722-.871-.09-.109-.174-.221-.258-.333q-.471-.625-.893-1.3c-.074-.121-.149-.246-.221-.367-.087-.146-.171-.3-.255-.445a16.959,16.959,0,0,1-.846-1.742c-.037-.087-.075-.174-.106-.261-.05-.112-.093-.227-.134-.339q-.093-.247-.177-.495c-.056-.165-.109-.333-.162-.5s-.1-.323-.14-.488-.1-.352-.137-.532c0-.019-.009-.037-.012-.056q-.088-.373-.159-.756c-.062-.336-.112-.678-.149-1.023-.015-.109-.025-.218-.034-.327s-.021-.227-.028-.342c-.016-.208-.025-.42-.031-.631,0-.137-.006-.274-.006-.411V23.591A12.664,12.664,0,0,1,64.867,10.929h.012a12.8,12.8,0,0,1,2.805.311,12.676,12.676,0,0,1,9.858,12.351Z" transform="translate(-36.418 -7.623)"/></g><g class="ad" transform="translate(0 0)"><path class="t" d="M72.535,146.162v0h-33v0a16.416,16.416,0,0,1,.88-5.328q.154-.452.336-.9v0c.121-.3.249-.585.385-.871a16.331,16.331,0,0,1,2.009-3.2c.2-.246.4-.485.61-.715.1-.118.211-.233.32-.348s.218-.224.33-.336a16.415,16.415,0,0,1,1.782-1.536c.314-.233.631-.451.961-.663s.666-.408,1.008-.594a.02.02,0,0,1,.012-.006c.134-.071.264-.149.4-.23.258-.156.513-.323.756-.5.124-.087.243-.177.361-.274.28-.224.55-.463.809-.715.084-.084.168-.168.252-.255.174-.181.339-.37.5-.563.078-.093.156-.19.227-.286s.146-.2.218-.3a10.35,10.35,0,0,0,1.935-6.05l2.4.012,2.472.012a10.411,10.411,0,0,0,3.91,8.143c.115.093.23.184.345.267s.227.165.345.243c.025.019.047.034.072.05.112.075.224.149.342.218s.258.156.389.227a.153.153,0,0,1,.056.028c.274.152.545.311.809.476.127.078.255.159.379.249q.388.252.756.532a0,0,0,0,0,0,0h0a16.655,16.655,0,0,1,1.779,1.536A16.416,16.416,0,0,1,72.535,146.162Z" transform="translate(-27.577 -85.434)"/></g><g class="ad" transform="translate(0 0)"><path class="ae" d="M72.536,164.974h-33a16.422,16.422,0,0,1,.88-5.328q.154-.453.336-.9s0,0,0,0c.118-.3.249-.585.385-.871a16.33,16.33,0,0,1,2.009-3.2c.2-.246.4-.485.61-.715.1-.118.211-.233.32-.348s.218-.224.33-.336a16.389,16.389,0,0,1,1.782-1.536c.314-.233.631-.451.961-.663s.666-.411,1.008-.6a.011.011,0,0,1,.012,0v0c.134-.075.264-.149.4-.227a9.613,9.613,0,0,0,1.111-.784l.006.006a8.865,8.865,0,0,0,6.342,2.678h.025a8.884,8.884,0,0,0,6.357-2.675l0,0a8.323,8.323,0,0,0,.687.513c.025.018.047.034.071.05.112.075.227.146.342.218s.258.152.389.224a.3.3,0,0,1,.056.028c.274.152.545.311.809.479.127.078.255.159.379.249.258.165.51.345.756.532h.006a16.52,16.52,0,0,1,6.627,13.216Z" transform="translate(-27.578 -104.246)"/></g><g class="ad" transform="translate(0 0)"><path class="ab" d="M77.541,84.049c0,.137,0,.274-.006.411-.006.283-.022.566-.047.846-.006.1-.016.193-.028.289-.041.4-.1.8-.168,1.188-.025.131-.05.258-.078.386a.544.544,0,0,1-.015.078c-.025.131-.056.258-.087.386-.016.075-.034.146-.056.218a1.391,1.391,0,0,1-.04.165c-.066.255-.14.5-.218.753-.037.118-.074.233-.115.352,0,.012-.009.025-.012.037l-.112.317c-.012.031-.025.062-.038.1-.037.1-.074.2-.115.3-.047.121-.1.24-.146.358s-.09.211-.137.317c-.006.019-.016.034-.022.053-.053.112-.1.224-.156.333s-.109.23-.168.345c-.112.227-.233.454-.355.675l-.168.3a18.283,18.283,0,0,1-1.589,2.314c-.078.1-.159.2-.243.3-.115.14-.234.277-.352.411-.106.118-.211.236-.32.352-.3.32-.6.625-.915.911-.062.062-.128.118-.193.177-.106.1-.211.19-.32.28-.084.075-.171.146-.258.218-.224.183-.448.361-.675.525-.093.072-.19.14-.286.205-.155.112-.314.218-.473.32-.087.059-.177.115-.268.168-.317.2-.637.376-.955.532-.078.04-.155.078-.233.115s-.159.075-.243.112q-.154.07-.308.131a.966.966,0,0,1-.121.047c-.121.05-.246.1-.367.137-.152.056-.308.1-.46.146-.106.031-.214.059-.32.084a.043.043,0,0,1-.022.006c-.106.025-.211.05-.317.068a.737.737,0,0,1-.084.015c-.087.015-.174.031-.261.041-.124.019-.249.034-.373.041a.9.9,0,0,1-.128.009c-.1.006-.2.009-.3.009h-.009q-.145,0-.289-.009a.668.668,0,0,1-.112-.009c-.087,0-.177-.013-.27-.025a.385.385,0,0,1-.059-.006c-.115-.015-.23-.034-.349-.056-.1-.015-.2-.038-.3-.062a8.919,8.919,0,0,1-1.633-.551,11.9,11.9,0,0,1-1.428-.753c-.24-.143-.476-.3-.715-.466-.118-.084-.236-.168-.355-.255q-.555-.406-1.1-.883c-.1-.09-.2-.18-.3-.274s-.2-.183-.3-.273q-.364-.35-.709-.728-.135-.144-.271-.3c-.249-.28-.491-.569-.722-.871-.09-.109-.174-.221-.258-.333q-.471-.625-.893-1.3c-.074-.121-.149-.246-.221-.367-.087-.146-.171-.3-.255-.445a16.96,16.96,0,0,1-.846-1.742c-.037-.087-.075-.174-.106-.261-.05-.112-.093-.227-.134-.339q-.093-.247-.177-.495c-.056-.165-.109-.333-.162-.5s-.1-.323-.14-.488-.1-.352-.137-.532c0-.019-.009-.037-.012-.056q-.089-.373-.159-.756c-.062-.336-.112-.678-.149-1.023-.015-.109-.025-.218-.034-.327s-.021-.227-.028-.342c-.016-.208-.025-.42-.031-.631,0-.137-.006-.274-.006-.411l2.022,3.975,3.474,1.515,4.109.37,3.048.277h.019l2.852.258,6.354.572Z" transform="translate(-36.418 -58.623)"/></g><g class="ad" transform="translate(0 0)"><path class="ab" d="M74.847,15.783a17.416,17.416,0,0,1-2.376,3.888c-.056.069-.112.137-.171.205a17.435,17.435,0,0,1-7.43,5.241,16.945,16.945,0,0,1-2.376.684q-.816.172-1.661.271a18.006,18.006,0,0,1-1.975.109,17.366,17.366,0,0,1-2.252-.146,16.429,16.429,0,0,1-2.118-.4c-.4-.1-.781-.214-1.163-.342s-.743-.261-1.107-.411V23.594A12.664,12.664,0,0,1,64.87,10.932h.012a12.8,12.8,0,0,1,2.805.311,12.7,12.7,0,0,1,7.16,4.54Z" transform="translate(-36.42 -7.625)"/></g><g class="ad" transform="translate(0 0)"><path class="ab" d="M118.677,26.136v2.491a19.415,19.415,0,0,1-5.238-6.2s0-.009-.006-.012a19.293,19.293,0,0,1-2.242-7.841,12.673,12.673,0,0,1,7.486,11.558Z" transform="translate(-77.554 -10.168)"/></g><g class="ad" transform="translate(0 0)"><path class="ab" d="M53.7,55.181c-.133.233-.255.473-.376.718-.046.1-.093.2-.14.3a10.542,10.542,0,0,0-.964,3.907c0,.034,0,.071,0,.106V55.333c0-.174.006-.345.006-.513C52.713,54.948,53.2,55.072,53.7,55.181Z" transform="translate(-36.419 -38.236)"/></g><g class="ad" transform="translate(0 0)"><path class="ab" d="M131.054,55.184c.188.331.356.669.517,1.017a10.422,10.422,0,0,1,.967,4.014v-4.88c0-.172-.006-.343-.006-.511C132.041,54.951,131.551,55.073,131.054,55.184Z" transform="translate(-91.408 -38.239)"/></g><g class="ad" transform="translate(0 0)"><path class="z" d="M79.455,59.126a.108.108,0,0,0-.093-.106,33.9,33.9,0,0,0-4.631-.345,52.194,52.194,0,0,0-6.19.771h-.491c-.258,0-1.085-.168-2.143-.345a25.775,25.775,0,0,0-4.046-.426,34.03,34.03,0,0,0-3.959.255c-.317.038-.551.071-.672.09a.108.108,0,0,0-.093.106l-.025,1.322a.115.115,0,0,0,.071.106l.149.053c.221.084.2,4.068,1.39,5.064.706.588,1.334.924,3.981.924a3.725,3.725,0,0,0,3.412-1.648,12.267,12.267,0,0,0,1.244-2.983,1.037,1.037,0,0,1,.924-.939h.012a1.027,1.027,0,0,1,.936.939,12.279,12.279,0,0,0,1.244,2.983,3.724,3.724,0,0,0,3.412,1.648c2.647,0,3.275-.336,3.981-.924,1.188-1,1.17-4.979,1.39-5.064l.149-.053a.115.115,0,0,0,.071-.106Zm-13.34,4.715a3.474,3.474,0,0,1-2.809,2.18c-4.246.214-4.442-.97-4.715-1.91a6.465,6.465,0,0,1-.24-2.7c.112-.939.349-1.49.775-1.767a1.933,1.933,0,0,1,.893-.308,17.044,17.044,0,0,1,2.339-.109,11.767,11.767,0,0,1,1.888.146c1.512.243,2.532.756,2.532,1.263A9.425,9.425,0,0,1,66.114,63.841ZM78,64.112c-.273.939-.469,2.124-4.715,1.91a3.474,3.474,0,0,1-2.809-2.18,9.416,9.416,0,0,1-.662-3.207c0-.7,1.935-1.409,4.419-1.409s2.883.187,3.232.417c.426.277.662.827.774,1.767A6.453,6.453,0,0,1,78,64.112Z" transform="translate(-39.833 -40.925)"/></g><g class="ad" transform="translate(0 0)"><path class="ab" d="M64.893,77.477l0,3.067,0,1.073v.843l0,2.8v0l0,0h0l-.009-.006L52.635,79.027c0-.019-.009-.037-.012-.056q-.088-.373-.159-.756c-.062-.336-.112-.678-.149-1.023-.015-.109-.025-.218-.034-.327s-.021-.227-.028-.342c-.016-.208-.025-.42-.031-.631,0-.137-.006-.274-.006-.411V71.764c0,.053,0,.106,0,.159a12.377,12.377,0,0,0,.445,2.9,12.582,12.582,0,0,0,.793,2.137v0c.815,1.7,1.907,2.846,2.911,3.032.062.009.128.015.19.022a10.936,10.936,0,0,0,1.216.068c1.586,0,3-1.275,3.882-1.792l.019-.009c.047-.028.093-.056.134-.084a.237.237,0,0,1,.037-.022,6.291,6.291,0,0,1,3.023-.7h.025Z" transform="translate(-36.419 -50.054)"/><path class="ab" d="M106.718,71.764l0,3.717a15.247,15.247,0,0,1-.249,2.734c-.066.355-.14.706-.227,1.054l-2.871,4.146L94.056,85.26h0l0,0v0l-.009-7.783h.025a6.307,6.307,0,0,1,3.026.7.23.23,0,0,1,.034.022c.044.028.09.056.137.084a.062.062,0,0,0,.015.009c.89.516,2.3,1.792,3.882,1.792a10.926,10.926,0,0,0,1.216-.068c.065-.006.128-.012.193-.022,1-.187,2.1-1.337,2.908-3.032v0a12.581,12.581,0,0,0,.793-2.137,12.239,12.239,0,0,0,.445-2.939C106.718,71.842,106.718,71.8,106.718,71.764Z" transform="translate(-65.592 -50.054)"/></g><g class="ad"><ellipse class="t" cx="3.102" cy="0.959" rx="3.102" ry="0.959" transform="translate(25.357 30.489)"/></g><g class="ad" transform="translate(0 0)"><path class="af" d="M61.084,155.174v17.11H59.762V156.138c.177-.143.355-.283.535-.417C60.555,155.529,60.816,155.348,61.084,155.174Z" transform="translate(-41.683 -108.231)"/><path class="af" d="M124.021,155.185v17.107h1.322V156.149Z" transform="translate(-86.502 -108.239)"/></g><g class="ad" transform="translate(0 0)"><g transform="translate(24.841 45.896)"><path class="v" d="M82.113,151.713l3.618,4.337,3.619-4.337Z" transform="translate(-82.113 -151.713)"/><path class="v" d="M89.141,179.543H87l1.546-19.906c.065.253,1.123.253,1.188,0l1.546,19.906Z" transform="translate(-85.522 -157.24)"/></g><g transform="translate(21.743 43.093)"><path class="ag" d="M78.587,145.256l-.009.015,0,.006-1.5,2.522-1.4,2.351-3.8-5.278c.121-.087.243-.18.358-.277l.006.006a10.345,10.345,0,0,0,2-2.115l4.339,2.762Z" transform="translate(-71.872 -142.476)"/><path class="ag" d="M100.788,144.845l-3.8,5.278-1.4-2.351-1.506-2.522-.012-.022,4.367-2.78a10.432,10.432,0,0,0,2.006,2.13C100.558,144.671,100.672,144.761,100.788,144.845Z" transform="translate(-87.354 -142.447)"/></g></g></g><path class="ah" d="M1607.483,4554.486l12.489,13.995,25.538-25.537" transform="translate(-1141.174 -4420.434)"/></g><g transform="translate(1309.013 4453.501)"><path class="ai" d="M141.051,47.07a14.424,14.424,0,1,1,3.214-28.641,1.071,1.071,0,0,1,.824,1.3,1.113,1.113,0,0,1-1.319.824A12.363,12.363,0,1,0,153.126,35.3,12.652,12.652,0,0,0,153,29.349a1.113,1.113,0,0,1,.762-1.339,1.092,1.092,0,0,1,1.339.762,14.424,14.424,0,0,1-13.991,18.3Z" transform="translate(-127.623 -12.699)"/><path class="ai" d="M138.68,38.556a1.071,1.071,0,0,1-.721-.288l-7.912-7.15a1.094,1.094,0,0,1,1.463-1.628l7.068,6.429L156.525,15.87a1.086,1.086,0,0,1,1.525,1.545L139.381,38.268a1.092,1.092,0,0,1-.762.371Z" transform="translate(-125.438 -15.56)"/></g></g></svg>