<svg xmlns="http://www.w3.org/2000/svg" width="620.912" height="577.154" viewBox="0 0 620.912 577.154"><defs><style>.a{fill:#e6edff;}.b{fill:#cbcfff;}.b,.h{opacity:0.6;}.c,.e,.h{fill:#fff;}.c,.f,.g{opacity:0.3;}.d{fill:#5b55ff;}.f{fill:#a8bcff;}.g{fill:#da97b8;}.i{fill:#c3cfce;}.j{fill:#5c75c3;}.k{fill:#5fa4ad;}.l{fill:#cae1fc;}.m{fill:#fad583;}.n{fill:#f5b29c;}.o{fill:#0b1238;}.p{fill:#b9b3c0;}.q{fill:#5cc6ff;}.r{fill:#2d3152;}.s{fill:#3d4166;}.t{fill:#cdd8e4;}.u{fill:#4f5a79;}.v{fill:#bfd4f8;}.w{fill:#7ab6f6;}.x{fill:#fa7071;}.y{fill:#fae7a9;}.z{fill:#ecb95a;}</style></defs><g transform="translate(-223.412 -3643.752)"><g transform="translate(223.412 3643.751)"><path class="a" d="M498.091,566.7c6.4.256,12.808.406,19.212.406,31.4,0,62.141,3.906,83.253-21.817,40.815-49.61,9.563-122.724-2.028-177.649-8.133-38.531-3.48-74.33.363-113.139,7.066-71.47,4.888-171.373-62.354-215.924C485.71,4.889,420.687,10.823,362.367,10.289c-63.507-.6-123.279-17.227-187.319-6.938C118.905,12.36,47.841,45.683,42.376,109.83c-1.366,15.818,1.836,30.313,7.194,44.829,8.859,24.058,22.372,46.536,27.516,70.616C90.855,289.7,44.362,351.67,17.635,407.791c-17.4,36.5-26.513,75.184-5.4,112.029a85.964,85.964,0,0,0,33.878,33.621c22.286,11.506,43.953,11.976,67.072,18.145,29.1,7.77,58.768,4.269,88.483,3.821,29.1-.448,58.17.918,87.245,1.708,27.409.726,47.967-8.731,74.714-12.467C408.327,558.415,453.3,564.968,498.091,566.7Z" transform="translate(0.002 0)"/><path class="b" d="M349.418,142.659A113.459,113.459,0,1,1,235.959,29.2,113.459,113.459,0,0,1,349.418,142.659Z" transform="translate(139.005 33.133)"/><path class="c" d="M266.937,221a87.044,87.044,0,1,0,0,.014Z" transform="translate(104.953 151.799)"/><path class="d" d="M182.436,148.541c-4.547,6.618-5.059,7.365-25.168,12.189s-23.631,16.288-23.631,16.288l-4.547-21.881s3.544-11.485,23.631-16.288,20.621-5.572,25.168-12.189Z" transform="translate(146.483 143.72)"/><path class="e" d="M154.059,140.839a8.539,8.539,0,1,1-10.225-7.578,9.03,9.03,0,0,1,10.225,7.578Z" transform="translate(155.477 151.102)"/><path class="d" d="M102.837,131.295c-8.026-.64-8.9-.7-23.14-15.711S53.76,103.266,53.76,103.266L70.368,88.323S82.023,85.7,96.3,100.768s15.114,15.071,23.14,15.69Z" transform="translate(61.006 100.021)"/><path class="e" d="M79.509,108.668a8.539,8.539,0,1,1,1.409-12.659,9.051,9.051,0,0,1-1.409,12.659Z" transform="translate(74.919 105.72)"/><path class="f" d="M226.864,258.881c0,4.269-34.347,7.941-76.742,7.941s-76.742-3.565-76.742-7.941,34.369-7.941,76.849-7.941S226.864,254.5,226.864,258.881Z" transform="translate(83.269 284.74)"/><path class="g" d="M361.116,259.127c0,4.077-43.868,7.407-98,7.407s-97.982-3.33-97.982-7.407S209,251.72,263.112,251.72,361.116,255.029,361.116,259.127Z" transform="translate(187.377 285.625)"/><path class="c" d="M223.078,65.638a31,31,0,1,0,0,.007Z" transform="translate(183.031 39.453)"/><path class="h" d="M95.753,139.757A12.936,12.936,0,1,1,82.945,126.82,12.936,12.936,0,0,1,95.753,139.757Z" transform="translate(79.297 143.902)"/><path class="c" d="M97.877,180.794A27.474,27.474,0,1,1,70.4,153.32,27.473,27.473,0,0,1,97.877,180.794Z" transform="translate(48.717 173.971)"/><path class="i" d="M172.4,163.421a2.135,2.135,0,1,0,3.138,0,2.241,2.241,0,0,0-3.138,0Zm2.711,3.266a1.516,1.516,0,1,1-.092-2.043A1.516,1.516,0,0,1,175.112,166.687Z" transform="translate(194.985 184.706)"/><path class="f" d="M143.13,258.456c0,2.241-29.1,4.056-64.98,4.056s-64.98-1.814-64.98-4.056,29.1-4.056,64.98-4.056S143.13,256.214,143.13,258.456Z" transform="translate(14.949 288.666)"/><path class="j" d="M286.625,261.288l2.263,10.5-35.777,7.429s-2.647-6.81,10.93-11.848,11.143-8.539,11.143-8.539l-2.562-15.5,12.808-5.315Z" transform="translate(286.972 270.08)"/><rect class="k" width="116.063" height="70.061" rx="3.67" transform="translate(119.975 74.031)"/><rect class="l" width="91.749" height="8.048" transform="translate(128.855 112.498)"/><rect class="l" width="61.159" height="3.522" transform="translate(159.445 126.908)"/><rect class="l" width="19.596" height="3.522" transform="translate(128.855 126.908)"/><rect class="l" width="20.386" height="16.458" transform="translate(131.203 89.316)"/><path class="m" d="M110.416,49.64a9.8,9.8,0,1,1-2.862-6.942,9.8,9.8,0,0,1,2.862,6.942Z" transform="translate(103.058 45.184)"/><path class="e" d="M116.719,49.64a9.82,9.82,0,1,1-9.8-9.82A9.82,9.82,0,0,1,116.719,49.64Z" transform="translate(110.161 45.184)"/><path class="n" d="M215.013,118.46c-5.956.512-18.551,9.692-24.037,6.746-10.311-5.572-22.863,6.4-28.648,18.124-1.366,2.754,6.063-2.946,6.063-2.946,2.135-4.269,10.14-6.831,19.639-1.708s22.35-2.519,22.35-2.519c1.046.256,7.77-4.013,8.838-3.8Z" transform="translate(184.009 134.416)"/><path class="n" d="M242.725,30.774c-11.335.811-23.78,16.437-25.616,27.367-1.622,9.756-8.539,22.649-8.539,22.649l8.069,4.035s5.422,23.716,21.624,23.119c10.353-.363,26.278-1,30.8-13.513,3.842-10.673,3.458-32.02-.192-42.331-3.266-9.243-14.431-20.152-23.93-21.347a11.89,11.89,0,0,0-2.22.021Z" transform="translate(236.668 34.847)"/><path class="n" d="M223.742,81.627s2.455,9.969-8.069,21.518c-6.9,7.557,49.1-7.642,49.1-7.642s-6.02-8.09-1.281-36.14C267.781,34.685,226.794,78.617,223.742,81.627Z" transform="translate(244.06 58.857)"/><path class="o" d="M244.114,71.133c-2.391,2.434-31.871-7.664-33.13-12.253-1.75-6.4.939-10.951,6.148-10.332-17.568-20.28,22.03-22.82,36.29-16.843,15.263,6.4,22.478,21.9,21.069,39.193-.79,9.542-3.309,16.736-12.915,17.27-1.857.107-14.473-5.764-14.2-5.977s7.471-5.358,5.614-11.719S244.114,71.133,244.114,71.133Z" transform="translate(238.802 32.763)"/><path class="p" d="M229.14,67.006c.747-.491,1.516-.982,2.284-1.516a13.127,13.127,0,0,1-2.284,1.516Z" transform="translate(260.009 74.311)"/><path class="p" d="M241.134,66.2a56.89,56.89,0,0,1-22.564,8.539,32.791,32.791,0,0,0,1.815-8.539C230.4,70.512,237.654,68.057,241.134,66.2Z" transform="translate(248.015 75.117)"/><path class="q" d="M258.337,78.676c-10.332,7.386-16.394,25.808-19.661,33.259-5.721,12.936-4.462,22.521-15.541,31.871-17.782,14.943-23.482,16.01-42.566,23.183a173.486,173.486,0,0,0,8.539,15.583c9.2-.491,33.771-9.649,41.733-14.751,14.025-9.008,22.841-25.317,36.29-35.415C267.046,132.406,259.191,77.779,258.337,78.676Z" transform="translate(204.897 89.261)"/><path class="r" d="M219.318,172.586s28.178,73.583,43.8,97.107c18.294,27.559,46.963,88.633,47.561,104.6l16.885-4.035s.939-51.873-12.637-74.714S297.32,251.014,290.6,226.7s-13.726-83.253-13.726-83.253S204.055,117.233,219.318,172.586Z" transform="translate(246.477 155.73)"/><path class="j" d="M208.828,261.314l-.961,10.246-35.137-7.407s-.448-7.087,13.534-6.255,12.808-3.245,12.808-3.245l2.135-14.793,13.256.256Z" transform="translate(196 272.168)"/><path class="s" d="M249.214,146.965S214.29,271.716,213.351,273.68,182.27,390.341,182.27,390.341s13.683,5.081,22.286,2.583a1004.46,1004.46,0,0,0,37.485-100.48c20.258-27.345,28.178-42.416,40.559-63.55s40.559-35.351,36.866-83.4S253.163,119.022,249.214,146.965Z" transform="translate(206.826 132.872)"/><path class="q" d="M224.649,84.953a102.231,102.231,0,0,0-16.138,37.955c-3.2,18.1.64,36.29,3.778,54.072,1.537,8.539,3.8,18.081,3.287,26.9-.363,6.4-2.668,12.274-2.135,19.02,19.511,1.131,39.364,0,58.982.811,4.782.213,14.943,2.54,18.679-1.452,5.059-5.422,2.135-16.608,2.284-23.119.235-9.777-3.864-18.23-4.7-28.05-1.281-14.943,2.263-31.124,4.739-45.853,4.269-25.616,3.736-37.357-5.572-48.458S271.1,65.1,261.793,71.525,236.539,82.6,224.649,84.953Z" transform="translate(235.233 76.473)"/><path class="t" d="M261.9,175.779c0-15.989,4.654-32.938,8.24-48.415,3.736-16.1,5.337-27.047,4.269-35.884-.619-1.259-1.238-2.412-1.9-3.48-7.429-11.976-16.885-24.549-29.459-10.8s4.269,38.424,11.164,59,4.056,25.1,0,38.126-24.1,46.494-24.1,46.494l-9.414,7.92c6.7.47,13.406,1,20.066,1.793.171-.939.256-1.516.256-1.516s11.463-11.57,23.482-26.492C264.632,193.454,261.9,185.107,261.9,175.779Z" transform="translate(250.432 80.79)"/><path class="n" d="M274.892,88.1c-7.429-12-16.885-24.549-29.48-10.823s4.269,38.424,11.164,59,4.077,25.125,0,38.147-24.1,46.472-24.1,46.472l-11.655,9.82s7.45,12.531,13.811,13.662S245.9,230.993,245.9,230.993s35.777-40.559,46.131-67.712C291.948,163.28,286.974,107.629,274.892,88.1Z" transform="translate(250.568 80.886)"/><path class="q" d="M268.062,88.1c-7.429-12-16.885-24.549-29.48-10.823s4.269,38.424,11.164,59,4.077,25.125,0,38.147c-2.818,8.752-7.578,17.078-11.912,25-1.58,2.925-10.887,16.928-10.994,20.194-.149,5.209,13.854,7.6,17.291,10.118,4.483-2.946,10.118-11.869,13.491-16.032,4.269-5.209,6.874-11.1,10.951-16.437,7.77-10.118,12-21.838,16.629-33.984C285.118,163.28,280.144,107.629,268.062,88.1Z" transform="translate(257.398 80.886)"/><path class="e" d="M244.736,165.971c-11.848,0-25.1-19.661-25.616-20.536l1.772-1.2c.149.235,14.943,22.115,25.83,19.362l.534,2.135a9.5,9.5,0,0,1-2.519.235Z" transform="translate(248.639 163.668)"/><path class="u" d="M267.743,266.784H26.01l29.5-51.489,223.076-2.135Z" transform="translate(29.518 241.872)"/><path class="v" d="M266.243,268.784H24.51l29.5-51.489,223.076-2.135Z" transform="translate(27.816 244.141)"/><path class="u" d="M27.323,366.809a3.053,3.053,0,0,1,0-6.105L263.1,358.889l70.829-223.844a3.053,3.053,0,0,1,5.806,1.857L268.2,362.86a3.074,3.074,0,0,1-2.882,2.135L27.344,366.83Z" transform="translate(27.544 151.004)"/><path class="s" d="M66.763,255.806A16.266,16.266,0,1,1,50.5,239.54,16.266,16.266,0,0,1,66.763,255.806Z" transform="translate(38.846 271.805)"/><path class="s" d="M143.183,255.806a16.266,16.266,0,1,1-16.266-16.266A16.266,16.266,0,0,1,143.183,255.806Z" transform="translate(125.559 271.805)"/><path class="w" d="M131.969,251.914a8.944,8.944,0,1,1-8.944-8.944,8.944,8.944,0,0,1,8.944,8.944Z" transform="translate(129.451 275.697)"/><circle class="w" cx="8.944" cy="8.944" r="8.944" transform="translate(80.398 518.667)"/><path class="s" d="M183.542,136.07a7.941,7.941,0,1,1-7.92-7.92,7.941,7.941,0,0,1,7.92,7.92Z" transform="translate(190.248 145.411)"/><path class="x" d="M190.418,372.665c30.612-2.135,51.233-22.2,62.931-49.546S247.393,261,232.6,234.038c-14.6-26.6-46.643-58.021-46.643-58.021s2.263-9.756,16.373-28.9-2.135-27.879-11.058-23.652-11.229,8.368-19.554,14.046c5.977-20.621-7.642-27.367-18.7-27.367-15.284,0-23.247,16.757-23.823,25.147-9.072-8.539-21.774-17.078-30.611-5.913-11.058,14.046,17.078,33.259,18.721,46.6C111.349,187.8,92.628,207.76,81.57,221.08c-15.9,19.212-36.546,43.633-39.961,71.726-2.305,19.212,7.664,56.954,39.129,71.747S152.357,375.418,190.418,372.665Z" transform="translate(46.858 124.975)"/><path class="t" d="M105.092,141.16s-59.131,85.665-30.1,98.858S105.092,141.16,105.092,141.16Z" transform="translate(75.999 160.174)"/><path class="m" d="M105.124,252.347V182.522c0-8.859-14.068-16.032-31.4-16.032S42.3,173.684,42.3,182.522v71.726a2.135,2.135,0,0,1,0,1.025v49.589c0,9.072,14.2,16.437,31.679,16.437s31.722-7.365,31.722-16.437V255.272a9.2,9.2,0,0,0-.576-2.924Z" transform="translate(48.003 188.915)"/><path class="y" d="M52.936,306.713V176.86H45.23V302.807a31.678,31.678,0,0,0,7.706,3.906Z" transform="translate(51.327 200.682)"/><path class="y" d="M51.25,308.165a58.469,58.469,0,0,0,23.119.406V176.86H51.25Z" transform="translate(58.158 200.682)"/><path class="m" d="M104.07,182.252c0,8.539-13.79,15.412-30.825,15.412s-30.825-7-30.825-15.412S56.231,166.84,73.245,166.84,104.07,173.735,104.07,182.252Z" transform="translate(48.139 189.312)"/><path class="z" d="M73.7,214.738c14.815,0,27.068-4.974,31.4-12.04V195.27A1.708,1.708,0,0,0,103.4,197c0,7.749-13.6,14.3-29.694,14.3S44.009,204.748,44.009,197a1.729,1.729,0,0,0-1.729-1.729V202.7C46.677,209.765,58.909,214.738,73.7,214.738Z" transform="translate(47.98 221.572)"/><path class="z" d="M73.68,203.978c14.815,0,27.068-4.974,31.4-12.04V184.51a1.708,1.708,0,0,0-1.708,1.708c.043,7.877-13.555,14.281-29.694,14.281s-29.651-6.4-29.651-14.281A1.708,1.708,0,0,0,42.3,184.51v7.45C46.655,199,58.887,203.978,73.68,203.978Z" transform="translate(48.003 209.362)"/><path class="z" d="M42.3,180.407c4.269,7.066,16.587,12.061,31.423,12.061s27.068-5,31.4-12.061v-5.273a8.689,8.689,0,0,0-.3-2.135,1.665,1.665,0,0,0-1.409,1.644c0,7.77-13.6,14.324-29.694,14.324s-29.694-6.554-29.694-14.324A1.665,1.665,0,0,0,42.6,173a8.689,8.689,0,0,0-.3,2.135Z" transform="translate(48.003 196.302)"/><path class="z" d="M105.621,226.321v-7.45a1.686,1.686,0,0,0-1.75,1.708c0,7.962-13.726,14.708-29.886,14.708S44.1,228.542,44.1,220.579a1.729,1.729,0,0,0-1.729-1.729v7.535c4.376,7.237,16.715,12.317,31.657,12.317S101.352,233.579,105.621,226.321Z" transform="translate(48.082 248.328)"/><path class="z" d="M73.68,226.038c15.5,0,28.157-5.422,32.02-13.022v-3.223a9.2,9.2,0,0,0-.534-2.925v-.3a1.708,1.708,0,0,0-1.708,1.729c0,7.749-13.6,14.324-29.694,14.324s-29.736-6.6-29.736-14.324A1.729,1.729,0,0,0,42.3,206.57V208.7a2.135,2.135,0,0,1,0,1.025V214C46.655,221.065,58.887,226.038,73.68,226.038Z" transform="translate(48.003 234.394)"/><path class="m" d="M70.785,252.127v-32.7c0-7.92,12.573-14.324,28.071-14.324s27.986,6.4,27.986,14.324v43.27c0,7.9-12.573,14.324-28.071,14.324S70.7,270.614,70.7,262.694Z" transform="translate(80.228 232.726)"/><path class="y" d="M74.91,262.4a34.77,34.77,0,0,0,6.063,2.135v-53H74.91Z" transform="translate(85.005 240.022)"/><path class="y" d="M79.64,267.116a52.619,52.619,0,0,0,18.166,0V213.13H79.64Z" transform="translate(90.372 241.837)"/><ellipse class="m" cx="25.68" cy="12.851" rx="25.68" ry="12.851" transform="translate(152.209 440.046)"/><path class="z" d="M98.811,238.861c13.15,0,24.015-4.269,28.071-10.673V221.1a1.729,1.729,0,0,0-1.729,1.729c0,6.831-12.061,12.616-26.342,12.616s-26.342-5.785-26.342-12.616A1.729,1.729,0,0,0,70.74,221.1v7.13C74.8,234.485,85.661,238.861,98.811,238.861Z" transform="translate(80.273 250.881)"/><path class="z" d="M126.842,217.961v-5.017a8.218,8.218,0,0,0-.32-2.135,1.686,1.686,0,0,0-1.409,1.644c0,6.831-12.061,12.616-26.342,12.616s-26.342-5.785-26.342-12.616a1.686,1.686,0,0,0-1.409-1.644,7.342,7.342,0,0,0-.32,2.135v5.017c4.056,6.233,14.943,10.673,28.071,10.673S122.872,224.195,126.842,217.961Z" transform="translate(80.228 239.205)"/><path class="t" d="M102.26,141.38s13.833,84.982,37.208,81.118S102.26,141.38,102.26,141.38Z" transform="translate(116.039 160.423)"/><path class="t" d="M96.523,155.134s9.414-31.038-.3-32.383S96.523,155.134,96.523,155.134Z" transform="translate(104.378 139.24)"/><path class="t" d="M91.992,155.166s-1.473-32.4-11.079-30.441S91.992,155.166,91.992,155.166Z" transform="translate(88.929 141.428)"/><path class="t" d="M101.09,150.724s28.455-15.541,22.478-23.311S101.09,150.724,101.09,150.724Z" transform="translate(114.711 143.16)"/><path class="t" d="M96.947,143.44s-17.761,96.381,6.02,103.96S96.947,143.44,96.947,143.44Z" transform="translate(102.78 162.761)"/><path class="m" d="M113.121,153.887a88.632,88.632,0,0,1-36.034-7.621,3.2,3.2,0,0,1,2.8-5.742c.342.149,34.155,16.16,67.051-1.324a3.2,3.2,0,1,1,3.01,5.657,77.809,77.809,0,0,1-36.823,9.03Z" transform="translate(85.666 157.523)"/><path class="m" d="M81.7,237.711a3.2,3.2,0,0,1-2.562-5.123c11.186-14.943,10.951-40.837,10.673-59.771-.128-13.982-.213-24.079,3.586-28.584,3.181-3.778,6.4-5.315,9.521-4.59,4.846,1.131,6.532,7.322,6.7,8.005a3.2,3.2,0,1,1-6.212,1.58,5.806,5.806,0,0,0-1.943-3.351c-.213,0-1.3.278-3.181,2.5-2.263,2.668-2.135,13.7-2.135,24.378.192,19.874.448,46.963-12.04,63.7a3.245,3.245,0,0,1-2.412,1.259Z" transform="translate(89.078 158.254)"/><path class="m" d="M108.085,198.956a3.117,3.117,0,0,1-2.711-1.516c-21.219-34.369-14.793-52.556-14.516-53.367a3.2,3.2,0,0,1,6,2.135c0,.32-5.294,16.565,13.961,47.753a3.2,3.2,0,0,1-1.046,4.4,3.245,3.245,0,0,1-1.686.6Z" transform="translate(101.824 161.424)"/><path class="v" d="M319.725,89.908A46.908,46.908,0,1,1,272.839,43a46.908,46.908,0,0,1,46.886,46.908Z" transform="translate(91.134 99.613)"/><path class="e" d="M136.453,92.182,113.032,68.76,89.61,92.182h9.313v35.831H127.14V92.182Z" transform="translate(251.025 79.555)"/></g></g></svg>