<svg xmlns="http://www.w3.org/2000/svg" xmlns:xlink="http://www.w3.org/1999/xlink" width="551" height="372" viewBox="0 0 801 672"><defs><style>.a,.d,.e,.k{fill:#fff;}.a{stroke:#707070;}.b{clip-path:url(#a);}.c,.t{fill:#5cc6ff;}.c{opacity:0.21;}.d{opacity:0.34;}.e{opacity:0.52;}.f,.r{fill:#d2ebff;}.f{opacity:0.56;}.g{fill:#66e57f;}.h{fill:#9bfcae;}.i{fill:#00204f;}.j{fill:#1858b5;}.l{fill:#489bff;}.m{fill:#063272;opacity:0.45;}.n{fill:#e6e6e6;}.o{fill:#f49290;}.p{fill:#073a93;}.q{fill:#ffb5b1;}.s{fill:#89caf7;}.u{fill:#a7d8ff;}.v{fill:#87c8fc;}.w{fill:#ff9d33;}.x{fill:#ffaa45;}.y{fill:#5b55ff;}.z{filter:url(#d);}.aa{filter:url(#b);}</style><clipPath id="a"><rect class="a" width="801" height="672" transform="translate(2531 5341)"/></clipPath><filter id="b" x="24" y="-39" width="756" height="756" filterUnits="userSpaceOnUse"><feOffset dy="3" input="SourceAlpha"/><feGaussianBlur stdDeviation="20" result="c"/><feFlood flood-opacity="0.161"/><feComposite operator="in" in2="c"/><feComposite in="SourceGraphic"/></filter><filter id="d" x="79" y="16" width="646" height="646" filterUnits="userSpaceOnUse"><feOffset dy="3" input="SourceAlpha"/><feGaussianBlur stdDeviation="20" result="e"/><feFlood flood-opacity="0.161"/><feComposite operator="in" in2="e"/><feComposite in="SourceGraphic"/></filter></defs><g class="b" transform="translate(-2531 -5341)"><g transform="translate(426 122)"><circle class="c" cx="378" cy="378" r="378" transform="translate(2129 5177)"/><g class="aa" transform="matrix(1, 0, 0, 1, 2105, 5219)"><path class="d" d="M318,0C493.627,0,636,142.373,636,318S493.627,636,318,636,0,493.627,0,318,142.373,0,318,0Z" transform="translate(84 18)"/></g><g class="z" transform="matrix(1, 0, 0, 1, 2105, 5219)"><path class="e" d="M263,0C408.251,0,526,117.749,526,263S408.251,526,263,526,0,408.251,0,263,117.749,0,263,0Z" transform="translate(139 73)"/></g><g transform="translate(2235.924 5305)"><g transform="translate(0)"><ellipse class="f" cx="250.769" cy="42.911" rx="250.769" ry="42.911" transform="translate(7.003 447.337)"/><path class="g" d="M229.314,452.631C141.381,434.107,74.351,368.885,35.526,264.437A544.515,544.515,0,0,1,3.937,118.117L2.43,88.37,237.555,5.16,472.714,88.37l-1.507,29.847a546.022,546.022,0,0,1-31.589,146.321C400.793,369.12,333.762,434.207,245.829,452.732l-8.274,1.742Z" transform="translate(5.712 12.125)"/><path class="h" d="M389.569,85.778,203.318,19.92h0L17,85.778S29.7,335.073,203.318,371.921h0C376.973,335.073,389.569,85.778,389.569,85.778Z" transform="translate(39.949 46.809)"/><path class="i" d="M72.49,125.933l85.387-12.193h75.07l67.1,13.131L184.609,185.058Z" transform="translate(170.341 267.27)"/><path class="i" d="M242.94,178.741S91.862,95.7,74.041,122.9c-25.76,39.327,13.6,59.125,153.892,96.676Z" transform="translate(156.63 275.933)"/><path class="j" d="M172.325,174.485h0a17.72,17.72,0,0,0-9.614-23.114L127.839,136.9l-13.4,32.728,34.738,14.5a17.687,17.687,0,0,0,23.147-9.647Z" transform="translate(268.917 321.693)"/><path class="k" d="M317.165,72.979,167.109,19.92h0L17,72.979S27.229,273.827,167.109,303.514h0C307.017,273.827,317.165,72.979,317.165,72.979Z" transform="translate(76.151 81.012)"/><path class="l" d="M124.313,138.48l26.4,10.92a12,12,0,0,1-9.179,22.176L115,160.656Z" transform="translate(270.233 325.405)"/><path class="m" d="M116.678,145l34.872,14.471a17.62,17.62,0,0,0,21.707-6.968,17.319,17.319,0,0,1-23.985,12.461L114.4,150.527Z" transform="translate(268.823 340.726)"/><path class="n" d="M118.582,155.168l5.594-13.4a1.373,1.373,0,0,1,1.742-.737h0a1.373,1.373,0,0,1,.737,1.742l-5.594,13.4a1.34,1.34,0,0,1-1.742.737h0a1.373,1.373,0,0,1-.737-1.742Z" transform="translate(278.443 331.195)"/><path class="n" d="M121.079,156.165l5.561-13.4a1.34,1.34,0,0,1,1.742-.7h0a1.34,1.34,0,0,1,.737,1.742l-5.594,13.4a1.306,1.306,0,0,1-1.742.7h0a1.307,1.307,0,0,1-.7-1.742Z" transform="translate(284.253 333.581)"/><path class="n" d="M123.732,157.3l5.594-13.4a1.373,1.373,0,0,1,1.742-.737h0a1.34,1.34,0,0,1,.7,1.742l-5.561,13.4a1.34,1.34,0,0,1-1.742.737h0a1.373,1.373,0,0,1-.737-1.742Z" transform="translate(290.544 336.2)"/><path class="l" d="M273.39,159.167c-2.311-8.006-13.868-21.506-24.152-49.243C238.551,81.115,192.993,78,192.993,78L175.34,87.48,157.653,78s-45.558,3.115-56.244,31.924c-10.284,27.737-21.841,41.236-24.152,49.243s10.217,59.627,46.228,67H227.162C263.173,218.693,275.734,167.139,273.39,159.167Z" transform="translate(180.917 183.287)"/><path class="o" d="M138.317,78.06V92.23s-3.35,15.811-18.659,18.458A24.052,24.052,0,0,1,101.1,92.23V78.06Z" transform="translate(237.57 183.428)"/><path class="p" d="M96.864,104.4s-5.293-33.1,7.3-37.116c3.35-1.105.938-12.026,20.1-12.16,26.2-.2,46.9-3.718,43.548,49.745Z" transform="translate(225.023 129.255)"/><path class="q" d="M113.689,77.185a9.011,9.011,0,1,0-2.639,6.405,9.045,9.045,0,0,0,2.639-6.405Z" transform="translate(224.646 160.118)"/><path class="q" d="M130.169,77.185a8.978,8.978,0,1,0-2.617,6.4,9.045,9.045,0,0,0,2.617-6.4Z" transform="translate(263.371 160.118)"/><path class="q" d="M157.279,74.682h0A14.2,14.2,0,0,1,148.3,62.69L144.349,63.8a60.565,60.565,0,0,1-33.5-.3l-3.149-.8a14.337,14.337,0,0,1-9.514,11.959h0L97.92,89.321a48.974,48.974,0,0,0,9.38,26.8,25.191,25.191,0,0,0,40.567,0,48.907,48.907,0,0,0,9.346-26.8V74.716Z" transform="translate(230.098 147.311)"/><rect class="r" width="114.497" height="76.309" rx="2.87" transform="translate(299.912 343.325)"/><circle class="s" cx="11.892" cy="11.892" r="11.892" transform="translate(344.934 368.817)"/><path class="i" d="M92.52,178.741S243.6,95.7,261.419,122.9c25.76,39.327-13.6,59.125-153.892,96.676Z" transform="translate(217.408 275.933)"/><path class="j" d="M81.017,174.485h0a17.721,17.721,0,0,1,9.614-23.114L125.5,136.9l13.4,32.728-34.7,14.5a17.687,17.687,0,0,1-23.181-9.648Z" transform="translate(187.239 321.693)"/><path class="l" d="M126.916,160.656l-26.4,10.92A12,12,0,1,1,91.341,149.4l26.33-10.921Z" transform="translate(197.216 325.405)"/><path class="m" d="M136.409,145l-34.872,14.471A17.62,17.62,0,0,1,79.83,152.5a17.319,17.319,0,0,0,24.018,12.6l34.905-14.438Z" transform="translate(187.589 340.726)"/><path class="n" d="M98.991,155.168l-5.594-13.4a1.373,1.373,0,0,0-1.742-.737h0a1.34,1.34,0,0,0-.7,1.742l5.561,13.4a1.34,1.34,0,0,0,1.742.737h0a1.373,1.373,0,0,0,.737-1.742Z" transform="translate(213.483 331.195)"/><path class="n" d="M96.528,156.172l-5.561-13.4a1.306,1.306,0,0,0-1.742-.7h0a1.34,1.34,0,0,0-.737,1.742l5.594,13.4a1.306,1.306,0,0,0,1.742.7h0a1.306,1.306,0,0,0,.7-1.742Z" transform="translate(207.706 333.574)"/><path class="n" d="M93.841,157.3l-5.594-13.4a1.373,1.373,0,0,0-1.742-.737h0a1.34,1.34,0,0,0-.7,1.742l5.561,13.4a1.34,1.34,0,0,0,1.742.737h0a1.373,1.373,0,0,0,.737-1.742Z" transform="translate(201.381 336.2)"/><path class="p" d="M44.756,243.5S4.726,179.589,17.12,170.343s24.521,28.34,30.852,22.31S25.9,132.892,39.33,121.335,51.724,149,63.113,156.307s-6.164-53.6,7.47-62.977,20.1,20.735,20.1,20.735S106.058,53.9,126.157,65.694s-31.187,72.39-19.094,70.347,24.621-22.578,35.14-8.777S83.983,176.105,94.97,175.2s30.551-14.438,33.934-2.378S73.163,206.957,79.26,211.178s37.016-19.664,41.906-2.077S57.017,254.558,44.756,243.5Z" transform="translate(34.636 150.772)"/><path class="r" d="M22.25,252.394a210.035,210.035,0,0,0,18.491-40.2c2.546-7.437,4.69-15.175,6.7-22.611.938-3.35,1.909-6.7,2.881-10.217A494.3,494.3,0,0,1,96.75,71l.77.436A492.7,492.7,0,0,0,51.293,179.6c-.971,3.35-1.943,6.7-2.881,10.05-2.11,7.47-4.288,15.208-6.7,22.678A212.813,212.813,0,0,1,23.121,252.7Z" transform="translate(52.285 166.838)"/><path class="r" d="M41.746,120.116a.6.6,0,0,1-.167-.234,205.715,205.715,0,0,1-9.045-42.409.435.435,0,0,1,.4-.5.5.5,0,0,1,.5.4,202.4,202.4,0,0,0,9.011,42.241.469.469,0,0,1-.3.569A.536.536,0,0,1,41.746,120.116Z" transform="translate(76.438 180.867)"/><path class="r" d="M33.687,115.79h0a.469.469,0,0,1,0-.636A358,358,0,0,1,72.68,89.226a34.939,34.939,0,0,1,8.173-3.35.5.5,0,0,1,.569.335.469.469,0,0,1-.335.536,34.472,34.472,0,0,0-7.973,3.35A354.543,354.543,0,0,0,34.223,115.79.4.4,0,0,1,33.687,115.79Z" transform="translate(78.869 201.774)"/><path class="r" d="M48.307,141.008h0a182.267,182.267,0,0,1-16.749-29.78A232.982,232.982,0,0,1,23.552,87.31a.451.451,0,1,1,.871-.235A223.266,223.266,0,0,0,32.4,110.893,181.628,181.628,0,0,0,48.91,140.505a.435.435,0,0,1-.6.6Z" transform="translate(55.305 203.791)"/><path class="r" d="M31.031,113.041a.452.452,0,0,1,.4-.8,7.906,7.906,0,0,0,4.053,0,70.345,70.345,0,0,0,10.686-3.35l1.909-.737c10.251-3.718,20.9-6.7,31.22-9.313a.435.435,0,0,1,.569.3.469.469,0,0,1-.335.57c-10.284,2.747-20.936,5.594-31.12,9.312l-1.943.7a66.4,66.4,0,0,1-10.82,3.35,8.643,8.643,0,0,1-4.522,0Z" transform="translate(72.447 232.193)"/><path class="r" d="M51.359,147.148c-11.992-8.241-25.693-30.383-33.8-46.9a.469.469,0,0,1,.2-.6.4.4,0,0,1,.6.2c8.073,16.381,21.673,38.389,33.5,46.529a.469.469,0,0,1,0,.636.436.436,0,0,1-.5.134Z" transform="translate(41.165 233.996)"/><path class="r" d="M28.165,122.7l-.335-.234a.45.45,0,0,1,.636-.637,7.537,7.537,0,0,0,6.7.268L78.714,110.14a.469.469,0,0,1,.569.335.435.435,0,0,1-.335.536L35.4,122.97a8.643,8.643,0,0,1-7.236-.268Z" transform="translate(65.13 258.777)"/><path class="t" d="M74.066,252.675S4.791,222.526,9.749,207.988s36.346,9.48,38.121.9S-4.253,172.111.269,154.96,26.23,170.738,39.764,170.3,4.322,129.669,10.051,114.159s28.44,5.661,28.44,5.661S16.851,61.6,40.3,59.791s15.342,77.415,24.152,68.839,7.437-32.493,23.918-27.1S68.2,174.825,76.779,167.757s16.749-29.345,26.8-21.2-26.631,59.795-19.195,59.795,19.4-37.25,33.5-25.492S90.447,254.852,74.066,252.675Z" transform="translate(0 140.428)"/><path class="r" d="M54.207,259.013a208.36,208.36,0,0,0-7.537-43.548c-2.144-7.6-4.723-15.208-7.236-22.544-1.139-3.35-2.278-6.7-3.35-10.05A493.936,493.936,0,0,1,12.77,67h.77A493.9,493.9,0,0,0,36.989,182.5c1.105,3.35,2.278,6.7,3.35,10.049,2.512,7.37,5.092,14.974,7.236,22.578a208.5,208.5,0,0,1,7.571,43.849Z" transform="translate(30.009 157.439)"/><path class="r" d="M38.242,109.239a.536.536,0,0,1-.3,0A206.017,206.017,0,0,1,6.419,79.392a.469.469,0,0,1,.7-.6A202.7,202.7,0,0,0,38.678,108.4a.435.435,0,0,1,0,.636.368.368,0,0,1-.435.2Z" transform="translate(14.921 184.877)"/><path class="r" d="M17.5,129.162h0a.435.435,0,0,1-.268-.569A353.072,353.072,0,0,1,34.683,85.044a35.174,35.174,0,0,1,4.757-7.537.469.469,0,0,1,.636,0,.435.435,0,0,1,0,.636,33.766,33.766,0,0,0-4.623,7.336,356.829,356.829,0,0,0-17.419,43.548.469.469,0,0,1-.536.134Z" transform="translate(40.422 181.837)"/><path class="r" d="M55.491,122.852h-.167a181.059,181.059,0,0,1-30.617-15.108,233.455,233.455,0,0,1-20.1-15.208.435.435,0,0,1,0-.637.5.5,0,0,1,.636,0,218.91,218.91,0,0,0,20.1,15.141,178.046,178.046,0,0,0,30.45,15.041.469.469,0,0,1,.234.6A.436.436,0,0,1,55.491,122.852Z" transform="translate(10.502 215.682)"/><path class="r" d="M20.042,128.686a.469.469,0,0,1-.435-.335.5.5,0,0,1,.335-.569,7.5,7.5,0,0,0,3.35-2.278,67,67,0,0,0,6.934-8.777l1.206-1.708c6.3-8.877,13.4-17.285,20.468-25.392a.435.435,0,0,1,.636,0,.469.469,0,0,1,0,.636c-6.934,8.107-14.1,16.515-20.4,25.358L30.929,117.3a66.326,66.326,0,0,1-7.035,8.911,8.542,8.542,0,0,1-3.752,2.512Z" transform="translate(46.052 210.284)"/><path class="r" d="M61.44,126.142c-14.538,0-38.423-10.485-54.468-19.5a.469.469,0,0,1,.435-.8c15.945,8.944,39.662,19.4,54.033,19.4a.453.453,0,0,1,0,.9Z" transform="translate(16.01 248.671)"/><path class="r" d="M23.935,139.358h-.4a.435.435,0,0,1-.4-.469.469.469,0,0,1,.469-.435c2.177.167,4.053-1.608,5.695-3.584l29.244-34.637a.469.469,0,0,1,.7.569L30,135.439a8.776,8.776,0,0,1-6.063,3.919Z" transform="translate(54.352 235.321)"/><path class="u" d="M13,120.54l10.92,68.538a20.1,20.1,0,0,0,19.8,16.749h33.7a20.1,20.1,0,0,0,19.764-16.749l11.088-68.471Z" transform="translate(30.549 283.249)"/><path class="v" d="M108.269,120.54H13l1.507,9.48H88.2l-9.815,59.058a20.1,20.1,0,0,1-19.764,16.749H77.417a20.1,20.1,0,0,0,19.764-16.749L106.8,130.02h0Z" transform="translate(30.549 283.249)"/><path class="u" d="M117.2,114.66H19.69A10.049,10.049,0,0,0,9.64,124.71h0a10.05,10.05,0,0,0,10.05,10.049H117.2a10.05,10.05,0,0,0,10.05-10.049h0A10.05,10.05,0,0,0,117.2,114.66Z" transform="translate(22.654 269.432)"/><path class="w" d="M3.02,0H213.614a3.02,3.02,0,0,1,3.02,3.02V63.876a3.02,3.02,0,0,1-3.02,3.02H3.02A3.02,3.02,0,0,1,0,63.876V3.02A3.02,3.02,0,0,1,3.02,0Z" transform="translate(305.339 98.586)"/><rect class="k" width="35.408" height="26.866" rx="1.26" transform="translate(321.016 128.567)"/><path class="k" d="M121.971,49.334h-3.35V44.041a8.911,8.911,0,0,0-17.821,0v5.293H97.45V44.041a12.26,12.26,0,0,1,24.487,0Z" transform="translate(228.993 76.185)"/><path class="x" d="M107.494,43.918a3.752,3.752,0,1,0-5.561,3.35L100.626,54.6h6.264l-1.273-7.336a3.752,3.752,0,0,0,1.876-3.35Z" transform="translate(234.962 94.531)"/><circle class="k" cx="6.13" cy="6.13" r="6.13" transform="translate(389.521 127.93)"/><circle class="k" cx="6.13" cy="6.13" r="6.13" transform="translate(412.902 127.93)"/><path class="k" d="M142.49,44.3a6.13,6.13,0,1,1-6.13-6.13,6.13,6.13,0,0,1,6.13,6.13Z" transform="translate(306.021 89.693)"/><path class="k" d="M149.47,44.254a6.13,6.13,0,1,1-1.866-4.339,6.13,6.13,0,0,1,1.866,4.339Z" transform="translate(322.423 89.739)"/><path class="k" d="M156.45,44.253a6.13,6.13,0,1,1-6.2-6.063,6.13,6.13,0,0,1,6.2,6.063Z" transform="translate(338.825 89.74)"/><path class="y" d="M178.975,10.451V91.987a10.518,10.518,0,0,1-10.451,10.451H19.355A10.519,10.519,0,0,1,8.87,91.987V10.451A10.518,10.518,0,0,1,19.355,0H168.523a10.518,10.518,0,0,1,10.452,10.451Z" transform="translate(20.845)"/><rect class="p" width="169.937" height="23.047" transform="translate(29.849 28.574)"/><path class="p" d="M87.96,19.41H45.651A3.819,3.819,0,0,0,42,23.262h0a3.852,3.852,0,0,0,3.819,3.852H87.96a3.852,3.852,0,0,0,3.819-3.852h0A3.819,3.819,0,0,0,87.96,19.41Z" transform="translate(98.695 45.61)"/><path class="p" d="M71.863,23.9H52.7a3.819,3.819,0,0,0-3.852,3.852h0A3.819,3.819,0,0,0,52.7,31.572H71.93a3.819,3.819,0,0,0,3.819-3.819h0A3.819,3.819,0,0,0,71.863,23.9Z" transform="translate(114.791 56.161)"/></g></g></g></g></svg>