<svg xmlns="http://www.w3.org/2000/svg" xmlns:xlink="http://www.w3.org/1999/xlink" width="1729.098" height="1087.609" viewBox="0 0 1729.098 1087.609"><defs><style>.a,.f{fill:none;}.b{fill:url(#a);}.c{fill:#c3db9c;}.d{fill:#222955;}.e{fill:#c0c0ff;}.f{stroke:#9a80c1;stroke-linecap:round;stroke-miterlimit:10;stroke-width:2px;}.g{fill:#c4c4f7;}.h{fill:#f9d4e3;}.i{fill:#f3f0ff;}.j{fill:#d3d5fe;}.k{fill:#f2c4d9;}.l{fill:#889b6d;}.m{fill:#a4ba88;}.n{clip-path:url(#c);}.o{fill:#ffc7c8;}.p{fill:#efacb0;}.q{fill:#e0a0c7;opacity:0.52;}.r{fill:#1f2647;}.s{fill:#f67378;}.t{fill:#d35976;}.u{fill:#ff9251;}.v{fill:#ea773d;}.w{fill:#fab217;}.x{fill:#d89819;}.y{fill:#e6ef89;}.z{fill:#f3ffa6;}.aa{fill:#e87272;}.ab{fill:#fff;}.ac{fill:#efae95;}.ad{fill:#fc8a8a;}.ae{fill:#fec5a7;}.af{fill:#d69580;}.ag,.ah{fill:#04061b;}.ag{opacity:0.67;}.ai{fill:#485999;}.aj{fill:#efb59e;}.ak{fill:#291b7a;}.al{fill:#dd545e;}.am{fill:#6b5ae4;}.an{fill:#31177a;}.ao{fill:#352691;}.ap{fill:#ffc34a;}.aq{fill:#068c49;}.ar,.av{fill:#067036;}.ar{opacity:0.49;}.as{fill:#0ea555;}.at{fill:#066330;}.au{fill:#05773b;}.aw{fill:#057c3e;}.ax{fill:#0ea857;}.ay{fill:#564cd3;}.az{fill:#4db7df;}.ba{fill:#3fafd1;}.bb{fill:#a0d8ef;}.bc{fill:#60cdef;}.bd{fill:#d1ecf5;}</style><linearGradient id="a" x1="0.385" y1="-0.161" x2="0.379" y2="1.01" gradientUnits="objectBoundingBox"><stop offset="0.035" stop-color="#fff" stop-opacity="0.4"/><stop offset="0.518" stop-color="#ffdeed" stop-opacity="0.714"/><stop offset="0.555" stop-color="#ffdcec"/><stop offset="0.657" stop-color="#ecd9f1"/><stop offset="0.93" stop-color="#bed2ff"/></linearGradient><clipPath id="c"><path class="a" d="M214.9,1117.13l1357.963-1.8c51.053-25.481,186.985-377,194.009-495.687,2.692-45.5-1.359-93.419-25.428-132.127s-72.578-64.988-116.152-51.61c-41.447,12.728-79.25,57.836-118.855,40.2-26.648-11.872-34.029-45.439-38.921-74.2-18.334-107.771-52.024-218.492-129.931-295.18S1127.18.155,1039.295,65.169c-48.481,35.869-75.91,93.229-96.284,149.991S907,331.337,874.292,382.007s-87.549,92.3-147.784,89.368c-52.882-2.58-98.059-37.994-135.945-74.98s-74.207-78.356-123.13-98.6-115.53-10.549-139.8,36.5c-21.119,40.948-2.834,90.074,12.815,133.409,18.211,50.416,32.763,104.136,24.97,157.172s-42.885,105.143-94.84,118.343c-47.5,12.07-98.879-9.511-146.206,3.237C54.128,765.383,23.642,855.635,45.421,925.045s138.46,163.849,138.468,163.854C193.259,1095.823,214.9,1117.13,214.9,1117.13Z" transform="translate(-38.497 -29.521)"/></clipPath></defs><g transform="translate(-38.497 -29.521)"><g transform="translate(38.497 29.521)"><path class="b" d="M214.9,1117.13l1357.963-1.8c51.053-25.481,186.985-377,194.009-495.687,2.692-45.5-1.359-93.419-25.428-132.127s-72.578-64.988-116.152-51.61c-41.447,12.728-79.25,57.836-118.855,40.2-26.648-11.872-34.029-45.439-38.921-74.2-18.334-107.771-52.024-218.492-129.931-295.18S1127.18.155,1039.295,65.169c-48.481,35.869-75.91,93.229-96.284,149.991S907,331.337,874.292,382.007s-87.549,92.3-147.784,89.368c-52.882-2.58-98.059-37.994-135.945-74.98s-74.207-78.356-123.13-98.6-115.53-10.549-139.8,36.5c-21.119,40.948-2.834,90.074,12.815,133.409,18.211,50.416,32.763,104.136,24.97,157.172s-42.885,105.143-94.84,118.343c-47.5,12.07-98.879-9.511-146.206,3.237C54.128,765.383,23.642,855.635,45.421,925.045s138.46,163.849,138.468,163.854C193.259,1095.823,214.9,1117.13,214.9,1117.13Z" transform="translate(-38.497 -29.521)"/><path class="b" d="M214.9,1117.13l1357.963-1.8c51.053-25.481,186.985-377,194.009-495.687,2.692-45.5-1.359-93.419-25.428-132.127s-72.578-64.988-116.152-51.61c-41.447,12.728-79.25,57.836-118.855,40.2-26.648-11.872-34.029-45.439-38.921-74.2-18.334-107.771-52.024-218.492-129.931-295.18S1127.18.155,1039.295,65.169c-48.481,35.869-75.91,93.229-96.284,149.991S907,331.337,874.292,382.007s-87.549,92.3-147.784,89.368c-52.882-2.58-98.059-37.994-135.945-74.98s-74.207-78.356-123.13-98.6-115.53-10.549-139.8,36.5c-21.119,40.948-2.834,90.074,12.815,133.409,18.211,50.416,32.763,104.136,24.97,157.172s-42.885,105.143-94.84,118.343c-47.5,12.07-98.879-9.511-146.206,3.237C54.128,765.383,23.642,855.635,45.421,925.045s138.46,163.849,138.468,163.854C193.259,1095.823,214.9,1117.13,214.9,1117.13Z" transform="translate(-38.497 -29.521)"/></g><g transform="translate(408.023 345.707)"><g transform="translate(938.478 171.585)"><g transform="translate(0)"><path class="c" d="M568.414,738.977h74.4c10.9-9.586,19.981-21.831,26.458-33.318,14.732-26.124,24.9-55.814,46.821-76.278,10.418-9.727,22.964-16.81,34.646-24.973,25.559-17.861,48.309-43.391,52.093-74.343,2.7-22.08-4.527-44.262-3.671-66.489,2.878-74.669,92.682-125.3,92.371-200.024-.077-18.642-9.2-40-27.48-43.651-8.522-1.7-17.4.892-25.068,4.984-24.778,13.221-38.415,40.1-51.942,64.708s-30.848,50.429-57.9,57.982c-6.883,1.924-14.09,2.536-20.921,4.632-31.617,9.7-45.426,46.8-48.954,79.682s-1.868,68.31-19.734,96.138C620.189,558.161,582.17,572.137,562.42,602c-13.378,20.23-16.777,45.817-13.835,69.888C550.882,690.676,555.18,720.481,568.414,738.977Z" transform="translate(-547.603 -219.373)"/><g transform="translate(115.728 0.812)"><path class="d" d="M594.662,568.5l-2.014-2.107C613.5,546.47,635.06,525.868,650.565,501c16.1-25.826,25.219-55.7,34.037-84.6,8.7-28.5,17.694-57.964,33.4-83.754,10.1-16.589,23-31.694,35.486-46.3,17.458-20.433,35.509-41.56,45.614-66.656l2.705,1.087c-10.28,25.543-28.49,46.855-46.1,67.463-12.409,14.519-25.237,29.533-35.216,45.922-15.51,25.476-24.449,54.766-33.094,83.091-8.877,29.076-18.051,59.138-34.358,85.29C637.341,527.725,615.644,548.454,594.662,568.5Z" transform="translate(-592.647 -219.689)"/></g><g transform="translate(149.432 253.962)"><path class="d" d="M608.283,380.918l-2.518-1.475a56.771,56.771,0,0,1,30.062-24.587c3.253-1.12,6.623-1.94,9.881-2.734a87.314,87.314,0,0,0,11.782-3.458c14.485-5.791,24.662-18.886,33.641-30.443l2.3,1.791c-8.751,11.261-19.642,25.273-34.862,31.36a90.029,90.029,0,0,1-12.173,3.587c-3.194.776-6.5,1.58-9.619,2.654A53.814,53.814,0,0,0,608.283,380.918Z" transform="translate(-605.765 -318.221)"/></g><g transform="translate(190.566 129.407)"><path class="d" d="M629.641,373.183l-2.78-.884c5.336-16.795,2.8-34.81-.4-50.215l-.717-3.417c-3.517-16.728-7.155-34.022.753-48.926l2.577,1.367c-7.41,13.971-3.885,30.741-.475,46.958l.717,3.427C632.586,337.268,635.181,355.746,629.641,373.183Z" transform="translate(-621.775 -269.741)"/></g><g transform="translate(234.087 37.886)"><path class="d" d="M641.593,325.2l-2.878-.478c1.377-8.342,7-16.451,15.831-22.84,5.406-3.908,11.438-6.9,17.268-9.8,2.3-1.146,4.6-2.287,6.867-3.486,24.893-13.17,43.448-32.516,52.248-54.478l2.708,1.087c-9.054,22.6-28.087,42.477-53.594,55.97-2.287,1.21-4.609,2.361-6.929,3.52-5.727,2.842-11.649,5.786-16.859,9.552C648.054,310.183,642.844,317.624,641.593,325.2Z" transform="translate(-638.715 -234.119)"/></g></g></g><g transform="translate(1055.853 422.32)"><path class="e" d="M693.246,418.588c-6.181-37.094-25.98-70.728-48.078-101.623-46.487,42.777-64.074,112.57-43.153,171.256,3.651,10.241,8.509,20.343,16.343,28.076,21.45,21.178,43.425,10.832,56.8-10.012A122.359,122.359,0,0,0,693.246,418.588Z" transform="translate(-593.288 -316.965)"/><line class="f" y2="224.923" transform="translate(49.22 25.517)"/><path class="f" d="M637.58,335.031q-11.473,21.477-23.462,42.672" transform="translate(-560.601 -288.616)"/><path class="f" d="M634.1,394.817a371.548,371.548,0,0,1-36.249-45.023" transform="translate(-586.129 -265.449)"/></g><rect class="g" width="235.48" height="616.188" transform="translate(982.77 672.849) rotate(180)"/><rect class="g" width="165.814" height="165.814" transform="translate(947.937 165.814) rotate(180)"/><rect class="h" width="201.699" height="25.413" transform="translate(970.468 101.516) rotate(180)"/><rect class="h" width="201.699" height="25.413" transform="translate(970.468 146.372) rotate(180)"/><rect class="h" width="201.699" height="25.413" transform="translate(970.468 193.963) rotate(180)"/><rect class="h" width="201.699" height="25.414" transform="translate(970.468 238.818) rotate(180)"/><rect class="h" width="201.699" height="25.413" transform="translate(970.468 281.631) rotate(180)"/><rect class="h" width="201.699" height="25.413" transform="translate(970.468 328.119) rotate(180)"/><rect class="h" width="201.699" height="25.414" transform="translate(970.468 369.916) rotate(180)"/><rect class="h" width="201.699" height="25.413" transform="translate(970.468 412.754) rotate(180)"/><rect class="h" width="201.699" height="25.413" transform="translate(970.468 462.898) rotate(180)"/><rect class="i" width="196.969" height="438.369" transform="translate(794.903 674.788) rotate(180)"/><path class="j" d="M339.223,278.007V204.853h26.913V170.861H516.593v33.992h26.913v73.154h15.6V802.085H323.625V278.007Z" transform="translate(39.405 -123.914)"/><path class="g" d="M296.733,366.8l.6-38.123,27.514.431.637-40.653,11.471.18.663-42.32,40.939.642-.663,42.32,11.471.18-.637,40.653,27.514.431-.6,38.123,35.86.562-4.952,315.916-190.63-2.988,4.953-315.916Z" transform="translate(-66.837 -5.506)"/><rect class="i" width="75.625" height="37.006" transform="translate(576.137 235.204) rotate(180)"/><rect class="i" width="75.625" height="37.006" transform="translate(465.689 235.204) rotate(180)"/><rect class="i" width="75.625" height="37.006" transform="translate(576.137 290.152) rotate(180)"/><rect class="i" width="75.625" height="37.006" transform="translate(465.689 290.152) rotate(180)"/><rect class="i" width="75.625" height="37.006" transform="translate(576.137 345.1) rotate(180)"/><rect class="i" width="75.625" height="37.006" transform="translate(465.689 345.1) rotate(180)"/><rect class="i" width="75.625" height="37.006" transform="translate(576.137 400.048) rotate(180)"/><rect class="i" width="75.625" height="37.006" transform="translate(465.689 400.048) rotate(180)"/><rect class="i" width="75.625" height="37.006" transform="translate(576.137 454.996) rotate(180)"/><rect class="i" width="75.625" height="37.006" transform="translate(465.689 454.996) rotate(180)"/><rect class="i" width="75.625" height="37.006" transform="translate(576.137 509.944) rotate(180)"/><rect class="i" width="75.625" height="37.006" transform="translate(465.689 509.944) rotate(180)"/><rect class="i" width="75.625" height="37.005" transform="translate(576.137 564.892) rotate(180)"/><rect class="i" width="75.625" height="37.005" transform="translate(465.689 564.892) rotate(180)"/><rect class="i" width="75.625" height="37.005" transform="translate(465.689 619.839) rotate(180)"/><rect class="i" width="75.625" height="37.006" transform="translate(465.689 674.788) rotate(180)"/><path class="k" d="M372.151,400.652V318.225h74.222v82.427h19.588V570.838H315.729V400.652Z" transform="translate(27.015 107.332)"/><rect class="j" width="15.729" height="66.183" transform="translate(480.77 597.983) rotate(180)"/><rect class="j" width="15.729" height="66.183" transform="translate(455.641 597.983) rotate(180)"/><rect class="j" width="15.729" height="66.183" transform="translate(432.718 597.983) rotate(180)"/><rect class="e" width="34.763" height="34.763" transform="translate(352.836 425.84) rotate(180)"/><rect class="e" width="34.763" height="34.763" transform="translate(303.496 425.84) rotate(180)"/><rect class="e" width="34.763" height="34.763" transform="translate(257.519 425.84) rotate(180)"/><rect class="e" width="34.763" height="34.763" transform="translate(352.836 477.607) rotate(180)"/><rect class="e" width="34.763" height="34.763" transform="translate(303.496 477.607) rotate(180)"/><rect class="e" width="34.763" height="34.763" transform="translate(257.519 477.607) rotate(180)"/><rect class="e" width="34.763" height="34.763" transform="translate(352.836 527.325) rotate(180)"/><rect class="e" width="34.763" height="34.763" transform="translate(303.496 527.325) rotate(180)"/><rect class="e" width="34.763" height="34.763" transform="translate(257.519 527.325) rotate(180)"/><rect class="i" width="82.983" height="89.711" transform="translate(522.261 165.814) rotate(180)"/><rect class="j" width="26.709" height="34.763" transform="translate(782.123 295.759) rotate(180)"/><rect class="j" width="26.709" height="34.763" transform="translate(746.529 295.759) rotate(180)"/><rect class="j" width="26.709" height="34.763" transform="translate(708.114 295.759) rotate(180)"/><rect class="j" width="26.709" height="34.763" transform="translate(672.519 295.759) rotate(180)"/><rect class="j" width="26.709" height="34.763" transform="translate(635.514 295.759) rotate(180)"/><rect class="j" width="26.709" height="34.763" transform="translate(782.123 342.857) rotate(180)"/><rect class="j" width="26.709" height="34.763" transform="translate(746.529 342.857) rotate(180)"/><rect class="j" width="26.709" height="34.763" transform="translate(708.114 342.857) rotate(180)"/><rect class="j" width="26.709" height="34.763" transform="translate(672.519 342.857) rotate(180)"/><rect class="j" width="26.709" height="34.763" transform="translate(635.514 342.857) rotate(180)"/><rect class="j" width="26.709" height="34.763" transform="translate(782.123 389.955) rotate(180)"/><rect class="j" width="26.709" height="34.763" transform="translate(746.529 389.955) rotate(180)"/><rect class="j" width="26.709" height="34.763" transform="translate(708.114 389.955) rotate(180)"/><rect class="j" width="26.709" height="34.763" transform="translate(672.519 389.955) rotate(180)"/><rect class="j" width="26.709" height="34.763" transform="translate(635.514 389.955) rotate(180)"/><rect class="j" width="26.709" height="34.763" transform="translate(782.123 435.372) rotate(180)"/><rect class="j" width="26.709" height="34.763" transform="translate(746.529 435.372) rotate(180)"/><rect class="j" width="26.709" height="34.763" transform="translate(708.114 435.372) rotate(180)"/><rect class="j" width="26.709" height="34.763" transform="translate(672.519 435.372) rotate(180)"/><rect class="j" width="26.709" height="34.763" transform="translate(635.514 435.372) rotate(180)"/><rect class="e" width="153.657" height="44.874" transform="translate(538.324 678.17) rotate(180)"/><rect class="k" width="225.773" height="370.897" transform="translate(1078.121 661.049) rotate(180)"/><rect class="e" width="29.904" height="147.085" transform="translate(1064.665 446.116) rotate(180)"/><rect class="e" width="29.904" height="147.085" transform="translate(1023.717 446.116) rotate(180)"/><rect class="e" width="29.904" height="147.085" transform="translate(980.187 446.116) rotate(180)"/><rect class="e" width="29.904" height="147.085" transform="translate(936.827 446.116) rotate(180)"/><rect class="e" width="29.904" height="147.085" transform="translate(1064.665 612.096) rotate(180)"/><rect class="e" width="29.904" height="147.085" transform="translate(1023.717 612.096) rotate(180)"/><rect class="e" width="29.904" height="147.085" transform="translate(980.187 612.096) rotate(180)"/><rect class="e" width="29.904" height="147.085" transform="translate(936.827 612.096) rotate(180)"/><rect class="j" width="217.944" height="185.448" transform="translate(965.235 661.049) rotate(180)"/><g transform="translate(704.228 492.561)"><path class="k" d="M467.911,374.684a68.935,68.935,0,0,1,11.957-16.279c6.051-7.086,14.244-12.445,23.413-13.771C523.136,341.765,541.044,358.051,550,376a98.723,98.723,0,0,1,9.146,58.807c-2.207,14.19-7.9,28.336-18.57,37.942-.7.629-1.431,1.225-2.176,1.806-7.122,10.439-18.087,15.207-30.751,14.96-9.473-.182-21.569-5.46-28.821-11.487-8.959-7.44-15.626-16.35-18.892-27.635C453.184,427.05,456.352,396.194,467.911,374.684Z" transform="translate(-456.427 -344.305)"/><line class="f" y2="134.275" transform="translate(52.428 36.577)"/><path class="f" d="M505.842,358.484q-13.427,19.685-28.457,38.209" transform="translate(-423.54 -322.054)"/><path class="f" d="M501.432,371.042Q494.9,379.054,487.6,386.4" transform="translate(-407.507 -302.348)"/><path class="f" d="M495.431,381.65a124.74,124.74,0,0,1-17.753,18.139" transform="translate(-423.08 -285.701)"/><path class="f" d="M488.151,379.849a310.68,310.68,0,0,0-19.395-24.86" transform="translate(-437.081 -327.538)"/><path class="f" d="M495.246,406.648q-15.6-16.93-31.208-33.862" transform="translate(-444.484 -299.611)"/></g><path class="f" d="M486.285,406.673a115.533,115.533,0,0,0-17.62-16.022" transform="translate(267.005 220.985)"/><g transform="translate(585.58 422.32)"><path class="e" d="M510.2,418.588c-6.181-37.094-25.98-70.728-48.075-101.623-46.49,42.777-64.074,112.57-43.155,171.256,3.651,10.241,8.509,20.343,16.343,28.076,21.45,21.178,43.428,10.832,56.8-10.012A122.371,122.371,0,0,0,510.2,418.588Z" transform="translate(-410.246 -316.965)"/><line class="f" y2="224.923" transform="translate(49.22 25.517)"/><path class="f" d="M454.538,335.031q-11.473,21.477-23.462,42.672" transform="translate(-377.56 -288.616)"/><path class="f" d="M451.057,394.817a371.537,371.537,0,0,1-36.249-45.023" transform="translate(-403.088 -265.449)"/></g><g transform="translate(611.729 504.618)"><path class="j" d="M508.134,490.6c7.828-6.487,16.1-14.942,15.043-25.055a5.579,5.579,0,0,0-1.768-3.967c-2.112-1.621-5.144-.249-7.79-.514-5.575-.557-7.546-8.324-5.126-13.378s7.343-8.352,11.037-12.566a30.749,30.749,0,0,0,6.708-12.856c1.529-6.187-.55-14.683-6.885-15.359-4.6-.491-8.257,3.494-11.674,6.611s-9.01,5.573-12.327,2.348c-2.862-2.777-1.662-7.5-.517-11.32a88.545,88.545,0,0,0,3.659-28.888c-.27-6.793-1.441-13.845-5.439-19.344s-11.456-8.941-17.812-6.528c-5.932,2.253-9.2,8.687-10.572,14.884-3.746,16.89,2.5,34.181,4.409,51.374.452,4.065-.337,9.506-4.37,10.164-2.831.462-5.218-1.911-7.394-3.782a28.517,28.517,0,0,0-19.387-6.8,6.629,6.629,0,0,0-3.458.845c-2.282,1.511-2.21,4.9-1.387,7.5,3.8,12.055,17.365,19.421,20.017,31.779.355,1.655.439,3.558-.65,4.856a5.165,5.165,0,0,1-3.24,1.542c-4.989.779-9.848-1.624-14.758-2.8s-11.215-.483-13.355,4.093c-1.611,3.445-.069,7.523,1.9,10.781,6.038,10.007,15.981,17.185,26.671,21.908,9.586,4.229,22.545,9.216,33.176,9.3C492.814,505.506,500.933,496.57,508.134,490.6Z" transform="translate(-420.424 -348.997)"/><line class="f" y2="135.268" transform="translate(60.637 30.688)"/><path class="f" d="M467.874,377.113l-16.857,16.225" transform="translate(-372.417 -304.878)"/><path class="f" d="M453.01,386.014l-8.322,8.931" transform="translate(-382.349 -290.91)"/><path class="f" d="M474.92,395.412q-15.323,13.246-30.232,26.964" transform="translate(-382.349 -276.163)"/><path class="f" d="M461.409,420.622q-14.275-19.08-29.014-37.806" transform="translate(-401.639 -295.928)"/></g><g transform="translate(92.674 445.744)"><path class="j" d="M331.26,508.288c10.071-8.35,20.71-19.231,19.356-32.244-.2-1.9-.755-3.936-2.274-5.1-2.718-2.084-6.618-.319-10.025-.66-7.176-.719-9.709-10.711-6.6-17.214s9.447-10.75,14.2-16.171a39.554,39.554,0,0,0,8.633-16.543c1.965-7.962-.707-18.894-8.861-19.765-5.919-.632-10.624,4.5-15.022,8.507s-11.595,7.173-15.865,3.024c-3.679-3.576-2.135-9.653-.66-14.568a114.011,114.011,0,0,0,4.707-37.174c-.347-8.74-1.855-17.815-7-24.891s-14.742-11.5-22.92-8.4c-7.636,2.9-11.839,11.179-13.607,19.151-4.82,21.733,3.214,43.985,5.673,66.109.581,5.228-.432,12.229-5.624,13.077-3.643.6-6.713-2.461-9.514-4.866a36.707,36.707,0,0,0-24.947-8.746,8.513,8.513,0,0,0-4.45,1.089c-2.934,1.942-2.842,6.3-1.783,9.655,4.892,15.51,22.345,24.991,25.756,40.892.457,2.13.563,4.578-.838,6.248a6.653,6.653,0,0,1-4.167,1.986c-6.421,1-12.671-2.089-18.992-3.61s-14.431-.622-17.183,5.267c-2.073,4.435-.092,9.681,2.438,13.874,7.769,12.877,20.564,22.113,34.322,28.187,12.332,5.444,29.009,11.859,42.688,11.968C311.546,527.473,321.99,515.973,331.26,508.288Z" transform="translate(-218.396 -326.082)"/><line class="f" y2="195.157" transform="translate(76.002 26.951)"/><path class="f" d="M299.419,359.1q-26.071,25.509-50.912,52.263" transform="translate(-171.145 -274.271)"/><path class="f" d="M295.048,385.338q-23.72,18.776-46.541,38.651" transform="translate(-171.145 -233.096)"/><path class="f" d="M274.9,412.764q-22.233-24.279-45.264-47.811" transform="translate(-200.757 -265.085)"/></g><g transform="translate(207.85 538.554)"><path class="k" d="M272.626,387.069a56.413,56.413,0,0,1,9.784-13.321c4.953-5.8,11.659-10.187,19.164-11.271,16.253-2.348,30.908,10.981,38.24,25.672a80.783,80.783,0,0,1,7.487,48.132c-1.806,11.616-6.462,23.192-15.2,31.054-.573.516-1.169,1-1.78,1.477-5.83,8.545-14.8,12.448-25.171,12.247-7.751-.152-17.651-4.47-23.588-9.4-7.333-6.092-12.79-13.383-15.462-22.619C260.571,429.931,263.163,404.675,272.626,387.069Z" transform="translate(-263.225 -362.206)"/><line class="f" y2="118.706" transform="translate(43.061 18.619)"/><path class="f" d="M310.453,377.371Q296.17,393.939,281.888,410.5" transform="translate(-233.939 -338.409)"/><path class="f" d="M301.065,388.817q-6.243,6.875-12.1,14.092" transform="translate(-222.828 -320.447)"/><path class="f" d="M295.526,397.992Q288.207,406.721,280.37,415" transform="translate(-236.321 -306.05)"/><path class="f" d="M291.845,401.011q-10.155-13.327-19.624-27.157" transform="translate(-249.109 -343.927)"/><path class="f" d="M290.9,411.6q-9.1-10.139-18.539-19.973" transform="translate(-248.894 -316.038)"/></g><g transform="translate(1051.891 492.561)"><path class="j" d="M603.231,374.684a68.925,68.925,0,0,1,11.955-16.279c6.051-7.086,14.246-12.445,23.416-13.771,19.853-2.87,37.76,13.416,46.719,31.365a98.726,98.726,0,0,1,9.149,58.807c-2.207,14.19-7.9,28.336-18.57,37.942-.7.629-1.431,1.225-2.176,1.806-7.122,10.439-18.09,15.207-30.754,14.96-9.473-.182-21.566-5.46-28.821-11.487-8.956-7.44-15.626-16.35-18.889-27.635C588.5,427.05,591.67,396.194,603.231,374.684Z" transform="translate(-591.746 -344.305)"/><line class="f" y2="134.275" transform="translate(52.428 36.577)"/><path class="f" d="M641.162,358.484q-13.431,19.685-28.459,38.209" transform="translate(-558.859 -322.054)"/><path class="f" d="M636.753,371.042q-6.532,8.012-13.833,15.361" transform="translate(-542.826 -302.348)"/><path class="f" d="M630.75,381.65A124.6,124.6,0,0,1,613,399.789" transform="translate(-558.399 -285.701)"/><path class="f" d="M623.469,379.849a310.617,310.617,0,0,0-19.4-24.86" transform="translate(-572.4 -327.538)"/><path class="f" d="M630.563,406.648q-15.6-16.93-31.206-33.862" transform="translate(-579.802 -299.611)"/></g><path class="e" d="M182.325,445.971l1191.819,45.958L1419,407.633H182.325Z" transform="translate(-182.325 247.634)"/></g><g transform="translate(1087.146 548.18)"><path class="l" d="M506.249,548.986c3.327,5.542,6.287,12.291,3.836,18.272-2.957,7.209-12.078,9.4-19.87,9.493s-16.3-.719-22.66,3.782c-7.253,5.131-8.828,15.693-6.045,24.127s8.961,15.251,14.973,21.792c6.636,7.222,13.781,16.584,21.453,26.167,13.663,17.07,28.994,34.8,46.069,42.42h61.155c9.8-3.561,18.617-9.175,25.214-17.419,8.206-10.249,12.7-22.894,17.055-35.278q5.561-15.828,11.127-31.653c1.914-5.447,3.659-12.042.038-16.538-4.75-5.9-14.388-3.075-20.417,1.513s-12.039,10.8-19.606,10.4c-7.042-.375-12.576-6.829-14.192-13.694s-.18-14.046,1.405-20.919a488.672,488.672,0,0,1,24.505-76.737c3.517-8.517,7.351-17.337,6.791-26.535s-7.179-18.784-16.387-19.148c-9.038-.36-15.849,7.592-22.355,13.876s-17.07,11.508-24.03,5.729c-4.067-3.381-4.974-9.17-5.532-14.426-6.343-59.8-3.962-121.611-24.415-178.162-4.368-12.073-9.958-24.092-19.231-32.971s-22.9-14.115-35.234-10.547C469.427,238.452,462.226,263.7,461.47,285c-1.256,35.55,4.946,77.536,19.189,109.657,4.365,9.845,6.125,23.059-2.143,29.96-8.214,6.849-22.529,3.869-28.935,12.438-2.983,3.99-3.209,9.383-2.734,14.341C450.528,489.817,486.381,515.894,506.249,548.986Z" transform="translate(-446.656 -231.395)"/><g transform="translate(43.592 6.219)"><path class="l" d="M526.921,544.756c-14.228-25.823-14.891-56.007-15.531-85.193-.4-18.247-.817-37.115-4.5-54.881-4.072-19.624-12.271-38.41-20.2-56.579-3.769-8.64-7.669-17.571-11.089-26.509-13.509-35.291-15.567-64-6.295-87.777l2.392.935c-9.028,23.149-6.968,51.256,6.3,85.925,3.4,8.882,7.284,17.787,11.042,26.4,7.983,18.29,16.235,37.2,20.361,57.088,3.733,17.995,4.149,36.984,4.555,55.344.663,30.209,1.29,58.74,15.212,84.011Z" transform="translate(-463.623 -233.816)"/></g></g><g transform="translate(1245.597 345.707)"><path class="m" d="M562.61,847.883l2.723-29.163c9.753,15.662,22.029,31.583,36.514,43.011h88.391a303.052,303.052,0,0,0,98.329-99.655c8.247-13.619,15.613-28.8,14.557-44.684-.206-3.116-.933-6.539-3.458-8.373-2.451-1.783-5.788-1.5-8.8-1.135l-40.458,4.892c10.59-52.469,52.076-92.135,89.3-130.6,9.128-9.434,18.442-19.562,21.813-32.249s-1.426-28.547-13.7-33.2c-21.073-7.983-47.975,19.87-64.464,4.514-4.247-3.954-6.089-9.83-7.2-15.528-6.518-33.6,6.754-67.416,17.44-99.93a699.274,699.274,0,0,0,33.292-170.6c1.174-17.237,1.613-35.1-4.743-51.161s-21.165-29.96-38.438-30.1c-12.507-.1-24.02,6.793-33.6,14.835-54.491,45.727-62.938,125.4-98.5,187.011-4.763,8.25-12.867,17.35-21.985,14.585-5.776-1.75-9.095-7.672-13.879-11.356-11.076-8.53-28.318-2.929-36.84,8.152s-10.542,25.708-11.926,39.62c-3.628,36.414-4.915,73.323.748,109.474,2.315,14.768,5.8,29.651,4.07,44.5s-10.043,30.1-24.184,34.941c-10.77,3.687-24.546,1.57-31.812,10.331-3.211,3.874-4.262,9.054-5.031,14.025a212.631,212.631,0,0,0,11.7,108.385C537.76,768.039,565.474,806.043,562.61,847.883Z" transform="translate(-508.329 -150.489)"/><g transform="translate(116.479)"><path class="d" d="M556.371,846.657l-2.706-1.85c53.4-78.05,65.186-178.206,69.962-274.814l.182-3.671c1.041-21.314,2.117-43.358,7.286-64.436,2.225-9.059,5.226-18.026,8.129-26.7,2.708-8.088,5.508-16.453,7.649-24.829,7.916-30.985,7.286-63.8,6.678-95.526-.2-10.338-.4-21.032-.311-31.509.491-55.636,11.729-94.19,35.365-121.331,3.581-4.116,7.579-8.119,11.443-11.991,11.03-11.042,22.432-22.465,25.016-37.413l3.229.56c-2.762,15.97-14.537,27.763-25.923,39.17-3.828,3.831-7.787,7.795-11.294,11.824-23.095,26.522-34.076,64.4-34.559,119.209-.092,10.434.113,21.1.311,31.416.614,31.948,1.246,64.986-6.78,96.4-2.168,8.486-4.987,16.913-7.715,25.055-2.883,8.609-5.863,17.512-8.052,26.44-5.1,20.775-6.166,42.654-7.2,63.814l-.18,3.674C622.1,667.241,610.234,767.934,556.371,846.657Z" transform="translate(-553.665 -152.588)"/></g><g transform="translate(174.194 390.418)"><path class="d" d="M579.263,463.166l-3.134-.961q1.526-4.971,3.008-9.912c9.5-31.509,18.483-61.271,40.28-86.2,13.676-15.641,30.841-27.755,47.441-39.468l31.278-22.072,1.891,2.677-31.28,22.07c-16.443,11.605-33.441,23.6-46.86,38.949-21.332,24.4-30.211,53.835-39.612,84.995Q580.783,458.187,579.263,463.166Z" transform="translate(-576.129 -304.548)"/></g><g transform="translate(214.793 102.681)"><path class="d" d="M595.166,359.466l-3.235-.519C597.4,324.8,604.913,296.4,613.61,263.518l2.181-8.252c1.585-6.009,3.556-13.486,7.61-19.724,2.788-4.3,6.459-7.88,10.012-11.346a90.3,90.3,0,0,0,7.466-7.9c4.982-6.225,8.119-15.431,3.89-21.959l2.752-1.783c5.113,7.9,1.637,18.645-4.08,25.79a92,92,0,0,1-7.738,8.2c-3.579,3.494-6.963,6.8-9.555,10.788-3.766,5.8-5.665,12.99-7.189,18.771l-2.179,8.255C608.107,297.152,600.615,325.478,595.166,359.466Z" transform="translate(-591.931 -192.554)"/></g><g transform="translate(110.898 484.788)"><path class="d" d="M592.855,487.863l-3.212-.655c3.145-15.423,5.992-53.519-.01-68.328-3.872-9.555-10.593-17.843-17.093-25.859-2.551-3.147-5.19-6.4-7.638-9.7-11.425-15.418-15.58-29.559-12.348-42.038l3.173.82c-3.7,14.29,4.378,29.243,11.808,39.265,2.4,3.247,5.02,6.469,7.548,9.591,6.654,8.2,13.535,16.687,17.586,26.7C598.911,433.054,596.067,472.111,592.855,487.863Z" transform="translate(-551.493 -341.279)"/></g></g><g transform="translate(976.822 615.339)"><path class="c" d="M481.506,548.95c9.784,23.734-6.888,51.706,1.087,76.108,3.034,9.29,9.47,17.049,17.409,22.871h68.973a43.78,43.78,0,0,0,3.528-9.09c3.147-11.587,2.3-23.858.886-35.781-1.75-14.719-4.589-29.949-13.432-41.845-5.442-7.32-12.867-12.954-18.516-20.115-10.264-13.005-13.925-30.134-14.275-46.7s2.294-33.032,3.209-49.576c.768-13.91-.578-29.8-11.461-38.492-9.331-7.453-23.079-7.291-32.408-14.742-11.687-9.331-12.217-26.491-13.082-41.424a253.129,253.129,0,0,0-14.578-71.131c-3.448-9.55-9.223-20.281-19.31-21.409-6.821-.763-13.252,3.361-18.154,8.162a59.683,59.683,0,0,0-17.586,45.18c1.8,33.742,32,62.419,28.855,96.06-.922,9.876-4.725,19.215-7.33,28.783-6.169,22.666-4.912,48.867,9.866,67.123C449.015,520.019,473.13,528.628,481.506,548.95Z" transform="translate(-403.715 -257.535)"/><g transform="translate(19.369 14.8)"><path class="d" d="M541.074,611.759l-1.778-.123c.979-14.46-11.487-28.7-21.5-40.139-1.112-1.272-2.2-2.515-3.247-3.73-22.021-25.574-29.582-60.338-34.073-90.973-.817-5.568-1.567-11.166-2.32-16.772-3.553-26.481-7.227-53.864-18.159-78.454-5.436-12.227-12.7-23.791-19.716-34.972-4.28-6.819-8.707-13.866-12.689-21.016-13.1-23.506-18.239-43.88-15.711-62.283l1.765.242c-2.474,18.008,2.595,38.019,15.5,61.176,3.962,7.109,8.373,14.136,12.641,20.934,7.055,11.235,14.349,22.853,19.837,35.2,11.037,24.824,14.729,52.332,18.3,78.939.75,5.6,1.5,11.186,2.317,16.751,4.452,30.381,11.937,64.839,33.659,90.069,1.043,1.21,2.127,2.451,3.237,3.72C529.366,582.013,542.1,596.56,541.074,611.759Z" transform="translate(-411.254 -263.296)"/></g><g transform="translate(22.691 176.8)"><path class="d" d="M491.2,431.711c-1.033-3.083-1.883-5.989-2.631-8.55-2.194-7.518-3.782-12.946-7.908-16.993-4.463-4.37-10.123-7.476-15.6-10.477-1.542-.845-3.086-1.691-4.6-2.564-6.341-3.646-14.069-8.874-17.6-17.013-1.685-3.89-2.287-8.18-2.867-12.33-.768-5.5-1.5-10.7-4.54-14.932-2.528-3.515-6.51-6.061-10.364-8.525-5.491-3.507-11.166-7.137-12.54-13.609l1.742-.367c1.22,5.742,6.338,9.013,11.757,12.476,4,2.554,8.126,5.195,10.85,8.985,3.3,4.6,4.1,10.254,4.858,15.724.565,4.034,1.148,8.2,2.739,11.87,3.32,7.659,10.752,12.669,16.852,16.178,1.508.868,3.042,1.706,4.573,2.549,5.58,3.057,11.348,6.223,15.986,10.765,4.46,4.373,6.187,10.282,8.37,17.763.781,2.675,1.588,5.437,2.61,8.484Z" transform="translate(-412.547 -326.35)"/></g><g transform="translate(89.332 147.097)"><path class="d" d="M440.142,410.706l-.285-2.227c-1.164-9.036-2.759-21.412.876-29.366a51.768,51.768,0,0,1,3.314-5.835,41.126,41.126,0,0,0,3.689-6.775c2.991-7.685.989-16.361-.948-24.749-2.109-9.134-4.291-18.578-.152-26.964l1.6.789c-3.856,7.816-1.842,16.541.29,25.774,2,8.651,4.062,17.6.871,25.795a42.334,42.334,0,0,1-3.838,7.076,50.341,50.341,0,0,0-3.2,5.632c-3.425,7.489-1.865,19.572-.73,28.395l.285,2.233Z" transform="translate(-438.485 -314.789)"/></g><g transform="translate(6.186 58.056)"><path class="d" d="M461.395,345.866c-5.973-11.153-12.181-21.533-22.414-25.988-1.382-.6-2.859-1.1-4.288-1.58a35.989,35.989,0,0,1-6.626-2.731c-6.338-3.653-9.868-10.665-12.707-16.3l-9.236-18.331,1.593-.8,9.234,18.331c2.731,5.424,6.13,12.173,12.006,15.562a34.263,34.263,0,0,0,6.3,2.585c1.467.493,2.98,1,4.434,1.634,10.755,4.686,17.144,15.343,23.272,26.781Z" transform="translate(-406.123 -280.132)"/></g><g transform="translate(82.667 315.663)"><path class="d" d="M505.445,454.441a71.965,71.965,0,0,1-1.9-11.826c-.737-7.112-1.436-13.83-5.6-19.074-4.581-5.77-11.78-7.808-19.4-9.966-6.541-1.852-13.306-3.766-18.393-8.258a38.913,38.913,0,0,1-6.2-7.5l-.242-.355c-4.64-6.842-9.9-14.6-17.82-15.289l.154-1.773c8.764.763,14.277,8.892,19.138,16.063l.241.355a37.515,37.515,0,0,0,5.907,7.168c4.784,4.221,11.351,6.081,17.7,7.877,7.559,2.14,15.374,4.352,20.312,10.572,4.483,5.652,5.241,12.944,5.973,20a70.611,70.611,0,0,0,1.84,11.528Z" transform="translate(-435.891 -380.399)"/></g></g><g transform="translate(768.782 800.155)"><path class="m" d="M501.859,514.718c15.459,6.056,7.947,26.373,13.72,39.086h52.438c1.552-.681,3.091-1.385,4.614-2.127,10.043-4.91,19.526-11.166,30.062-15.025,4.686-1.719,11.395-4.3,16.5-3.51,3.307.511,2.844,6.138,7.443,2.348,6.2-5.12,7.625-13.989,7.749-22.028.653-42.364-22.8-69.42-49.825-98.126-10.67-11.33-9.7,3.435-13.506,10.03-3.027,5.251-10.832,5.86-16.135,2.929s-8.717-8.3-11.993-13.4a536.653,536.653,0,0,0-50.29-66.342c-5.028-5.66-10.4-11.374-17.373-14.318s-16-2.379-20.993,3.309c-5.976,6.806-5.054,19.033-13.131,23.136-4.2,2.133-9.29,1.038-13.73-.545-15.783-5.627-29.037-16.63-44.113-23.937s-34.338-10.357-47.749-.311c-12.1,9.064-15.49,26.73-10.742,41.084s16.186,25.636,28.919,33.788,26.931,13.676,40.522,20.3c9.062,4.416,19.136,11.431,18.673,21.5-.48,10.482-12.191,16.941-15.415,26.928-3.011,9.321,2.379,19.755,10.377,25.409s18.021,7.51,27.742,8.7a277.752,277.752,0,0,0,35.972,2.066C480,515.6,494.026,511.651,501.859,514.718Z" transform="translate(-322.741 -329.47)"/><g transform="translate(15.148 16.795)"><path class="d" d="M494.935,479.965c-11.222-26.319-25.191-59.071-51.562-77.845-12.122-8.625-26.417-13.992-40.242-19.179-6.757-2.538-13.745-5.162-20.43-8.142a179.757,179.757,0,0,1-54.064-37.151l1.644-1.642a177.51,177.51,0,0,0,53.365,36.671c6.621,2.952,13.576,5.562,20.3,8.088,13.964,5.241,28.4,10.66,40.771,19.464,26.9,19.148,41.015,52.235,52.353,78.824Z" transform="translate(-328.637 -336.007)"/></g><g transform="translate(114.253 28.886)"><path class="d" d="M420.152,441.408c-4.149-12.787-15.174-46.755-29.012-58.565-.966-.825-1.968-1.611-2.97-2.4a44.29,44.29,0,0,1-6.564-5.925c-3.317-3.91-5.21-8.882-6.883-13.268l-7.512-19.711,2.171-.825,7.512,19.708c1.683,4.417,3.425,8.985,6.485,12.592a41.718,41.718,0,0,0,6.23,5.6c1.025.807,2.05,1.613,3.04,2.461,12.707,10.845,22.555,37.557,29.716,59.614Z" transform="translate(-367.211 -340.713)"/></g><g transform="translate(4.209 47.196)"><path class="d" d="M411.915,365.159c-10.138-4.247-25.816-3-37.259-2.091l-1.174.092a76.23,76.23,0,0,1-49.1-13.419l1.336-1.9A73.96,73.96,0,0,0,373.3,360.845l1.174-.092c11.682-.93,27.681-2.207,38.343,2.263Z" transform="translate(-324.379 -347.84)"/></g><g transform="translate(83.225 147.64)"><path class="d" d="M457.661,405.233c-3.265-6.747-12.589-8.126-20.348-8.576l-15.921-.927a142.293,142.293,0,0,0-16.06-.319c-2.657.151-5.367.46-7.988.76a88.424,88.424,0,0,1-13.347.838c-10.208-.4-20.117-4.4-28.863-7.918l.868-2.156c8.99,3.62,18.283,7.369,28.084,7.751a86.062,86.062,0,0,0,12.992-.825c2.654-.3,5.4-.617,8.121-.771a141.334,141.334,0,0,1,16.325.321l15.921.925c8.394.486,18.514,2.05,22.306,9.884Z" transform="translate(-355.134 -386.935)"/></g></g><g transform="translate(38.497 29.521)"><g class="n"><g transform="translate(571.585 269.929)"><g transform="translate(0 681.498)"><path class="o" d="M1303.284,516.914,538.8,627.872,260.971,447.018l604.594-47.179Z" transform="translate(-260.971 -399.839)"/><path class="p" d="M491.919,403.982,412.163,410.2C429.5,419.875,675.577,558.053,688.6,565.455l122.318-18.347C749.756,525.265,503.84,412,491.919,403.982Z" transform="translate(-23.718 -393.338)"/><path class="p" d="M544.841,400.163l-86.295,7.029c1.606.7,317.548,124.527,343.361,137.171L948.689,523.4C942.158,520.909,597.114,422.983,544.841,400.163Z" transform="translate(49.067 -399.331)"/><path class="p" d="M589.78,587.117l111.341-15.25L424.161,409.361l-82.338,6.506Z" transform="translate(-134.096 -384.897)"/><path class="p" d="M360.572,415.142l-99.6,7.863L538.8,603.859l88.243-13.106Z" transform="translate(-260.971 -375.826)"/><path class="q" d="M1065.763,494.25c-.8-11.006-16.33-10.446-23.886-10.554-16.9-.239-33.8,1.552-50.7,1.8-16.538.244-36.375-.08-48.109-13.684-4.314-5-5.524-11.43-7.6-17.494-2.222-6.5-4.37-6.775-11.153-6.906-16.088-.306-32.169-.9-48.234-1.878q-48.72-2.967-97.055-10.215c-4.291-.645-9.624-2.369-9.966-6.7-.237-2.993,2.194-5.418,3.982-7.831s2.857-6.256.48-8.09a6.623,6.623,0,0,0-3.653-1.01,132.9,132.9,0,0,0-13.8-.239c-13.876.478-27.866,2.564-41.77,3.684q-22.822,1.834-45.645,3.674-59.11,4.763-118.223,9.55c-25.975,2.107-51.962,4.123-77.924,6.4-16.651,1.459-33.348,2.31-49.969,4.162-2.574.288-5.141.632-7.713.927l-.057.005c-.321.044-.64.087-.961.134-1.107.159-2.217.319-3.325.486-4.609.7-9.205,1.485-13.779,2.4a187.772,187.772,0,0,0-26.787,7.243q-1.727.621-3.435,1.285c-.573.224-1.431.586-1.652.676-1.562.691-3.116,1.4-4.645,2.161-.249.123-.491.257-.737.38a68.272,68.272,0,0,0-4.969,4.9c-.265.293-2.186,2.721-2.122,2.546-.211.3-.416.606-.624.907a34.03,34.03,0,0,0-2.659,8.658c-3.253,20.487,19.644,32,35.668,37.41,25.032,8.458,51.819,8.671,77.927,6.98,37.336-2.415,74.078-10.282,110.261-19.482,16.921-4.3,33.852-8.653,50.488-13.953,14.326-4.563,28.86-8.766,43.947-5.77,2.793.552,7.376,1.323,8.365,4.571.866,2.839-1.526,5.881-2.908,8.124-3.057,4.966-9.008,13.509-4.2,19.238,3.957,4.707,12.17,5.19,17.787,5.449a151.99,151.99,0,0,0,26.281-1.547c13.671-1.762,27.074-5.151,40.717-6.957,15.69-2.078,31.2-5.537,46.875-7.746,9.578-1.349,19.213-2.521,28.886-2.924,4.663-.193,26.2-2.122,24.916,6.338-.367,2.4-2.233,4.257-4.018,5.9s-3.695,3.427-4.2,5.8c-.693,3.286,1.678,6.6,4.681,8.1s6.49,1.611,9.845,1.673a934.774,934.774,0,0,0,189.151-15.852c3.715-.7,7.52-1.452,10.732-3.445a11.482,11.482,0,0,0,5.357-7.268A7.968,7.968,0,0,0,1065.763,494.25Z" transform="translate(-123.191 -381.741)"/></g><g transform="translate(322.729)"><rect class="r" width="2.621" height="106.59" transform="translate(166.538 134.568)"/><path class="r" d="M538.125,809.094H485.484V141.015a6.43,6.43,0,0,0-6.431-6.431h-8.109a6.43,6.43,0,0,0-6.431,6.431V809.094H412.75A12.013,12.013,0,0,0,400.736,821.1v21.188h149.4V821.1A12.011,12.011,0,0,0,538.125,809.094Z" transform="translate(-364.378 -134.584)"/><path class="s" d="M42.333,0H175.191a42.333,42.333,0,0,1,42.333,42.333V168.741a0,0,0,0,1,0,0H0a0,0,0,0,1,0,0V42.333A42.333,42.333,0,0,1,42.333,0Z" transform="translate(0 8.833)"/><rect class="t" width="217.524" height="43.208" transform="translate(0 134.365)"/><path class="r" d="M461.6,231.5a6.116,6.116,0,1,1-6.117-6.115A6.117,6.117,0,0,1,461.6,231.5Z" transform="translate(-288.069 7.907)"/></g><path class="u" d="M412.993,501.944c-.963,4.144-1.917,8.468-.94,12.61s4.506,8.011,8.758,7.88c4.943-.149,8.137-5.146,10.29-9.6C449.694,474.4,458.177,432,466.489,390.124c1.655-8.335-4.106-24.855-16.286-20.055C442.007,373.3,420.158,471.139,412.993,501.944Z" transform="translate(-24.535 233.595)"/><path class="u" d="M489.4,526.608c2.274,3.6,6.873,6.1,10.85,4.594,4.625-1.755,6.015-7.52,6.6-12.43,5.043-42.395-1.945-94.131-7.744-136.428-1.154-8.417-10.806-13.273-20.757-4.763C471.657,383.305,487.129,523.011,489.4,526.608Z" transform="translate(77.528 239.743)"/><path class="v" d="M484.124,392.03c7.8,6.536,11.61,17.651,14.58,27.028a180.793,180.793,0,0,1,6.546,28.888c1.642,11.441,2.507,23.031,3.281,34.6-.375-33.572-5.226-69.39-9.45-100.2-1.154-8.419-10.806-13.273-20.757-4.763-.984.843-1.49,4.591-1.626,10.382A21.057,21.057,0,0,1,484.124,392.03Z" transform="translate(77.553 239.743)"/><path class="u" d="M514.682,503.344c-.365,4.239-.694,8.656.861,12.615s5.6,7.286,9.791,6.554c4.871-.85,7.322-6.251,8.823-10.966,12.936-40.686,15.3-83.862,17.576-126.5.452-8.484-7.6-24.017-18.974-17.535C525.1,371.877,517.392,471.835,514.682,503.344Z" transform="translate(136.679 228.521)"/><path class="v" d="M526.681,367.517c-2.893,1.647-5.794,16.952-8.43,37.051a25.276,25.276,0,0,1,6.873,5.28c8.327,9.062,11.931,22.314,12.05,34.391.169,17.309-3.122,34.808-7.107,51.582-1.575,6.621-2.438,17.139-1.991,15.726,12.939-40.686,15.307-83.862,17.579-126.5C546.107,376.569,538.055,361.035,526.681,367.517Z" transform="translate(142.757 228.521)"/><path class="u" d="M598.754,521.964c1.154,4.583,2.407,9.342,5.475,12.936s8.522,5.627,12.659,3.337c4.809-2.659,5.426-9.218,5.293-14.711-1.154-47.423-16.741-110.649-29.8-156.25-2.6-9.077-14.257-5.46-23.853,5.47C562.068,380.1,590.186,487.883,598.754,521.964Z" transform="translate(220.153 222.485)"/><path class="v" d="M587.716,399.484c7.489,6.593,10.4,17.612,12.425,27,2.438,11.312,12.263,69.978,14.583,81.2q2.817,13.627,5.411,27.3c1.852-3.194,2.14-7.587,2.045-11.456-1.154-47.423-16.741-110.646-29.8-156.247-2.6-9.077-14.257-5.46-23.853,5.47-1.66,1.891-1.033,10.421.956,22.617A18.837,18.837,0,0,1,587.716,399.484Z" transform="translate(220.154 222.485)"/><path class="w" d="M912.337,233.779c-23.765-27.655-62.314-42.181-98.229-35.879s-67.6,33.726-77.845,68.721c-2.623,8.954-3.967,18.4-8.291,26.666-3.266,6.238-8.075,11.5-12.3,17.134-20.482,27.337-26.632,62.638-29.79,96.646s-26.633,110.019-28.046,112.745c-4.617,10.441-5,7.746-15.726,13.106-35.7,17.851-74.913,25.792-114.068,31.851-20.2,3.124-40.478,5.809-60.605,9.424-19.886,3.574-30.849,6.914-46.066,21.538-4.512,4.334-8.915,9.347-9.974,15.513-1.357,7.913,3.317,15.885,9.717,20.731s14.3,7.194,22,9.444c27.342,7.988,54.768,16,82.883,20.585,44.245,7.222,89.4,5.86,134.188,3.951,52.412-2.233,105.436-5.292,155.515-20.919,12.33-3.849,24.667-8.581,34.672-16.751,18.891-15.431,26.674-40.822,28.888-65.117,2.258-24.772-1.148-50.382,4.73-74.474,4.851-19.883,10.007-39.463,16.756-58.83,10.834-31.1,27.02-61.523,35.072-93.471C944.73,301.033,936.105,261.434,912.337,233.779Z" transform="translate(-25.287 -37.516)"/><path class="x" d="M520.19,536.423c-24.4,3.381-50.745,9.82-65.371,29.59-1.762,2.382-3.381,5.182-3.027,8.121.321,2.667,2.2,4.864,4.142,6.713,12.029,11.443,29.078,15.862,45.55,17.943,36.457,4.612,73.346-.116,110.024-2.353,42.613-2.6,87.22-2.266,125.147-21.869,9.891-5.113,19.413-11.821,25.016-21.443,6.1-10.485,7.1-23.637,14.575-33.194,6.13-7.834,15.909-12.263,21.7-20.356,12.016-16.8,2.063-40.414,6.359-60.621,3.294-15.508,14.758-27.866,21.286-42.315a70.585,70.585,0,0,0,4.915-42.282c-2.232-11.41-7.281-22.17-8.951-33.675-2.343-16.145,2.109-32.416,3.157-48.7,2.068-32.149-20.662-60.058-52.168-66.414a79.079,79.079,0,0,0-57.838,10.94c-27.488,17.735-38.613,47.739-53.029,75.291-3.265,6.238-8.078,11.5-12.3,17.134-.37.5-.727,1-1.089,1.5q-4.258,7.642-8.193,15.459-4.628,9.187-8.82,18.588c-.221.493-.432.989-.65,1.483-6.269,19.056-9.177,39.561-11.037,59.616-2.782,29.962-12.05,59.863-20.484,88.623-4.293,14.637-5.95,21.712-20.464,28.881-17.884,8.836-38.341,10.59-57.815,13.249Z" transform="translate(38.391 -25.547)"/><g transform="translate(295.85 126.914)"><path class="y" d="M594.4,228.874c.1.609.254,1.5.468,2.731C594.706,230.693,594.552,229.784,594.4,228.874Z" transform="translate(-33.606 -113.536)"/><path class="z" d="M411.868,358.7a3.535,3.535,0,0,0-.334,1.308c-.054.532-.1,1.064-.149,1.6.164-.779.226-1.611.375-2.377C411.794,359.053,411.835,358.879,411.868,358.7Z" transform="translate(-320.789 90.195)"/><path class="aa" d="M581.485,231.494c-6.719-13.321-26.692-3.206-36.313,5.94-9.506,9.038-15.7,20.788-21.682,32.241-.4.758-4.828,7.006-11.929,16.864,9.922,5.984,19.714,12.219,28.559,19.739,6.644,5.65,13.072,12.325,17.345,20.066,9.771-16.142,19.971-32.375,25.358-49.94C587.484,261.212,588.106,244.625,581.485,231.494Z" transform="translate(-163.591 -119.501)"/><g transform="translate(378.46 101.078)"><path class="ab" d="M536.69,255.059l-.105-.288Z" transform="translate(-502.783 -173.977)"/><path class="ab" d="M548.528,223.92q3.441.123,6.842.391Q551.971,224.041,548.528,223.92Z" transform="translate(-484.042 -222.389)"/><path class="ab" d="M542.654,224.008q3.615-.116,7.181-.134Q546.267,223.89,542.654,224.008Z" transform="translate(-493.259 -222.461)"/><path class="ab" d="M535.555,252.165l-.049-.123Z" transform="translate(-504.476 -178.259)"/><path class="ab" d="M545.614,223.874q3.518-.008,6.993.1Q549.132,223.862,545.614,223.874Z" transform="translate(-488.615 -222.461)"/><path class="ac" d="M593.115,473.3a159.407,159.407,0,0,0,14.018,10.583c6.087,3.993,16.733,10.935,23.968,6.086,6.289-4.216,11.623-21.358,15.033-28.12C651.408,451.4,656.4,440.79,660.978,430c9.455-22.262,17.435-45.4,21.7-69.3,8.07-45.19.013-92.9-41.336-120.316-24.521-16.255-59.822-20.346-88.014-14.6-3.854.786-7.775,1.822-10.9,4.162-4.524,3.389-6.724,9-8.168,14.46-11.009,41.629,10.007,83.595,4.779,125.465-1.377,11.019-1.619,22.291-2.194,33.438a51,51,0,0,1-1.017,9.113c-1.611,6.85-5.961,12.684-10.567,17.987a6.991,6.991,0,0,0-1.739,2.772c-.573,2.33,1.493,4.663,3.813,5.413s4.812.388,7.235.254a37.658,37.658,0,0,1,18.151,3.6c5.144,2.451,9.658,6.03,14.12,9.575q6.813,5.411,13.625,10.824C584.773,466.267,588.912,469.83,593.115,473.3Z" transform="translate(-523.428 -223.324)"/><path class="ad" d="M593.115,473.3a159.407,159.407,0,0,0,14.018,10.583c6.087,3.993,16.733,10.935,23.968,6.086,6.289-4.216,11.623-21.358,15.033-28.12C651.408,451.4,656.4,440.79,660.978,430c9.455-22.262,17.435-45.4,21.7-69.3,8.07-45.19.013-92.9-41.336-120.316-24.521-16.255-59.822-20.346-88.014-14.6-3.854.786-7.775,1.822-10.9,4.162-4.524,3.389-6.724,9-8.168,14.46-11.009,41.629,10.007,83.595,4.779,125.465-1.377,11.019-1.619,22.291-2.194,33.438a51,51,0,0,1-1.017,9.113c-1.611,6.85-5.961,12.684-10.567,17.987a6.991,6.991,0,0,0-1.739,2.772c-.573,2.33,1.493,4.663,3.813,5.413s4.812.388,7.235.254a37.658,37.658,0,0,1,18.151,3.6c5.144,2.451,9.658,6.03,14.12,9.575q6.813,5.411,13.625,10.824C584.773,466.267,588.912,469.83,593.115,473.3Z" transform="translate(-523.428 -223.324)"/><path class="aa" d="M641.347,240.386c-24.521-16.255-59.822-20.346-88.014-14.6-.406.082-.812.167-1.218.257,2.32,1.572,4.673,3.091,7.112,4.468,4.635-.064,9.267-.7,13.889-1.051a51.791,51.791,0,0,1,21.425,2.551c4.2,1.544,9.2,3.319,13.131,5.945,5.226,3.492,9.907,10.02,10.287,16.541.409,7.009-3.659,13.452-6.428,19.542a60.243,60.243,0,0,0-5.249,20.639c-.249,3.566-.432,7.674-3.268,9.845-2.086,1.593-5.036,1.567-7.525.737s-4.681-2.348-6.993-3.592c-8.6-4.622-31.039-8.245-33.312,6.194a59.671,59.671,0,0,0-.01,16.392c1.683,12.425,7.394,23.909,12.692,35.116,2.341,4.948,5.961,9.439,8.851,14.082,3,4.812,6.516,10.028,8.34,15.431,1.483,4.391,3.384,9.912,3.224,14.58-.144,4.134-2.376,8.46-6.269,9.863-2.69.971-5.673.426-8.45-.26-12.98-3.2-27.737-11.818-36.326-22.064-.892,3.569.277,9.421-.481,13.018-.588,2.805-.252,5.555-.922,8.4-1.611,6.85-5.961,12.684-10.567,17.987a6.99,6.99,0,0,0-1.739,2.772c-.573,2.33,1.493,4.663,3.813,5.413s4.812.388,7.235.254a37.657,37.657,0,0,1,18.151,3.6c5.144,2.451,9.658,6.03,14.12,9.573l13.625,10.827c4.3,3.42,8.442,6.98,12.646,10.454a159.414,159.414,0,0,0,14.018,10.583c6.087,3.993,16.733,10.935,23.968,6.086,6.289-4.216,11.623-21.358,15.033-28.12C651.408,451.4,656.4,440.79,660.978,430c9.455-22.262,17.435-45.4,21.7-69.3C690.753,315.512,682.7,267.8,641.347,240.386Z" transform="translate(-523.428 -223.323)"/><path class="ab" d="M537.744,258.082c-.062-.188-.124-.375-.188-.56C537.62,257.707,537.682,257.895,537.744,258.082Z" transform="translate(-501.259 -169.66)"/><path class="ab" d="M538.248,258.978q-1.3-3.468-2.723-6.888Q536.951,255.508,538.248,258.978Z" transform="translate(-504.446 -178.184)"/><path class="ab" d="M536.4,254.137q-.721-1.719-1.47-3.43Q535.686,252.414,536.4,254.137Z" transform="translate(-505.374 -180.354)"/><path class="ab" d="M539.016,261.663q-1.133-3.411-2.39-6.78Q537.883,258.251,539.016,261.663Z" transform="translate(-502.719 -173.801)"/><path class="ab" d="M538.69,261.044q-.516-1.657-1.061-3.3,1.746,5.3,3.2,10.685c.378,1.4.766,2.821,1.151,4.26C541.136,268.839,539.911,264.97,538.69,261.044Z" transform="translate(-501.145 -169.318)"/><path class="ab" d="M551.43,224.087l-.239-.015.236.018Z" transform="translate(-479.863 -222.15)"/><path class="ab" d="M542.539,223.936l.3-.01Z" transform="translate(-493.44 -222.379)"/><path class="ab" d="M545.449,223.874h0Z" transform="translate(-488.873 -222.461)"/><path class="ab" d="M548.336,223.914l.493.015Z" transform="translate(-484.343 -222.398)"/></g><path class="ae" d="M586.219,232.92c.961,4.064,1.883,8.083,3.877,11.793,2.122,3.946,5.516,7.178,3.625,11.983a20.153,20.153,0,0,1-4.429,6.146c-4.961,5.277-10.254,10.505-16.872,13.45a28.547,28.547,0,0,1-16.276,2.122,26.059,26.059,0,0,1-14.467-7.651,18.621,18.621,0,0,1-4.7-8.183,13.024,13.024,0,0,1,.162-7.011c.83-2.59,2.356-2.836,4.9-3.358a8.852,8.852,0,0,1,2.875-.27,2.067,2.067,0,0,1,.111-.789c1.213-3.772.2-7.89.015-11.847s.131-8.183,2.448-11.4a17.947,17.947,0,0,1,6.832-5.159,112.478,112.478,0,0,1,10.421-4.362,64.6,64.6,0,0,1,9.352-2.967c2.366-.5,6.59-8.327,8.851-7.042C585.021,209.558,583.709,222.327,586.219,232.92Z" transform="translate(-124.342 -145.926)"/><path class="ac" d="M540.146,250.138c2.865,2.438,6.274,3.969,10.117,2.942,5.46-1.457,9.6-6.569,12.707-10.978a121.785,121.785,0,0,0,11.153-20.425c1.657-3.689,3.152-7.443,4.589-11.22-.206-1.1-.488-1.837-.915-2.081-2.261-1.285-6.485,6.544-8.851,7.042a64.6,64.6,0,0,0-9.352,2.967,112.494,112.494,0,0,0-10.421,4.362,17.947,17.947,0,0,0-6.832,5.159c-2.317,3.214-2.633,7.44-2.448,11.4C540.064,242.911,540.912,246.65,540.146,250.138Z" transform="translate(-119.199 -145.926)"/><path class="ae" d="M584.931,195.713c4.961,4.522,6.323,11.718,6.557,18.411.349,9.953-1.241,20.1-5.606,29.1s-11.641,16.8-20.836,20.9c-7.469,3.335-17.016,3.844-23.125-1.488-3.666-3.2-5.514-7.949-6.832-12.615a85.592,85.592,0,0,1-2.477-34.284,38.2,38.2,0,0,1,2.289-9.537A27.671,27.671,0,0,1,548.99,191.9C559.342,187.143,576.2,187.749,584.931,195.713Z" transform="translate(-131.692 -176.279)"/><path class="r" d="M589.812,195.47a25.2,25.2,0,0,0-2.569,5.485c-4.067,11.767-5.195,29.955-20.525,32.616-3.987.694-7.7-.146-11.531-1.226a13.058,13.058,0,0,0-5.069-.717c-2.2.262-4.175,1.4-6.128,2.359-3.173,1.557-6.559,3.245-10.177,3.276.205.817.419,1.631.647,2.441,1.318,4.666-4.625,16.9-.961,20.1,6.112,5.329,33.212,3.335,40.678,0,9.2-4.108,6.711-17.9,11.076-26.9s5.955-19.151,5.606-29.1A41.709,41.709,0,0,0,589.812,195.47Z" transform="translate(-131.065 -165.954)"/><path class="af" d="M538.876,216.563a16.647,16.647,0,0,1-.586-3.063c-.134-1.8-.57-3.553-.727-5.352-.17-1.971-.565-3.98-.848-5.95-.046-.326.434-.516.573-.188a27.1,27.1,0,0,1,.966,4.673,40.588,40.588,0,0,1,.635,4.054c.175,1.508.48,3.032.789,4.512.162.784.267,1.929,1.007,2.407a4.1,4.1,0,0,0,3.088.051c.748-.206,1.161.945.414,1.13-1.426.355-3.181.565-4.391-.462A3.313,3.313,0,0,1,538.876,216.563Z" transform="translate(-124.124 -155.96)"/><path class="af" d="M546.638,210.446a.316.316,0,0,0-.6.1,11.893,11.893,0,0,1-1.028,3.181,4.389,4.389,0,0,1-2.256,2.248,3.33,3.33,0,0,1-3.2-.342,6.609,6.609,0,0,0-1.225-.76c.069.524.154,1.046.231,1.567l.013.013a8.5,8.5,0,0,0,.807.47,3.894,3.894,0,0,0,1.339.514,4.879,4.879,0,0,0,3.073-.66,5.532,5.532,0,0,0,2.356-2.8C546.525,213,547.091,211.445,546.638,210.446Z" transform="translate(-121.589 -142.736)"/><path class="ag" d="M540.062,199.076a1.4,1.4,0,0,1,.9-.683,10.271,10.271,0,0,1,6.706.021c2.048.6,3.777,1.5,4.691,3.366a1.422,1.422,0,0,1,.177.568c.021.534-.475.974-1,1.22-1.393.66-2.759.239-4.17-.062a23.536,23.536,0,0,1-4.838-1.7,4.215,4.215,0,0,1-2.446-2.107A.956.956,0,0,1,540.062,199.076Z" transform="translate(-118.933 -162.241)"/><path class="ag" d="M531.374,202.049a1.207,1.207,0,0,1,.3-.935,7.936,7.936,0,0,1,4.763-3,5.867,5.867,0,0,1,4.982.5,1.484,1.484,0,0,1,.406.362,1.34,1.34,0,0,1-.111,1.4c-.66,1.133-1.834,1.423-2.983,1.824a18.6,18.6,0,0,1-4.262.861,3.65,3.65,0,0,1-2.772-.532A.947.947,0,0,1,531.374,202.049Z" transform="translate(-132.53 -162.306)"/><path class="ah" d="M541.168,205.749a2.577,2.577,0,1,0,1.721-3.212A2.578,2.578,0,0,0,541.168,205.749Z" transform="translate(-117.305 -155.037)"/><path class="ah" d="M533.117,205.19a2.183,2.183,0,1,0,1.31-3.088A2.392,2.392,0,0,0,533.117,205.19Z" transform="translate(-129.97 -155.668)"/><path class="ac" d="M552.088,205.709c1.331.486,2.657,1.562,2.636,2.978a3.11,3.11,0,0,1-.534,1.585c-1.5,2.366-4.6,3.114-7.4,3.186-2.98.074-9.164-2.88-5.478-6.477C543.445,204.9,549.517,204.766,552.088,205.709Z" transform="translate(-118.699 -150.768)"/><path class="ac" d="M532.618,211.873q-.436-3.075-.65-6.182a14.344,14.344,0,0,1,8.838-.347c1.251.46,2.5,1.477,2.484,2.808a2.9,2.9,0,0,1-.5,1.49c-1.4,2.222-4.316,2.921-6.945,2.98A8.1,8.1,0,0,1,532.618,211.873Z" transform="translate(-131.567 -151.301)"/><path class="ai" d="M552.754,200.115a8.453,8.453,0,0,0,.822.244,2.17,2.17,0,0,0,.75-.051c.3-.072.421.419.134.522-.588.211-1.567.316-1.983-.272A.285.285,0,0,1,552.754,200.115Z" transform="translate(-99.461 -158.675)"/><g transform="translate(450.869 40.486)"><path class="aj" d="M558.154,200.061a8.751,8.751,0,0,1,4.771.021,8.271,8.271,0,0,1,5.56,6.3,9.051,9.051,0,0,1-2.667,8.049,10.011,10.011,0,0,1-8.147,2.574,6.681,6.681,0,0,1-2.754-.938c-2.546-1.644-3.463-5.868-3.284-8.743C551.844,203.92,555,200.906,558.154,200.061Z" transform="translate(-551.612 -199.74)"/><path class="ac" d="M551.623,206.062a11.266,11.266,0,0,1,2.754-2.867c1.56-1.138,3.618-2.043,5.56-1.423a4.074,4.074,0,0,1,2.579,5.645c-2.068,3.969-6.752,4.029-10.22,2.058A13.588,13.588,0,0,1,551.623,206.062Z" transform="translate(-551.594 -196.869)"/><path class="af" d="M554.428,202.131l-.026-.036,0,0a.312.312,0,0,1-.023-.259c.254-.76,1.87-.48,2.448-.365A3.672,3.672,0,0,1,559.5,204.2c.044.17-.206.234-.28.09a4.645,4.645,0,0,0-2.4-2.071c-.313-.072-1.611-.29-1.883-.039a.345.345,0,0,1-.48-.023l0,.008Z" transform="translate(-547.3 -197.259)"/><path class="af" d="M554.254,205.559a3.747,3.747,0,0,1,.57-2.854c.126-.182.4.015.316.206a4.774,4.774,0,0,0-.159,2.528,3.448,3.448,0,0,0,.66,1.755,2.348,2.348,0,0,1,.509.609.29.29,0,0,1-.319.388C554.653,207.976,554.427,206.53,554.254,205.559Z" transform="translate(-547.573 -195.202)"/></g><g transform="translate(410.408 104.285)"><path class="r" d="M562.452,252.882a30.8,30.8,0,0,1-20.8-7.738c-3.641-3.361-5.693-7.286-5.786-11.055-.105-4.337,2.988-9.2,7.757-9.516l.136,2.027c-3.553.242-5.94,4.113-5.858,7.438.077,3.217,1.9,6.629,5.131,9.611,7.541,6.96,19.505,9.131,29.772,5.4,9.681-3.517,17.71-11.885,21.473-22.386l1.914.686c-3.967,11.063-12.45,19.888-22.694,23.611A32.432,32.432,0,0,1,562.452,252.882Z" transform="translate(-535.863 -224.572)"/></g><path class="r" d="M607.534,199.192a12.315,12.315,0,0,0-1.742-4.961c-1.531-2.23-4.131-3.44-6.662-4.391a75.926,75.926,0,0,0-9.075-2.744,109.355,109.355,0,0,0-11.667-2.068,110.69,110.69,0,0,0-36,.892,17.714,17.714,0,0,0-5.6,1.883,6.89,6.89,0,0,0-3.438,4.6c-.414,2.582,1.228,3.278,3,4.591a14.236,14.236,0,0,0-5.588.609,4.837,4.837,0,0,0-3.276,4.2c.015,2.235,2.122,3.931,4.252,4.609a11.042,11.042,0,0,0,5.752.244,20.466,20.466,0,0,0-4.948.529,6.891,6.891,0,0,0-4.039,2.734,5.539,5.539,0,0,0,.206,6.02,6.238,6.238,0,0,0,5.562,2.5,10.467,10.467,0,0,0,5.825-2.973A60.724,60.724,0,0,1,545.018,211a22.783,22.783,0,0,1,8.175-3.3c7.289-1.709,16.528-3.317,23.526.064,5.437,2.626,8.412,7.769,9.18,13.635.727,5.547,1.449,12.024.262,17.792a8.444,8.444,0,0,0,3.864.424c.362-2.292.463-4.627.974-6.893a10.738,10.738,0,0,1,3.273-6,8.551,8.551,0,0,1,3.936-1.77c1.061-.2,3.106.326,3.982-.1,1.9-.928,3.3-6.035,3.936-7.921A36.694,36.694,0,0,0,607.534,199.192Z" transform="translate(-138.595 -183.982)"/><g transform="translate(121.557 368.146)"><path class="r" d="M428.888,353.888a19.169,19.169,0,0,1-4.612-7.679,19.557,19.557,0,0,1,4.373-18.935l1.48,1.4a17.238,17.238,0,0,0,8.915,28.667l-.429,1.989A19.407,19.407,0,0,1,428.888,353.888Z" transform="translate(-423.436 -327.273)"/></g><path class="ae" d="M696.82,424.512a30.03,30.03,0,0,0,9.725-2.461,90.977,90.977,0,0,0,26.435-17.031c10.151-9.609,17.663-22.3,19.737-36.118a82.694,82.694,0,0,0,.7-13.7,100.708,100.708,0,0,0-1.8-18.493,32.42,32.42,0,0,0-4.671-12.086c-5.547-7.985-16.679-10.12-25.427-12.412q-16.575-4.343-33.438-7.456a424.288,424.288,0,0,0-124.283-4.388,476.009,476.009,0,0,0-48.371,8.124c-6.9,1.516-13.771,3.165-20.615,4.9q-4.706,1.2-9.4,2.446c-2.063.547-6.862.884-8.448,2.266a40.835,40.835,0,0,0-9.113,11.484c-5.449,10.118-37.655,144.141-50.087,199.852-5.146,23.061-18.581,60.76-18.116,60.86.313.067.385.514.665.352,4.864-2.821,17.329,13.93,22.057,9.529,40.655-37.86,74.065-99.86,89.589-153.215,4.093-14.066,7.207-28.487,13.077-41.922a325.152,325.152,0,0,0,114.944-6.423c.57-.136,7.643,7.828,8.663,8.686a73.077,73.077,0,0,0,10.585,7.394,73.826,73.826,0,0,0,23.565,8.64A54.237,54.237,0,0,0,696.82,424.512Z" transform="translate(-339.236 -5.51)"/><path class="ak" d="M744.815,329.078c-.912-2.875-2.06-5.634-3.659-7.322-3.276-3.461-10.1-3.743-14.393-5.028a467.493,467.493,0,0,0-49.527-11.97,424.288,424.288,0,0,0-124.283-4.388,476.01,476.01,0,0,0-48.371,8.124c-6.9,1.516-13.771,3.165-20.615,4.9q-4.706,1.2-9.4,2.446c-2.063.547-6.862.884-8.448,2.266a40.835,40.835,0,0,0-9.113,11.484c-5.449,10.118-37.655,144.141-50.087,199.852-.123.55-.252,1.112-.383,1.678,15.007,7.335,30.507,13.607,46.176,19.423,21.517-32.429,38.556-69.739,48.4-103.576,4.093-14.066,7.207-28.487,13.077-41.922,38.292,4.7,76.858,4.72,114.382-4.249,8.918,10.7,21.507,17.728,34.9,21.142,15.128,3.856,29.156,3.839,43.273-3.119,10.046-4.951,19.565-11.192,27.3-19.3s13.619-18.162,15.788-29.15c2.2-11.176.46-22.666-2.813-33.449C746.372,334.789,745.7,331.878,744.815,329.078Z" transform="translate(-328.398 -5.51)"/><path class="al" d="M437.309,406.845c-.565,2.027-1.1,4.45-1.511,5.334a51.938,51.938,0,0,1-5.159,8.7c-7.181,9.866-15.78,16.363-28.017,17.72q-9.954,1.1-19.958,1.714a11.564,11.564,0,0,0-4.129.755,3.858,3.858,0,0,0-2.413,3.194,4.481,4.481,0,0,0,1.454,3.05c4.07,4.27,45.059,8.818,45.059,8.818,20.51,1,31.9.951,31.9.951l8.3.93v0c-.01.059-.005.031,0,0l-.889,4.645c.113.018.226.028.339.044l8.792,1.377a495.164,495.164,0,0,0,8.031-50.7Z" transform="translate(-376.123 165.739)"/><g transform="translate(290.643 94.15)"><path class="ab" d="M575.62,261.321a3.381,3.381,0,0,1-.455,0c-6.549-.6-82.439-39.589-83.59-38.772-1.172.83,24.531,155.127,26.83,158.338,2.035,2.844,50.845,31,65.065,39.2C583.286,413.9,579.636,312.69,575.62,261.321Z" transform="translate(-485.656 -217.628)"/><path class="ab" d="M575.539,264.927a3.211,3.211,0,0,1-.452-.026c-6.495-1.035-79.612-45.005-80.817-44.265-1.223.75,14.123,156.417,16.2,159.775,1.842,2.975,48.663,34.322,62.306,43.456C573.006,417.678,576.12,316.451,575.539,264.927Z" transform="translate(-481.477 -220.627)"/><path class="ab" d="M612.777,223.495c-1.154-.82-77.092,38.076-83.641,38.664a3.384,3.384,0,0,1-.455,0c-3.551,44.674-6.873,127.043-7.805,151.813.121.069.242.128.367.2a2.656,2.656,0,0,1,1.177,1.339c1.11.8,2.184,1.657,3.276,2.487,18.236-10.5,58.206-33.631,60.045-36.2C588.046,378.591,613.946,224.327,612.777,223.495Z" transform="translate(-439.617 -216.148)"/><path class="ab" d="M603.7,221.576c-1.205-.74-74.379,43.135-80.874,44.16a3.162,3.162,0,0,1-.452.028c-.6,47.875,1.93,138.661,2.466,156.237.676.483,1.367.943,2.081,1.372,15.7-10.485,58.6-39.2,60.369-42.04C589.375,377.977,604.924,222.328,603.7,221.576Z" transform="translate(-437.408 -219.154)"/><path class="am" d="M572.876,262.748c5.9.54,80.712-25.145,103.542-34.541.193.018.912,151.291,1.5,150.366.182-.051-96.991,42.916-96.991,42.916s-62.378-35.784-64.806-39.175c-2.3-3.212-28-157.508-26.83-158.338C490.438,223.156,566.327,262.149,572.876,262.748Z" transform="translate(-489.248 -215.393)"/><path class="an" d="M573.331,262.745a3.384,3.384,0,0,1-.455,0c-6.549-.6-82.438-39.592-83.589-38.772-1.172.83,24.531,155.127,26.83,158.338,2.035,2.844,50.845,31,65.065,39.2C581,415.321,577.347,314.114,573.331,262.745Z" transform="translate(-489.248 -215.393)"/></g><rect class="ao" width="17.091" height="64.315" transform="translate(67.712 529.643) rotate(-68.908)"/><g transform="translate(67.575 528.994)"><rect class="r" width="2.034" height="65.435" transform="matrix(0.363, -0.932, 0.932, 0.363, 0, 1.895)"/></g><g transform="translate(73.961 513.378)"><rect class="r" width="2.034" height="62.999" transform="translate(0 1.901) rotate(-69.115)"/></g><g transform="translate(113.678 533.224)"><path class="r" d="M422.057,405.828l-1.688-1.138a31.716,31.716,0,0,0,5.069-13.165l2.014.288A33.805,33.805,0,0,1,422.057,405.828Z" transform="translate(-420.369 -391.525)"/></g><g transform="translate(129.453 389.838)"><path class="r" d="M428.266,482.924l-1.757-1.025A475.194,475.194,0,0,0,474.1,368.538c2.867-10.452,5.5-21.566,3.479-32.449l2-.372c2.1,11.31-.588,22.681-3.517,33.359A477.393,477.393,0,0,1,428.266,482.924Z" transform="translate(-426.509 -335.716)"/></g><g transform="translate(326.36 132.051)"><path class="ae" d="M731.266,337.845c-1.855-19.49-3.188-39.358-10.184-57.64-5.891-15.4-14.2-35.322-29.2-42.816-15.21-7.6-29.245,17.412-32.033,30.409-2.754,12.838-.609,26.162,1.541,39.116.552,3.332,1.056,17.016,1.565,29.459l-1.125-.344q-14.791-4.524-29.631-8.9-15.415-4.574-30.836-9.128-14.826-4.4-29.618-8.895-6.806-2.081-13.594-4.216c-1.984-.624-4.427-1.023-6.2-2.081a13.9,13.9,0,0,1-4.91-5.01c-2.12-3.728-1.657-7.5-1.57-11.564.051-2.325.1-6.726-3.026-7.119-3.623-.455-4.427,7.453-4.342,9.5.121,2.957,1.007,6.123-.421,8.884-1.667,3.23-4.239,3.255-6.927,2.939-9.033-2.7-20.947-10.161-22.434-9.606-3.913,1.454,1.339,6.978,2.785,8.345,3.253,3.07,11.153,7.6,12.486,8.2-.036.252-.064.511-.092.766-.483-.157-.969-.326-1.467-.516-2.323-.889-13.961-6.988-17.352-6.993a1.5,1.5,0,0,0-1.518,1.78c.316,2.215,2.8,4,4.594,5.092,3.152,1.912,6.664,3.386,9.93,5.105,1.107.583,4.134,2.246,5.7,3.237.013.177.026.352.041.529-.046-.01-.085-.015-.136-.028-.712-.162-10.68-3.62-16.872-5.74-.737-.252-1.279.933-1.177,1.637.645,4.383,7.99,6.587,11.4,8.155,2.626,1.2,5.313,2.066,7.972,3.116.028.116.062.229.09.342-1.141-.365-2.279-.74-3.409-1.164-2.561-.963-6.793-3.569-9.57-2.646-.586.193-1.136.863-.876,1.387,2.638,5.272,25.564,14,28.85,14.884,18.583,12.019,39.926,22.761,50.1,28.405q31.763,17.631,64.9,32.626c10.536,4.766,21.378,9.383,32.883,10.539a46.1,46.1,0,0,0,23.907-4.694c.267-.121.519-.236.73-.344a29.15,29.15,0,0,0,2.9-1.724c.28-.18.558-.362.827-.55l.185-.134a29.144,29.144,0,0,0,2.68-2.094l-.054-.057c6.829-6.182,11.084-15.274,12.8-24.464C733.764,362,732.407,349.831,731.266,337.845Z" transform="translate(-503.15 -234.437)"/><path class="ad" d="M568.011,319.7c10.621-7.322,23.4-10.786,35.625-14.439,7.582-2.269,15.187-4.249,22.928-5.9,2.777-.591,5.562-1.226,8.358-1.755a120.416,120.416,0,0,0-4.586-15c-6.292-16.446-15.169-37.721-31.183-45.724-16.245-8.119-31.234,18.6-34.212,32.475-2.942,13.712-.65,27.943,1.649,41.775Q567.3,315.417,568.011,319.7Z" transform="translate(-408.369 -235.379)"/><g transform="translate(158.619 59.765)"><path class="r" d="M565.957,284.39l-1.069-1.729a62.342,62.342,0,0,1,12.476-5.411c19.213-6.708,39.083-13.645,59.2-18.609l.488,1.973c-20.03,4.941-39.851,11.862-59.02,18.555A60.77,60.77,0,0,0,565.957,284.39Z" transform="translate(-564.888 -258.641)"/></g><g transform="translate(157.777 48.735)"><path class="r" d="M565.375,280.174l-.814-1.865a611.707,611.707,0,0,1,64.706-23.961l.6,1.945A608.957,608.957,0,0,0,565.375,280.174Z" transform="translate(-564.56 -254.348)"/></g></g><path class="ae" d="M524.946,264.217c-.5-.773-1.762-.922-2.77-.866a52.835,52.835,0,0,0-15.865,3.4,5.563,5.563,0,0,1-3.54.56c-.285-.591.344-1.2.9-1.542A31.666,31.666,0,0,1,513,261.925c2.641-.611,6.192-1.033,8.345-2.8a2.726,2.726,0,0,0,1.208-1.863c.033-1.136-1.169-1.878-2.243-2.24-6.189-2.089-14.157,2.243-20.086,4.979,6.115-5.241,20.967-13.106,19.22-15.726-4.483-3.849-23.2,6.1-27.324,13.183-.105,10.259,1.9,20.62,6.693,29.636a1.928,1.928,0,0,0,.655.028,3.461,3.461,0,0,0,.989-.344l17.458-8.132a12.318,12.318,0,0,0,3.959-2.508,4.177,4.177,0,0,0,1.048-4.329c-2.03-.6-12.214,3.045-15.711,3.918.188-.046.753-.735.945-.879a17.655,17.655,0,0,1,1.93-1.184c1.791-1.012,3.646-1.917,5.5-2.808,1.752-.843,10.185-3.535,9.537-6.223A1.376,1.376,0,0,0,524.946,264.217Z" transform="translate(-194.102 -90.715)"/><path class="ae" d="M439.489,413.784l29.734,3.029a264.326,264.326,0,0,0,13.229-57.977,5.44,5.44,0,0,0-.357-3.4c-.694-1.179-2.13-1.657-3.445-2.04q-12.321-3.569-24.806-6.536c-11.973-2.847-10.958-.47-11.538,11.063Q440.9,385.857,439.489,413.784Z" transform="translate(-276.687 69.894)"/><path class="ao" d="M757.224,420.768a466.817,466.817,0,0,0-31.45-40.093A424.146,424.146,0,0,0,630.962,300.2a476.325,476.325,0,0,0-43-23.6c-6.351-3.088-71.309-44.748-101.661,16.692-5.09,10.3-36.55,144.423-48.558,200.229-.118.552-.244,1.115-.37,1.683,15.063,7.217,30.61,13.37,46.323,19.069,21.27-32.593,38.024-70.032,47.61-103.943,3.985-14.1,6.988-28.541,12.756-42.019.681.077,1.362.146,2.04.223,24.418,23.126,51.369,43.184,81.953,57.353.37,13.923,5.891,27.241,14.287,38.225,9.48,12.4,20.5,21.083,35.892,24.374,10.953,2.343,22.291,3.342,33.379,1.773s21.946-5.812,30.458-13.09c8.658-7.4,14.408-17.5,18.527-27.992.814-2.078,2.094-4.776,3.132-7.525,1.066-2.824,1.875-5.7,1.67-8.013C764.978,428.887,759.793,424.432,757.224,420.768Z" transform="translate(-280.001 -64.79)"/><path class="al" d="M473.381,362.705c-.4,2.068-.742,4.524-1.082,5.436a52.259,52.259,0,0,1-4.452,9.087c-6.379,10.405-14.434,17.563-26.525,19.883q-9.839,1.892-19.76,3.291a11.543,11.543,0,0,0-4.057,1.082,3.86,3.86,0,0,0-2.15,3.373,4.469,4.469,0,0,0,1.691,2.926c4.4,3.933,45.614,5.218,45.614,5.218,20.525-.624,31.881-1.583,31.881-1.583l8.35.27h0c-.008.062,0,.031,0,0l-.519,4.7c.113.01.226.013.342.018l8.874.676a495.843,495.843,0,0,0,3.987-51.174Z" transform="translate(-314.566 96.474)"/></g><path class="w" d="M762.9,330.8a242.243,242.243,0,0,1-52.964,10.57c-22.375,2.027-44.861.167-67.17-1.786-42.112-3.687-87.014-8.2-125.162,13.8-13.951,8.047-25.237,18.4-33.151,31.4a98.251,98.251,0,0,0-5.467,10.336c-.072.157-.786,1.876-.827,1.945-.218.547-.437,1.094-.645,1.644q-1.025,2.725-1.906,5.5c-1.177,3.718-2.156,7.5-2.957,11.32q-.547,2.625-.987,5.27-.246,1.484-.457,2.97l-.039.372a181.637,181.637,0,0,0-.969,24.2c.123,4.131.38,8.257.748,12.373q.254,2.833.575,5.657c.111.956.229,1.909.347,2.865.054.414.154,1.179.193,1.439.049.326.105.65.154.976,31.694,2.068,63.658.992,95.439-.362,52.412-2.233,105.436-5.293,155.515-20.919,12.33-3.849,24.667-8.581,34.672-16.751,18.891-15.431,26.674-40.822,28.888-65.117,1.447-15.865.57-32.074,1.3-48.008A175.725,175.725,0,0,1,762.9,330.8Z" transform="translate(67.243 157.149)"/><path class="ap" d="M497.607,403.949c4.774-27.388,16.158-55.521,37.816-73.873a113.311,113.311,0,0,0-17.817,8.276c-13.951,8.047-25.237,18.4-33.151,31.4a98.258,98.258,0,0,0-5.467,10.336c-.072.157-.786,1.876-.827,1.945-.218.547-.437,1.094-.645,1.644q-1.025,2.725-1.906,5.5c-1.177,3.718-2.156,7.5-2.957,11.32q-.547,2.624-.987,5.27-.246,1.484-.457,2.97l-.039.372a181.636,181.636,0,0,0-.969,24.2c.123,4.131.38,8.257.748,12.373q.254,2.833.575,5.657c.111.956.229,1.909.347,2.865.054.414.154,1.179.193,1.439.049.326.105.65.154.976,7.286.475,14.586.778,21.895.956A266.414,266.414,0,0,1,497.607,403.949Z" transform="translate(67.243 172.186)"/><g transform="translate(632.857 375.707)"><path class="aq" d="M639.473,550.607c-52.551-77.642-107.6-156.229-132.179-246.7,13,5.334,26.021,10.86,37.737,18.617,26.453,17.517,44.437,45.144,59.1,73.277,26.684,51.192,53.042,117.734,48.831,176.662C649.156,572.2,642.492,555.067,639.473,550.607Z" transform="translate(-507.294 -244.59)"/><path class="ar" d="M540.607,330.47c-.067.285-.146.568-.208.853-.2.938-.36,1.881-.534,2.824-.033.18-.054.365-.077.547-.1,1.642-.326,3.281-.416,4.925a116.419,116.419,0,0,0,.005,11.944c.193,4,.55,8,1.028,11.983.015.134.031.265.049.4-.031-.326-.013-.275.149,1.166.128.863.249,1.732.385,2.595q.451,2.917.979,5.819a212.792,212.792,0,0,0,11.487,39.967c13.054,33.274,29.2,66.553,49.676,96.639-2.153-53.419-25.489-110.726-49.1-156.016C549.864,346.117,545.427,338.162,540.607,330.47Z" transform="translate(-457.195 -202.903)"/><path class="as" d="M627.621,520.588C608.3,484.115,581.483,452.3,562.042,415.882c-18.825-35.257-33.942-72.447-53.4-107.35,26,85.5,78.492,160.6,128.726,234.814a37.415,37.415,0,0,1,2.009,3.592A202.878,202.878,0,0,0,627.621,520.588Z" transform="translate(-505.185 -237.329)"/><path class="aq" d="M591.259,558.249c28.2-89.411,55.593-181.369,111.227-256.829,3.895,13.5,7.654,27.139,8.851,41.138,2.705,31.609-7.772,62.864-20.71,91.831-23.544,52.71-59.318,114.7-108.115,148.005C580.35,579.255,589.638,563.385,591.259,558.249Z" transform="translate(-389.771 -248.489)"/><path class="ar" d="M598.155,517.482a259.588,259.588,0,0,0,57.373-98.976c7.456-23.773,14.778-48.224,16.556-73.195a181.82,181.82,0,0,0-.7-29.538c-38.831,65.631-61.818,140.3-84.882,213.566Q592.5,523.543,598.155,517.482Z" transform="translate(-383.001 -225.966)"/><path class="at" d="M599.323,392.411c1.246-2.788,2.5-5.57,3.72-8.37a473.232,473.232,0,0,0,17.4-44.676C612.8,356.735,605.839,374.467,599.323,392.411Z" transform="translate(-362.88 -188.947)"/><path class="at" d="M704.953,342.558c-1.2-14-4.956-27.64-8.851-41.138-1.007,1.367-1.986,2.749-2.975,4.126-.529,8.892-.65,18.087-1.472,26.843a259.993,259.993,0,0,1-8.674,44.645c-6.8,24.688-14.683,49.663-24.685,73.254A306.372,306.372,0,0,1,625.269,508.7c-6.462,9.046-13.3,17.774-20.4,26.275-6.41,13.221-12.713,26.5-18.614,39.944C629.9,540.375,662.36,483.38,684.242,434.39,697.181,405.422,707.658,374.167,704.953,342.558Z" transform="translate(-383.387 -248.489)"/><path class="au" d="M568.385,463.888c-8.769-26.083-17.571-52.286-22.332-79.389-4.823-27.449-5.437-55.457-5.252-83.327.041-6.3.206-12.921,3.35-18.38,20.325,15.505,33.932,38.287,43.88,61.839,24.729,58.537,29.359,123.294,33.675,186.695.868,12.733,1.729,25.6-.321,38.2-1.156,7.112-5.3,25.361-12.743,15.693-6.207-8.067-8.312-26.324-11.559-35.982Z" transform="translate(-454.758 -277.72)"/><path class="av" d="M574.641,315.905c-.064.11-.131.218-.2.329q-1.792,3.183-3.338,6.5c-.462.984-.9,1.978-1.341,2.973l-.049.108-.121.313c-.172.444-.352.881-.524,1.323a174.96,174.96,0,0,0-7.6,25.515q-1.472,6.563-2.577,13.2-.543,3.214-1.012,6.446c-.036.231-.226,1.619-.311,2.22s-.213,1.683-.254,2.014a298.585,298.585,0,0,0-1.994,54.324q.3,4.933.771,9.884l18.9,56.22c3.247,9.658,5.352,27.915,11.559,35.979,7.443,9.67,11.587-8.579,12.743-15.69,2.05-12.6,1.19-25.466.321-38.2C595.865,424.244,591.87,368.1,574.641,315.905Z" transform="translate(-432.671 -225.759)"/><path class="at" d="M570.578,331.24c4.815,11.359,9.868,22.591,14.051,34.2,4.612,12.8,8.5,25.844,12.122,38.954q9.3,33.667,17.134,67.763,1.152,5.045,2.271,10.177c-4.3-47.263-11.572-94.206-29.949-137.71-9.948-23.549-23.555-46.331-43.88-61.836-.144.249-.26.506-.391.761C555.52,296.119,563.523,314.594,570.578,331.24Z" transform="translate(-452.933 -277.72)"/><path class="aw" d="M576.587,475.824c3.186-39.191,13.578-78.176,33.585-112.023,18.719-31.666,45.2-57.936,72.139-82.983,1.39,36.01,2.744,72.47-4.8,107.709-7.669,35.8-24.233,68.976-36.277,103.552-8.789,25.23-15.258,51.438-27.475,75.2-4.491,8.735-12.368,23.642-22.383,27.193-6.76,2.395-5.627,2.027-7.887-4.473-2.23-6.413-2.335-14.727-3.273-21.458C575.927,537.866,574.074,506.74,576.587,475.824Z" transform="translate(-400.341 -280.818)"/><path class="av" d="M580.21,497.537c.822,5.894,1,13,2.533,18.979q4.813-9.049,9.092-18.375A310.7,310.7,0,0,0,615.8,419.659a239.854,239.854,0,0,0,2.926-39.057,172.933,172.933,0,0,0-3.99-37.642,65.914,65.914,0,0,0-2.389-8.273c.049.224-.838-1.878-1.053-2.284-.462-.874-.989-1.7-1.5-2.544-.116-.193-.208-.339-.29-.462-.185-.224-.373-.447-.578-.65-.663-.665-1.351-1.285-2.037-1.924,1.606,1.5.632.576-.5-.134-.044-.028-.1-.046-.146-.072-.288-.067-.781-.272-1.264-.455-.444.044-1.159.064-1.269-.09-.054,0-.113-.008-.164-.008-.858-.005-1.7.1-2.551.146,2.333-.134,1.1-.149-.337.218-.891.226-1.76.524-2.636.809-.19.062-.344.113-.478.152-.059.036-.128.08-.218.128-1.608.909-3.24,1.727-4.807,2.7a283.378,283.378,0,0,0-15.937,74.6C574.074,435.737,575.927,466.863,580.21,497.537Z" transform="translate(-400.341 -209.816)"/><path class="ax" d="M667.427,345.2c-6.21,25.315-13.6,50.3-21.147,75.234-6.634,21.91-13.735,43.672-22.275,64.924-12.165,30.273-26.984,59.639-46.125,85.961a42.794,42.794,0,0,0,1.791,7.985c2.261,6.5,1.128,6.87,7.887,4.475,10.015-3.551,17.892-18.457,22.383-27.192,12.217-23.758,18.686-49.969,27.475-75.2,12.045-34.577,28.608-67.753,36.277-103.552,6.328-29.536,6.4-59.93,5.439-90.2C676.109,306.982,672.1,326.174,667.427,345.2Z" transform="translate(-396.529 -270.124)"/><path class="ax" d="M584.283,307c11.145,37.893,20.846,76.388,24.888,115.679,2.821,27.434,2.836,55.277-1.326,82.58-1.819,11.924-6.821,61.312-28.493,40.553-8.013-7.677-9.491-23.388-11.754-33.721a347.426,347.426,0,0,1-6.277-39.419,355.563,355.563,0,0,1,9.452-124.276q2.725-10.548,6.1-20.908C578.106,323.709,585.287,310.408,584.283,307Z" transform="translate(-425.315 -239.734)"/><path class="aq" d="M573.472,500.231c-9.845-59.531-10.084-121.85.56-181.687q-1.727,5.839-3.258,11.736a355.579,355.579,0,0,0-9.452,124.273,347.469,347.469,0,0,0,6.277,39.422c2.21,10.089,3.674,25.294,11.2,33.153Q575.712,513.77,573.472,500.231Z" transform="translate(-425.315 -221.619)"/><path class="am" d="M662.22,516.182H576.973L548.249,395.724H683.841Z" transform="translate(-443.027 -100.505)"/><path class="ay" d="M585,493.131a82.919,82.919,0,0,1,19.557-52.458c11.471-13.37,29.309-20.3,46.341-22.91a107.584,107.584,0,0,1,29.091-.6l3.849-21.443H548.249l28.724,120.458H588.5A77.65,77.65,0,0,1,585,493.131Z" transform="translate(-443.027 -100.506)"/><rect class="am" width="169.259" height="21.93" transform="translate(85.763 283.791)"/></g><g transform="translate(819.331 560.873)"><path class="az" d="M588.437,437.36c-2.174-12.17-3.52-26.134,4.483-35.561a8.145,8.145,0,0,1,3.3-2.567c4.432-1.588,8.347,3.291,10.385,7.538a155.258,155.258,0,0,1,10.017,27.09,149.743,149.743,0,0,1,5.056-69.2c1.4-4.388,3.389-9.154,7.6-11.024,4.224-1.878,9.359-.021,12.625,3.247,3.638,3.638,5.452,8.686,6.88,13.627,7.744,26.774,7.289,55.182,5.6,83A95.959,95.959,0,0,1,672.1,391.4c1.65-2.289,3.818-4.72,6.642-4.691,2.315.023,4.319,1.811,5.287,3.913a17.546,17.546,0,0,1,1.179,6.793,228.67,228.67,0,0,1-12.2,81.935,193.074,193.074,0,0,1,14.706-38.286c2.217-4.329,4.7-8.7,8.55-11.669a5.356,5.356,0,0,1,4.121-1.423c2.716.542,3.384,4.075,3.4,6.842a213.656,213.656,0,0,1-17.707,86.274,6.614,6.614,0,0,1-1.583,2.5,6.711,6.711,0,0,1-4,1.154c-21.224,1.429-44.725,4.077-65.9,1.359-5.216-.668-4.119-1.035-5.167-5.686-1.148-5.095-3.188-10.1-4.7-15.107q-4.74-15.646-8.617-31.54Q591.71,455.687,588.437,437.36Z" transform="translate(-569.057 -352.889)"/><path class="ba" d="M697.185,438.388c-3.553-6.911-11.374-11.479-16.494-3.253a1.749,1.749,0,0,1-1.619.907c-.712,1.863-1.387,3.741-2.043,5.627q.786-2.867,1.5-5.75a1.994,1.994,0,0,1-1.236-2.215c1.8-10.68,3.4-23.329-.532-33.734-1.434-3.8-4.231-8.866-8.985-8.476-4.434.365-8.047,4.792-10.49,8.07a2.3,2.3,0,0,1-.416.419c-.7,2.813-1.285,5.655-1.732,8.519.062-2.711.085-5.421.085-8.129a1.853,1.853,0,0,1-1.4-1.75c-.547-6.772.126-14.1-2.577-20.489-2.669-6.308-10.1-11.4-17.091-9.516-11.176,3.019-17.324,18.557-16.869,29.071a1.878,1.878,0,0,1-2.127,1.827c.316,3.443.737,6.875,1.295,10.287q-1.884-7.06-4.432-13.917c-5.475-6.559-15.436-5.693-21.368,1.141a21.784,21.784,0,0,0-3.779,6.379c.3,3.348.814,6.685,1.39,9.9q3.268,18.313,7.682,36.4,3.873,15.885,8.617,31.54c1.516,5,3.556,10.012,4.7,15.107,1.048,4.65-.049,5.018,5.167,5.686,21.17,2.718,44.671.069,65.9-1.359a6.711,6.711,0,0,0,4-1.154,6.613,6.613,0,0,0,1.583-2.5,213.309,213.309,0,0,0,14.01-45.676A28.6,28.6,0,0,0,697.185,438.388Z" transform="translate(-568.887 -328.831)"/><path class="bb" d="M608.11,489.684c1.737,1.678,3.687,3.8,5.758,5.819h73.939c.193-.159.388-.311.573-.478,4.252-3.8,6.816-9.105,8.956-14.393a143.737,143.737,0,0,0,9.262-35.18c1-7.618,1.238-15.909-2.921-22.365a10.469,10.469,0,0,0-5.565-4.635c-3.89-1.136-7.972,1.166-10.878,3.99a24.046,24.046,0,0,0-5.74,9.558,27.726,27.726,0,0,0-1.377,2.662q.979-13.118.9-26.291c-.067-9.262-.586-18.753-4.232-27.267-1.508-3.525-3.707-6.986-7.117-8.738-5.452-2.8-12.463-.2-16.433,4.465s-5.524,10.886-6.559,16.923a121.822,121.822,0,0,0-1.75,24.189,61.3,61.3,0,0,0-2.294-9.447,26.912,26.912,0,0,0-4.082-8.656,15.16,15.16,0,0,0-24.361.7c-2.669,3.826-3.43,8.664-3.553,13.329a58.051,58.051,0,0,0,3.158,20.392,44.092,44.092,0,0,0-4.987-7.068c-2.957-3.116-6.927-5.508-11.222-5.665-4.858-.177-9.5,2.567-12.553,6.346-5.614,6.942-6.307,16.918-3.707,25.456s8.07,15.9,13.884,22.671Q601.333,483.135,608.11,489.684Z" transform="translate(-579.874 -324.139)"/><path class="bc" d="M676.061,430a1.875,1.875,0,0,1-3.106-1.811c1.714-8.06,4.537-21.769,1.017-31.088-.064.059-.131.118-.193.18a24.046,24.046,0,0,0-5.74,9.558,27.712,27.712,0,0,0-1.377,2.662q.752-10.066.881-20.168a15.048,15.048,0,0,0-3.073-1.295c-18-5.326-27.249,17.545-29.59,31.311-.316,1.865-3.147,1.678-3.584,0-1.058-4.041-2.518-8.5-5.393-11.639-3.489-3.81-7.9-2.788-9.737,1.822-2.49,6.241-1.429,15.413,1.207,21.492.791,1.824-1.336,3.872-2.919,2.253-4.815-4.928-14.156-10.351-20.872-5.9-5.848,3.869-5.843,12.2-4.18,18.164,2.544,9.134,8.255,17.545,14.724,24.806h70.224c.193-.159.388-.311.573-.478,4.252-3.8,6.816-9.105,8.956-14.393a143.813,143.813,0,0,0,5.619-16.836C688.656,430.992,684.211,422.529,676.061,430Z" transform="translate(-566.42 -298.976)"/><path class="bd" d="M612.082,465.222c-7.325-5.252-14.848-10.852-18.527-18.4-1.624-3.327-2.086-7.8,1.285-9.961a8.485,8.485,0,0,1,4.352-1.159c7.089-.162,12.463,5.182,16.715,10.035a56.389,56.389,0,0,1-5.318-22.594c-.062-2.888.578-6.392,3.7-7.479,3.772-1.31,7.456,2.045,9.275,5.162,4.052,6.95,5.77,14.7,7.443,22.334-5.709-13.527-.29-28.693,7.816-41.292a23.567,23.567,0,0,1,5.429-6.377,11.587,11.587,0,0,1,8.507-2.395,10.174,10.174,0,0,1,6.867,4.676,18.7,18.7,0,0,1,2.364,7.448,62.585,62.585,0,0,1-9.568,42.662c1.421-5.909,6.22-10.786,11.292-14.984,1.012-.835,2.34-1.724,3.682-1.357,1.7.462,1.883,2.436,1.691,3.951a73.142,73.142,0,0,1-9.349,27.778Z" transform="translate(-560.356 -289.963)"/><path class="w" d="M659.265,481.591l-48.865.057L593.84,421.24l77.724-.092Z" transform="translate(-557.958 -245.775)"/><path class="x" d="M614.985,470.077a38.672,38.672,0,0,1,11.168-26.327c6.567-6.716,16.785-10.205,26.548-11.526a70.523,70.523,0,0,1,16.674-.319l2.189-10.757-77.724.09,16.558,60.41,6.606-.008A34.56,34.56,0,0,1,614.985,470.077Z" transform="translate(-557.958 -245.774)"/><rect class="w" width="97.022" height="11.001" transform="matrix(1, -0.001, 0.001, 1, 24.722, 169.746)"/></g></g></g></g></g></svg>