<svg xmlns="http://www.w3.org/2000/svg" width="639.839" height="365.08" viewBox="0 0 639.839 365.08"><defs><style>.a{opacity:0.505;}.b{fill:#f2f2f2;}.c{opacity:0.5;}.d{fill:#69a1ac;}.e,.g{fill:#c1dee2;}.f{fill:#89c5cc;}.g{opacity:0.2;}.h{opacity:0.7;}.i{fill:#e6e9ed;}.j{fill:#ccd1d9;}.k{fill:#a0d468;}.l{fill:#8cc152;}.m{fill:#545c66;}.n{fill:#fff;}.o{fill:#656d78;}</style></defs><g transform="translate(-604.161 -218.304)"><g class="a" transform="translate(604.161 355.924)"><path class="b" d="M581.855,142.068c8.485,63.5-197.3,104.916-374.417,76.012S-50.937,76.3,33.582,16.156,573.37,78.57,581.855,142.068Z" transform="translate(0)"/></g><g class="c" transform="translate(651.003 218.304)"><path class="d" d="M41.514,14.929C44.188,11.113,49.152,1.423,52.916.06,55.341-.819,54.634,8.265,54.664,10a145.253,145.253,0,0,1-1.341,20c-1.451,11.984-6.195,22.657-12.7,32.856-3.348,5.248-7.275,10.56-12.715,13.835-2.5,1.508-5.516,1.761-7.989,3.06-2.88,1.513-1.311.29-2.609,3.292-1.8,4.168-2.379,9.545-3.213,13.993C10.268,117.454,1,225.379,2.605,246.147c.143,1.841-2.423,2.281-2.551.034-.681-11.915,5.21-94.425,8.182-121.408s5.979-50.822,8.995-60.157C20.889,53.289,27.5,39.669,33,29.107A125.6,125.6,0,0,1,41.514,14.929Z" transform="translate(71.923 56.035)"/><path class="e" d="M63.912,1.45c6.96-5.112,14.494,4.536,8.2,9.649-3.482,2.826-7.122,1.821-9.171-.534-1.33,1.622-2.575,3.318-3.772,4.751-3.645,4.366-7.09,8.836-10.382,13.41-6.84,9.5-12.7,19.542-18.83,29.4-6.048,9.727-12.048,19.5-17.53,29.477C7.78,96.05,1.59,105.991,0,115.254,2.412,95.608,11.566,76.724,22.467,59.4,33.279,42.226,45.686,23.467,62.427,9.91A5.933,5.933,0,0,1,63.912,1.45Z" transform="translate(69.377 201.854)"/><path class="d" d="M1.218.02C5.113.782,11.477,9.6,14.687,12.955a125.779,125.779,0,0,1,10.54,12.7,214.846,214.846,0,0,1,18.648,30.43,282.92,282.92,0,0,1,20.749,54.022,222.935,222.935,0,0,1,6.3,35.434c.225,2.244,2.576,19.541-.812,20.007-3.047.42-2.106-13.134-2.253-14.978-1.662-20.8-6.64-41.038-13.564-60.644-1.508-4.271-2.909-9.5-5.321-13.345-1.737-2.768-.012-1.8-3.065-2.851-2.621-.9-5.607-.68-8.291-1.782-5.831-2.392-10.5-7.036-14.592-11.707-7.953-9.078-14.255-18.9-17.54-30.531A147.053,147.053,0,0,1,1.055,10.126C.815,8.407-1.291-.471,1.218.02Z" transform="translate(0 155.371)"/><path class="f" d="M8.95,8.734A353.187,353.187,0,0,1,43.461,90.469c4.717,17.159,8.015,34.766,11.292,52.247,5.074,27.066,9.874,54.13,11.239,81.677,1.374,27.706,4.09,59.663-4.979,86.348,4.53-27.093.217-55.932-.546-83.193-.365-13.014-1.422-25.9-2.809-38.839-1.346-12.551-3.545-25.042-5.593-37.494q-1.5-9.1-3.112-18.172c-.318-1.806-.453-7.163-1.6-8.4s-7.031-1.748-8.877-2.659a47.658,47.658,0,0,1-10.307-7.2A82.361,82.361,0,0,1,13.007,95.816C3.584,80.082-.184,60.881.007,42.66.043,39.122,5.731,1.025,3.447.5q.206-.242.39-.5Q6.431,4.345,8.95,8.734Z" transform="translate(7.638)"/><path class="f" d="M104.922,2.475c.226-.327,1.7-2.6.958-2.453,1.511-.3-2.078,2.505,1.686.787-1.787,1.689-.756,3.882-.732,6.154a55.137,55.137,0,0,1-1.273,10.959,75.177,75.177,0,0,1-5.106,16.564C95.283,46.054,86.5,57.19,76.072,64.423c-5.148,3.571-10.193,4.786-16.064,6.43-3.708,1.039-4,2.958-5.971,6.558-4.1,7.5-8.123,14.97-11.738,22.721-4.316,9.256-8.505,18.522-12.457,27.941C16.529,159.8,5.694,192.671,0,226.688c-.139-20.046,4.5-40.692,10.343-59.8a357,357,0,0,1,15.718-40.625c1.433-3.218,3.6-7.358,4.213-10.911.426-2.489-.877-4.883-1.473-7.506a78.576,78.576,0,0,1-.117-31.92c2.252-11.321,8.763-16.575,19.778-18.179,4.028-.587,9.149-.372,12.842-2.09,4.024-1.871,5.685-8.022,7.973-11.97A162.795,162.795,0,0,1,91.116,13.974,70.843,70.843,0,0,1,98.584,7.1C100.255,5.765,103.784,4.12,104.922,2.475Z" transform="translate(70.014 98.062)"/><path class="e" d="M.825,3.648A3.183,3.183,0,0,1,3.974,0H43.065a3.183,3.183,0,0,1,3.148,3.648l-3.021,20.5A12.732,12.732,0,0,1,30.6,35.022H16.44A12.731,12.731,0,0,1,3.847,24.145Z" transform="translate(47.449 303.1)"/></g><path class="b" d="M122.846,165.561a29.8,29.8,0,0,1-.636,3.821A11.416,11.416,0,0,0,122.846,165.561Zm-6.895-29.936a73.424,73.424,0,0,0-15.071-20.669c1.216-4.421,13.042-11.324,5.564-14.98-3.97-1.933-7.736,1.817-8.383,5.611-.444,2.608.608,5.8,1.676,8.253q-2.867-2.756-5.925-5.315c-2.811-2.358-5.682-4.64-8.578-6.89,4.34-4.53,8.018-17.021,1.792-18.706-9.193-2.48-3.964,14.022-3.17,17.124a.491.491,0,0,0,.413-.182c-.036.29-.078.6-.134.914C78.6,96.5,72.98,92.313,67.532,87.916a23.876,23.876,0,0,0,1.675-2.471,26.8,26.8,0,0,0,3.243-5.293c1.306-3.014,2.469-7.775-1.492-9.3-4.308-1.663-6.03,3.743-5.894,6.907a42.045,42.045,0,0,0,1.221,6.361c.132.664-.083,3.7.759,2.353a6.463,6.463,0,0,0,.028,1.071q-1.467-1.191-2.916-2.406a1.132,1.132,0,0,0,.062-.368,1.094,1.094,0,0,0-1.618-.947q-1.914-1.638-3.785-3.33c-2.638-2.4-5.315-4.864-7.979-7.387.523-.5.271-1.14.757-1.666s1.478-.854,2.055-1.349a14.563,14.563,0,0,0,3.436-4.727c1.352-2.839,2.984-8.733-1.459-9.819-4.58-1.122-6.576,4.573-6.683,8.074a89.1,89.1,0,0,0,1.306,8.926c-4.929-4.691-9.791-9.571-14.226-14.562,1.261-.078,4.7-2.852,5.39-3.6,1.674-1.814,4.28-5.765,1.081-7.615-2.844-1.641-6.1,1.123-7.144,3.7a35.37,35.37,0,0,0-.614,6.043c-1.838-2.119-3.6-4.255-5.243-6.4q-1.646-2.143-3.1-4.408a2.059,2.059,0,0,0,.576-.629c4.547-1.019,10.021-8.487,4.5-10.7-2.628-1.051-5.282,1.541-6.434,3.609a26.71,26.71,0,0,0-.8,4.147A86.071,86.071,0,0,1,17.369,26.26a1,1,0,0,0,.733-.971c2.161-1.387,3.864-2.537,5.291-5.061.887-1.568,2.445-5.126-.438-5.82-3.752-.9-5.776,4.864-5.932,7.66-.018.324.032,1.263.089,2.123a1.24,1.24,0,0,0-.385.027c-1.029-3.415-1.89-6.884-2.613-10.365,1.983-.755,1.776-11.366.354-12.8-3.178-3.22-5.039,1.77-4.743,4.339a17.046,17.046,0,0,0,3.639,8.093c.19.25.139.241.165-.124a.726.726,0,0,0,.2.4,46.144,46.144,0,0,0,.073,4.664A107.993,107.993,0,0,0,15.82,30.483q.327,1.447.724,2.867A23.534,23.534,0,0,0,11.726,30.6c-2.271-.879-5.747-1.773-7.862.027a3.716,3.716,0,0,0-.132,5.561c1.883,1.9,5.127,1.653,7.541,1.333,1.092-.145,6.922-.921,5.484-1.807a4.732,4.732,0,0,1,.583.241q.229.694.477,1.382c-.033.022-.061.045-.1.067.039-.019.066-.04.1-.06a53.841,53.841,0,0,0,6.73,12.915,12.648,12.648,0,0,0-3.073-.651C18.4,49.383,12.1,52.1,15.731,55.985c3.481,3.729,8.362-.723,12.05-1.495A174.181,174.181,0,0,0,40.292,68.4a.992.992,0,0,0-.581.538c-1.716-.761-3.522-1.884-5.086-2.131-2.258-.357-6.851-.4-8.433,1.684-1.947,2.567.383,4.448,2.859,4.79,3.592.5,8.155-1.485,11.515-2.838a1.131,1.131,0,0,0,1.055-.414l.221-.085c4.463,4.421,9.08,8.68,13.665,12.842h-.141A11.834,11.834,0,0,0,51.6,81.3c-3.094-.585-6.689-.4-9.053,1.941s-3.027,6.229-.342,8.568c5.374,4.682,12.318-7,14.872-7.606,4.657,4.183,9.553,8.062,14.518,11.855a8.464,8.464,0,0,0-1.684-.253c-4.684-.2-15.324,6.088-9.31,11.413,5.242,4.64,10.516-5.1,14.36-8.606,4.676,3.532,9.376,7.037,13.956,10.695a12.746,12.746,0,0,0-7.251.426c-2.606.94-6.774,3.164-4.913,6.653,1.893,3.549,6.938,1.624,9.549.329,1.425-.706,4.235-2.985,6.755-4.015a88.051,88.051,0,0,1,18.789,21.5,77.054,77.054,0,0,1,7.443,16.578c1.172,3.695,3.422,9.885,3.293,14.781C123.906,155.707,119.978,144.161,115.951,135.625ZM13.367,18.954c-.39,0-1.854-3.958-2.314-4.543a13.192,13.192,0,0,0-5.219-3.786c-3.206-1.386-7.277.63-5.324,4.636,1.559,3.2,5.78,3.842,9.437,3.842C11.2,19.1,12.378,19.028,13.367,18.954Z" transform="translate(1008.363 311.335) rotate(3)"/><path class="g" d="M0,119.419a13.924,13.924,0,0,0,.636,2.547A5.381,5.381,0,0,1,0,119.419ZM5.091,98.065a53.125,53.125,0,0,1,11-14.945c-.888-3.2-9.522-8.188-4.063-10.832,2.9-1.4,5.649,1.313,6.121,4.058.324,1.885-.444,4.194-1.224,5.968q2.093-1.993,4.326-3.843c2.053-1.7,4.149-3.355,6.263-4.983-3.169-3.275-5.854-12.308-1.308-13.526,6.712-1.793,2.894,10.139,2.314,12.383a.361.361,0,0,1-.3-.131c.026.209.057.434.1.66,4.046-3.1,8.146-6.126,12.124-9.305a17.281,17.281,0,0,1-1.223-1.787,19.315,19.315,0,0,1-2.368-3.827c-.954-2.18-1.8-5.622,1.09-6.725,3.145-1.2,4.4,2.707,4.3,4.994a30.107,30.107,0,0,1-.891,4.6c-.1.48.061,2.673-.554,1.7a4.666,4.666,0,0,1-.021.774q1.072-.861,2.129-1.74a.818.818,0,0,1-.045-.266.8.8,0,0,1,1.181-.685q1.4-1.184,2.764-2.408c1.926-1.733,3.881-3.517,5.826-5.342-.382-.361-.2-.824-.553-1.2s-1.079-.617-1.5-.975a10.533,10.533,0,0,1-2.508-3.418c-.988-2.053-2.179-6.315,1.065-7.1,3.344-.811,4.8,3.307,4.88,5.839a63.782,63.782,0,0,1-.954,6.454c3.6-3.392,7.149-6.92,10.388-10.53-.921-.056-3.434-2.062-3.935-2.6-1.222-1.312-3.125-4.169-.789-5.507,2.077-1.186,4.454.811,5.216,2.673a25.265,25.265,0,0,1,.448,4.369c1.342-1.532,2.627-3.077,3.829-4.631q1.2-1.549,2.265-3.186a1.491,1.491,0,0,1-.42-.456c-3.32-.737-7.317-6.137-3.287-7.734,1.918-.759,3.857,1.115,4.7,2.61a19.127,19.127,0,0,1,.584,3,61.873,61.873,0,0,0,5.011-11.474.726.726,0,0,1-.536-.7,9.95,9.95,0,0,1-3.863-3.66c-.647-1.134-1.785-3.706.32-4.208,2.739-.652,4.217,3.517,4.332,5.538.013.235-.023.914-.065,1.535a.925.925,0,0,1,.281.02c.752-2.469,1.38-4.978,1.908-7.5C78,9.468,78.152,1.8,79.189.756c2.32-2.329,3.679,1.279,3.464,3.138A12.275,12.275,0,0,1,80,9.745c-.138.181-.1.174-.12-.089a.52.52,0,0,1-.143.287,32.952,32.952,0,0,1-.054,3.373A77.391,77.391,0,0,1,78.2,22.039q-.239,1.047-.529,2.073a17.25,17.25,0,0,1,3.517-1.987c1.658-.635,4.2-1.282,5.741.02a2.67,2.67,0,0,1,.1,4.021c-1.375,1.371-3.743,1.2-5.506.963-.8-.1-5.055-.666-4-1.307a3.514,3.514,0,0,0-.426.175q-.168.5-.348,1c.025.016.045.033.071.049-.028-.014-.048-.029-.073-.044a38.8,38.8,0,0,1-4.915,9.339,9.321,9.321,0,0,1,2.244-.471c2.246-.163,6.847,1.8,4.2,4.61-2.542,2.7-6.106-.523-8.8-1.081a126.425,126.425,0,0,1-9.136,10.058.723.723,0,0,1,.424.389A17.994,17.994,0,0,1,64.473,48.3c1.648-.257,5-.292,6.157,1.218,1.421,1.857-.28,3.216-2.088,3.464-2.622.359-5.954-1.074-8.407-2.053a.828.828,0,0,1-.77-.3l-.162-.061c-3.259,3.2-6.63,6.277-9.978,9.286h.1a8.7,8.7,0,0,1,2.747-1.073c2.259-.423,4.885-.289,6.61,1.4s2.21,4.5.251,6.2c-3.924,3.386-8.994-5.061-10.86-5.5-3.4,3.024-6.975,5.83-10.6,8.572a6.192,6.192,0,0,1,1.229-.182c3.42-.146,11.189,4.4,6.8,8.252-3.827,3.355-7.679-3.685-10.486-6.222-3.415,2.554-6.846,5.089-10.19,7.733a9.4,9.4,0,0,1,5.294.308c1.9.68,4.946,2.288,3.587,4.812-1.382,2.565-5.065,1.174-6.973.238-1.04-.511-3.092-2.159-4.932-2.9A63.848,63.848,0,0,0,8.086,97.037a55.46,55.46,0,0,0-5.434,11.987c-.855,2.672-2.5,7.148-2.4,10.688C-.717,112.586,2.151,104.237,5.091,98.065Zm74.63-84.658c.278,0,1.324-2.828,1.653-3.246a9.425,9.425,0,0,1,3.728-2.7c2.29-.99,5.2.45,3.8,3.312-1.114,2.285-4.131,2.744-6.743,2.744C81.271,13.513,80.426,13.46,79.721,13.407Z" transform="translate(812.427 234.124) rotate(-3)"/><g class="h" transform="translate(1080.341 300.693)"><path class="d" d="M17.246.025c8.689.46,18.846,6.63,18.781,16.124-.048,6.9-.971,13.686-.651,20.613A55.526,55.526,0,0,0,38.7,52.929c1.8,5.015,6.139,9.579,6.843,14.808a22,22,0,0,1-1.9,10.92c-1.732,3.725-1,3.493,1.306,7.013,4.508,6.9,8.485,13.9,10.983,21.839,3.6,11.429,5.369,24.533,2.349,36.312-.384,1.5-1.223,6.92-3.354,7.082-2.38.181-.961-2.823-.73-3.817,1.47-6.344,2.767-11.888,2.494-18.516C55.645,102.995,39.329,84.5,29.816,61.891c-.531-1.17-1.619-3.939-2.386-5.77-1.211-2.891-2.17-8.252-3.985-10.492-3.418-4.221-.714,3.826-.123,5.37.746,1.953,1.574,4.032,2.368,5.758,3.621,7.994,7.681,16.732,11.422,24.974C16.932,84.152,5.544,58.99,1.893,42.851-1.115,29.555-3.173-1.011,17.246.025" transform="matrix(0.995, -0.105, 0.105, 0.995, 0, 75.25)"/><path class="f" d="M64.8.077C50.271,1.23,40.946,10.82,36.6,24.232,34.265,31.461,34,38.886,32.7,46.314,30.741,57.49,26.532,65.959,18.308,73.921a27.783,27.783,0,0,0-5.759,7.706A32.824,32.824,0,0,0,5.9,91.134c-2.164,4.778-2.776,10.512-.278,15.275a15.657,15.657,0,0,0,4.085,5.02A98.412,98.412,0,0,0,.031,155.616c.244,9.149.69,18.3,1.211,27.439.14,2.454.939,6.505,2.138,2.39,1.1-3.764-.279-9.672-.406-13.6-.62-19.154-1.15-36.57,6.732-54.466q1.24-2.813,2.615-5.582a1.855,1.855,0,0,0,.154-.105c.035.027.066.056.1.082.058-.1.138-.228.231-.366a4.937,4.937,0,0,0,.708-.993,7.2,7.2,0,0,0,1.494-2.731s0-.012,0-.017A257.866,257.866,0,0,1,31.182,84.785c-.043.054,6.192-8.439,5.228-3.742-.465,2.263-5.05,6.573-6.9,8.97A223.488,223.488,0,0,0,16.6,108.638c-.538.309-1.3,1.828-1.848,2.959-.3.573-.587,1.151-.865,1.654,14.166,4.682,25.186-4.749,32.7-15.72l.026-.039a47.663,47.663,0,0,1,7.555-8.438c4.882-4,10.111-4.7,15.867-6.672,15.7-5.366,22.372-25.719,24.492-40.822C96.92,24.523,85.222-1.6,64.8.077" transform="translate(68.823 49.422)"/><path class="f" d="M62.432,1.449c-16.924,13.3-27.054,33.617-35.519,52.868-9.454,21.5-16.816,43.649-20.247,66.9C4.412,136.5,1.833,151.829.579,167.229A164.213,164.213,0,0,0,.015,183.7c.009.451.248,12.7,2.48,10.17,1.27-1.441-.224-12.707-.2-14.545a235.762,235.762,0,0,1,2.791-30.876c2.473-16.854,4.335-33.705,8.406-50.271a57.45,57.45,0,0,1,2.12-7.452c1-2.521.034-1.495,2.239-2.238,2.143-.723,4.6-.232,6.851-1.2C33.646,83.444,39.666,71.2,44.13,63.234c5.106-9.106,8.83-19.059,12.077-28.941a214.082,214.082,0,0,0,5.982-22,58.925,58.925,0,0,1,1.66-7.111,16.45,16.45,0,0,0,1.058-2.2C65.025,1.793,64.409,1,64.49,0q-1.044.7-2.059,1.453" transform="translate(42.9 9.039) rotate(-8)"/><path class="f" d="M0,0A46.464,46.464,0,1,0,92.927,0" transform="translate(23.632 208.613)"/><path class="d" d="M48.681,57.946a7.131,7.131,0,0,1-4.869-1.712,9.776,9.776,0,0,1-2.623-4.219c-1.195-3.444-1.308-7.675-1.382-10.475a42.417,42.417,0,0,0-1.5-11.3A20.337,20.337,0,0,0,36.04,25.3a19.979,19.979,0,0,0-3.848-4.418c-.785-.679-1.623-1.326-2.433-1.951-.723-.558-1.47-1.135-2.177-1.732l-.338-.285C24.971,15,22.62,13.024,22.332,9.9a4.867,4.867,0,0,1,.831-3.794,3.6,3.6,0,0,1,2.814-1,11.573,11.573,0,0,1,2.391.293c.126.027.463.155.931.333a18.264,18.264,0,0,0,4.756,1.352c.366,0,.606-.083.715-.245a.711.711,0,0,0-.031-.666c-.275-.66-1.218-1.243-2.8-1.732-3.191-.347-6.2-.659-8-.659a5.936,5.936,0,0,0-1.16.083,17.586,17.586,0,0,0-8.56,4.773,30.414,30.414,0,0,0-5.907,8.524A65.13,65.13,0,0,0,2.83,37.081c-.135,1.153-.258,2.4-.375,3.82H0a82.917,82.917,0,0,1,.91-9.2C1.607,27.572,3.377,19.621,7.4,12.7a28.184,28.184,0,0,1,6.342-7.72,17.63,17.63,0,0,1,8.8-3.95A13.023,13.023,0,0,1,23.964.98c.924,0,2.036.035,3.132.1A8.168,8.168,0,0,1,30.569.054C31.055.018,31.553,0,32.05,0a25.2,25.2,0,0,1,8.376,1.535,36.07,36.07,0,0,1,8,4.071,41.752,41.752,0,0,1,6.914,5.8,35.08,35.08,0,0,1,5.117,6.736,26,26,0,0,1,3.191,12.961,41.979,41.979,0,0,1-2.234,13.325,30.516,30.516,0,0,1-4.478,8.8c-2.4,3.09-5.142,4.674-8.14,4.708Z" transform="translate(71.368 167.86)"/></g><g transform="translate(659.368 501.028)"><path class="b" d="M0,0C0,13.555,1.069,24.544,15.421,24.544S30.841,13.555,30.841,0" transform="translate(9.813 30.855)"/><path class="b" d="M29.5,22.4a28.383,28.383,0,0,0-1.409,2.78,38.059,38.059,0,0,1,.385-5.876c.5-3.394,1.265-6.77,1.983-10.14.516-2.422.484-6.773,2.443-8.7.537-.417.667.4.667.756.007.075,0-1.45-.523-1.184-3.1,1.6-4.1,6.638-5.1,9.16a48.547,48.547,0,0,0-3.187,11.273,25.262,25.262,0,0,0-.214,2.9c-.105-.258-.2-.518-.314-.776a52.359,52.359,0,0,0-7.216-12.073C16.28,9.586,6.959.414,6.23,1.817a.968.968,0,0,0,.453.508c.013.015.014.007.006-.016.547.885,2.1,2.251,2.589,3.026a58.562,58.562,0,0,1,3.132,6.052c2.036,4.291,3.925,8.626,5.755,12.97.426,1.012.871,2.018,1.324,3.021C14.815,20.634,8.581,14.512,0,11.008c2.931,1.492,4.853,4.3,6.832,6.447,2.387,2.592,4.9,5.114,7.294,7.7,2.821,3.054,6.141,6.271,8.854,9.651a101.808,101.808,0,0,1,6.759,16.85c-.646-2.005-.051-4.776-.161-6.88a46.5,46.5,0,0,0-.552-4.994,10.258,10.258,0,0,1,.747,2.192c-.118-1.168-.254-2.328-.4-3.482.375-1.081.744-2.089.993-2.92a75.028,75.028,0,0,1,4.864-12.53,111.865,111.865,0,0,1,6.5-11.117c1.116-1.685,2.248-3.363,3.372-5.045.736-1.1,1.437-2.863,2.462-3.918C40.943,9.026,33.706,15.128,29.5,22.4" transform="translate(0 0)"/></g><g transform="translate(787 275.298)"><path class="i" d="M1,255.544a5.087,5.087,0,0,0,5.111,5.032H312.763a5.087,5.087,0,0,0,5.111-5.032V9H1Z" transform="translate(0 16.126)"/><path class="j" d="M317.874,15.063V25.126H1V15.063A10.111,10.111,0,0,1,11.222,5h296.43A10.111,10.111,0,0,1,317.874,15.063Z"/><g transform="translate(11.227 10.021)"><path class="i" d="M8.137,6H8.086a5.032,5.032,0,1,0,.051,10.063A5.032,5.032,0,1,0,8.137,6Z" transform="translate(-3.001 -5.998)"/><path class="i" d="M11.136,6h-.051a5.032,5.032,0,1,0,.051,10.063A5.032,5.032,0,1,0,11.136,6Z" transform="translate(9.327 -5.998)"/><path class="i" d="M14.139,6h-.051a5.138,5.138,0,1,0,.051,0Z" transform="translate(21.672 -5.998)"/></g><path class="k" d="M89.552,11.993c39.507,0,71.552,31.553,71.552,70.441,0,38.944-32.045,70.441-71.552,70.441S18,121.378,18,82.434C18,43.551,50.045,11.993,89.552,11.993Z" transform="translate(69.885 28.192)"/><path class="l" d="M38.175,11.993a72.969,72.969,0,0,0-7.677.423C66.4,16.189,94.379,46.1,94.379,82.434c0,36.388-27.982,66.255-63.881,70.029a72.97,72.97,0,0,0,7.677.413c39.507,0,71.552-31.5,71.552-70.441C109.727,43.551,77.682,11.993,38.175,11.993Z" transform="translate(121.262 28.192)"/><path class="m" d="M120.724,51.005H33.768a12.58,12.58,0,1,0,0,25.158h86.956a12.58,12.58,0,1,0,0-25.158Z" transform="translate(82.18 185.47)"/><path class="j" d="M248.273,53.07H13.1a5.032,5.032,0,1,1,0-10.063H248.273a5.032,5.032,0,1,1,0,10.063Z" transform="translate(28.739 153.226)"/><path class="j" d="M165.259,56.071H22.1a5.032,5.032,0,1,1,0-10.063H165.259a5.032,5.032,0,1,1,0,10.063Z" transform="translate(65.745 165.324)"/><path class="n" d="M50.542,56.174A5.138,5.138,0,0,1,46.929,54.7L26.5,34.589a4.971,4.971,0,0,1,0-7.115,5.162,5.162,0,0,1,7.227,0L54.155,47.585a4.971,4.971,0,0,1,0,7.115A5.138,5.138,0,0,1,50.542,56.174Z" transform="translate(98.668 84.657)"/><path class="n" d="M34.111,76.34A5.138,5.138,0,0,1,30.5,74.865a4.971,4.971,0,0,1,0-7.115L76.49,22.472a5.162,5.162,0,0,1,7.227,0,4.971,4.971,0,0,1,0,7.115L37.724,74.865a5.138,5.138,0,0,1-3.613,1.474Z" transform="translate(115.099 64.491)"/><path class="m" d="M20.991,52.5H133.5v5.037H20.991Z" transform="translate(82.18 191.513)"/><path class="o" d="M120.724,50H33.768a12.58,12.58,0,1,0,0,25.158h86.956a12.58,12.58,0,1,0,0-25.158Z" transform="translate(82.18 181.434)"/></g></g></svg>