<svg xmlns="http://www.w3.org/2000/svg" xmlns:xlink="http://www.w3.org/1999/xlink" width="1919.722" height="1064.677" viewBox="0 0 1919.722 1064.677"><defs><style>.a,.t{fill:#fff;}.a{stroke:#707070;}.ax,.ay,.b{fill:none;}.c{clip-path:url(#a);}.d,.f{opacity:0.41;}.d{clip-path:url(#b);}.e,.f,.m,.q{fill:#d0e8fc;}.g,.i{fill:#a7cdf0;}.h,.s{fill:#86aad0;}.i,.m{opacity:0.5;}.j{clip-path:url(#c);}.k,.s{opacity:0.3;}.l{fill:#83a5c3;}.n{fill:#91bae3;}.o{clip-path:url(#d);}.p{clip-path:url(#e);}.q{opacity:0.8;}.r{opacity:0.6;}.u{fill:#d5eaf5;}.v{fill:#ff8080;}.w{fill:#ffad96;}.x{fill:#30193b;}.y{fill:#ff97a6;}.z{fill:#3b2b5b;}.aa{fill:#ffcb48;}.ab{fill:#ff9a2e;}.ac{fill:#ffe5b0;}.ad{fill:#f9cb9d;}.ae{fill:#c95d77;}.af{fill:#ffaebe;}.ag{fill:#205160;}.ah{fill:#aacbe8;}.ai{fill:#295a6e;}.aj{fill:#98bdd8;}.ak{fill:#b4d6ef;}.al{fill:#357a5f;}.am{fill:#c2ddf2;}.an{fill:#7f65c1;}.ao{fill:#6a54af;}.ap{fill:#ff5e4d;}.aq{fill:#ff867d;}.ar{fill:#f97373;}.as{fill:#ff9c9c;}.at{fill:#f25f5f;}.au{fill:#387182;}.av{fill:#c43b72;}.aw{fill:#d84c8c;}.ax,.ay{stroke:#357a5f;stroke-linecap:round;stroke-width:5px;}.ax{stroke-linejoin:round;}.az{fill:#f6b545;}.ba{fill:#ffcb5b;}.bb{fill:#f19920;}.bc{fill:#3bb54a;}.bd{fill:#24a049;}.be{fill:#a35425;}.bf{fill:#8d4928;}.bg{fill:#b06328;}</style><clipPath id="a"><rect class="a" width="1456" height="962" transform="translate(-56.933 487.118)"/></clipPath><clipPath id="b"><circle class="b" cx="310.644" cy="310.644" r="310.644"/></clipPath><clipPath id="c"><path class="b" d="M3788.14,2260.24H3415.92V1936.08l372.22,99.74Z" transform="translate(-3415.92 -1936.08)"/></clipPath><clipPath id="d"><path class="b" d="M2100.6,2260.24H1728.38V1936.08l372.22,99.74Z" transform="translate(-1728.38 -1936.08)"/></clipPath><clipPath id="e"><path class="b" d="M1003.665,2258.32h254.557A11.876,11.876,0,0,1,1270.1,2270.2v218.526H991.79V2270.2A11.875,11.875,0,0,1,1003.665,2258.32Z" transform="translate(-991.79 -2258.32)"/></clipPath></defs><g transform="translate(-2386.278 -231)"><g transform="translate(2906.933 -256.118)"><g class="c"><g transform="translate(359.638 285.02)"><g class="d" transform="translate(-339.935 139)"><rect class="e" width="765.393" height="5.801" transform="translate(-209.707 242.115) rotate(-28.7)"/><rect class="e" width="765.393" height="5.797" transform="translate(-200.559 257.141) rotate(-28.7)"/><rect class="e" width="765.393" height="5.793" transform="translate(-191.411 272.164) rotate(-28.7)"/><rect class="e" width="765.393" height="5.788" transform="translate(-182.262 287.188) rotate(-28.7)"/><rect class="e" width="765.393" height="5.784" transform="translate(-173.114 302.21) rotate(-28.7)"/><rect class="e" width="765.393" height="5.779" transform="translate(-163.964 317.237) rotate(-28.7)"/><rect class="e" width="765.393" height="5.775" transform="translate(-154.816 332.261) rotate(-28.7)"/><rect class="e" width="765.393" height="5.771" transform="translate(-145.668 347.288) rotate(-28.7)"/><rect class="e" width="765.393" height="5.766" transform="translate(-136.519 362.31) rotate(-28.7)"/><rect class="e" width="765.393" height="5.762" transform="translate(-127.371 377.335) rotate(-28.7)"/><rect class="e" width="765.393" height="5.757" transform="translate(-118.223 392.357) rotate(-28.7)"/><rect class="e" width="765.393" height="5.749" transform="translate(-109.073 407.383) rotate(-28.7)"/><rect class="e" width="767.228" height="5.758" transform="translate(-95.653 423.782) rotate(-28.61)"/><rect class="e" width="765.393" height="5.74" transform="translate(-90.776 437.435) rotate(-28.7)"/><rect class="e" width="765.393" height="5.735" transform="translate(-81.628 452.457) rotate(-28.7)"/><rect class="e" width="765.393" height="5.731" transform="translate(-72.475 467.479) rotate(-28.7)"/><rect class="e" width="765.393" height="5.727" transform="translate(-63.329 482.508) rotate(-28.7)"/><rect class="e" width="765.393" height="5.722" transform="translate(-54.181 497.534) rotate(-28.7)"/><rect class="e" width="765.393" height="5.718" transform="translate(-45.029 512.557) rotate(-28.7)"/><rect class="e" width="765.393" height="5.713" transform="translate(-35.881 527.579) rotate(-28.7)"/><rect class="e" width="765.393" height="5.709" transform="translate(-26.736 542.604) rotate(-28.7)"/><rect class="e" width="765.393" height="5.705" transform="translate(-17.584 557.626) rotate(-28.7)"/><rect class="e" width="765.393" height="5.7" transform="translate(-8.434 572.657) rotate(-28.7)"/><rect class="e" width="765.393" height="5.696" transform="translate(0.71 587.681) rotate(-28.7)"/><rect class="e" width="765.393" height="5.687" transform="translate(9.863 602.703) rotate(-28.7)"/><rect class="e" width="765.393" height="5.683" transform="translate(19.011 617.726) rotate(-28.7)"/><rect class="e" width="765.393" height="5.678" transform="translate(28.155 632.75) rotate(-28.7)"/><rect class="e" width="765.393" height="5.674" transform="translate(37.308 647.773) rotate(-28.7)"/><rect class="e" width="765.393" height="5.669" transform="translate(46.458 662.803) rotate(-28.7)"/><rect class="e" width="765.393" height="5.665" transform="translate(55.606 677.826) rotate(-28.7)"/><rect class="e" width="765.393" height="5.661" transform="translate(64.75 692.85) rotate(-28.7)"/><rect class="e" width="765.393" height="5.656" transform="translate(73.902 707.872) rotate(-28.7)"/><rect class="e" width="765.393" height="5.652" transform="translate(83.05 722.895) rotate(-28.7)"/><rect class="e" width="765.393" height="5.647" transform="translate(92.195 737.924) rotate(-28.7)"/><rect class="e" width="765.393" height="5.643" transform="translate(101.349 752.95) rotate(-28.7)"/><rect class="e" width="765.393" height="5.639" transform="translate(110.497 767.972) rotate(-28.7)"/></g><path class="f" d="M835.613,1611.853S740.169,1351.421,772,1271.9s127.234,85.485,129.222,99.4-103.36-302.164,9.94-324.05,121.27,300.193,137.174,300.193-16.3-227.96,85.485-238.564c95.443-9.94,81.51,349.894,81.51,349.894Z" transform="translate(-765.498 -711.401)"/><path class="e" d="M3424.162,1491.9c-49.7-399.6,77.534-322.062,107.354-234.588,20.778,60.948,31.809,123.258,31.809,123.258s-3.958-298.205,99.4-266.4,0,333.99,15.9,335.978,115.307-168.983,153.061-119.282-71.569,296.217-71.569,296.217Z" transform="translate(-2248.418 -748.157)"/><rect class="g" width="169.502" height="101.737" transform="translate(474.042 429.059)"/><path class="g" d="M2100.6,2260.24H1728.38V1936.08l372.22,99.74Z" transform="translate(-1304.875 -1209.893)"/><path class="g" d="M2100.6,2260.24H1728.38V1936.08l372.22,99.74Z" transform="translate(-1304.875 -1209.893)"/><path class="g" d="M3793.17,2260.24H3420.95V1936.08l372.22,99.74Z" transform="translate(-2253 -1209.893)"/><rect class="h" width="179.517" height="160.076" transform="translate(1325.629 824.34)"/><rect class="g" width="166.093" height="148.109" transform="translate(1332.341 830.326)"/><rect class="h" width="7.732" height="153.351" transform="translate(1411.176 828.021)"/><rect class="e" width="36.075" height="148.364" transform="translate(1462.715 830.018)"/><rect class="i" width="5.727" height="148.364" transform="translate(1468.156 830.018)"/><rect class="i" width="5.727" height="148.364" transform="translate(1480.181 830.018)"/><rect class="i" width="5.727" height="148.364" transform="translate(1491.062 830.018)"/><rect class="e" width="41.802" height="148.364" transform="translate(1332.437 830.018)"/><rect class="i" width="5.727" height="148.364" transform="translate(1337.878 830.018)"/><rect class="i" width="5.727" height="148.364" transform="translate(1349.903 830.018)"/><rect class="i" width="5.727" height="148.364" transform="translate(1360.784 830.018)"/><g transform="translate(1165.737 726.187)"><g class="j"><g class="k" transform="translate(-255.709 -186.796)"><path class="l" d="M3426.706,1516.469,2838.159,1834.1l-3.619-5.085,588.546-317.637Z" transform="translate(-2834.54 -1511.38)"/><path class="l" d="M3448.446,1543.9,2859.9,1861.536l-3.62-5.089,588.546-317.637Z" transform="translate(-2846.719 -1526.745)"/><path class="l" d="M3470.186,1571.339,2881.64,1888.971l-3.62-5.084,588.547-317.637Z" transform="translate(-2858.896 -1542.116)"/><path class="l" d="M3491.916,1598.769,2903.37,1916.406l-3.62-5.089L3488.3,1593.68Z" transform="translate(-2871.069 -1557.482)"/><path class="l" d="M3513.656,1626.2,2925.11,1943.841l-3.62-5.084,588.547-317.637Z" transform="translate(-2883.247 -1572.853)"/><path class="l" d="M3535.4,1653.639,2946.85,1971.276l-3.62-5.089,588.546-317.637Z" transform="translate(-2895.425 -1588.218)"/><path class="l" d="M3557.126,1681.075l-588.542,317.637-3.624-5.089,588.546-317.632Z" transform="translate(-2907.597 -1603.589)"/><path class="l" d="M3578.866,1708.509,2990.32,2026.146l-3.62-5.088,588.546-317.637Z" transform="translate(-2919.775 -1618.955)"/><path class="l" d="M3600.606,1735.944,3012.06,2053.582l-3.62-5.089,588.547-317.633Z" transform="translate(-2931.953 -1634.326)"/><path class="l" d="M3622.336,1763.379l-588.542,317.633-3.624-5.084,588.546-317.637Z" transform="translate(-2944.126 -1649.691)"/><path class="l" d="M3644.076,1790.814,3055.53,2108.452l-3.62-5.089,588.546-317.633Z" transform="translate(-2956.304 -1665.062)"/><path class="l" d="M3665.816,1818.249,3077.27,2135.881l-3.62-5.084L3662.2,1813.16Z" transform="translate(-2968.482 -1680.428)"/><path class="l" d="M3687.556,1845.684,3099.01,2163.321l-3.62-5.088L3683.936,1840.6Z" transform="translate(-2980.66 -1695.799)"/><path class="l" d="M3709.286,1873.119,3120.74,2190.751l-3.62-5.085,588.546-317.637Z" transform="translate(-2992.833 -1711.164)"/><path class="l" d="M3731.026,1900.554,3142.48,2218.191l-3.62-5.089,588.546-317.632Z" transform="translate(-3005.011 -1726.535)"/><path class="l" d="M3752.766,1927.989,3164.22,2245.622l-3.62-5.084L3749.147,1922.9Z" transform="translate(-3017.189 -1741.901)"/><path class="l" d="M3774.5,1955.424,3185.95,2273.062l-3.62-5.089,588.547-317.633Z" transform="translate(-3029.361 -1757.272)"/><path class="l" d="M3796.237,1982.859,3207.69,2300.492l-3.62-5.085,588.546-317.637Z" transform="translate(-3041.54 -1772.637)"/><path class="l" d="M3817.976,2010.289,3229.43,2327.926l-3.62-5.089L3814.356,2005.2Z" transform="translate(-3053.718 -1788.003)"/><path class="l" d="M3839.706,2037.729,3251.16,2355.362l-3.62-5.084,588.546-317.637Z" transform="translate(-3065.89 -1803.374)"/><path class="l" d="M3861.446,2065.159,3272.9,2382.8l-3.62-5.089,588.546-317.637Z" transform="translate(-3078.068 -1818.739)"/><path class="l" d="M3883.186,2092.594l-588.546,317.637-3.62-5.089,588.547-317.632Z" transform="translate(-3090.246 -1834.11)"/><path class="l" d="M3904.916,2120.029,3316.37,2437.666l-3.62-5.089L3901.3,2114.94Z" transform="translate(-3102.418 -1849.476)"/><path class="l" d="M3926.656,2147.469,3338.11,2465.1l-3.62-5.089,588.547-317.632Z" transform="translate(-3114.596 -1864.847)"/><path class="l" d="M3948.4,2174.9,3359.85,2492.536l-3.62-5.089,588.546-317.637Z" transform="translate(-3126.775 -1880.212)"/><path class="l" d="M3970.126,2202.334l-588.542,317.637-3.625-5.089,588.546-317.633Z" transform="translate(-3138.948 -1895.583)"/><path class="l" d="M3991.865,2229.769,3403.32,2547.406l-3.62-5.089,588.546-317.637Z" transform="translate(-3151.125 -1910.949)"/><path class="l" d="M4013.606,2257.2,3425.06,2574.842l-3.62-5.089,588.546-317.633Z" transform="translate(-3163.304 -1926.32)"/><path class="l" d="M4035.346,2284.639,3446.8,2602.276l-3.62-5.089,588.546-317.637Z" transform="translate(-3175.481 -1941.685)"/><path class="l" d="M4057.076,2312.074,3468.53,2629.711l-3.621-5.089,588.547-317.632Z" transform="translate(-3187.654 -1957.057)"/><path class="l" d="M4078.816,2339.509l-588.547,317.633-3.619-5.085L4075.2,2334.42Z" transform="translate(-3199.833 -1972.422)"/><path class="l" d="M4100.556,2366.945,3512.01,2684.582l-3.62-5.089,588.545-317.632Z" transform="translate(-3212.01 -1987.792)"/></g></g></g><path class="h" d="M3917.041,2022.213l-372.22-99.74V1872.6l372.22,99.741Z" transform="translate(-2322.389 -1174.333)"/><rect class="g" width="497.145" height="324.155" transform="translate(795.725 726.187)"/><path class="g" d="M2100.6,1595.475l-372.22-60.97V1365.958L2160.3,1210.35Z" transform="translate(-1304.875 -803.361)"/><path class="g" d="M3071.805,1534.505H2574.66l59.7-324.155,437.447,155.608Z" transform="translate(-1778.935 -803.361)"/><path class="g" d="M1254.32,2260.24H882.1V2035.82l372.22-99.74Z" transform="translate(-830.815 -1209.893)"/><path class="m" d="M1281.347,2325.214H934.18V2150.06l347.167-97.99Z" transform="translate(-859.989 -1274.867)"/><path class="m" d="M1771.68,1616.669l-.33-19.889,489.664-167.58,361.238,117.65-2.151,444.942H2125.282l-.466-289.017Z" transform="translate(-1328.945 -925.954)"/><rect class="n" width="180.955" height="500.695" transform="translate(969.951 555.731)"/><rect class="n" width="180.955" height="500.695" transform="translate(559.936 555.731)"/><path class="h" d="M2112.057,2213.63h107.279a4.337,4.337,0,0,1,4.337,4.337v196.389H2107.72V2217.967a4.337,4.337,0,0,1,4.337-4.337Z" transform="translate(-1517.37 -1365.368)"/><path class="g" d="M2118.13,2419.668V2228.443a4.62,4.62,0,0,1,4.838-4.363h97.119a4.62,4.62,0,0,1,4.838,4.363V2419.66Z" transform="translate(-1523.201 -1371.222)"/><rect class="n" width="18.323" height="185.516" rx="9.162" transform="translate(604.605 858.611)"/><rect class="g" width="4.961" height="27.261" rx="2.481" transform="translate(609.184 942.724)"/><g transform="translate(423.505 726.187)"><g class="o"><g class="k" transform="translate(-251.922 -179.649)"><path class="l" d="M2303.631,1837.042,1700.06,1539.813l9.162-12.184,594.545,309.047Z" transform="translate(-1460.594 -1527.63)"/><path class="l" d="M2280.577,1863.851,1682.5,1568.874l9.153-12.064L2280.731,1863.5Z" transform="translate(-1450.758 -1543.976)"/><path class="l" d="M2257.523,1890.665,1664.93,1597.936l9.144-11.946,583.612,304.328Z" transform="translate(-1440.915 -1560.321)"/><path class="l" d="M2234.469,1917.474,1647.37,1627l9.135-11.827,578.14,301.97Z" transform="translate(-1431.079 -1576.667)"/><path class="l" d="M2211.416,1944.288l-581.606-288.23,9.126-11.708,572.673,299.613Z" transform="translate(-1421.242 -1593.013)"/><path class="l" d="M2188.367,1971.1,1612.25,1685.12l9.113-11.59,567.206,297.251Z" transform="translate(-1411.406 -1609.359)"/><path class="l" d="M2165.308,1997.911l-570.628-283.73,9.109-11.471L2165.523,1997.6Z" transform="translate(-1401.563 -1625.704)"/><path class="l" d="M2142.259,2024.715,1577.12,1743.236l9.1-11.356,556.263,292.54Z" transform="translate(-1391.727 -1642.045)"/><path class="l" d="M2119.205,2051.524,1559.56,1772.3l9.087-11.238,550.8,290.183Z" transform="translate(-1381.89 -1658.39)"/><path class="l" d="M2096.15,2078.338l-554.16-276.979,9.082-11.119L2096.4,2078.061Z" transform="translate(-1372.048 -1674.736)"/><path class="l" d="M2073.1,2105.147,1524.43,1830.42l9.074-11,539.857,285.463Z" transform="translate(-1362.212 -1691.082)"/><path class="l" d="M2050.043,2131.961l-543.173-272.48,9.061-10.881,534.394,283.106Z" transform="translate(-1352.375 -1707.427)"/><path class="l" d="M2026.994,2158.77,1489.31,1888.543l9.052-10.763,528.923,280.749Z" transform="translate(-1342.538 -1723.773)"/><path class="l" d="M2003.935,2185.583l-532.2-267.98,9.047-10.644,523.451,278.386Z" transform="translate(-1332.696 -1740.119)"/><path class="l" d="M1980.886,2212.393,1454.18,1946.665l9.034-10.525L1981.2,2212.169Z" transform="translate(-1322.86 -1756.465)"/><path class="l" d="M1957.833,2239.207l-521.213-263.48,9.025-10.406,512.517,273.672Z" transform="translate(-1313.023 -1772.81)"/><path class="l" d="M1934.78,2266.011,1419.06,2004.782l9.012-10.292,507.05,271.314Z" transform="translate(-1303.187 -1789.151)"/><path class="l" d="M1911.724,2292.82,1401.49,2033.843l9.008-10.173,501.578,268.956Z" transform="translate(-1293.344 -1805.497)"/><path class="l" d="M1888.671,2319.634,1383.93,2062.9l9-10.055,496.111,266.6Z" transform="translate(-1283.508 -1821.842)"/><path class="l" d="M1865.622,2346.443,1366.37,2091.966l8.986-9.936L1866,2346.267Z" transform="translate(-1273.671 -1838.188)"/><path class="l" d="M1842.563,2373.257,1348.8,2121.027l8.981-9.817,485.173,261.88Z" transform="translate(-1263.829 -1854.534)"/><path class="l" d="M1819.514,2400.066,1331.24,2150.088l8.973-9.7,479.706,259.522Z" transform="translate(-1253.992 -1870.879)"/><path class="l" d="M1796.461,2426.88l-482.781-247.73,8.959-9.579,474.239,257.165Z" transform="translate(-1244.156 -1887.225)"/><path class="l" d="M1773.407,2453.689,1296.12,2208.21l8.95-9.46,468.767,254.8Z" transform="translate(-1234.32 -1903.571)"/><path class="l" d="M1750.352,2480.5l-471.8-243.231,8.942-9.342,463.3,252.446Z" transform="translate(-1224.477 -1919.916)"/><path class="l" d="M1727.3,2507.307,1260.99,2266.328l8.933-9.228,457.833,250.093Z" transform="translate(-1214.641 -1936.257)"/><path class="l" d="M1704.249,2534.116,1243.43,2295.389l8.924-9.109,452.362,247.735Z" transform="translate(-1204.804 -1952.603)"/><path class="l" d="M1681.19,2560.93,1225.86,2324.45l8.915-8.99,446.9,245.373Z" transform="translate(-1194.962 -1968.948)"/><path class="l" d="M1658.137,2587.739,1208.3,2353.511l8.906-8.871,441.427,243.015Z" transform="translate(-1185.125 -1985.294)"/><path class="l" d="M1635.088,2614.552l-444.348-231.98,8.9-8.752,435.956,240.658Z" transform="translate(-1175.289 -2001.64)"/><path class="l" d="M1612.034,2641.362,1173.18,2411.634l8.885-8.634,430.489,238.3Z" transform="translate(-1165.452 -2017.985)"/><path class="l" d="M1588.98,2668.176l-433.37-227.481,8.88-8.515,425.022,235.938Z" transform="translate(-1155.61 -2034.331)"/></g></g></g><rect class="h" width="1488.884" height="49.868" transform="translate(51.998 1049.133)"/><path class="h" d="M1208.756,1894.108l-410.076,99.74V1943.98l410.076-99.741Z" transform="translate(-784.086 -1158.447)"/><path class="h" d="M2138.332,1993.848l-410.072-99.74V1844.24l410.072,99.741Z" transform="translate(-1304.808 -1158.447)"/><path class="n" d="M1002.7,2258.32H1263.2a12.008,12.008,0,0,1,12.007,12.008v218.393H990.68V2270.328A12.008,12.008,0,0,1,1002.7,2258.32Z" transform="translate(-891.638 -1390.402)"/><g class="p" transform="translate(99.53 867.918)"><path class="q" d="M1003.665,2258.32h254.557A11.876,11.876,0,0,1,1270.1,2270.2v218.526H991.79V2270.2A11.875,11.875,0,0,1,1003.665,2258.32Z" transform="translate(-991.79 -2258.32)"/><g class="r" transform="translate(-6.875 -1.245)"><rect class="n" width="289.761" height="14.963"/><rect class="n" width="289.761" height="14.963" transform="translate(0 24.103)"/><rect class="n" width="289.761" height="14.963" transform="translate(0 48.205)"/><rect class="n" width="289.761" height="14.963" transform="translate(0 72.308)"/><rect class="n" width="289.761" height="14.963" transform="translate(0 96.415)"/><rect class="n" width="289.761" height="14.963" transform="translate(0 120.518)"/><rect class="n" width="289.761" height="14.963" transform="translate(0 144.621)"/><rect class="n" width="289.761" height="14.963" transform="translate(0 168.724)"/><rect class="n" width="289.761" height="14.963" transform="translate(0 192.831)"/><rect class="n" width="289.761" height="14.963" transform="translate(0 216.933)"/></g></g><path class="h" d="M2086.886,1230.732l-487.416,161.1v-49.872l484.421-161.1Z" transform="translate(-1232.664 -786.842)"/><path class="h" d="M3188.266,1391.834l-487.416-161.1V1180.86l487.416,161.1Z" transform="translate(-1849.623 -786.842)"/><rect class="g" width="371.917" height="5.617" transform="translate(422.001 1048.482)"/><rect class="g" width="371.917" height="5.705" transform="translate(422.001 1063.691)"/><rect class="g" width="371.917" height="7.367" transform="translate(422.001 1078.65)"/><rect class="h" width="22.906" height="300.22" transform="translate(791.287 798.099)"/><rect class="h" width="179.517" height="160.076" transform="translate(560.574 555.04)"/><rect class="g" width="166.093" height="148.109" transform="translate(567.286 561.026)"/><rect class="h" width="7.732" height="153.351" transform="translate(646.121 558.721)"/><rect class="e" width="36.075" height="148.364" transform="translate(697.66 560.718)"/><rect class="i" width="5.727" height="148.364" transform="translate(703.101 560.718)"/><rect class="i" width="5.727" height="148.364" transform="translate(715.126 560.718)"/><rect class="i" width="5.727" height="148.364" transform="translate(726.003 560.718)"/><rect class="e" width="41.802" height="148.364" transform="translate(567.382 560.718)"/><rect class="i" width="5.727" height="148.364" transform="translate(572.823 560.718)"/><rect class="i" width="5.727" height="148.364" transform="translate(584.848 560.718)"/><rect class="i" width="5.727" height="148.364" transform="translate(595.73 560.718)"/><rect class="h" width="179.517" height="160.076" transform="translate(970.589 555.04)"/><rect class="g" width="166.093" height="148.109" transform="translate(977.3 561.026)"/><rect class="h" width="7.732" height="153.351" transform="translate(1056.136 558.721)"/><rect class="e" width="36.075" height="148.364" transform="translate(1107.675 560.718)"/><rect class="i" width="5.727" height="148.364" transform="translate(1113.116 560.718)"/><rect class="i" width="5.727" height="148.364" transform="translate(1125.141 560.718)"/><rect class="i" width="5.727" height="148.364" transform="translate(1136.022 560.718)"/><rect class="e" width="41.802" height="148.364" transform="translate(977.397 560.718)"/><rect class="i" width="5.727" height="148.364" transform="translate(982.838 560.718)"/><rect class="i" width="5.727" height="148.364" transform="translate(994.863 560.718)"/><rect class="i" width="5.727" height="148.364" transform="translate(1005.744 560.718)"/><rect class="h" width="179.517" height="160.076" transform="translate(970.589 824.34)"/><rect class="g" width="166.093" height="148.109" transform="translate(977.3 830.326)"/><rect class="h" width="7.732" height="153.351" transform="translate(1056.136 828.021)"/><rect class="e" width="36.075" height="148.364" transform="translate(1107.675 830.018)"/><rect class="i" width="5.727" height="148.364" transform="translate(1113.116 830.018)"/><rect class="i" width="5.727" height="148.364" transform="translate(1125.141 830.018)"/><rect class="i" width="5.727" height="148.364" transform="translate(1136.022 830.018)"/><rect class="e" width="41.802" height="148.364" transform="translate(977.397 830.018)"/><rect class="i" width="5.727" height="148.364" transform="translate(982.838 830.018)"/><rect class="i" width="5.727" height="148.364" transform="translate(994.863 830.018)"/><rect class="i" width="5.727" height="148.364" transform="translate(1005.744 830.018)"/><path class="s" d="M3247.24,1547.02l59.364,19.449-.193-19.282Z" transform="translate(-2155.693 -991.954)"/><path class="s" d="M2037.7,1622.791l181.338-62.174V1547.65l-180.318-.69Z" transform="translate(-1478.147 -991.92)"/><path class="n" d="M2012.211,1287.461l.571-1.394V1260.53h-169.5v43.332Z" transform="translate(-1369.239 -831.471)"/><rect class="g" width="185.538" height="28.426" rx="12.9" transform="translate(466.023 424.076)"/></g></g></g><path class="t" d="M2043.734,390.706c0-.237-.4-.515-.633-.752a42,42,0,0,0-39.977-12.9,48.685,48.685,0,0,0-88.939-17.02c-2.177-34.356-7.006-72.433-31.942-96.538-20.74-20.107-54.7-27.153-84.506-17.653a111.38,111.38,0,0,0-57.313,44.766,47.259,47.259,0,0,0-27.707,0,51.455,51.455,0,0,0-12.191,5.818q-3.682-9.42-7.917-18.286c-20.978-41.718-55.77-72.948-95.43-85.653-43.539-13.893-92.9-3.562-123.137,25.688-36.573,35.188-43.737,90.641-46.9,140.869-33.288-10.252-54.9-6.135-68.634,5.066a28.182,28.182,0,0,0-26.163,4.908c-1.86-23.155-5.106-47.022-20.068-65.586a51.97,51.97,0,0,0-57.353-17.257c-47.022,14.922-54.939,67.565-63.686,111.183a61.707,61.707,0,0,0-109.125-25.688c-2.929-13.893-12.23-27.351-27.192-29.092a27.113,27.113,0,0,0-25.134,11.32c-2.414-30.913-64.715-68.2-94.995-60.242-74.373,19.553-71.523,86.524-61.944,116.21a39.581,39.581,0,0,0-31.032,1.623l-1.069.2a48.685,48.685,0,0,0-88.939-17.02c-2.177-34.356-7.006-72.433-31.942-96.538-20.74-20.107-54.7-27.192-84.506-17.653a111.381,111.381,0,0,0-57.313,44.766,47.259,47.259,0,0,0-27.9,0,51.458,51.458,0,0,0-12.191,5.819c-2.454-6.293-5.106-12.389-8.114-18.286-20.978-41.718-55.77-72.948-95.43-85.653-43.539-13.893-92.9-3.562-123.137,25.688-36.335,35.148-43.341,90.6-46.508,140.671-33.288-10.251-54.9-6.135-68.634,5.066a28.063,28.063,0,0,0-26.163,4.908c-1.86-23.155-5.106-47.022-20.068-65.586a53.077,53.077,0,0,0-25.688-17.614V498.921h12.824c14.368,0,28.736,0,43.143.317v.2h6.452c28.3.277,56.6.317,84.783-1.187a1.622,1.622,0,0,0,1.346-.712L651.707,489.1l.4-.594a52.288,52.288,0,0,0,7.679-25.174L887.056,467.3h.673l.2-.594c.277-.712.554-1.425.752-2.137,18.009,0,35.979-.435,53.83-.435h356.823c14.368,0,28.736,0,43.1.317v.2h6.491c28.261.277,56.6.317,84.783-1.187a1.7,1.7,0,0,0,1.346-.713l378.949-8.431.356-.594a51.652,51.652,0,0,0,7.916-25.174l221.654,3.958Z" transform="translate(2262.068 785.328)"/><g transform="translate(3913.968 1035.801)"><path class="u" d="M802.246,251.8c0,8.956-73.472,16.187-164.093,16.187S474.06,260.753,474.06,251.8,547.5,235.61,638.153,235.61,802.246,242.841,802.246,251.8Z" transform="translate(-444.577 -41.179)"/><path class="v" d="M516.424,231.658s-20.267-28.493.531-35.89c0,0-1.393-11.212,5.506-15.623,2.819-1.824,24.148-8.06,24.214,6.236,0,0,11.51-.63,8.79,13.268,0,0,14-13.633,23.551,2.455,19.9,33.6-16.95,46.04-16.95,46.04Z" transform="translate(-366.931 -176.476)"/><path class="w" d="M507.58,208.094a12.639,12.639,0,0,1,2.488-7.629,14.928,14.928,0,0,1,6.634-4.677l-.332.564a24.784,24.784,0,0,1,0-6.07,17.58,17.58,0,0,1,1.725-5.871,11.345,11.345,0,0,1,4.246-4.611,29.615,29.615,0,0,1,5.772-1.957,26.171,26.171,0,0,1,12.107-.265,9.486,9.486,0,0,1,5.274,3.317,9.751,9.751,0,0,1,1.692,5.971l-.63-.564a11.245,11.245,0,0,1,4.81,1.095,7.994,7.994,0,0,1,3.516,3.317,10.977,10.977,0,0,1,1.095,4.677,11.127,11.127,0,0,1-.166,2.355l-.431,2.322.232-2.355V195.39a10.246,10.246,0,0,0-1.327-4.312,7.4,7.4,0,0,0-3.317-2.853,9.954,9.954,0,0,0-4.345-.8.6.6,0,0,1-.6-.564,8.889,8.889,0,0,0-1.626-5.174,7.927,7.927,0,0,0-4.544-2.786,25.441,25.441,0,0,0-11.377.431,26.531,26.531,0,0,0-5.44,1.725,9.951,9.951,0,0,0-3.682,3.947,21.561,21.561,0,0,0-1.957,11.145h0a.5.5,0,0,1-.365.5,15.655,15.655,0,0,0-6.634,4.113,12.9,12.9,0,0,0-2.819,7.331Z" transform="translate(-366.911 -176.994)"/><path class="x" d="M563.04,250.5c-1.857,0-3.483-5.009-4.08-8.16.5.862,1.227,1.924,1.592.6a10.216,10.216,0,0,0-1.294-7.53,8.192,8.192,0,0,1,3.317-.531C563.9,234.91,564.1,250.433,563.04,250.5Z" transform="translate(-247.861 -42.901)"/><path class="y" d="M562.406,242.56c-.365,1.327-1.261,1.725-1.559-.332a14.263,14.263,0,0,0-1.029-3.649c-.331-.862-1.658-1.227-1.658-1.227v-1.625s2.653-.564,2.952-.7a10.216,10.216,0,0,1,1.293,7.53Z" transform="translate(-249.715 -42.523)"/><path class="x" d="M523.221,245.452c-.332-1.957,4.544-3.98,7.53-4.81-.8.6-1.758,1.426-.464,1.725a9.288,9.288,0,0,0,7.165-1.858,9.523,9.523,0,0,1,.73,3.317C538.247,245.22,523.387,246.481,523.221,245.452Z" transform="translate(-330.706 -29.826)"/><path class="y" d="M526.114,244.363c-1.294-.3-1.725-1.227.2-1.659a14.7,14.7,0,0,0,3.317-1.294c.8-.431,1.028-1.791,1.028-1.791h1.592s.73,2.72.9,3.018a9.288,9.288,0,0,1-7.032,1.725Z" transform="translate(-326.534 -31.888)"/><path class="z" d="M569.505,253.734l-36.786,24.347,40.965,58.844c.9.9-1.625,3.317-2.786,3.815h-.265c-1.161.4-3.748-2.123-4.743-2.853-10.681-7.729-46.77-34.5-57.418-60.867-6.17-15.325,36.985-54.631,37.184-61.232,3.118-2.952,5.108-14.993,20.433-19.139,2.753-.73,18.575,8.525,21.063,14.23C594.316,227.3,583.536,243.485,569.505,253.734Z" transform="translate(-366.243 -131.549)"/><ellipse class="aa" cx="66.904" cy="64.881" rx="66.904" ry="64.881" transform="translate(0 181.666) rotate(-62.5)"/><path class="ab" d="M531.988,326.037a58.081,58.081,0,0,1-55.594-41.795,62.327,62.327,0,0,1,39.8-76.49,57.915,57.915,0,0,1,45.443,3.317c28.958,15.092,39.8,51.646,24.347,81.466A61.3,61.3,0,0,1,550.7,322.786a59.175,59.175,0,0,1-18.708,3.251Zm2.985-117.224a55.861,55.861,0,0,0-17.448,2.853,58.181,58.181,0,0,0-37.151,71.382,53.9,53.9,0,0,0,69.06,35.99,57.683,57.683,0,0,0,32.938-28.228c14.462-27.83,4.312-61.863-22.622-75.894A53.47,53.47,0,0,0,534.973,208.813Z" transform="translate(-444.988 -113.031)"/><path class="ab" d="M544.5,243.851a24.712,24.712,0,0,0-1-22.058,21.992,21.992,0,0,0-14.3-9.188,37.946,37.946,0,0,0-18.874-.8c-7.3,1.924-10.249,8.724-10.614,15.822a23.617,23.617,0,0,0,7.231,18.642c5.771,6,13,10.814,16.287,18.808,5.573,13.6-9.022,22.688-20.765,15.557-9.785-5.971-17.414-18.443-9.951-29.223,1.261-1.758-5.9-3.947-7.065-2.322-10.814,15.358,5.407,31.744,19.9,36.288a23.982,23.982,0,0,0,20.632-1.758c6.634-4.611,7.264-12.505,3.848-19.305s-9.553-11.51-14.893-16.784a22.887,22.887,0,0,1-6.336-25.541c3.649-9.188,16.585-9.951,24.148-4.81s7.828,17.68,4.246,25.01C536.343,243.586,543.474,245.941,544.5,243.851Z" transform="translate(-426.323 -98.248)"/><path class="ab" d="M526.825,209.369,481.68,296.076c-.862,1.625,6.3,3.947,7.5,1.658l45.145-86.707C535.151,209.4,528.019,207.081,526.825,209.369Z" transform="translate(-427.088 -104.2)"/><path class="ab" d="M530.158,210.519l-45.112,86.74c-.829,1.625,6.3,3.947,7.5,1.659q22.589-43.387,45.145-86.74c.862-1.625-6.269-3.947-7.463-1.659Z" transform="translate(-419.276 -101.535)"/><path class="ac" d="M492.6,229.253a23.684,23.684,0,0,0,11.477,4.876c4.246.763,27.465,1.36,34.8-7.132,4.677-5.44,15.391-23.816,16.353-24.712s-.5-11.145-.5-11.145-16.353,13.467-22.655,26.536C532.073,217.544,497.774,216.548,492.6,229.253Z" transform="translate(-401.619 -144.218)"/><path class="y" d="M501.771,204.951c-2.156-1.294-4.843-4.113-8.326-2.687-4.511,1.858-3.781,3.317-2.554,3.317a33.1,33.1,0,0,0,3.317-.564c1.526-.166.962.365,1.824.265-.929.531-3.118,1.294-2.322,1.526a19.9,19.9,0,0,0,7.8,0,1.128,1.128,0,0,0,.265-1.858Z" transform="translate(-407.738 -119.352)"/><path class="y" d="M511.32,209.718c-1.592-1.924-3.317-5.473-7-5.241-4.876.3-5.141,2.786-3.516,3.052s1.858-.564,3.317-.265.8.663,1.659.829c-1.062.2-3.317.232-2.687.7a19.306,19.306,0,0,0,7.43,2.355,1.095,1.095,0,0,0,.8-1.426Z" transform="translate(-384.682 -113.339)"/><path class="x" d="M563.286,222.447c3.317,15.424,23.219,44.116,23.219,44.116l55.826,56.091-1.891,5.738s-52.31-31.18-67.369-39.8c-13.268-7.629-43.785-40.136-50.651-81.9,0-4.578,4.611-4.279,7.264-7.032C533.963,195.215,557.514,195.712,563.286,222.447Z" transform="translate(-332.526 -129.352)"/><path class="ad" d="M543.12,236.609a102.462,102.462,0,0,0,31.147-18.177s-17.845-29.356-34.1-29.621a32.241,32.241,0,0,0-22.556,9.022,81.564,81.564,0,0,0-9.022,9.122s13.9,14.761,20.632,19.139S544.38,235.879,543.12,236.609Z" transform="translate(-364.57 -149.617)"/><path class="ac" d="M543.712,235.719a22.281,22.281,0,0,1,4.644-2.057,43.609,43.609,0,0,0,8.127-3.848A110.324,110.324,0,0,1,532.5,209.481c-6.933-8.525-2.256-21.892-5.639-19.9a46.875,46.875,0,0,0-8.16,5.672c-6.866,6.269-10.581,9.951-10.581,9.951s15.656,17.68,22.357,22.058C537.741,232.1,543.214,235.188,543.712,235.719Z" transform="translate(-365.659 -148.296)"/><path class="y" d="M512.14,189.969a33.492,33.492,0,0,0,4.345,6.833,2.521,2.521,0,0,0,3.317-2.388c0-2.222-4.909-6.634-4.909-6.634Z" transform="translate(-356.345 -152.003)"/><path class="ae" d="M514.2,193.732c1.426-.265,2.587-2.554,2.853-3.881a9.952,9.952,0,0,0-1.559-1.692l-3.118,2.388C512.878,191.477,513.574,192.7,514.2,193.732Z" transform="translate(-355.789 -151.122)"/><path class="ad" d="M502.42,242.566s4.113,6.634,8.359,5.838S532.472,238.221,539.8,229.7c4.677-5.407,19.272-26.005,19.736-27.233a11.477,11.477,0,0,0-2.189-12.77.332.332,0,0,0-.531,0C554.7,191.882,538.874,208.2,533,220.275,533,220.276,507.661,225.649,502.42,242.566Z" transform="translate(-378.866 -147.878)"/><path class="af" d="M510.756,186.6c2.587-3.317,10.614-1.99,11.974-1s1.46,3.317,1.46,5.009-1.46,8.757-6.833,9.487C507.273,201.492,510.756,186.6,510.756,186.6Z" transform="translate(-360.899 -159.645)"/><path class="ac" d="M516.41,213.459c2.455-3.317,4.81-6.933,7.032-10.515,1.128-1.824,2.222-3.616,3.317-5.473a21.258,21.258,0,0,0,2.322-5.871,21.792,21.792,0,0,1-1.957,6.037c-.863,1.924-1.858,3.815-2.853,5.705-2.023,3.748-4.146,7.4-6.4,11.013Z" transform="translate(-346.451 -143.152)"/></g><path class="ag" d="M334.542,199.081l-6.3-.73,1.824-4.511Z" transform="translate(3022.523 863.839)"/><g transform="translate(2541.42 977.956)"><path class="u" d="M384.164,181.43,311.033,234.5,293.37,361.7l126.361-2.158L437.355,232.3Z" transform="translate(-179.557 -147.022)"/><path class="ah" d="M376.8,200.269l-11.11,68.216-61.9,1.079L314.5,198.87Z" transform="translate(-148.336 -94.768)"/><path class="ah" d="M396.067,226.32,282.653,184.16,264.99,311.36,378.4,353.521Z" transform="translate(-264.59 -138.843)"/><path class="ai" d="M471.1,206.149,342.7,172.82,264.89,226.609l125.122,38.084Z" transform="translate(-264.89 -172.82)"/><path class="ai" d="M373.256,238.146l5.235.16L318.707,181.16l-2.957,1.958Z" transform="translate(-112.501 -147.831)"/><path class="t" d="M303.816,273.18a2.437,2.437,0,0,1-.639-2l9.351-70.734a2.517,2.517,0,0,1,2.558-2.2l63.66,1.4a2.6,2.6,0,0,1,1.878.919,2.517,2.517,0,0,1,.6,1.958l-9.511,68.256a2.557,2.557,0,0,1-2.478,2.158l-63.5,1.119h0A2.477,2.477,0,0,1,303.816,273.18Zm71.932-68.5L317.2,203.366l-8.632,65.578,58.385-1.039Z" transform="translate(-150.24 -96.626)"/><path class="t" d="M313.329,271.318a1.679,1.679,0,0,0,1.678-1.479l8.832-69.255a1.693,1.693,0,1,0-3.357-.44l-8.831,69.295a1.678,1.678,0,0,0,1.438,1.878Z" transform="translate(-124.826 -95.404)"/><path class="t" d="M369.479,211.267a1.678,1.678,0,1,0,0-3.357l-63.221-.32h0a1.678,1.678,0,0,0,0,3.357l63.181.32Z" transform="translate(-145.969 -68.641)"/><path class="ah" d="M505.4,254.782,379.043,257.02l-113.413-42.2-.639,4.676L378.4,261.656,504.764,259.5Z" transform="translate(-264.59 -46.978)"/><path class="aj" d="M300.97,282.93l11.709-74.01-32.37-11.11L268.76,270.941Z" transform="translate(-253.294 -97.944)"/><path class="ak" d="M296.215,278.955l11.23-71.133-26.335-9.032L269.4,268.964Z" transform="translate(-251.377 -95.008)"/><path class="aj" d="M379.043,257.02l-.639,4.635L264.99,219.5l.639-4.676Z" transform="translate(-264.59 -46.978)"/></g><path class="al" d="M0,0H19.106V6.269a12.8,12.8,0,0,1-12.8,12.8H.033V0Z" transform="translate(3370.024 1061.122) rotate(-9.03)"/><path class="y" d="M340.244,242.285s-4.345-1.161-6.17.431a13.268,13.268,0,0,0-3.085,5.705c.265.962,2.023-2.488,2.023-2.488s-2.222,4.146-1.36,4.677,1.227-1.128,1.227-1.128-.531.431.2.8,2.488-2.488,3.317-3.317,4.146-.862,5.705-2.256C342.566,244.342,342,242.949,340.244,242.285Z" transform="translate(3028.895 975.142)"/><path class="u" d="M353.906,231s-19.9,25.806-21.2,33.17a2.355,2.355,0,0,0,.332,1.625c1.957,3.317,7.563,10.25,16.585-3.018a98.977,98.977,0,0,0,13.633-27.664A33.168,33.168,0,0,1,353.907,231Z" transform="translate(3032.813 949.94)"/><path class="y" d="M335.1,243l-.265.2c-.73.6-2.654,2.189-1.858,2.521S336.82,243,336.82,243" transform="translate(3033.049 977.744)"/><g transform="translate(3728.214 905.342)"><ellipse class="u" cx="96.227" cy="13.069" rx="96.227" ry="13.069" transform="translate(0 298.518)"/><path class="y" d="M430.189,153.47a8.491,8.491,0,0,1-1.924-.73.265.265,0,0,0-.332,0c-.2.5-.4,1-.564,1.526a1.426,1.426,0,0,0-.2.962,1.2,1.2,0,0,0,.232.332h0a13.269,13.269,0,0,0,4.644,4.611,16.59,16.59,0,0,0,4.18,2.023c.3.2.73.531,1.095.265a.4.4,0,0,0,0-.5h0V161.6l-.3-.4.929.365c.365,0,1.128.431,1.526.3s.232-.166.332-.365,0-.332,0-.431.332,0,.431,0a1.626,1.626,0,0,0-.564-2.289,1.062,1.062,0,0,0,0-.531c-.365-.7-2.189-2.421-2.023-2.985s-3.682-2.189-4.743-2.123C431.98,153.172,430.222,153.5,430.189,153.47Z" transform="translate(-373.502 -143.866)"/><path class="z" d="M421.885,247.706c-.531-3.947,5.042-3.748,8.458-5.108-1,.73-1.957,1.791-.265,2.123a12.373,12.373,0,0,0,9.188-2.62,10.846,10.846,0,0,1,1.062,4.312C440.46,248,422.349,250.791,421.885,247.706Z" transform="translate(-385.796 63.317)"/><path class="y" d="M424.975,246.9c-1.692-.332-.73-1.393.265-2.123,2.123-.862,3.947-1.493,4.345-1.692a2.686,2.686,0,0,0,1.227-1.592l1.095-.332s-.6,1.592,1.526,2.189c.365,0,.5.564.73.929a12.372,12.372,0,0,1-9.188,2.62Z" transform="translate(-380.694 61.139)"/><path class="z" d="M462.9,250.263c.3-1.891-6.2-7.3-8.757-8.293.8.663,1.891,2.023.763,2.587a6.1,6.1,0,0,1-6.336-2.09,17.056,17.056,0,0,0-.332,4.644C448.335,248.7,462.233,254.409,462.9,250.263Z" transform="translate(-324.744 63.016)"/><path class="y" d="M456.636,248.043c1.161-.564-1.592-3.151-2.355-3.815a17.323,17.323,0,0,0-2.886-1.625,2.753,2.753,0,0,1-1.028-1.493h-1.294a3.052,3.052,0,0,1-.365,2.421,4.427,4.427,0,0,0-.4,1.061C449.5,246.251,454.944,248.872,456.636,248.043Z" transform="translate(-324.486 61.023)"/><path class="z" d="M471.685,177.9A100.1,100.1,0,0,1,488.8,202.38c10.847,23.219,11.875,35.194,15.159,58.28,4.113,28.626,9.586,127.9,9.586,127.9l-6.037.431-47-160.677L441.7,387.2s-4.843,4.246-5.34.365c-3.317-26.171-15.491-144.357-15.092-157.459.862-27.5,5.374-42.922,9.487-50.485C435.762,180.554,462,181.283,471.685,177.9Z" transform="translate(-387.168 -85.436)"/><path class="x" d="M452.4,177.9c.166.5,14.562,12.24,21.163,26.536,10.847,23.219,7.828,33.17,11.112,56.389,4.113,28.626,9.586,127.9,9.586,127.9l-6.037.431-30.384-99.511-16.585-61.066a88.5,88.5,0,0,1-8.823-24.778c-1.227-5.9-2.853-23.717-2.853-23.717S448.188,179.36,452.4,177.9Z" transform="translate(-367.884 -85.436)"/><path class="ah" d="M475.739,177.5c.664-2.985,1.261-6.9-1.658-7.895a187.855,187.855,0,0,0-30.118-6.634A101.842,101.842,0,0,0,428.5,161.81a87.755,87.755,0,0,0-4.014,12.638c-1.261,10.515-1.294,35.293.8,42.392,18.277,8.624,41.2,1.99,42.325-.265,1.99-3.715,4.08-14.462,6.236-21.328C474.644,192.294,474.412,183.338,475.739,177.5Z" transform="translate(-381.702 -122.717)"/><path class="b" d="M437.418,178.712l-1.128-.232a4.409,4.409,0,0,0,1.128.232Z" transform="translate(-352.337 -84.092)"/><path class="am" d="M449.468,163.449a53.715,53.715,0,0,1-5.506-.5A101.837,101.837,0,0,0,428.5,161.79a87.769,87.769,0,0,0-4.013,12.638c-1.261,10.515-1.294,35.293.8,42.392a45.243,45.243,0,0,0,13.268,3.781c1.592.232,4.71.431,4.71.431s0-14.86,1.493-29.621a249.659,249.659,0,0,1,4.71-27.963Z" transform="translate(-381.702 -122.763)"/><path class="an" d="M453.551,162.855S443.832,193.836,443.1,214.4a236.736,236.736,0,0,1-1.59,27.381c-1.528,9.139-8.062,16.271-15.094,16.6s-7.2-1.426-7.2-1.426l9.951-33.568s0-55.129,9.42-61.5a61.37,61.37,0,0,1,14.96.962Z" transform="translate(-391.888 -122.766)"/><path class="ao" d="M428.875,209.419s-3.781-30.318-3.317-33.436l4.246-1.028-3.317-1.658a105.737,105.737,0,0,1,8.525-8.259,20.233,20.233,0,0,1,9.089-3.317,36.094,36.094,0,0,1-3.151,5.042,88.176,88.176,0,0,0-6.8,17.846C429.7,203.349,428.875,209.419,428.875,209.419Z" transform="translate(-377.296 -122.925)"/><path class="ao" d="M437.283,162.29s18.841,4.246,22.091,7.264-6.634,46.438-6.634,46.67A88.466,88.466,0,0,1,474,247.5a67.532,67.532,0,0,1-16.419,5.871,19.7,19.7,0,0,1-22.655-13.931c-3.317-11.311-6.335-27.233-2.09-40.7C440.5,174.895,438.477,164.048,437.283,162.29Z" transform="translate(-365.171 -121.605)"/><path class="an" d="M430.84,211.073s13.6-23.219,14.794-25.972l-3.018-3.118,3.715.365a47.993,47.993,0,0,0-4.146-13.567,79,79,0,0,0-8.094-7.231s4.876,8.591,1.227,25.441S430.84,211.073,430.84,211.073Z" transform="translate(-364.965 -123.319)"/><path class="y" d="M431.513,159.88s-1.658,10.183-.862,11.311a3.317,3.317,0,0,0,5.407,0c1.692-2.554,0-11.411,0-11.411Z" transform="translate(-365.904 -127.42)"/><path class="ae" d="M436.55,162.2c-.232-1.924,0-1.526,0-1.526l-5.606.431-.464,3.085a4.743,4.743,0,0,0,6.07-1.99Z" transform="translate(-365.799 -125.428)"/><path class="ap" d="M438.3,154.275a7.065,7.065,0,0,0-7.728.73c-3.317,3.052-3.483,15.391.464,19.338S438.3,154.275,438.3,154.275Z" transform="translate(-371.363 -142.083)"/><path class="ap" d="M436.188,155.36s5.075,3.317,3.914,8.226-3.98,8.724-7.2,8.624S436.188,155.36,436.188,155.36Z" transform="translate(-362.253 -137.662)"/><path class="y" d="M442.854,169.625a29.192,29.192,0,0,0,2.156-8.094c.4-4.113-5.971-5.175-7.563-5.34a10.515,10.515,0,0,0-5.141.564c-1.99.73-2.587,3.317-3.085,5.009a13.269,13.269,0,0,0,0,7.032,8.558,8.558,0,0,0,4.976,3.947C439.106,173.838,440.831,172.909,442.854,169.625Z" transform="translate(-369.814 -135.972)"/><path class="ap" d="M429.44,165.7a8.259,8.259,0,0,1,6.9,1.625c3.881,2.62,15.623,7.463,23.219.5,9.089-8.492,4.876-13.268,4.876-13.268s.2,2.421-4.445,2.952-13.268-6.336-19.206-5.506C433.619,153.126,430.767,156.344,429.44,165.7Z" transform="translate(-368.208 -145.611)"/><path class="aq" d="M428.139,167.617a18.213,18.213,0,0,1,.465-5.971,8.852,8.852,0,0,1,1.36-2.82,5.008,5.008,0,0,1,2.687-1.857h0l2.521-.3-.63.5a9.056,9.056,0,0,1,5.938-4.976,16.586,16.586,0,0,1,7.529,0,16.95,16.95,0,0,1,6.8,2.952,24.273,24.273,0,0,0,3.085,1.824,16.986,16.986,0,0,0,3.317,1.161,14.529,14.529,0,0,1-6.833-2.256,17.646,17.646,0,0,0-6.634-2.289,16.32,16.32,0,0,0-6.833.232,7.662,7.662,0,0,0-4.942,3.881h0a.73.73,0,0,1-.6.4h-2.521a5.141,5.141,0,0,0-3.516,3.682A20.2,20.2,0,0,0,428.139,167.617Z" transform="translate(-371.385 -146.004)"/><path class="ao" d="M436,163.757a22.788,22.788,0,0,1,12.937,2.753c10.415,5.208,25.806,16.585,28.858,26.536,3.483,11.311-6.336,37.25-19.736,38.179-4.976.365-6.435-7.43-6.435-7.43l13.268-29.687-24.712-21.66Z" transform="translate(-353.009 -118.395)"/><path class="an" d="M446.832,201.192a112.77,112.77,0,0,1-21.2-19.736c-9.586-13.268-13.268-23.684-11.676-26.1,2.123-3.118,39.041-10.681,47.865.862,3.317,4.279-2.886,10.216-2.886,10.216l-27.7-.829,22.887,25.11Z" transform="translate(-404.905 -150.024)"/><path class="y" d="M447.886,186.663s-1.692-5.871-3.715-5.772-5.44.2-5.606,1.095,2.255.763,2.255.763a15.861,15.861,0,0,0-1.924,1.725c-.232.4,1.028.63,1.028.63a1.061,1.061,0,0,0-.4,1.095c0,.73,1.725-.3,2.654-.166s3.019,2.919,4.876,3.317C447.721,189.449,448.417,188.255,447.886,186.663Z" transform="translate(-347.083 -78.509)"/></g><g transform="translate(90)"><path class="v" d="M249.28,261.9l19.438-5.241a6.634,6.634,0,0,0,4.843-6.336V219.507a6.634,6.634,0,0,0-5.34-6.435l-16.088-3.052Z" transform="translate(2839.57 901.329)"/><g transform="translate(3053.64 865.04)"><path class="u" d="M432.089,252.444c0,6.269-56.821,11.344-126.876,11.344S178.37,258.713,178.37,252.444,235.157,241.1,305.213,241.1,432.089,246.175,432.089,252.444Z" transform="translate(-178.37 101.302)"/><path class="ar" d="M245.927,268.705h11.61a3.019,3.019,0,0,0,2.919-2.355l6.634-31.81H231l12.24,32.241a2.919,2.919,0,0,0,2.687,1.924Z" transform="translate(-56.425 86.102)"/><path class="ar" d="M213.1,268.705h9.055a5.639,5.639,0,0,0,5.307-3.781l9.619-27.531-34.4-2.853L207.556,264a5.639,5.639,0,0,0,5.539,4.71Z" transform="translate(-122.043 86.102)"/><path class="ar" d="M277.8,186.82s-37.051,2.289-44.183,25.143c-.5,1.625,5.738,13.467,5.738,13.467l37.748-37.648" transform="translate(-50.42 -24.466)"/><path class="as" d="M275.164,236.874s-5.9-11.178-39.8-11.444c0,0,20.93-27.631,38.444-38.61C273.7,186.82,285.182,201.249,275.164,236.874Z" transform="translate(-46.322 -24.466)"/><ellipse class="v" cx="100.506" cy="86.608" rx="100.506" ry="86.608" transform="translate(44.415 172.703)"/><path class="x" d="M237.57,214.793a8.89,8.89,0,1,0,2.592-6.307,8.923,8.923,0,0,0-2.592,6.307Z" transform="translate(-41.202 19.673)"/><path class="ar" d="M241.311,186.9s-26.039,26.536-16.088,48.23c.7,1.559,13.268,6.17,13.268,6.17l2.952-53.238" transform="translate(-75.061 -24.281)"/><path class="as" d="M265.5,223.188s-11.875-4.379-37.35,18.111c0,0-2.886-34.5,2.82-54.4C230.969,186.9,249.246,189.985,265.5,223.188Z" transform="translate(-64.72 -24.281)"/><path class="v" d="M242.769,268.705h11.742a2.952,2.952,0,0,0,2.886-2.355l6.8-31.81H227.71l12.207,32.241a3.018,3.018,0,0,0,2.853,1.924Z" transform="translate(-64.048 86.102)"/><path class="v" d="M209.011,272.714h9.055a5.639,5.639,0,0,0,5.307-3.781L232.96,241.4l-33.17-8.591L203.472,268a5.606,5.606,0,0,0,5.539,4.71Z" transform="translate(-128.739 82.094)"/><path class="v" d="M197.836,228.278a14.629,14.629,0,0,1-4.478-5.738,12.572,12.572,0,0,1-7.894-6.866,8.591,8.591,0,0,1-.332-8.226,1.625,1.625,0,0,1,2.222-.531,1.559,1.559,0,0,1,.531,2.189,5.9,5.9,0,0,0,.464,5.174,11.245,11.245,0,0,0,3.748,4.279,15.856,15.856,0,0,1,2.388-11.842,12.34,12.34,0,0,1,6.468-4.909,8.657,8.657,0,0,1,9.619,13.268,16.386,16.386,0,0,1-13.268,7.629,11.279,11.279,0,0,0,2.62,2.853,13.036,13.036,0,0,0,17.182-1.957,1.627,1.627,0,1,1,2.521,2.056,16.021,16.021,0,0,1-12.306,5.54,15.425,15.425,0,0,1-9.487-2.919Zm4.014-23.219a8.989,8.989,0,0,0-4.71,3.649,12.8,12.8,0,0,0-1.493,11.013,13.268,13.268,0,0,0,12.14-6.07,5.672,5.672,0,0,0-.7-7.629,5.241,5.241,0,0,0-3.317-1.227,5.538,5.538,0,0,0-1.924.133Z" transform="translate(-164.765 9.372)"/><path class="at" d="M263.21,195.068s-27.9-2.952-58.28,17.182c0,0,8.425-14.794,30.351-19.371A44.714,44.714,0,0,1,263.21,195.068Z" transform="translate(-116.83 -13.409)"/><path class="ad" d="M226.034,176.421c1.924,0,4.146,2.919,4.146,2.919a53.444,53.444,0,0,0,1.36-9.155c0-5.639-5.639-15.855-14.96-26.835a5.208,5.208,0,0,0-6.8-1.46l-3.98,2.952a50.917,50.917,0,0,1,6.634,6.634A97.257,97.257,0,0,1,226.034,176.421Z" transform="translate(-114.814 -130.163)"/><path class="ad" d="M226.667,144.585a44.051,44.051,0,0,0-22.39-4.611,3.948,3.948,0,0,0-2.322.8c-1.791,2.256-2.587,9.951,3.085,10.78a103.829,103.829,0,0,0,23.02,1.327S232.14,147.537,226.667,144.585Z" transform="translate(-126.791 -133.189)"/><path class="z" d="M206.717,196.762c-.7-2.222,2.554-2.687,4.412-3.848-.5.564-.962,1.26,0,1.26a7.231,7.231,0,0,0,5.108-2.455,6.634,6.634,0,0,1,1.061,2.421C217.6,195.07,207.314,198.52,206.717,196.762Z" transform="translate(-112.912 -13.113)"/><path class="y" d="M208.426,195.264c-1.028,0-.564-.7,0-1.26,1.161-.7,2.156-1.26,2.355-1.426a1.393,1.393,0,0,0,.564-1.028l.63-.3s-.2.962,1.095,1.095c.232,0,.365.3.531.464a7.231,7.231,0,0,1-5.175,2.455Z" transform="translate(-110.142 -14.202)"/><path class="z" d="M231.089,193.267c0-1.128-4.378-3.615-5.971-3.947.531.3,1.327,1,.7,1.426a3.549,3.549,0,0,1-3.881-.564,10.646,10.646,0,0,0,.265,2.753C222.432,193.9,231.122,195.755,231.089,193.267Z" transform="translate(-77.445 -18.673)"/><path class="y" d="M227,192.387c.63-.464-1.227-1.692-1.758-2.023a10.379,10.379,0,0,0-1.824-.63,1.659,1.659,0,0,1-.763-.763h-.63a1.924,1.924,0,0,1,0,1.46,1.955,1.955,0,0,0,0,.663A6.634,6.634,0,0,0,227,192.387Z" transform="translate(-77.298 -19.484)"/><path class="z" d="M233.732,154.64c.166.3,12.439,9.221,17.746,16.85C260.168,184,261.993,190.829,266.272,204c5.307,16.287-11.775,64.914-11.775,64.914l-3.317.862,5.34-45.609L237.745,189.5l-25.209,85.745s-2.388,2.952-3.085.73c-4.578-14.927,6.634-73.9,5.539-81.6-2.289-16.154-1.227-25.607.4-30.45C218.407,164.127,228.557,157.625,233.732,154.64Z" transform="translate(-108.912 -99.028)"/><path class="x" d="M221.422,154.64c.166.3,12.439,9.221,17.746,16.85,8.691,12.505,14.2,29.853,17.846,43.121,2.753,10.183-14.827,54.3-14.827,54.3l-3.317.862.431-49.225L225.435,189.5a49.126,49.126,0,0,0-3.682-13.965,127.624,127.624,0,0,0-8.094-13.268,58.474,58.474,0,0,1,7.762-7.629Z" transform="translate(-96.602 -99.028)"/><path class="ac" d="M205.13,159.7a39.538,39.538,0,0,0,15.192-4.81,22.456,22.456,0,0,0,6.634-8.492,58.1,58.1,0,0,1,4.279,5.307c3.317,5.274,13.633,21.66,14.4,25.84-5.34,6.634-15.922,9.951-21.1,10.548a5.938,5.938,0,0,1-2.919,0,49.75,49.75,0,0,0-4.776-11.377A194.557,194.557,0,0,0,205.13,159.7Z" transform="translate(-116.366 -118.12)"/><path class="b" d="M218.277,156.3h-.7a2.718,2.718,0,0,0,.7,0Z" transform="translate(-87.519 -95.182)"/><path class="ac" d="M225.557,174.323a1.26,1.26,0,0,0,1.659,0c5.738-4.08,1.128-15.656-15.457-27.5a6.8,6.8,0,0,0-7.762.9l-2.786,3.715a24.244,24.244,0,0,1,7.231,3.317C214.71,159.927,222.373,171.039,225.557,174.323Z" transform="translate(-125.449 -119.043)"/><path class="x" d="M226.713,138.291h0a2.289,2.289,0,0,1,.5,3.317l-32.706,44.183-3.715-2.753,32.706-44.15a2.289,2.289,0,0,1,3.217-.6Z" transform="translate(-149.592 -137.874)"/><rect class="aa" width="4.583" height="16.354" transform="matrix(-0.805, -0.594, 0.594, -0.805, 45.046, 52.724)"/><path class="ah" d="M187.957,159.386l-2.72-1.99a1.061,1.061,0,0,1-.232-1.46l5.307-7.165a1.028,1.028,0,0,1,1.46-.2l2.654,1.957a1.128,1.128,0,0,1,.464,1.061,3.317,3.317,0,0,0,.962,3.052A4.147,4.147,0,0,0,199.4,155.8a2.621,2.621,0,0,0,.862-.265,1.161,1.161,0,0,1,1.128,0l8.425,5.937a1.128,1.128,0,0,1,.464,1.028,7.065,7.065,0,0,0,5.075,7.364c6.3,2.521,7.6-1.46,10.714,0,0,0-4.08,6.4-15.524,3.317,0,0-5.274-.763-15.656-9.022a1.1,1.1,0,0,1-.4-1.028,3.616,3.616,0,0,0-1.459-3.549,4.08,4.08,0,0,0-3.947-.166,1.061,1.061,0,0,1-1.128-.033Z" transform="translate(-163.444 -113.592)"/><path class="y" d="M198.609,150.522a4.444,4.444,0,0,1-2.985-2.057c-.9-1.393,0-3.881.663-3.914s0,1.095,0,1.095a10.251,10.251,0,0,1,1.194-1.526c.265,0,.4.3.4.3h.232c.464,0,0,2.388,0,2.985s2.057,1.592,2.156,2.753C200.367,150.621,199.571,150.986,198.609,150.522Z" transform="translate(-139.267 -123.403)"/><path class="ac" d="M223.477,148.4c-6.634-2.488-20.333-4.08-24.745-2.554a2.123,2.123,0,0,0-.929.63c-1.725,2.123-4.909,7.3,4.81,8.724a55.825,55.825,0,0,0,19.9-.63,53.976,53.976,0,0,1,.962-6.17Z" transform="translate(-137.765 -120.785)"/><path class="y" d="M203.021,141.533l-1.393-.763-1.758,2.488a18.405,18.405,0,0,1,3.052-.531C203.286,142.694,203.618,142.263,203.021,141.533Z" transform="translate(-128.554 -131.165)"/><path class="y" d="M202.1,141.6s-1.957,0-2.322-.6,2.057,0,2.156,0S202.1,141.6,202.1,141.6Z" transform="translate(-128.858 -131.235)"/><path class="ad" d="M209.38,155.489l7.7-9.089a58.07,58.07,0,0,1,4.312,5.307c3.317,5.274,13.633,21.66,14.4,25.84a26.535,26.535,0,0,1-9.221,6.833l-.829.4a51.88,51.88,0,0,0-3.947-13.268A60.04,60.04,0,0,0,209.38,155.489Z" transform="translate(-106.519 -118.12)"/><path class="y" d="M210.139,147.68s4.378,4.279,4.412,5.108A1.948,1.948,0,0,1,212,154.712c-1.692-.63-4.047-5.44-4.047-5.44Z" transform="translate(-109.832 -115.154)"/><path class="ae" d="M208.863,150.727c-.564-1-.763-1.426-.763-1.426l3.317-1.26a23.948,23.948,0,0,0,1.99,2.587C213.042,151.622,209.958,151.622,208.863,150.727Z" transform="translate(-109.485 -114.32)"/><path class="y" d="M208.164,153.146a17.052,17.052,0,0,1-.663-4.909c0-2.455,3.914-2.587,4.843-2.554a6.435,6.435,0,0,1,3.018.73c1.095.564,1.26,2.057,1.426,3.151a8.027,8.027,0,0,1-.564,4.146,5.075,5.075,0,0,1-3.317,1.957C209.955,155.932,209.159,155.236,208.164,153.146Z" transform="translate(-110.876 -119.791)"/><path class="ai" d="M210.006,152.7a14.628,14.628,0,0,1,6.634-7.928.431.431,0,0,1,.63.564,9.755,9.755,0,0,0-1.426,3.118c.73-1,3.748-4.08,5.075-5.871.3-.365.8,0,.763.4s-.265,1.725-.365,2.587c1.194-.9,1.658-2.554,2.521-3.715a.531.531,0,0,1,.9.166,12.339,12.339,0,0,1-1.294,11.842c-2.023,3.052-7.563,3.052-11.013,3.947a1,1,0,0,0,0,.332.431.431,0,0,1,0,.2,27.678,27.678,0,0,0,.232,4.379.464.464,0,0,1-.431.464c-1.692,0-2.421-1.294-3.085-2.62a6.4,6.4,0,0,1-3.052-4.047C205.528,154.759,208.281,152.5,210.006,152.7Z" transform="translate(-114.31 -129.066)"/><path class="al" d="M209.16,150.624l1.99-1.194s1.161,2.057.365,2.62S209.923,152.316,209.16,150.624Z" transform="translate(-107.029 -111.1)"/><path class="al" d="M210.211,150.46a17.381,17.381,0,0,1,5.473,8.89,36.818,36.818,0,0,1,2.654,13.268l-3.019,2.123-3.848-2.222a32.837,32.837,0,0,0,.929-9.686,84.588,84.588,0,0,0-2.72-11.908C210.012,149.067,210.211,150.46,210.211,150.46Z" transform="translate(-105.824 -109.874)"/><path class="ac" d="M210.329,148.82a9.379,9.379,0,0,1-.166,1.327,11.275,11.275,0,0,1-.763,1.327l3.317,1.095v-3.317Z" transform="translate(-106.473 -112.513)"/><path class="ad" d="M211.966,150.123l-.265,3.616a5.141,5.141,0,0,1-3.118-2.654l-.232-.73,1.128-1a2.156,2.156,0,0,0,2.355.73" transform="translate(-108.905 -111.262)"/><path class="au" d="M216.98,142.57a20.5,20.5,0,0,0-3.881,3.483,10.284,10.284,0,0,0-1.294,2.189l-1.061,2.355h0a.365.365,0,0,1-.3.2,4.942,4.942,0,0,0-2.421.929,3.981,3.981,0,0,0-1.459,2.09,2.786,2.786,0,0,0,.73,2.355,16.588,16.588,0,0,0,2.057,1.957h0a6.635,6.635,0,0,0,1.028,1.692A2.587,2.587,0,0,0,212,160.88a2.587,2.587,0,0,1-1.791-.9,6.9,6.9,0,0,1-1.227-1.692h0a17.724,17.724,0,0,1-2.189-1.824,3.317,3.317,0,0,1-.929-2.853,4.611,4.611,0,0,1,1.659-2.488,5.439,5.439,0,0,1,2.819-1.061l-.3.232,1.161-2.388a8.591,8.591,0,0,1,1.493-2.255A15.191,15.191,0,0,1,216.98,142.57Z" transform="translate(-114.749 -126.994)"/></g></g><g transform="translate(3420.99 977.828)"><path class="u" d="M602.131,288.455c0,9.188-63.521,16.585-141.869,16.585s-141.9-7.43-141.9-16.585,63.521-16.585,141.9-16.585S602.131,279.267,602.131,288.455Z" transform="translate(-318.36 12.809)"/><path class="ah" d="M439.035,202.2H349.807a1.858,1.858,0,0,1,0-3.715h89.228a1.858,1.858,0,1,1,0,3.715Z" transform="translate(-249.799 -157.238)"/><path class="ah" d="M439.035,218.805H349.807a1.858,1.858,0,0,1,0-3.715h89.228a1.858,1.858,0,0,1,0,3.715Z" transform="translate(-249.799 -118.752)"/><path class="ah" d="M439.035,235.415H349.807a1.858,1.858,0,0,1,0-3.715h89.228a1.857,1.857,0,1,1,0,3.715Z" transform="translate(-249.799 -80.266)"/><rect class="al" width="186.583" height="95.431" transform="translate(52.023 29.284) rotate(-9.03)"/><rect class="ac" width="175.703" height="83.987" transform="translate(58.328 34.093) rotate(-9.03)"/><path class="al" d="M0,0H19.106V6.369a12.8,12.8,0,0,1-12.8,12.8H.033V.066Z" transform="translate(66.877 123.398) rotate(-99.03)"/><path class="al" d="M.033,0H6.3a12.8,12.8,0,0,1,12.8,12.8v6.269H0V0Z" transform="translate(239.325 19.023) rotate(170.97)"/><path class="al" d="M0,.166H6.269A12.8,12.8,0,0,1,19.106,12.837v6.269H0V.166Z" transform="translate(232.197 97.212) rotate(-99.03)"/><path class="al" d="M392.99,270c-17.68,2.82-34.829-12.107-38.179-33.17s8.293-40.667,25.972-43.453,34.829,12.107,38.179,33.17S410.67,267.211,392.99,270Zm-11.643-73.14c-15.723,2.488-26.005,20.134-22.954,39.307s18.31,32.772,34.033,30.284,26.005-20.134,22.954-39.34S397.07,194.369,381.348,196.857Z" transform="translate(-235.233 -169.845)"/><path class="ac" d="M389.61,186.08l15.126,2.521,17.182,88.332-17.381,3.251Z" transform="translate(-153.272 -185.969)"/><path class="x" d="M366.444,247.328c-9.951,10.25-2.256,57.385-2.256,57.385s-31.877,63.023-31.445,63.985l2.952,4.511c0,.3,34-39.373,46.438-55.958,5.9-7.828,20.267-38.278,22.556-61.929.763-7.8,1.294-13.965,1.625-17.978C407.144,228.221,373.045,240.561,366.444,247.328Z" transform="translate(-285.044 -74.698)"/><path class="b" d="M356.672,234.409l-.962-.2a2.522,2.522,0,0,0,.962.2Z" transform="translate(-231.819 -74.45)"/><path class="z" d="M355.95,234.27Z" transform="translate(-231.263 -74.311)"/><path class="z" d="M341.473,269.769c3.317,19.073,44.382,41.894,44.382,41.894s32.042,56.854,39.638,68.994c.564.9,1.99,2.355,2.952,1.957l3.317-1.858a1.294,1.294,0,0,0,.7-.63c2.919-5.175-21.063-57.982-26.005-80.04-1.791-7.861-29.853-47.2-29.853-47.2s-2.455-15.291-4.047-17.083c-3.715-.2-2.488-7.928-13.965,0S337.691,248.838,341.473,269.769Z" transform="translate(-266.773 -79.028)"/><path class="av" d="M390.28,218.306s-3.317-9.785-12.339-6.137S367,221.291,367,221.291s-15.491,0-23.982,11.975c-2.521,3.516-12.7,21.063,3.516,32.606.829.564,11.245-5.175,19.9-9.254a272.621,272.621,0,0,1,30.152-9.719S403.117,217.676,390.28,218.306Z" transform="translate(-273.919 -127.408)"/><path class="u" d="M391.09,228.9a146.612,146.612,0,0,0-30.019-8.326c-7.43-1.294-10.416-.9-13.036.763s-2.985,8.259-2.985,8.259,1.791,33.17,0,36.985a46.438,46.438,0,0,0,32.806,3.317c1.791-3.317,5.8-17.481,7.795-23.418C386.944,242.469,391.09,228.9,391.09,228.9Z" transform="translate(-256.519 -107.819)"/><path class="aw" d="M393.378,225.114a10.814,10.814,0,0,0-2.521-4.511,5.773,5.773,0,0,0-2.156-1.294,6.336,6.336,0,0,0-2.488-.265h-.232v-.232a11.378,11.378,0,0,0-4.478-5.539,7.232,7.232,0,0,0-3.317-.962h-.9a7.785,7.785,0,0,0-.862,0,10.191,10.191,0,0,0-1.725.464,25.04,25.04,0,0,0-6.468,3.549,15.26,15.26,0,0,0-4.677,5.44v.332h-.365a36.219,36.219,0,0,0-6.634.962,35.385,35.385,0,0,0-6.468,2.189,29.149,29.149,0,0,0-5.871,3.317,28.259,28.259,0,0,0-4.909,4.843,25.369,25.369,0,0,1,4.611-5.175,26.766,26.766,0,0,1,5.871-3.848,32.937,32.937,0,0,1,6.634-2.422,35,35,0,0,1,6.966-1.061l-.5.332A15.624,15.624,0,0,1,367.9,215.3a26.17,26.17,0,0,1,6.634-3.649,9.653,9.653,0,0,1,1.924-.5,8.408,8.408,0,0,1,.962,0h1a7.9,7.9,0,0,1,3.781,1.161,12.174,12.174,0,0,1,4.644,6.137l-.3-.2a6.269,6.269,0,0,1,2.687.431,5.8,5.8,0,0,1,2.255,1.526A10.316,10.316,0,0,1,393.378,225.114Z" transform="translate(-269.818 -127.914)"/><path class="u" d="M371.322,220.1c-8.425-1.426-17.481.9-32.44,38.113-1.36,3.317,9.653,5.374,9.653,5.374S369.1,224.709,371.322,220.1Z" transform="translate(-271.081 -107.839)"/><path class="ah" d="M368.644,231.8c2.62-2.72,4.81-12.6,4.81-12.6l-12.8,1.99.63,5.075S363.038,237.51,368.644,231.8Z" transform="translate(-220.373 -109.229)"/><path class="ah" d="M352.3,220.52s.365,18.31,32.241,10.316c4.71-1.194,8.06-9.951,2.886-9.951C374.027,221.382,352.3,220.52,352.3,220.52Z" transform="translate(-239.72 -106.171)"/><path class="ah" d="M377.605,227.188a135.165,135.165,0,0,0-21.992-6.634c-1.493-.332,4.113,12.306,2.853,26.536a78.113,78.113,0,0,1-7.6,22.622h1.26a32.705,32.705,0,0,0,12.24-1.625c1.791-3.317,5.8-17.481,7.795-23.418C373.459,240.755,377.605,227.188,377.605,227.188Z" transform="translate(-243.033 -106.105)"/><path class="y" d="M353.364,217.9a62.2,62.2,0,0,0-1.824,9.719c.332,1.028,1.824,2.554,3.085.5a32.442,32.442,0,0,0,1.36-9.951Z" transform="translate(-241.481 -112.241)"/><path class="ae" d="M355.282,222.047a32.252,32.252,0,0,1,.365-3.317H352.33l-.63,2.62a2.289,2.289,0,0,0,3.582.7Z" transform="translate(-241.111 -110.318)"/><path class="y" d="M363.627,224.457a24.51,24.51,0,0,0-.166-6.866c-.663-3.317-5.9-2.687-7.165-2.421a8.425,8.425,0,0,0-3.947,1.625c-1.36,1.028-1.294,3.085-1.261,4.644a11.313,11.313,0,0,0,1.625,5.539,7.1,7.1,0,0,0,4.843,1.924C361.77,228.6,362.9,227.475,363.627,224.457Z" transform="translate(-242.556 -119.097)"/><path class="av" d="M364.063,214.17l1.36,1.095a9.951,9.951,0,0,1-6.4,7.563,9.719,9.719,0,0,0-5.9,8.392s-6.634-7.4-.63-12.6A15.59,15.59,0,0,1,364.063,214.17Z" transform="translate(-245.114 -120.917)"/><path class="ao" d="M363.623,381.047c17.348-22.821,46.206-61.829,58.479-80.537,19.9-30.517,22.888-47.8,20.831-57.55-.7-3.317-1.858-12.97-1.858-12.97l-27.863,8.624a92.877,92.877,0,0,0-13.865,18.277c-4.478,8.127-5.34,30.384-5.34,30.384s-22.755,53.371-36.487,90.389c0,.232,0,.5.2.564Z" transform="translate(-227.625 -84.228)"/><path class="an" d="M459.554,390.574c2.952,1.559,5.042-4.644,3.019-8.226a910.021,910.021,0,0,1-59.342-131.52s5.009-16.585,2.554-18.576c-10.88-8.956-31.976,14.2-34.2,19.9-5.738,14.595-2.156,24.413,8.193,38.842C417.129,342.908,457.9,389.678,459.554,390.574Z" transform="translate(-201.357 -83.704)"/><path class="ai" d="M398.966,216.079c-6.4.564-20.5,1.625-28.825,7.53-2.521,1.791,2.687,12.107,2.687,12.107a86.241,86.241,0,0,1,4.743,39.605c1.559.5,22.655,5.042,37.151-3.715,1.559-6.1-.929-34.431-1.659-40.2S406.4,215.449,398.966,216.079Z" transform="translate(-199.978 -116.524)"/><path class="ag" d="M381.594,216.079l-4.644.464a82.692,82.692,0,0,1,9.089,28.526,229.976,229.976,0,0,1,.5,30.749,28.8,28.8,0,0,0,4.975-1.327,34.207,34.207,0,0,0,5.838-2.886c1.559-6.1-.929-34.431-1.659-40.2S389.024,215.449,381.594,216.079Z" transform="translate(-182.605 -116.524)"/><path class="ag" d="M395.136,227.7c2.753-2.587,5.374-12.837,5.374-12.837l-12.87,2.123.365,4.876S389.3,233.236,395.136,227.7Z" transform="translate(-157.837 -119.285)"/><path class="ag" d="M378.61,216s1.758,17.613,33.933,10.946c4.743-1,8.458-9.752,3.317-9.951C402.426,217.194,378.61,216,378.61,216Z" transform="translate(-178.759 -116.644)"/><path class="ai" d="M382.147,251.328c3.085-6.17,9.188-17.945,9.188-17.945s-2.421-1.36-4.213-2.521a22.359,22.359,0,0,1-3.98-6.07,129.817,129.817,0,0,1-5.771-13.932s-11.444-2.322-11.51,3.483C365.728,222.636,380.854,248.542,382.147,251.328Z" transform="translate(-208.302 -129.615)"/><path class="y" d="M375.64,213.985s.73,10.183,1.725,11.112A3.052,3.052,0,0,0,382.374,224c.962-2.819-2.554-11.012-2.554-11.012Z" transform="translate(-185.641 -123.618)"/><path class="ae" d="M375.39,213.068s1.294,9.951,1.658,11.079,5.738.265,5.772-1.028A48.633,48.633,0,0,0,379.5,212.04Z" transform="translate(-186.22 -125.819)"/><path class="y" d="M387.845,217.62a21.36,21.36,0,0,0-2.587-5.174,3.317,3.317,0,0,0-4.743-1.095,21.8,21.8,0,0,0-5.639,4.478c-.763,1.46.2,3.317.9,4.511a10.548,10.548,0,0,0,3.748,4.08,6.8,6.8,0,0,0,4.975-.4C388.011,221.965,388.475,220.506,387.845,217.62Z" transform="translate(-188.061 -128.745)"/><path class="ag" d="M377.482,215.9s2.256,3.317,4.445,3.019l-1.294,3.118s-4.71-2.057-5.374-4.445Z" transform="translate(-186.522 -116.875)"/><path class="al" d="M396.365,218.543l-18.31,1.791-.265-4.014,18.973-1.161Z" transform="translate(-180.659 -118.59)"/><path class="ai" d="M377.27,219.1l1.725,2.687a8.756,8.756,0,0,0,1.725-3.118l-1.957-2.853a4.643,4.643,0,0,1-1.493,3.284Z" transform="translate(-181.864 -117.061)"/><path class="y" d="M370.223,207.183a8.4,8.4,0,0,1,0,1.824s0,.232.2.265h1.459a1.526,1.526,0,0,0,.863,0,1.027,1.027,0,0,0,.232-.3h0a12.208,12.208,0,0,0,2.355-5.34,13.8,13.8,0,0,0,.332-4.146c0-.3.232-.763,0-1a.4.4,0,0,0-.5,0h0v.166h0l-.232.365a8.051,8.051,0,0,0,0-.9,3.317,3.317,0,0,0-.265-1.36c-.166-.166-.2,0-.4-.166s-.265.166-.365,0,0-.265-.232-.3a1.36,1.36,0,0,0-1.692,1.194.73.73,0,0,0-.431.265,26.136,26.136,0,0,0-1.095,5.075c-.2-.2-.232-2.455-.73-2.455a8.722,8.722,0,0,0-.265,4.677Z" transform="translate(-200.425 -162.358)"/><path class="z" d="M393.836,207.408a2.484,2.484,0,0,0-.332-.564h0v-.2a.7.7,0,0,0-.332-.2,1.493,1.493,0,0,0-.7-.663h-.166c-.332-.332-.962,0-.9.564.663,5.738-8.591,4.743-11.61,7.861a5.739,5.739,0,0,0-1.692,3.781c-2.422,1.061-5.241,3.317-5.141,6.1a11.378,11.378,0,0,0,8.823,11.046c.265.232-2.488-7.563-.166-9.653a13.276,13.276,0,0,0,1.824-1.095c3.317-1.791,7.762-1.493,10.747-4.08l.365-.332C397.916,216.762,396.29,211.289,393.836,207.408Z" transform="translate(-191.829 -140.624)"/><path class="an" d="M391.4,206.05a4.179,4.179,0,0,1-2.82,3.781c-1.493.7-3.118,1.095-4.611,1.625a9.586,9.586,0,0,0-4.08,2.222,4.342,4.342,0,0,0-.63.9.431.431,0,0,0,0,.232s0,0,0,.232v.564l-.3,1.194a1.128,1.128,0,0,1-.6.73l-.531.3a9.356,9.356,0,0,0-3.516,2.952,7.961,7.961,0,0,0-.465,4.511,12.206,12.206,0,0,0,5.241,7.729,11.742,11.742,0,0,1-5.97-7.6,8.493,8.493,0,0,1,.431-5.042,9.952,9.952,0,0,1,3.815-3.317l.564-.3h0l.332-1.194.166-.564a3.248,3.248,0,0,1,0-.365q.007-.149,0-.3a5.2,5.2,0,0,1,.8-1.061,9.552,9.552,0,0,1,4.478-2.322c1.592-.464,3.317-.763,4.677-1.327a4.146,4.146,0,0,0,3.019-3.582Z" transform="translate(-191.944 -139.698)"/><g transform="translate(129.136 51.782) rotate(-20)"><path class="ax" d="M0,31.744V0L24.785,31.744V0" transform="translate(4.788 0)"/><path class="ay" d="M0,0H34.439" transform="translate(0.207 19.192)"/><path class="ay" d="M0,0H33.3" transform="translate(0 12.613)"/></g><path class="ai" d="M374.153,241.925c8.392-5.108,12.638-30.45,11.377-37.947a2.421,2.421,0,0,0-.829-1.459c-2.952-2.554-10.548-7.2-14.761,8.326a106.148,106.148,0,0,0-4.08,28,4.379,4.379,0,0,0,1.426,3.317C368.912,243.517,369.642,244.678,374.153,241.925Z" transform="translate(-208.302 -154.112)"/></g><ellipse class="u" cx="106.543" cy="10.946" rx="106.543" ry="10.946" transform="translate(2807.718 1262.159)"/><g transform="translate(-206 -366)"><path class="az" d="M179.279,393.233H74.93a4.929,4.929,0,0,1-5.217-5.217V377.581a4.929,4.929,0,0,1,5.217-5.217H179.279a4.929,4.929,0,0,1,5.217,5.217v10.435A4.929,4.929,0,0,1,179.279,393.233Z" transform="translate(3013.938 1199.254)"/><path class="ba" d="M158.409,377.581h-88.7a4.929,4.929,0,0,1,5.217-5.217h83.479Z" transform="translate(3013.938 1199.254)"/><g transform="translate(3083.651 1576.835)"><path class="bb" d="M158.409,384v5.217a4.929,4.929,0,0,1-5.217,5.217H69.713a4.929,4.929,0,0,0,5.217,5.217H179.279a4.929,4.929,0,0,0,5.217-5.217V384Z" transform="translate(-69.713 -384)"/><path class="bb" d="M98.2,394.435v-7.826a2.609,2.609,0,0,0-5.217,0v7.826" transform="translate(-82.551 -384)"/><path class="bb" d="M133.112,394.435v-7.826a2.609,2.609,0,0,0-5.217,0v7.826" transform="translate(-101.808 -384)"/><path class="bb" d="M168.021,394.435v-7.826a2.609,2.609,0,0,0-5.217,0v7.826" transform="translate(-121.065 -384)"/><path class="bb" d="M202.93,394.435v-7.826a2.609,2.609,0,0,0-5.217,0v7.826" transform="translate(-140.321 -384)"/><path class="bb" d="M237.839,394.435v-7.826a2.609,2.609,0,0,0-5.217,0v7.826" transform="translate(-159.578 -384)"/></g><path class="az" d="M190.915,346.689H86.566a4.929,4.929,0,0,1-5.217-5.217V331.036a4.929,4.929,0,0,1,5.217-5.217H190.915a4.929,4.929,0,0,1,5.217,5.217v10.435A4.929,4.929,0,0,1,190.915,346.689Z" transform="translate(3007.52 1224.929)"/><path class="ba" d="M170.045,331.036h-88.7a4.929,4.929,0,0,1,5.217-5.217h83.479Z" transform="translate(3007.52 1224.93)"/><g transform="translate(3088.869 1555.965)"><path class="bb" d="M170.045,337.454v5.217a4.929,4.929,0,0,1-5.217,5.217H81.349a4.929,4.929,0,0,0,5.217,5.217H190.915a4.929,4.929,0,0,0,5.217-5.217V337.454H170.045Z" transform="translate(-81.349 -337.454)"/><path class="bb" d="M109.839,347.889v-7.826a2.609,2.609,0,1,0-5.217,0v7.826" transform="translate(-94.187 -337.454)"/><path class="bb" d="M144.748,347.889v-7.826a2.609,2.609,0,1,0-5.217,0v7.826" transform="translate(-113.444 -337.454)"/><path class="bb" d="M179.657,347.889v-7.826a2.609,2.609,0,0,0-5.217,0v7.826" transform="translate(-132.701 -337.454)"/><path class="bb" d="M214.566,347.889v-7.826a2.609,2.609,0,1,0-5.217,0v7.826" transform="translate(-151.957 -337.454)"/><path class="bb" d="M249.475,347.889v-7.826a2.609,2.609,0,1,0-5.217,0v7.826" transform="translate(-171.214 -337.454)"/></g><path class="az" d="M202.552,439.78H98.2a4.929,4.929,0,0,1-5.217-5.217V424.127A4.929,4.929,0,0,1,98.2,418.91H202.552a4.929,4.929,0,0,1,5.217,5.217v10.435A4.929,4.929,0,0,1,202.552,439.78Z" transform="translate(3001.1 1173.578)"/><path class="ba" d="M181.681,424.126h-88.7a4.929,4.929,0,0,1,5.217-5.217h83.479Z" transform="translate(3001.101 1173.578)"/><g transform="translate(3094.086 1597.704)"><path class="bb" d="M181.681,430.544v5.217a4.929,4.929,0,0,1-5.217,5.217H92.985A4.929,4.929,0,0,0,98.2,446.2H202.551a4.929,4.929,0,0,0,5.217-5.217V430.544H181.681Z" transform="translate(-92.985 -430.544)"/><path class="bb" d="M121.475,440.98v-7.826a2.609,2.609,0,1,0-5.217,0v7.826" transform="translate(-105.823 -430.545)"/><path class="bb" d="M156.384,440.98v-7.826a2.609,2.609,0,1,0-5.217,0v7.826" transform="translate(-125.08 -430.545)"/><path class="bb" d="M191.294,440.98v-7.826a2.609,2.609,0,1,0-5.217,0v7.826" transform="translate(-144.337 -430.545)"/><path class="bb" d="M226.2,440.98v-7.826a2.609,2.609,0,1,0-5.217,0v7.826" transform="translate(-163.594 -430.545)"/><path class="bb" d="M261.112,440.98v-7.826a2.609,2.609,0,1,0-5.217,0v7.826" transform="translate(-182.851 -430.545)"/></g><path class="az" d="M156.006,486.325H51.657a4.929,4.929,0,0,1-5.217-5.217V470.672a4.929,4.929,0,0,1,5.217-5.217H156.006a4.929,4.929,0,0,1,5.217,5.217v10.435A4.929,4.929,0,0,1,156.006,486.325Z" transform="translate(3026.776 1147.902)"/><path class="ba" d="M135.136,470.672H46.44a4.929,4.929,0,0,1,5.217-5.217h83.479Z" transform="translate(3026.776 1147.902)"/><g transform="translate(3073.216 1618.574)"><path class="bb" d="M135.136,477.09v5.217a4.929,4.929,0,0,1-5.217,5.217H46.44a4.929,4.929,0,0,0,5.217,5.217H156.006a4.929,4.929,0,0,0,5.217-5.217V477.09H135.136Z" transform="translate(-46.44 -477.09)"/><path class="bb" d="M74.93,487.526V479.7a2.609,2.609,0,1,0-5.217,0v7.826" transform="translate(-59.278 -477.091)"/><path class="bb" d="M109.839,487.526V479.7a2.609,2.609,0,1,0-5.217,0v7.826" transform="translate(-78.535 -477.091)"/><path class="bb" d="M144.748,487.526V479.7a2.609,2.609,0,1,0-5.217,0v7.826" transform="translate(-97.792 -477.091)"/><path class="bb" d="M179.657,487.526V479.7a2.609,2.609,0,0,0-5.217,0v7.826" transform="translate(-117.048 -477.091)"/><path class="bb" d="M214.566,487.526V479.7a2.609,2.609,0,1,0-5.217,0v7.826" transform="translate(-136.305 -477.091)"/></g><path class="bc" d="M360.733,279.2c6.261-6.261,8.348-14.609,7.826-23.479a27.782,27.782,0,0,0-23.479,7.826c-6.261,6.261-8.348,14.609-7.826,23.479C346.124,287.551,354.472,284.943,360.733,279.2Z" transform="translate(2866.397 1263.719)"/><path class="bd" d="M362.3,262.7c2.609-2.609,0-6.783-3.131-5.739a30.533,30.533,0,0,0-14.087,7.3c-6.261,6.261-8.348,14.609-7.826,23.479Z" transform="translate(2866.398 1263.003)"/><rect class="bc" width="10.435" height="62.609" transform="translate(3198.435 1509.009)"/><path class="bd" d="M330.93,244.364h-5.217V254.8h0a4.929,4.929,0,0,1,5.217,5.217v41.739h5.217V244.364Z" transform="translate(2872.722 1269.862)"/><rect class="be" width="62.609" height="10.435" transform="translate(3172.348 1623.792)"/><path class="bc" d="M275.262,302.476c-6.261-6.261-8.348-14.609-7.826-23.479a27.782,27.782,0,0,1,23.479,7.826c6.261,6.261,8.348,14.609,7.826,23.479C289.871,310.824,281.523,308.215,275.262,302.476Z" transform="translate(2904.911 1250.881)"/><path class="bd" d="M280.18,285.973c-2.609-2.609,0-6.783,3.131-5.739a30.533,30.533,0,0,1,14.087,7.3c6.261,6.261,8.348,14.609,7.826,23.479Z" transform="translate(2898.428 1250.166)"/><path class="bf" d="M267.531,488.726a4.929,4.929,0,0,0,5.217,5.217H309.27a4.929,4.929,0,0,1,5.217,5.217H330.14V488.726H267.531Z" transform="translate(2904.817 1135.066)"/><path class="bg" d="M314.014,424.537h-68.87a3.523,3.523,0,0,1-3.131-2.087h0a134.868,134.868,0,0,1-9.391-49.565v-.522h93.914v.522a132.876,132.876,0,0,1-9.391,49.565h0A4.291,4.291,0,0,1,314.014,424.537Z" transform="translate(2924.073 1199.255)"/><g transform="translate(3151.478 1566.401)"><path class="be" d="M300.448,372.364h0c.522,2.087,0,3.652,0,5.217H232.622a17.743,17.743,0,0,0,.522,5.217h62.088c3.131,0,5.217,2.609,5.217,5.739a110.975,110.975,0,0,1-3.652,22.957,10.054,10.054,0,0,1-9.913,7.826H241.491c.522,1.043.522,2.087,1.043,3.131a3.524,3.524,0,0,0,3.131,2.087h68.348a3.523,3.523,0,0,0,3.131-2.087,134.868,134.868,0,0,0,9.391-49.565v-.522H300.448Z" transform="translate(-227.405 -367.147)"/><path class="be" d="M320.117,371.163H226.2a4.929,4.929,0,0,1-5.217-5.217h0a4.929,4.929,0,0,1,5.217-5.217h93.914a4.929,4.929,0,0,1,5.217,5.217h0A4.929,4.929,0,0,1,320.117,371.163Z" transform="translate(-220.986 -360.728)"/></g><path class="bf" d="M320.116,360.727h0a4.929,4.929,0,0,1-5.217,5.217H220.985a4.929,4.929,0,0,0,5.217,5.217h93.392c2.609,0,5.217-1.565,5.217-4.174A4.725,4.725,0,0,0,320.116,360.727Z" transform="translate(2930.493 1205.673)"/><path class="bg" d="M246.867,360.727h26.087a2.464,2.464,0,0,1,2.609,2.609h0a2.464,2.464,0,0,1-2.609,2.609H246.867a2.464,2.464,0,0,1-2.609-2.609h0A2.465,2.465,0,0,1,246.867,360.727Z" transform="translate(2917.655 1205.673)"/><g transform="translate(3112.968 1293.801)"><ellipse class="aa" cx="66.904" cy="64.881" rx="66.904" ry="64.881" transform="translate(0 181.666) rotate(-62.5)"/><path class="ab" d="M531.988,326.037a58.081,58.081,0,0,1-55.594-41.795,62.327,62.327,0,0,1,39.8-76.49,57.915,57.915,0,0,1,45.443,3.317c28.958,15.092,39.8,51.646,24.347,81.466A61.3,61.3,0,0,1,550.7,322.786a59.175,59.175,0,0,1-18.708,3.251Zm2.985-117.224a55.861,55.861,0,0,0-17.448,2.853,58.181,58.181,0,0,0-37.151,71.382,53.9,53.9,0,0,0,69.06,35.99,57.683,57.683,0,0,0,32.938-28.228c14.462-27.83,4.312-61.863-22.622-75.894A53.47,53.47,0,0,0,534.973,208.813Z" transform="translate(-444.988 -113.031)"/><path class="ab" d="M544.5,243.851a24.712,24.712,0,0,0-1-22.058,21.992,21.992,0,0,0-14.3-9.188,37.946,37.946,0,0,0-18.874-.8c-7.3,1.924-10.249,8.724-10.614,15.822a23.617,23.617,0,0,0,7.231,18.642c5.771,6,13,10.814,16.287,18.808,5.573,13.6-9.022,22.688-20.765,15.557-9.785-5.971-17.414-18.443-9.951-29.223,1.261-1.758-5.9-3.947-7.065-2.322-10.814,15.358,5.407,31.744,19.9,36.288a23.982,23.982,0,0,0,20.632-1.758c6.634-4.611,7.264-12.505,3.848-19.305s-9.553-11.51-14.893-16.784a22.887,22.887,0,0,1-6.336-25.541c3.649-9.188,16.585-9.951,24.148-4.81s7.828,17.68,4.246,25.01C536.343,243.586,543.474,245.941,544.5,243.851Z" transform="translate(-426.323 -98.248)"/><path class="ab" d="M526.825,209.369,481.68,296.076c-.862,1.625,6.3,3.947,7.5,1.658l45.145-86.707C535.151,209.4,528.019,207.081,526.825,209.369Z" transform="translate(-427.088 -104.2)"/><path class="ab" d="M530.158,210.519l-45.112,86.74c-.829,1.625,6.3,3.947,7.5,1.659q22.589-43.387,45.145-86.74c.862-1.625-6.269-3.947-7.463-1.659Z" transform="translate(-419.276 -101.535)"/></g></g><ellipse class="u" cx="106.543" cy="10.946" rx="106.543" ry="10.946" transform="translate(2559.718 1232.159)"/><ellipse class="u" cx="106.543" cy="10.946" rx="106.543" ry="10.946" transform="translate(2594.718 1228.159)"/></g></svg>