<svg xmlns="http://www.w3.org/2000/svg" xmlns:xlink="http://www.w3.org/1999/xlink" width="340" height="346.382" viewBox="0 0 340 346.382"><defs><style>.a{fill:url(#a);}.ab,.b{fill:#fff;}.c,.s{fill:#f5f5f5;}.d{fill:#e0e0e0;}.e{fill:#69f0ae;}.e,.f,.i{opacity:0.4;}.f{fill:#ff0;}.g{fill:#5b55ff;}.h,.i,.m{fill:#51a4fb;}.h{opacity:0.6;}.ad,.j,.k,.l,.r,.t{fill:none;}.j,.k,.l{stroke:#6c63ff;stroke-miterlimit:10;}.j{stroke-dasharray:11.33 11.33;}.l{stroke-dasharray:12;}.n{fill:#00204f;}.o{fill:#0055af;opacity:0.2;}.p{fill:url(#c);}.q{fill:#a7a7a7;}.r{stroke:#5cc6ff;}.s{stroke:#e0e0e0;}.t{stroke:#d8d8d8;stroke-linecap:round;stroke-width:2px;}.u{fill:#d4e8f2;}.v{fill:#b28b67;}.w{fill:#191847;}.x{fill:#021736;}.y{fill:#e4e4e4;}.z{fill:#997659;}.aa{fill:#423e9d;}.ab{stroke:#707070;}.ac{stroke:none;}</style><linearGradient id="a" x1="0.5" y1="1" x2="0.5" gradientUnits="objectBoundingBox"><stop offset="0" stop-color="gray" stop-opacity="0.251"/><stop offset="0.54" stop-color="gray" stop-opacity="0.122"/><stop offset="1" stop-color="gray" stop-opacity="0.102"/></linearGradient><linearGradient id="c" x1="0" y1="0.5" x2="1" y2="0.5" xlink:href="#a"/></defs><g transform="translate(-783 -395)"><rect class="a" width="190" height="257" transform="translate(783 395)"/><rect class="b" width="176" height="248" transform="translate(794 399)"/><rect class="c" width="8" height="248" transform="translate(786 399)"/><rect class="d" width="118" height="3" transform="translate(823 583)"/><rect class="e" width="118" height="3" transform="translate(823 594)"/><rect class="f" width="118" height="3" transform="translate(823 606)"/><rect class="d" width="118" height="3" transform="translate(823 617)"/><rect class="d" width="118" height="3" transform="translate(823 628)"/><path class="g" d="M283.01,150.83c.049-.545.079-1.095.079-1.649a18.322,18.322,0,0,0-.711-5.055l-2.136.1-.982-2.69,1.379-1.507a18.516,18.516,0,0,0-4.369-5.125l-1.684,1.306-2.347-1.64.27-2.027A18.247,18.247,0,0,0,266,130.85l-.633,2.037H262.5l-.943-1.816a18.325,18.325,0,0,0-8.9,4.237l.982,1.885-2.023,2.023-1.964-.614a18.306,18.306,0,0,0-2.813,6.117l1.9.982-.491,2.818-1.964.614v.044a18.286,18.286,0,0,0,1.222,6.578l2.121-.29,1.208,2.592-1.242,1.62a18.537,18.537,0,0,0,4.791,4.732l1.566-1.473,2.479,1.433-.088,2.052a18.3,18.3,0,0,0,6.333,1.124h.309l.452-2.086,2.852-.25,1.1,1.728a18.321,18.321,0,0,0,6.077-2.9l-.825-1.964,2.194-1.841,1.885.781a18.383,18.383,0,0,0,3.333-5.852l-1.807-1.139.741-2.764ZM264.7,162.946A13.745,13.745,0,1,1,278.445,149.2,13.745,13.745,0,0,1,264.7,162.946Z" transform="translate(579.296 288.131)"/><path class="h" d="M329.01,219.83c.049-.545.079-1.095.079-1.649a18.323,18.323,0,0,0-.711-5.055l-2.136.1-.982-2.69,1.379-1.507a18.517,18.517,0,0,0-4.369-5.125l-1.684,1.306-2.347-1.64.27-2.027A18.247,18.247,0,0,0,312,199.85l-.633,2.037H308.5l-.943-1.816a18.326,18.326,0,0,0-8.9,4.237l.982,1.885-2.023,2.023-1.964-.614a18.306,18.306,0,0,0-2.813,6.117l1.9.982-.491,2.818-1.964.614v.044a18.287,18.287,0,0,0,1.222,6.578l2.121-.29,1.208,2.592-1.242,1.62a18.536,18.536,0,0,0,4.791,4.732l1.566-1.473,2.479,1.433-.088,2.052a18.3,18.3,0,0,0,6.333,1.124h.309l.452-2.086,2.852-.25,1.1,1.728a18.321,18.321,0,0,0,6.077-2.9l-.825-1.964,2.194-1.841,1.885.781a18.385,18.385,0,0,0,3.333-5.852l-1.807-1.139.741-2.764ZM310.7,231.946A13.745,13.745,0,1,1,324.445,218.2,13.745,13.745,0,0,1,310.7,231.946Z" transform="translate(555.878 253.004)"/><path class="i" d="M376.01,150.83c.049-.545.079-1.095.079-1.649a18.322,18.322,0,0,0-.711-5.055l-2.136.1-.982-2.69,1.379-1.507a18.517,18.517,0,0,0-4.369-5.125l-1.684,1.306-2.347-1.64.27-2.027A18.247,18.247,0,0,0,359,130.85l-.633,2.037H355.5l-.943-1.816a18.326,18.326,0,0,0-8.9,4.237l.982,1.885-2.023,2.023-1.964-.614a18.306,18.306,0,0,0-2.813,6.117l1.9.982-.491,2.818-1.964.614v.044a18.287,18.287,0,0,0,1.222,6.578l2.121-.29,1.208,2.592-1.242,1.62a18.536,18.536,0,0,0,4.791,4.732l1.566-1.473,2.479,1.433-.088,2.052a18.3,18.3,0,0,0,6.333,1.124h.309l.452-2.086,2.852-.25,1.1,1.728a18.321,18.321,0,0,0,6.077-2.9l-.825-1.964,2.194-1.841,1.885.781a18.385,18.385,0,0,0,3.333-5.852l-1.807-1.139.741-2.764ZM357.7,162.946A13.745,13.745,0,1,1,371.445,149.2,13.745,13.745,0,0,1,357.7,162.946Z" transform="translate(531.951 288.131)"/><path class="g" d="M433.01,219.83c.049-.545.079-1.095.079-1.649a18.322,18.322,0,0,0-.711-5.055l-2.136.1-.982-2.69,1.379-1.507a18.517,18.517,0,0,0-4.369-5.125l-1.684,1.306-2.347-1.64.27-2.027A18.247,18.247,0,0,0,416,199.85l-.633,2.037H412.5l-.943-1.816a18.325,18.325,0,0,0-8.9,4.237l.982,1.885-2.023,2.023-1.964-.614a18.306,18.306,0,0,0-2.813,6.117l1.9.982-.491,2.818-1.964.614v.044a18.287,18.287,0,0,0,1.222,6.578l2.121-.29,1.208,2.592-1.242,1.62a18.537,18.537,0,0,0,4.791,4.732l1.566-1.473,2.479,1.433-.088,2.052a18.3,18.3,0,0,0,6.333,1.124h.309l.452-2.086,2.852-.25,1.1,1.728a18.321,18.321,0,0,0,6.077-2.9l-.825-1.964,2.194-1.841,1.885.781a18.385,18.385,0,0,0,3.333-5.852l-1.807-1.139.741-2.764ZM414.7,231.946A13.745,13.745,0,1,1,428.445,218.2,13.745,13.745,0,0,1,414.7,231.946Z" transform="translate(502.933 253.004)"/><line class="j" y2="41.727" transform="translate(812.577 414.307)"/><line class="k" y2="2.945" transform="translate(812.577 458.818)"/><path class="l" d="M207.75,161.918h66.764V103.5" transform="translate(677.236 342.309)"/><rect class="a" width="150" height="39" transform="translate(834 523)"/><path class="m" d="M0,0H147V34H0Z" transform="translate(835 526)"/><rect class="n" width="44" height="2" transform="translate(874 537)"/><rect class="o" width="44" height="2" transform="translate(874 542)"/><rect class="b" width="85" height="2" transform="translate(874 547)"/><circle class="c" cx="9.5" cy="9.5" r="9.5" transform="translate(842 533)"/><g transform="translate(0 33.543)"><path class="p" d="M526.277,512,521,574.558l6.264.391L535.155,512Z" transform="translate(516.523 132.89)"/><path class="q" d="M529.95,512,526,573.961h3.95l5.6-61.961Z" transform="translate(513.169 132.89)"/><path class="a" d="M853.031,506l5.188,62.949h-6.175L847.08,506Z" transform="translate(256.781 136.915)"/><path class="q" d="M853.6,507l3.95,61.961H853.6L848,507Z" transform="translate(256.164 136.244)"/><path class="a" d="M573.9,505,569,567.949h6.551L580.85,505Z" transform="translate(477.441 137.585)"/><path class="q" d="M576.95,505,573,566.961h3.95l5.6-61.961Z" transform="translate(474.415 137.585)"/><path class="a" d="M807.14,507l5.04,64.265h-6.027L800,507Z" transform="translate(288.363 136.244)"/><path class="q" d="M809.6,512l3.95,61.961H809.6L804,512Z" transform="translate(285.68 132.89)"/><rect class="a" width="77" height="6" transform="translate(1035 641.457)"/><rect class="q" width="95" height="5" transform="translate(1028 641.457)"/></g><path class="r" d="M11366,1537h21.233v37.881" transform="translate(-10382 -999)"/><g transform="translate(-304 -81)"><path class="s" d="M11673.5,1658.639c.522-2.082,25.625-10.291,26.437-8.355s4.97,38.534,4.2,40.69-24.732,12.965-25.6,11.976S11672.974,1660.721,11673.5,1658.639Z" transform="translate(-10379 -997)"/><path class="t" d="M11392.831,1577.7l-12.839,4.132" transform="translate(-10079 -916)"/><path class="t" d="M11380.75,1585.812l10.277-3.18" transform="translate(-10079 -916)"/><path class="t" d="M11380.75,1585.812l10.277-3.18" transform="translate(-10076 -897)"/><path class="t" d="M11381.161,1590.022l15.958-4.973" transform="translate(-10079 -916)"/><path class="u" d="M11381.161,1594.511l.937,7.355,18.167-5.692-1.053-7.147Z" transform="translate(-10079 -916)"/><g transform="translate(1280.224 628)"><g transform="translate(66.472 0)"><g transform="translate(4.018 9.184)"><path class="v" d="M0,0,4.742,22.1A15.55,15.55,0,0,0,.606,33.275c.862,12.283,17.961,9.581,21.286,3.381s2.931-21.925-1.367-23.033c-1.714-.442-5.366.64-9.083,2.881L13.775,0Z" transform="translate(24.106 41.899) rotate(180)"/></g><path class="w" d="M-32.477,13.719a4.305,4.305,0,0,0,.9-1.668A16.869,16.869,0,0,0-31,10.157a4.171,4.171,0,0,0-.629-3.778A4.332,4.332,0,0,0-34.5,5.136a5.273,5.273,0,0,0-2.035.258c-.648.213-1.207.638-1.835.9a8.211,8.211,0,0,0-.968-4.035,4.023,4.023,0,0,0-3-1.954,5.939,5.939,0,0,0-3.649.735c-.284.153-.565.314-.834.5a2.337,2.337,0,0,1-.724.4c-.295.069-.441-.1-.632-.316a4.8,4.8,0,0,0-.745-.671A4.389,4.389,0,0,0-53.026.243,3.816,3.816,0,0,0-54.7,1.453c-.382.5-.654,1.3-1.182,1.645-.224.148-.382-.048-.585-.193-.306-.218-.6-.459-.907-.671a4.156,4.156,0,0,0-1.41-.638c-.738-.171-1.759-.131-1.97.836a3.992,3.992,0,0,0,.007,1.118c.035.5.072,1,.115,1.507a10.88,10.88,0,0,0,.147,1.123,1.643,1.643,0,0,1,.073.771c-.107.25-.6.108-.811.116a3.2,3.2,0,0,0-1.219.268,1.312,1.312,0,0,0-.738.682,1.226,1.226,0,0,0-.02.642,1.914,1.914,0,0,1-.039.658c-.559-.275-2.5-.887-2.74.115a1.567,1.567,0,0,0,.245.992,8.6,8.6,0,0,0,.9,1.375,12.29,12.29,0,0,0,2.4,2.333,1.576,1.576,0,0,0-.411,2.64,1.953,1.953,0,0,0,1.434.416,3.171,3.171,0,0,1,.593-.047,1.418,1.418,0,0,0,.269.09,7.994,7.994,0,0,0,2.2-.279A7.253,7.253,0,0,0-54.989,15.2a1.034,1.034,0,0,1,.776-.356c.288,0,.572.082.86.089a6.194,6.194,0,0,0,2.158-.6,8.144,8.144,0,0,0,.707,2.871c.319.7.986.8,1.64.865,2.094.2,4.2-.023,6.292-.02-2.03.459-4.127.648-6.139,1.188-.909.244-.215.857.174,1.282A7.387,7.387,0,0,1-47.073,23a4.375,4.375,0,0,1,4.3-1.749,3.07,3.07,0,0,1,1.829,4.433,5.679,5.679,0,0,1-2.748,1.76,9.833,9.833,0,0,1,1.378,2.892,2.07,2.07,0,0,0,1.03,1.182,1.2,1.2,0,0,1,.544.216c.179.185.222.393.451.552a2.545,2.545,0,0,0,3.153-.243,2.058,2.058,0,0,0-.07-2.7c.974-.406,2.75-.929,2.363-2.447,2.112-.14,7.238-3.565,4.4-6.067,1.555-.879,2.984-3.027,1.985-4.921a4.814,4.814,0,0,0-4.026-2.187" transform="translate(66 0)"/></g><path class="v" d="M32.791,3.073c-.574,7.261-1.642,32.4-.574,44.032.451,4.911.937,9.583,1.415,13.733C23.382,42.4,6.61,15.438,6.61,15.438L0,18.459s7.786,25.653,12.769,36.22C18.457,66.742,23.79,77.072,26.035,80.711c3.531,5.723,9.677,3.726,12.924.262,4.728,2.839,12.659-.808,12.654-4.868C51.6,63.956,40.51,6.7,39.932,3.085A3.93,3.93,0,0,0,35.987,0,3.066,3.066,0,0,0,32.791,3.073Z" transform="translate(63.559 191.608) rotate(180)"/><path class="x" d="M0,0,2.937,58.263c2.117,10.075,20.035,5.4,20.028,0-.017-12.257-7.38-54.6-7.385-58.251Z" transform="translate(63.086 163.652) rotate(160)"/><g transform="translate(69.37 176.535) rotate(150)"><path class="y" d="M2.568,9.165A1.148,1.148,0,0,1,1.1,8.391L0,4.531A36.873,36.873,0,0,1,.517,0H32.89s1.262,4.172-1.457,4.5-4.517.6-4.517.6L11.87,11.813a.574.574,0,0,1-.764-.305l-.967-2.346a13.009,13.009,0,0,0-4.09-1.174Z" transform="translate(0 0)"/></g><g transform="translate(0 182.137)"><path class="y" d="M30.615,3.03a1.148,1.148,0,0,1,1.472.774l1.1,3.86a36.872,36.872,0,0,1-.517,4.531H.292S-.969,8.023,1.749,7.69s4.517-.6,4.517-.6L21.313.382a.574.574,0,0,1,.764.305l.967,2.346a13.009,13.009,0,0,0,4.09,1.174Z" transform="translate(0 -0.332)"/></g><path class="n" d="M0,20.911C0,36.16,7.242,71.729,7.246,75.086l15.581.012S19.406,27.492,20.4,26.979s40.781,3.972,52.713,3.972C90.321,30.951,97.439,20.1,98.016,0H63.931C56.99.743,20.79,8.044,7.346,10.554,1.59,11.629,0,16.711,0,20.911Z" transform="translate(10.356 98.722)"/><g transform="translate(12.828 38.456)"><path class="z" d="M31.2,8.782l8.751,4.808s1.842,7.008,4.4,7.052c.661.308.409-1.038.314-2.384-.093-1.326-.034-2.651,1.2-2.4,2.487.512,8.556,5.026,9.6,4.11,1.547-1.357.168-5.52-1.458-7.591-3.038-3.871-5.554-5.2-11.771-6.929C37.368,4.091,31.7,0,31.7,0ZM0,17.988,19.922,28.9a49.285,49.285,0,0,0,9.793,9.166c.983.41,2.7.659,1.094-2.193s-3.169-5.924-2.35-6.8c.36-.386.955-.365,1.593-.345a2.282,2.282,0,0,0,2.243-.767q.977-1.46-10.462-4.612L7.357,10.092Z" transform="translate(56.148 42.496) rotate(180)"/><path class="aa" d="M3.16,13.982a48.951,48.951,0,0,1,27.117,3.653l2.491-9.2C24.94,2.794,14.556-1.215,6.276.336A7.607,7.607,0,0,0,3.16,13.982Z" transform="translate(66.784 36.381) rotate(-171)"/><path class="g" d="M19.182,1.35C12.174,2.261,5.653,3.172,1.865,2.426c-6.5,21.1,6.064,29.669,6.074,43.168C7.95,60.375,19.819,83.129,21.566,83.129H37.492c.878-11.283,5.3-23.719,8.926-36,11.574-2.627,37.274,6.518,37.274,6.518s6.488-13.422,6-19.138c-14.96-7.815-27.78-11.3-38.343-11.528A36.354,36.354,0,0,0,48.356,5.3C46.439,1.219,41.134,0,34.66,0A125.9,125.9,0,0,0,19.182,1.35Z" transform="translate(102.877 83.129) rotate(180)"/></g></g><g class="ab" transform="translate(1314 695)"><circle class="ac" cx="1" cy="1" r="1"/><circle class="ad" cx="1" cy="1" r="0.5"/></g></g></g></svg>