<svg xmlns="http://www.w3.org/2000/svg" width="506.644" height="361.563" viewBox="0 0 506.644 361.563"><defs><style>.a,.g{fill:#6c63ff;}.a,.d,.f{opacity:0.1;}.b{fill:#fff;}.c{fill:#3acc6c;}.d{fill:none;stroke:#6c63ff;stroke-miterlimit:10;stroke-width:3px;}.e{fill:#3f3d56;}.h{fill:#00204f;}</style></defs><g transform="translate(0)"><path class="a" d="M533.794,242a118.54,118.54,0,0,1-137.3,116.974H208.679A159.644,159.644,0,1,1,338.7,151.659,118.46,118.46,0,0,1,533.794,242Z" transform="translate(-27.15 -41.19)"/><path class="a" d="M497.645,527a118.65,118.65,0,0,1-91.795,23.636H218.038A159.812,159.812,0,0,1,43.93,440.737C59.217,408.062,98.5,384.81,144.565,384.81c44.885,0,83.335,22.084,99.414,53.45a133.465,133.465,0,0,1,23.964-2.154c46.521,0,86.13,23.725,101.086,56.917a130.732,130.732,0,0,1,38.212-5.621C445.181,487.4,478.528,503.182,497.645,527Z" transform="translate(-36.51 -232.857)"/><rect class="b" width="209.609" height="16.362" transform="translate(121.763 140.456)"/><rect class="b" width="209.609" height="16.362" transform="translate(121.763 175.833)"/><rect class="b" width="209.609" height="16.362" transform="translate(121.763 211.21)"/><path class="c" d="M866.2,366.285l-1.114,1.114,3.582,3.582,7.96-7.96-1.114-1.114-6.845,6.806Zm9.631,1.512a6.341,6.341,0,1,1-4.617-6.107l1.234-1.234a7.4,7.4,0,0,0-2.985-.6,7.96,7.96,0,1,0,7.96,7.96Z" transform="translate(-492.539 -218.939)"/><path class="c" d="M866.2,446.285l-1.114,1.114,3.582,3.582,7.96-7.96-1.114-1.114-6.845,6.806Zm9.631,1.512a6.341,6.341,0,1,1-4.617-6.107l1.234-1.234a7.4,7.4,0,0,0-2.985-.6,7.96,7.96,0,1,0,7.96,7.96Z" transform="translate(-492.539 -263.562)"/><ellipse class="a" cx="225.529" cy="11.276" rx="225.529" ry="11.276" transform="translate(28.014 339.01)"/><path class="a" d="M909.1,279.114a3.334,3.334,0,0,1-.6-1.857c0-4.029,8.216-7.3,18.352-7.3s18.352,3.268,18.352,7.3a3.458,3.458,0,0,1-.761,2.074c11.285,1.256,18.891,3.617,18.891,6.328,0,4.029-16.831,7.3-37.588,7.3s-37.588-3.268-37.588-7.3C888.16,282.8,896.695,280.308,909.1,279.114Z" transform="translate(-507.41 -168.795)"/><path class="a" d="M764.9,106.219a2.755,2.755,0,0,1-.491-1.517c0-3.29,6.7-5.952,14.969-5.952s14.973,2.653,14.973,5.952a2.816,2.816,0,0,1-.615,1.689c9.2,1.03,15.407,2.954,15.407,5.165,0,3.286-13.709,5.952-30.663,5.952s-30.667-2.653-30.667-5.952C747.81,109.213,754.775,107.192,764.9,106.219Z" transform="translate(-429.125 -73.296)"/><path class="a" d="M308.736,162.8a3.312,3.312,0,0,1-.991-1.68c-.884-3.936,6.43-8.911,16.322-11.113s18.626-.8,19.5,3.131a3.467,3.467,0,0,1-.287,2.189c11.285-1.225,19.223-.575,19.811,2.07.884,3.931-14.841,10.781-35.1,15.292s-37.4,4.988-38.274,1.052C289.093,170.939,296.9,166.667,308.736,162.8Z" transform="translate(-173.586 -101.303)"/><path class="d" d="M202.123,166.1a2.541,2.541,0,0,0-3.131.933,7.483,7.483,0,0,0-1.083,3.374c-.394,2.613-.681,5.616,1.083,7.588A24.677,24.677,0,0,0,178.65,161.58" transform="translate(-111.655 -108.342)"/><path class="d" d="M415.74,261.373a1.651,1.651,0,0,0-2.012.6,4.79,4.79,0,0,0-.7,2.167c-.252,1.685-.442,3.613.7,4.864A15.858,15.858,0,0,0,400.66,258.45" transform="translate(-235.489 -162.375)"/><path class="d" d="M746.24,202.1a1.656,1.656,0,0,0-2.012.6,4.79,4.79,0,0,0-.7,2.171c-.252,1.68-.442,3.608.7,4.864A15.867,15.867,0,0,0,731.16,199.18" transform="translate(-419.837 -129.315)"/><path class="e" d="M206.533,791.774a16.361,16.361,0,0,1-.354,3.432c-.044.212-.093.442-.142.624-1.256,5.037-4.8,8.72-9.026,8.955h-.442c-4.471,0-8.252-3.856-9.5-9.167-.035-.141-.066-.283-.1-.442a16.362,16.362,0,0,1-.354-3.432c0-7.195,4.453-13.023,9.95-13.023S206.533,784.593,206.533,791.774Z" transform="translate(-116.1 -452.574)"/><path class="f" d="M206.555,791.8a16.363,16.363,0,0,1-.354,3.432c-.044.212-.093.442-.142.623h-.442a20.235,20.235,0,0,1-3.255-.442,19.862,19.862,0,0,1-2.9.663,20.273,20.273,0,0,1-2.273.212h-.769a20.532,20.532,0,0,1-2.726-.182,19.973,19.973,0,0,1-4.274-1.061,20.143,20.143,0,0,1-2.308.619c-.035-.142-.066-.283-.1-.442a16.363,16.363,0,0,1-.354-3.432c0-7.195,4.453-13.023,9.95-13.023S206.555,784.62,206.555,791.8Z" transform="translate(-116.123 -452.602)"/><path class="g" d="M197.693,716.4a20.138,20.138,0,0,0-2.167-9.114l-11.7,3.639,10.273-6.041a20.222,20.222,0,0,0-15.194-8.659,20.187,20.187,0,0,0-1.579-2.087l-16.8,5.231,13.784-8.106a20.222,20.222,0,0,0-31.839,10.786l14.394,16.57-15.615-11.294a20.227,20.227,0,0,0,18.1,35.687,20.306,20.306,0,0,0,12.948.358,20.244,20.244,0,0,0,24.6-19.749c0-.442,0-.884-.044-1.327A20.179,20.179,0,0,0,197.693,716.4Z" transform="translate(-86.034 -401.463)"/><path class="f" d="M197.305,756a53.906,53.906,0,0,0-18.723-.239c-7.027,1.163-14.208,3.719-21.08,1.853-4.033-1.1-7.518-3.635-11.458-5.046a21.748,21.748,0,0,0-11.829-.707,20.236,20.236,0,0,0,25.069,27,20.306,20.306,0,0,0,12.948.358,20.245,20.245,0,0,0,24.6-19.749c0-.442,0-.884-.044-1.327A19.977,19.977,0,0,0,197.305,756Z" transform="translate(-85.996 -437.311)"/><path class="g" d="M961.906,717.656l18.033-10.613a43.49,43.49,0,0,0-9.22-11.055L936.7,706.6l26.657-15.672a43.337,43.337,0,0,0-64.156,38.03c0,23.933,19.4,24.764,43.337,24.764s43.337-.831,43.337-24.764a43.184,43.184,0,0,0-3.719-17.582Z" transform="translate(-513.568 -400.633)"/><path class="f" d="M966.446,775.951a33.189,33.189,0,0,0-6.39-5.019c-3.277-2.171-6.664-4.391-10.52-5.13-3.392-.65-6.89-.1-10.335-.3a24.154,24.154,0,0,1-15.836-7.257c-2.463-2.547-4.4-5.674-7.363-7.619a16.13,16.13,0,0,0-11.029-2.025,29.243,29.243,0,0,0-3.263.668,43.218,43.218,0,0,0-2.56,14.7c0,23.933,19.4,24.764,43.337,24.764,11.612,0,22.159-.195,29.942-3.131l-1.3-2.432A33.983,33.983,0,0,0,966.446,775.951Z" transform="translate(-513.54 -435.663)"/><path class="c" d="M604.2,638.285l-1.114,1.114,3.582,3.582,7.96-7.96-1.114-1.114-6.845,6.806Zm9.631,1.512a6.341,6.341,0,1,1-4.617-6.107l1.234-1.234a7.4,7.4,0,0,0-2.985-.6,7.96,7.96,0,1,0,7.96,7.96Z" transform="translate(-230.255 -417.367)"/><ellipse class="h" cx="18.5" cy="4.5" rx="18.5" ry="4.5" transform="translate(220 340.563)"/><path class="c" d="M493.868,311.549l-13.462-13.538a7.148,7.148,0,0,0-10.153-.069l-84.537,83.821L349.973,345.74a7.128,7.128,0,0,0-10.08-.072l-13.607,13.462a7.224,7.224,0,0,0-.069,10.153L380.5,423.993a7.224,7.224,0,0,0,10.153.072L493.793,321.7a7.148,7.148,0,0,0,.075-10.149Z" transform="translate(-147.391 -81.259)"/></g></svg>