<svg xmlns="http://www.w3.org/2000/svg" width="231" height="269.692" viewBox="0 0 231 269.692"><defs><style>.a{fill:#f2f2f2;}.b{fill:#fff;}.c{fill:#e6e6e6;}.d{fill:#6c63ff;}.e{fill:#ccc;}.f{fill:#21ad26;}</style></defs><g transform="translate(0)"><path class="a" d="M463.979,112.5H316.193A5.2,5.2,0,0,0,311,117.693V317.4a5.2,5.2,0,0,0,5.193,5.193H463.979a5.2,5.2,0,0,0,5.192-5.193V117.693A5.2,5.2,0,0,0,463.979,112.5Z" transform="translate(-311 -112.5)"/><path class="b" d="M330.066,128.5a3.629,3.629,0,0,0-3.567,3.68V322.136a3.629,3.629,0,0,0,3.567,3.68H468.722a3.629,3.629,0,0,0,3.567-3.68V132.18a3.629,3.629,0,0,0-3.567-3.68Z" transform="translate(-320.308 -122.109)"/><path class="c" d="M349.9,150.5a2.567,2.567,0,0,0-2.4,2.7V179.35a2.567,2.567,0,0,0,2.4,2.7H474.117a2.567,2.567,0,0,0,2.4-2.7V153.2a2.567,2.567,0,0,0-2.4-2.7Z" transform="translate(-332.921 -135.322)"/><path class="c" d="M349.9,261.25a2.434,2.434,0,0,0-2.4,2.465V319.6a2.434,2.434,0,0,0,2.4,2.465H474.117a2.434,2.434,0,0,0,2.4-2.465V263.715a2.434,2.434,0,0,0-2.4-2.465Z" transform="translate(-332.921 -201.836)"/><rect class="b" width="98.258" height="5.592" transform="translate(29.957 18.873)"/><rect class="b" width="98.258" height="2.596" transform="translate(30.156 30.656)"/><rect class="b" width="98.258" height="2.596" transform="translate(30.156 35.249)"/><rect class="b" width="98.258" height="2.596" transform="translate(30.156 39.843)"/><path class="b" d="M433.86,342.786h45.219a1.456,1.456,0,0,0,1.029-2.485L451.168,311.36a1.457,1.457,0,0,0-2.059,0l-7.2,7.2a3.053,3.053,0,0,1-4.318,0l-22.541-22.542a1.457,1.457,0,0,0-2.059,0L368.908,340.1a1.456,1.456,0,0,0,1.029,2.485h63.98Z" transform="translate(-345.522 -222.459)"/><circle class="b" cx="5.592" cy="5.592" r="5.592" transform="translate(28.958 67.003)"/><path class="c" d="M349.9,446.25a2.434,2.434,0,0,0-2.4,2.465V504.6a2.434,2.434,0,0,0,2.4,2.465H474.117a2.434,2.434,0,0,0,2.4-2.465V448.715a2.434,2.434,0,0,0-2.4-2.465Z" transform="translate(-332.921 -312.942)"/><path class="b" d="M433.86,527.786h45.219a1.456,1.456,0,0,0,1.029-2.485L451.168,496.36a1.458,1.458,0,0,0-2.059,0l-7.2,7.2a3.052,3.052,0,0,1-4.318,0l-22.541-22.541a1.458,1.458,0,0,0-2.059,0L368.908,525.1a1.456,1.456,0,0,0,1.029,2.485h63.98Z" transform="translate(-345.522 -333.566)"/><circle class="b" cx="5.592" cy="5.592" r="5.592" transform="translate(28.958 140.897)"/><path class="c" d="M448.595,227.5A3.6,3.6,0,0,0,445,231.095V430.807a3.6,3.6,0,0,0,3.595,3.595H596.382a3.6,3.6,0,0,0,3.595-3.595V231.095a3.6,3.6,0,0,0-3.595-3.595Z" transform="translate(-391.477 -181.566)"/><path class="b" d="M459.566,241.5A3.629,3.629,0,0,0,456,245.18V435.136a3.629,3.629,0,0,0,3.567,3.68H598.222a3.629,3.629,0,0,0,3.567-3.68V245.18a3.629,3.629,0,0,0-3.567-3.68Z" transform="translate(-398.083 -189.974)"/><path class="d" d="M516.848,310.683a1.6,1.6,0,0,0-1.6,1.6v7.333a1.6,1.6,0,0,0,1.6,1.6h94.264a1.6,1.6,0,0,0,1.6-1.6V312.28a1.6,1.6,0,0,0-1.6-1.6Z" transform="translate(-433.668 -231.524)"/><path class="e" d="M517.149,371.439a.4.4,0,0,0-.4.4V374.7a.4.4,0,0,0,.4.4h95.862a.4.4,0,0,0,.4-.4v-2.863a.4.4,0,0,0-.4-.4Z" transform="translate(-434.569 -268.013)"/><path class="e" d="M517.149,394.734a.4.4,0,0,0-.4.4V398a.4.4,0,0,0,.4.4h95.862a.4.4,0,0,0,.4-.4v-2.863a.4.4,0,0,0-.4-.4Z" transform="translate(-434.569 -282.003)"/><path class="e" d="M517.149,418.029a.4.4,0,0,0-.4.4v2.862a.4.4,0,0,0,.4.4h95.862a.4.4,0,0,0,.4-.4v-2.862a.4.4,0,0,0-.4-.4Z" transform="translate(-434.569 -295.993)"/><path class="e" d="M516.649,464.561a.4.4,0,0,0-.4.4v2.862a.4.4,0,0,0,.4.4h95.862a.4.4,0,0,0,.4-.4V464.96a.4.4,0,0,0-.4-.4Z" transform="translate(-434.268 -323.939)"/><path class="e" d="M516.649,487.856a.4.4,0,0,0-.4.4v2.862a.4.4,0,0,0,.4.4h95.862a.4.4,0,0,0,.4-.4v-2.862a.4.4,0,0,0-.4-.4Z" transform="translate(-434.268 -337.93)"/><path class="e" d="M516.649,511.15a.4.4,0,0,0-.4.4v2.863a.4.4,0,0,0,.4.4h95.862a.4.4,0,0,0,.4-.4V511.55a.4.4,0,0,0-.4-.4Z" transform="translate(-434.268 -351.92)"/><path class="e" d="M516.649,534.561a.4.4,0,0,0-.4.4v2.863a.4.4,0,0,0,.4.4h95.862a.4.4,0,0,0,.4-.4V534.96a.4.4,0,0,0-.4-.4Z" transform="translate(-434.268 -365.98)"/><path class="e" d="M516.649,557.855a.4.4,0,0,0-.4.4v2.863a.4.4,0,0,0,.4.4h95.862a.4.4,0,0,0,.4-.4v-2.863a.4.4,0,0,0-.4-.4Z" transform="translate(-434.268 -379.97)"/><path class="e" d="M516.649,581.15a.4.4,0,0,0-.4.4v2.863a.4.4,0,0,0,.4.4h95.862a.4.4,0,0,0,.4-.4V581.55a.4.4,0,0,0-.4-.4Z" transform="translate(-434.268 -393.96)"/><path class="e" d="M516.649,604.561a.4.4,0,0,0-.4.4v2.863a.4.4,0,0,0,.4.4h95.862a.4.4,0,0,0,.4-.4V604.96a.4.4,0,0,0-.4-.4Z" transform="translate(-434.268 -408.02)"/><path class="e" d="M516.649,627.855a.4.4,0,0,0-.4.4v2.863a.4.4,0,0,0,.4.4h95.862a.4.4,0,0,0,.4-.4v-2.863a.4.4,0,0,0-.4-.4Z" transform="translate(-434.268 -422.01)"/><path class="e" d="M516.649,651.15a.4.4,0,0,0-.4.4v2.863a.4.4,0,0,0,.4.4h95.862a.4.4,0,0,0,.4-.4V651.55a.4.4,0,0,0-.4-.4Z" transform="translate(-434.268 -436.001)"/><ellipse class="f" cx="29" cy="29.5" rx="29" ry="29.5" transform="translate(173 210.692)"/><path class="b" d="M484.921,595.839l-8.727-11.221,5.075-3.948,4.132,5.313,13.959-14.736,4.668,4.422Z" transform="translate(-285.991 -343.078)"/></g></svg>