<svg xmlns="http://www.w3.org/2000/svg" width="466.52" height="257.504" viewBox="0 0 466.52 257.504"><defs><style>.a,.d{fill:#6c63ff;}.a,.e{opacity:0.1;}.b,.n{opacity:0.2;}.c{fill:#3f3d56;}.f{fill:#fff;}.g{opacity:0.5;}.h{fill:none;stroke:#3f3d56;stroke-linecap:round;stroke-miterlimit:10;opacity:0.7;}.i{fill:#85848b;}.j{fill:#514e7f;}.k{fill:#464353;}.l{fill:#33323d;}.m{fill:#8dd070;}.o{fill:#504f60;}</style></defs><g transform="translate(-629.334 -548.086)"><g transform="translate(-20241.666 -2141.914)"><path class="a" d="M465.949,271.766a69.122,69.122,0,0,1-10,35.939c0,13.253-6.179,25.266-16.2,34.021a55.405,55.405,0,0,1-8.07,5.85c-.115.073-.234.142-.352.211-.214.126-.429.253-.647.383l-.2.119h0a63.016,63.016,0,0,1-31.047,7.963H111.137q-3.445,0-6.83-.276a80.832,80.832,0,0,1-23.375-5.413q-2.19-.865-4.3-1.861-1-.471-1.987-.969c-.41-.207-.819-.421-1.225-.635a71.751,71.751,0,0,1-13.192-8.954c-13.016-11.19-21.086-26.648-21.086-43.722A69.1,69.1,0,0,1,28,256.648c0-37.953,30.335-68.721,67.76-68.721,1.148,0,2.3.034,3.445.1a3.5,3.5,0,0,1,.49.023,116.747,116.747,0,0,1,24.883-29.332c27.655-23.7,68.074-38.634,113.1-38.634,37.831,0,72.411,10.547,98.9,27.973a66.68,66.68,0,0,1,32.9-8.633c37.417,0,67.76,30.767,67.76,68.72a70.805,70.805,0,0,1-.383,7.189A68.908,68.908,0,0,1,465.949,271.766Z" transform="translate(20843 2577.224)"/><g class="b" transform="translate(20901.412 2824.27)"><path class="c" d="M154.205,711.931a4.557,4.557,0,0,1-.038.517q-2.19-.865-4.3-1.861a3.484,3.484,0,0,1-1.987-.969c-.41-.207-.819-.421-1.225-.635a5.233,5.233,0,0,1,.31-.559,3.561,3.561,0,0,1,6.481.2,6.459,6.459,0,0,1,.754,3.308Z" transform="translate(-131.646 -608.931)"/><path class="c" d="M153.7,694.811a6.462,6.462,0,0,1-.961,3.246,3.854,3.854,0,0,1-3.308,1.983l-.272-.019a3.484,3.484,0,0,1-1.987-.969,4.8,4.8,0,0,1-.915-1.194,6.719,6.719,0,0,1,.207-6.554,3.561,3.561,0,0,1,6.481.2A6.458,6.458,0,0,1,153.7,694.811Z" transform="translate(-130.93 -598.365)"/><ellipse class="c" cx="5.363" cy="4.096" rx="5.363" ry="4.096" transform="translate(14.617 95.007) rotate(-88.19)"/><ellipse class="c" cx="5.363" cy="4.096" rx="5.363" ry="4.096" transform="translate(14.822 88.452) rotate(-88.19)"/><ellipse class="c" cx="5.363" cy="4.096" rx="5.363" ry="4.096" transform="translate(15.066 81.48) rotate(-88.282)"/><path class="d" d="M112.811,483.057a19.005,19.005,0,0,1-1.455-2.3l10.819-1.428-11.645-.279a19.669,19.669,0,0,1,.119-15.558l15.359,8.594-14.069-11.044a19.631,19.631,0,1,1,31.713,22.969,19.571,19.571,0,0,1,2.125,3.648l-14.2,6.818,15.056-4.529a19.654,19.654,0,0,1-3.759,18.341,19.631,19.631,0,1,1-30.84-.972,19.631,19.631,0,0,1,.766-24.263Z" transform="translate(-107.44 -451.737)"/><path class="e" d="M147.468,567.615a19.547,19.547,0,0,1-4.594,12,19.631,19.631,0,1,1-30.84-.972C109.519,575.222,147.537,565.41,147.468,567.615Z" transform="translate(-107.44 -523.057)"/></g><path class="f" d="M509.539,228.048V411.489a7.048,7.048,0,0,1-7.048,7.048H221.048a6.94,6.94,0,0,1-1.945-.276,7.036,7.036,0,0,1-5.1-6.772V250.309a3.5,3.5,0,0,1,.49.023A116.746,116.746,0,0,1,239.374,221H502.491A7.048,7.048,0,0,1,509.539,228.048Z" transform="translate(20728.205 2514.939)"/><rect class="c" width="52.764" height="13.766" rx="6.883" transform="translate(21143.635 2759.762)"/><rect class="e" width="45.885" height="9.161" rx="4.58" transform="translate(21147.072 2762.063)"/><rect class="d" width="16.569" height="8.158" rx="4.079" transform="translate(21175.24 2762.564)"/><circle class="f" cx="2.55" cy="2.55" r="2.55" transform="translate(21180.85 2764.095)"/><rect class="c" width="52.764" height="13.766" rx="6.883" transform="translate(21143.635 2850.51)"/><rect class="e" width="45.885" height="9.161" rx="4.58" transform="translate(21147.072 2852.811)"/><rect class="c" width="52.764" height="13.766" rx="6.883" transform="translate(21143.635 2895.882)"/><rect class="e" width="45.885" height="9.161" rx="4.58" transform="translate(21147.072 2898.187)"/><rect class="d" width="30.844" height="8.158" rx="4.079" transform="translate(20983.549 2751.095)"/><rect class="d" width="85.649" height="8.158" rx="4.079" transform="translate(20983.549 2762.564)"/><rect class="d" width="85.649" height="8.158" rx="4.079" transform="translate(20983.549 2774.037)"/><g class="g" transform="translate(20983.549 2796.467)"><rect class="d" width="30.844" height="8.158" rx="4.079" transform="translate(0 0)"/><rect class="d" width="63.931" height="8.158" rx="4.079" transform="translate(0 11.473)"/><rect class="d" width="85.649" height="8.158" rx="4.079" transform="translate(0 22.943)"/></g><rect class="d" width="30.844" height="8.158" rx="4.079" transform="translate(20983.549 2841.843)"/><rect class="d" width="85.649" height="8.158" rx="4.079" transform="translate(20983.549 2853.312)"/><rect class="d" width="53.212" height="8.158" rx="4.079" transform="translate(20983.549 2864.785)"/><rect class="d" width="30.844" height="8.158" rx="4.079" transform="translate(20983.549 2887.215)"/><rect class="d" width="85.649" height="8.158" rx="4.079" transform="translate(20983.549 2898.688)"/><rect class="d" width="68.908" height="8.158" rx="4.079" transform="translate(20983.549 2910.157)"/><line class="h" x2="249.6" transform="translate(20970.533 2789.53)"/><line class="h" x2="249.6" transform="translate(20970.533 2835.66)"/><line class="h" x2="249.6" transform="translate(20970.533 2881.79)"/><line class="h" x2="249.6" transform="translate(20970.533 2929.069)"/><circle class="a" cx="8.28" cy="8.28" r="8.28" transform="translate(20889.717 2735.766)"/><circle class="a" cx="8.28" cy="8.28" r="8.28" transform="translate(20924.227 2690)"/><circle class="a" cx="13.877" cy="13.877" r="13.877" transform="translate(20915.824 2715.844)"/><rect class="c" width="52.764" height="13.766" rx="6.883" transform="translate(21143.635 2805.134)"/><rect class="e" width="45.885" height="9.161" rx="4.58" transform="translate(21147.072 2807.438)"/><rect class="d" width="16.569" height="8.158" rx="4.079" transform="translate(21164.789 2816.098) rotate(180)"/><circle class="f" cx="2.55" cy="2.55" r="2.55" transform="translate(21154.082 2809.468)"/><ellipse class="d" cx="12.997" cy="2.5" rx="12.997" ry="2.5" transform="translate(21232.041 2939.914)"/><ellipse class="c" cx="1.512" cy="1.979" rx="1.512" ry="1.979" transform="translate(21243.742 2939.371)"/><ellipse class="c" cx="1.512" cy="1.979" rx="1.512" ry="1.979" transform="translate(21243.742 2936.951)"/><ellipse class="c" cx="1.512" cy="1.979" rx="1.512" ry="1.979" transform="translate(21243.742 2934.528)"/><ellipse class="c" cx="1.512" cy="1.979" rx="1.512" ry="1.979" transform="translate(21243.742 2932.108)"/><ellipse class="c" cx="1.512" cy="1.979" rx="1.512" ry="1.979" transform="translate(21243.742 2929.685)"/><ellipse class="c" cx="1.512" cy="1.979" rx="1.512" ry="1.979" transform="translate(21243.742 2927.266)"/><ellipse class="c" cx="1.512" cy="1.979" rx="1.512" ry="1.979" transform="translate(21243.742 2924.846)"/><path class="d" d="M988.32,657.4a7.192,7.192,0,0,1-.563-.831l3.974-.655-4.3.034a7.273,7.273,0,0,1-.138-5.742l5.769,2.99-5.321-3.909a7.251,7.251,0,1,1,11.971,8.112,7.019,7.019,0,0,1,.827,1.321l-5.16,2.68,5.5-1.845a7.3,7.3,0,0,1,.383,2.324,7.216,7.216,0,0,1-1.554,4.483,7.247,7.247,0,1,1-11.393,0,7.251,7.251,0,0,1,0-8.962Z" transform="translate(20251.27 2252.861)"/><path class="e" d="M1001.267,687.879a7.216,7.216,0,0,1-1.554,4.483,7.247,7.247,0,1,1-11.393,0C987.348,691.129,1001.267,687.067,1001.267,687.879Z" transform="translate(20251.27 2226.857)"/><rect class="d" width="16.569" height="8.158" rx="4.079" transform="translate(21175.24 2853.676)"/><rect class="d" width="16.569" height="8.158" rx="4.079" transform="translate(21175.24 2899.232)"/><circle class="f" cx="2.55" cy="2.55" r="2.55" transform="translate(21180.85 2855.207)"/><circle class="f" cx="2.55" cy="2.55" r="2.55" transform="translate(21180.85 2900.763)"/></g><g transform="translate(-20290 -1444.393)"><rect class="i" width="204.301" height="2.136" transform="translate(21135 2247.847)"/><path class="d" d="M502.554,534.15a12.714,12.714,0,0,0,5.531-.187c.279-.086.585-.279.557-.557a.675.675,0,0,0-.125-.279,17.2,17.2,0,0,1-1.671-3.183.278.278,0,0,0-.1-.145.262.262,0,0,0-.178,0c-.816.214-1.521.741-2.331.966a3.314,3.314,0,0,1-1.27.095c-.368-.042-.869-.345-1.2-.306C501.949,531.771,502.412,532.907,502.554,534.15Z" transform="translate(20749.455 1645.831)"/><path class="d" d="M624.747,518.026a9.663,9.663,0,0,0,3.2-3,.521.521,0,0,0,.086-.259.536.536,0,0,0-.1-.251,10.349,10.349,0,0,0-2.6-2.8,7.579,7.579,0,0,0-1.448,1.337c-.306.323-1.153.835-1.161,1.328,0,.279.323.6.473.836.2.3.4.607.579.919A10.911,10.911,0,0,1,624.747,518.026Z" transform="translate(20662.182 1658.871)"/><path class="j" d="M481.714,543.028a1.239,1.239,0,0,1-.223.808,1.094,1.094,0,0,1-.468.278c-2.582.925-5.57-.228-8.146.682-.529.187-1.03.457-1.562.635a8.5,8.5,0,0,1-1.949.345c-.911.086-1.827.142-2.74.167a6.587,6.587,0,0,1-2.066-.181,2.481,2.481,0,0,1-1.585-1.256,1.206,1.206,0,0,1-.078-.894.965.965,0,0,1,.17-.278,2.444,2.444,0,0,1,.607-.493l.95-.613a6.375,6.375,0,0,1,1.44-.763c.376-.123.774-.175,1.156-.279a7.845,7.845,0,0,0,3.3-2.465l1.292-1.379a1.3,1.3,0,0,1,.448-.359,1.241,1.241,0,0,1,.557-.053,7.446,7.446,0,0,1,3.523,1.181,4.563,4.563,0,0,0,.869.512,3.1,3.1,0,0,0,2.428-.3c.331-.178.259-.279.4-.6s.479-.521.774-.231a.818.818,0,0,1,.184.351,9.879,9.879,0,0,1,.173,2.871,1.265,1.265,0,0,0,.056.446,2.521,2.521,0,0,0,.253.412.94.94,0,0,1,.053.106A2.832,2.832,0,0,1,481.714,543.028Z" transform="translate(20777.533 1640.682)"/><path class="k" d="M481.714,555.343a1.239,1.239,0,0,1-.223.808,1.094,1.094,0,0,1-.468.278c-2.582.925-5.57-.228-8.146.682-.529.187-1.03.457-1.562.635a8.5,8.5,0,0,1-1.949.345c-.911.086-1.827.142-2.74.167a6.591,6.591,0,0,1-2.066-.181,2.482,2.482,0,0,1-1.585-1.256,1.205,1.205,0,0,1-.078-.894.965.965,0,0,1,.17-.279c.15.315.259.732.354.883a1.807,1.807,0,0,0,1.209.872,3,3,0,0,0,1.114-.142c2.339-.579,4.826-.588,7.074-1.465a16.35,16.35,0,0,1,2.317-.891,18.215,18.215,0,0,1,2.506-.2c1.32-.106,2.6-.5,3.9-.713A2.831,2.831,0,0,1,481.714,555.343Z" transform="translate(20777.533 1628.366)"/><path class="j" d="M613.345,522.227a4.694,4.694,0,0,1-1.426,2.54,16.607,16.607,0,0,0-2,2.183c-.668,1.022-.969,2.289-1.838,3.153a5.039,5.039,0,0,1-1.114.794,7.776,7.776,0,0,1-1.434.66,10.7,10.7,0,0,1-4.052.22,3.647,3.647,0,0,1-1.287-.248,3.869,3.869,0,0,1-.535-.329,2.554,2.554,0,0,1-.836-.835.835.835,0,0,1-.081-.607,1.426,1.426,0,0,1,.387-.59,9.187,9.187,0,0,1,.98-.883,5.866,5.866,0,0,0,1.276-1.114,3.6,3.6,0,0,0,.493-1.114,9.88,9.88,0,0,0,.359-2.13,6.755,6.755,0,0,1,.148-1.426c.206-.735.752-1.392.691-2.153a.537.537,0,0,1,.028-.326.454.454,0,0,1,.256-.159,4.542,4.542,0,0,1,1.331-.309,1.551,1.551,0,0,1,1.237.484c.189.228.315.557.593.646a.94.94,0,0,0,.423.017,3.547,3.547,0,0,0,1.949-.6,2.431,2.431,0,0,0,.808-1.774c0-.253-.114-.518.278-.557.3-.039.529.279.68.474a6.6,6.6,0,0,1,1.3,2.373.7.7,0,0,1,.248-.047,1.078,1.078,0,0,1,.888.454A1.768,1.768,0,0,1,613.345,522.227Z" transform="translate(20679.496 1654.5)"/><path class="k" d="M613.618,529.379a4.694,4.694,0,0,1-1.426,2.54,16.612,16.612,0,0,0-2,2.183c-.668,1.022-.969,2.289-1.838,3.153a5.041,5.041,0,0,1-1.114.794,7.772,7.772,0,0,1-1.434.66,10.7,10.7,0,0,1-4.052.22,3.646,3.646,0,0,1-1.287-.248,3.872,3.872,0,0,1-.535-.329,2.554,2.554,0,0,1-.835-.835,2.036,2.036,0,0,1,.835-.2c.6.034,1.042.6,1.618.777.822.248,1.64-.331,2.473-.529.543-.128,1.114-.095,1.651-.278a4.083,4.083,0,0,0,1.223-.741,6.22,6.22,0,0,0,1.306-1.259,8.089,8.089,0,0,0,.766-1.529,21.862,21.862,0,0,1,1.548-2.963,2.094,2.094,0,0,1,.315-.412,4.377,4.377,0,0,1,.426-.309,3.237,3.237,0,0,0,.983-1.793,3.14,3.14,0,0,1,.22-.6,1.078,1.078,0,0,1,.888.454A1.768,1.768,0,0,1,613.618,529.379Z" transform="translate(20679.223 1647.349)"/><path class="k" d="M556.62,320.79" transform="translate(20709.873 1796.622)"/><path class="k" d="M478.8,337.115c.368,1.392-.164,2.857-.6,4.236a32.834,32.834,0,0,0-1.331,6.377,5.521,5.521,0,0,1-.329,1.613c-.206.465-.557.858-.8,1.3a6.532,6.532,0,0,0-.5,3.916c.095.877.237,1.752.412,2.615a6.614,6.614,0,0,1,.17,3.189c.518-.114.869.557.835,1.083a2.891,2.891,0,0,0,.05,1.568c.641.234.646,1.114.627,1.8a15.108,15.108,0,0,0,.446,3.509q1.454,6.99,3.086,13.941c2.353.73,5.1,1.49,7.347.479a1.474,1.474,0,0,0,.93-.936,1.634,1.634,0,0,0-.089-.719l-1.064-3.871a7.107,7.107,0,0,1-.382-2.863c.1-.716.415-1.487.064-2.119-.12-.217-.309-.387-.448-.593-.557-.816-.265-1.908-.22-2.9a2.3,2.3,0,0,0-.045-.663,3.312,3.312,0,0,0-.318-.727,11.117,11.117,0,0,1-1.225-5.531,1.366,1.366,0,0,0-.1-.721,2.337,2.337,0,0,1-.181-.3.808.808,0,0,1,.059-.532,4.873,4.873,0,0,1-.858-.836,1.2,1.2,0,0,0,.206-1.877.627.627,0,0,0,.3-1.078c-.136-.095-.318-.136-.415-.279-.15-.206-.028-.493.095-.713l.649-1.172c.485-.872.593-1.949,1.114-2.785A20.872,20.872,0,0,0,488,347.617l1.874-5.172,1.262,1.094a3.99,3.99,0,0,1,1.036,1.181,5.1,5.1,0,0,1,.337,1.415c.462,2.807,2.228,5.241,2.882,8.007a5.274,5.274,0,0,0,.6,1.788,3.9,3.9,0,0,1,.34.512,2.718,2.718,0,0,1,.142.849,3.963,3.963,0,0,0,1.671,2.841c.621.426,1.392.719,1.729,1.392a2.6,2.6,0,0,0,.279.593c.3.362.95.4,1.078.858.072.253-.061.557.081.78a.738.738,0,0,0,.309.231l1.813.905c2.027,1.014,3.063,3.342,4.559,5.038a10.863,10.863,0,0,1,1.365,1.8c.646,1.156.944,2.607,2.036,3.342a3.081,3.081,0,0,1,.791.588c.342.451.217,1.083.248,1.651s.465,1.245,1.005,1.072a3.963,3.963,0,0,0,0,2.1,10.583,10.583,0,0,0,6.422-2.6,2.534,2.534,0,0,0,1.044-1.755.629.629,0,0,0-.078-.348.994.994,0,0,0-.409-.309c-1.7-.919-2.206-3.049-3.063-4.779a41.4,41.4,0,0,0-2.785-4.258c-2.016-3.049-3.392-6.74-6.442-8.753a4.384,4.384,0,0,1-1.788-1.568c-.187-.409-.209-.877-.356-1.3a1.129,1.129,0,0,0-.952-.835,5.836,5.836,0,0,0,.217-2.022,2.554,2.554,0,0,0-.1-.872,4.241,4.241,0,0,0-.448-.863,8.283,8.283,0,0,1-1.147-4.456,7.306,7.306,0,0,0-.078-2.4c-.122-.387-.337-.741-.485-1.114a6.962,6.962,0,0,1-.348-2.094l-.167-2.676a13.169,13.169,0,0,0-.345-2.646c-.557-2.078-1.114-10.78-3.022-11.761s-5.185,5.717-7.333,5.848a9.548,9.548,0,0,0-2.785.537,13.568,13.568,0,0,0-3.793,2.506l-3.949,3.317A14.55,14.55,0,0,1,478.8,337.115Z" transform="translate(20768.645 1795.043)"/><path class="l" d="M308.263,365.979V362.52a9.6,9.6,0,0,0-9.6-9.6h-136.6a9.6,9.6,0,0,0-9.6,9.6V368.9Z" transform="translate(21001.477 1773.44)"/><ellipse class="e" cx="10.505" cy="22.53" rx="10.505" ry="22.53" transform="translate(21273.25 2129.652) rotate(-7.1)"/><g transform="translate(21185.082 2061)"><path class="m" d="M323.366,283.117s-.39,24.19,3.9,32.149,6.127,42.584,6.127,42.584,44.96,4.651,76.29-5.57,98-14.4,98-14.4l-11.234-75.72s-55.5-3.559-87.074,11.5S323.366,283.117,323.366,283.117Z" transform="translate(-306.907 -221.812)"/><path class="e" d="M323.366,283.117s-.39,24.19,3.9,32.149,6.127,42.584,6.127,42.584,44.96,4.651,76.29-5.57,98-14.4,98-14.4l-11.234-75.72s-55.5-3.559-87.074,11.5S323.366,283.117,323.366,283.117Z" transform="translate(-306.907 -221.812)"/><path class="m" d="M358.4,305.8s-1.406,19.96,2.122,26.337,3.693,34.848,3.693,34.848,40.462,1.877,69.245-7.92,89.265-16.153,89.265-16.153l-6.873-61.923s-50.045-.515-79.254,13.276S358.4,305.8,358.4,305.8Z" transform="translate(-331.994 -235.663)"/><path class="n" d="M425.5,130.66s-53.919,13.646-79.345,37.666S267.2,203.72,267.2,203.72s7.051,23.14,13.574,29.4,18.893,38.655,18.893,38.655,44.216-9.374,70.9-28.724,88.859-43.787,88.859-43.787Z" transform="translate(-266.39 -127.198)"/><path class="m" d="M264.29,191.287s7.049,23.143,13.565,29.4,18.893,38.652,18.893,38.652,44.222-9.371,70.9-28.721,88.856-43.779,88.856-43.779L422.585,118.23s-53.916,13.646-79.343,37.666S264.29,191.287,264.29,191.287Z" transform="translate(-264.29 -118.23)"/><path class="e" d="M264.29,191.287s7.049,23.143,13.565,29.4,18.893,38.652,18.893,38.652,44.222-9.371,70.9-28.721,88.856-43.779,88.856-43.779L422.585,118.23s-53.916,13.646-79.343,37.666S264.29,191.287,264.29,191.287Z" transform="translate(-264.29 -118.23)"/><path class="m" d="M308,213.435s4.787,19.43,10.1,24.415,14.2,32.027,14.2,32.027,39.084-10.633,63.471-28.791,80.008-42.74,80.008-42.74L450.246,141.5s-47.787,14.863-71.355,36.953S308,213.435,308,213.435Z" transform="translate(-295.827 -135.019)"/></g><ellipse class="e" cx="10.505" cy="22.53" rx="10.505" ry="22.53" transform="translate(21255.586 2119.046) rotate(-24.97)"/><path class="e" d="M311.972,386.906v96.08a8.307,8.307,0,0,1-8.31,8.307H160.795a8.307,8.307,0,0,1-8.3-8.307V377.22c4.094,1.521,4.094,1.521,8.3,1.392H303.662a8.31,8.31,0,0,1,8.31,8.294Z" transform="translate(21001.455 1755.907)"/><path class="o" d="M311.972,391.289v96.08a8.31,8.31,0,0,1-8.31,8.307H160.795a8.307,8.307,0,0,1-8.3-8.307V381.6c4.094,1.518,4.094,1.518,8.3,1.392H303.662A8.31,8.31,0,0,1,311.972,391.289Z" transform="translate(21001.455 1752.747)"/><path class="e" d="M606.683,543.936v30.726h-29.8a15.364,15.364,0,1,1,0-30.728Z" transform="translate(20706.338 1635.621)"/><path class="l" d="M608.143,541v30.732h-29.8a15.364,15.364,0,1,1,0-30.728Z" transform="translate(20705.285 1637.739)"/><circle class="e" cx="5.99" cy="5.99" r="5.99" transform="translate(21279.068 2188.931)"/><circle class="d" cx="5.99" cy="5.99" r="5.99" transform="translate(21279.473 2188.118)"/></g></g></svg>